<svg width="72" height="72" viewBox="0 0 72 72" fill="none" xmlns="http://www.w3.org/2000/svg">
<path d="M11.25 15.75C27.585 15.75 43.92 15.75 60.75 15.75C60.75 29.115 60.75 42.48 60.75 56.25C44.415 56.25 28.08 56.25 11.25 56.25C11.25 42.885 11.25 29.52 11.25 15.75ZM25.9475 22.5154C25.5483 22.9741 25.1963 23.4472 24.8555 23.9502C24.8009 24.03 24.7463 24.1097 24.6901 24.1919C24.3173 24.7643 24.0281 25.361 23.7443 25.9822C23.6691 26.1466 23.5939 26.3109 23.5163 26.4802C23.4594 26.6053 23.4024 26.7305 23.3438 26.8594C23.2364 26.8602 23.129 26.861 23.0184 26.8619C22.0046 26.87 20.9909 26.8802 19.9771 26.8925C19.456 26.8988 18.9349 26.9043 18.4137 26.9081C17.9104 26.9118 17.4071 26.9174 16.9038 26.9245C16.7121 26.9268 16.5205 26.9285 16.3289 26.9294C16.0596 26.9307 15.7904 26.9349 15.5211 26.9392C15.2916 26.9415 15.2916 26.9415 15.0575 26.9439C14.5445 27.0104 14.214 27.1385 13.7812 27.4219C13.5176 27.8845 13.4643 28.2843 13.4614 28.8111C13.46 28.9434 13.4587 29.0758 13.4573 29.2122C13.4574 29.3535 13.4576 29.4949 13.4577 29.6406C13.4571 29.7874 13.4565 29.9342 13.4559 30.0855C13.4551 30.3955 13.455 30.7056 13.4556 31.0156C13.4561 31.489 13.4528 31.9623 13.4492 32.4358C13.4489 32.7374 13.4488 33.0391 13.4489 33.3408C13.4476 33.4818 13.4463 33.6229 13.445 33.7683C13.4499 34.5124 13.4657 35.096 13.9219 35.7188C14.457 35.9917 14.9092 36.0376 15.5052 36.0448C15.7669 36.049 15.7669 36.049 16.034 36.0533C16.2229 36.055 16.4119 36.0566 16.6009 36.0582C16.7954 36.0609 16.9898 36.0636 17.1843 36.0665C17.6945 36.0737 18.2047 36.0793 18.715 36.0845C19.2363 36.0901 19.7576 36.0973 20.2788 36.1044C21.3005 36.118 22.3221 36.1298 23.3438 36.1406C23.4202 36.2951 23.4966 36.4496 23.5753 36.6087C23.677 36.8134 23.7787 37.0181 23.8804 37.2228C23.9306 37.3243 23.9808 37.4259 24.0325 37.5306C25.6354 40.7509 28.3822 43.1335 31.7812 44.2969C34.8771 45.3177 38.1557 45.0983 41.1686 43.9333C41.3331 43.8698 41.4976 43.8063 41.6671 43.7408C41.7924 43.6923 41.9178 43.6438 42.0469 43.5938C42.133 43.6817 42.2191 43.7697 42.3078 43.8603C43.1246 44.6942 43.9435 45.5259 44.7647 46.3553C45.1867 46.7817 45.6079 47.2088 46.0273 47.6378C46.433 48.0528 46.8408 48.4655 47.25 48.877C47.4048 49.0333 47.5589 49.1904 47.7121 49.3482C48.7581 50.4243 49.9218 51.529 51.483 51.7165C52.6297 51.6923 53.4613 51.5473 54.4219 50.9062C54.5495 50.8279 54.6771 50.7496 54.8086 50.6689C55.6758 49.7777 56.1289 48.7731 56.1709 47.54C56.1794 47.3676 56.1879 47.1953 56.1967 47.0176C56.0693 45.3224 54.7615 44.0988 53.6144 42.9851C53.4546 42.8269 53.295 42.6685 53.1356 42.51C52.72 42.0975 52.3018 41.6876 51.8831 41.2783C51.4545 40.8584 51.0283 40.436 50.6019 40.0139C49.7682 39.1891 48.9319 38.3671 48.0938 37.5469C48.2794 37.0828 48.465 36.6187 48.6562 36.1406C48.8173 36.1394 48.8173 36.1394 48.9816 36.1381C49.9954 36.13 51.0091 36.1198 52.0229 36.1075C52.544 36.1012 53.0651 36.0957 53.5863 36.0919C54.0896 36.0882 54.5929 36.0826 55.0962 36.0755C55.2879 36.0732 55.4795 36.0715 55.6711 36.0706C55.9404 36.0693 56.2096 36.0651 56.4789 36.0608C56.6319 36.0592 56.7849 36.0577 56.9425 36.0561C57.4555 35.9896 57.786 35.8615 58.2188 35.5781C58.4824 35.1155 58.5357 34.7157 58.5386 34.1889C58.54 34.0566 58.5413 33.9242 58.5427 33.7878C58.5426 33.6465 58.5424 33.5051 58.5423 33.3594C58.5429 33.2126 58.5435 33.0658 58.5441 32.9145C58.5449 32.6045 58.545 32.2944 58.5444 31.9844C58.5439 31.511 58.5472 31.0377 58.5508 30.5642C58.5511 30.2626 58.5512 29.9609 58.5511 29.6592C58.553 29.4476 58.553 29.4476 58.555 29.2317C58.5501 28.4876 58.5343 27.904 58.0781 27.2812C57.543 27.0083 57.0908 26.9624 56.4948 26.9552C56.2331 26.951 56.2331 26.951 55.966 26.9467C55.7771 26.945 55.5881 26.9434 55.3991 26.9418C55.2046 26.9391 55.0102 26.9364 54.8157 26.9335C54.3055 26.9263 53.7953 26.9207 53.285 26.9155C52.7637 26.9099 52.2425 26.9027 51.7212 26.8956C50.6995 26.882 49.6779 26.8702 48.6562 26.8594C48.5448 26.6323 48.5448 26.6323 48.4312 26.4006C48.3312 26.1983 48.2312 25.996 48.1311 25.7937C48.0825 25.6943 48.0338 25.595 47.9837 25.4926C46.4371 22.3743 43.8958 20.0829 40.6406 18.8438C35.2555 17.0808 29.8951 18.4685 25.9475 22.5154ZM13.5 42.75C13.5 43.4925 13.5 44.235 13.5 45C17.5838 45 21.6675 45 25.875 45C25.875 44.2575 25.875 43.515 25.875 42.75C21.7913 42.75 17.7075 42.75 13.5 42.75ZM13.5 47.25C13.5 47.9925 13.5 48.735 13.5 49.5C21.6675 49.5 29.835 49.5 38.25 49.5C38.25 48.7575 38.25 48.015 38.25 47.25C30.0825 47.25 21.915 47.25 13.5 47.25ZM13.5 51.75C13.5 52.4925 13.5 53.235 13.5 54C20.1825 54 26.865 54 33.75 54C33.75 53.2575 33.75 52.515 33.75 51.75C27.0675 51.75 20.385 51.75 13.5 51.75ZM36 51.75C36 52.4925 36 53.235 36 54C36.7425 54 37.485 54 38.25 54C38.25 53.2575 38.25 52.515 38.25 51.75C37.5075 51.75 36.765 51.75 36 51.75Z" fill="#0065FF"/>
<path d="M3.37508 58.5C10.0576 58.5 16.7401 58.5 23.6251 58.5C23.7643 59.2889 23.9035 60.0778 24.047 60.8906C24.3254 61.3083 24.3254 61.3083 24.6095 61.7344C24.6095 61.8272 24.6095 61.92 24.6095 62.0156C25.6613 62.5626 26.5863 62.876 27.7764 62.8782C27.9272 62.8788 28.0779 62.8794 28.2333 62.88C28.3966 62.8799 28.5599 62.8799 28.7281 62.8798C28.9018 62.8803 29.0754 62.8807 29.2544 62.8812C29.7291 62.8823 30.2039 62.8828 30.6787 62.8829C30.9758 62.883 31.273 62.8833 31.5701 62.8837C32.6083 62.885 33.6465 62.8855 34.6846 62.8854C35.6499 62.8853 36.6152 62.8868 37.5804 62.8891C38.4112 62.8909 39.242 62.8916 40.0727 62.8916C40.568 62.8915 41.0633 62.8919 41.5585 62.8934C42.1115 62.895 42.6645 62.8944 43.2174 62.8935C43.3799 62.8943 43.5423 62.8951 43.7097 62.8959C44.9702 62.891 46.1003 62.8413 47.1095 62.0156C48.1478 60.9686 48.159 60.0126 48.3751 58.5C55.0576 58.5 61.7401 58.5 68.6251 58.5C68.6251 63.3425 68.6251 63.3425 67.7863 64.2997C67.6947 64.3755 67.6032 64.4512 67.5089 64.5293C67.4177 64.6072 67.3265 64.6852 67.2326 64.7655C66.5697 65.2222 66.0042 65.2853 65.2067 65.2862C65.0529 65.2869 65.0529 65.2869 64.8959 65.2877C64.5512 65.289 64.2065 65.2883 63.8618 65.2876C63.6126 65.2881 63.3634 65.2888 63.1142 65.2895C62.4285 65.2913 61.7428 65.2912 61.0571 65.2909C60.3179 65.2908 59.5788 65.2924 58.8396 65.2937C57.3911 65.2961 55.9426 65.2968 54.4941 65.297C53.3168 65.2971 52.1396 65.2977 50.9624 65.2986C47.6261 65.3011 44.2897 65.3024 40.9534 65.3022C40.6835 65.3021 40.6835 65.3021 40.4082 65.3021C40.228 65.3021 40.0479 65.3021 39.8623 65.3021C36.9422 65.302 34.0222 65.3047 31.1021 65.3086C28.1051 65.3127 25.1081 65.3146 22.111 65.3144C20.4279 65.3143 18.7448 65.315 17.0617 65.3181C15.6288 65.3206 14.1958 65.3212 12.7628 65.3193C12.0316 65.3184 11.3004 65.3184 10.5691 65.3208C9.89973 65.323 9.23037 65.3227 8.56096 65.3202C8.3188 65.3198 8.07663 65.3203 7.83447 65.3218C5.38147 65.3366 5.38147 65.3366 4.3254 64.4112C4.24962 64.3197 4.17385 64.2281 4.09578 64.1338C4.01783 64.0426 3.93989 63.9514 3.85958 63.8575C2.75883 62.2599 3.37508 60.5178 3.37508 58.5Z" fill="#0065FF"/>
<path d="M11.25 6.75C27.585 6.75 43.92 6.75 60.75 6.75C60.75 8.9775 60.75 11.205 60.75 13.5C44.415 13.5 28.08 13.5 11.25 13.5C11.25 11.2725 11.25 9.045 11.25 6.75ZM13.5 9C13.5 9.7425 13.5 10.485 13.5 11.25C14.2425 11.25 14.985 11.25 15.75 11.25C15.75 10.5075 15.75 9.765 15.75 9C15.0075 9 14.265 9 13.5 9ZM18 9C18 9.7425 18 10.485 18 11.25C18.7425 11.25 19.485 11.25 20.25 11.25C20.25 10.5075 20.25 9.765 20.25 9C19.5075 9 18.765 9 18 9ZM22.5 9C22.5 9.7425 22.5 10.485 22.5 11.25C23.2425 11.25 23.985 11.25 24.75 11.25C24.75 10.5075 24.75 9.765 24.75 9C24.0075 9 23.265 9 22.5 9ZM36 9C36 9.7425 36 10.485 36 11.25C43.425 11.25 50.85 11.25 58.5 11.25C58.5 10.5075 58.5 9.765 58.5 9C51.075 9 43.65 9 36 9Z" fill="#0065FF"/>
<path d="M42.9176 22.4649C43.0975 22.6158 43.2762 22.7682 43.4538 22.9219C43.5652 23.0058 43.6767 23.0898 43.7916 23.1762C45.1585 24.3294 46.0617 25.9116 46.6881 27.5625C46.749 27.7188 46.8099 27.8751 46.8727 28.036C47.7911 30.8487 47.4255 33.9937 46.152 36.6153C45.7142 37.472 45.2096 38.2246 44.5788 38.9532C44.4772 39.0924 44.3757 39.2316 44.2711 39.375C42.788 41.1069 40.0767 42.4844 37.8288 42.75C34.5158 42.9957 31.4229 42.498 28.8139 40.3089C28.726 40.2327 28.6381 40.1566 28.5475 40.0782C28.3803 39.9523 28.3803 39.9523 28.2097 39.8238C26.8428 38.6707 25.9396 37.0885 25.3131 35.4375C25.2522 35.2813 25.1913 35.125 25.1286 34.964C24.2101 32.1513 24.5759 29.0065 25.8493 26.3848C26.2864 25.5287 26.7922 24.7747 27.4225 24.0469C27.5081 23.9338 27.5936 23.8207 27.6818 23.7041C31.3703 19.3207 38.5441 19.0923 42.9176 22.4649ZM29.567 25.1983C27.6886 27.2356 26.9645 29.5561 27.0737 32.2938C27.2402 34.6511 28.3871 36.6415 30.0944 38.25C31.9793 39.803 34.2082 40.5832 36.6521 40.4781C39.0178 40.2029 41.3782 39.1657 42.8913 37.2657C44.5773 35.0215 45.1682 32.7609 44.86 29.9532C44.47 27.6471 43.0986 25.5827 41.2125 24.2139C37.404 21.716 32.9354 22.1397 29.567 25.1983Z" fill="#0065FF"/>
<path d="M63 15.75C63.5569 15.75 64.1137 15.75 64.6875 15.75C65.25 16.3125 65.25 16.3125 65.3199 16.6384C65.3196 16.7595 65.3194 16.8807 65.3192 17.0054C65.3203 17.1457 65.3215 17.2859 65.3226 17.4304C65.321 17.5842 65.3193 17.7379 65.3176 17.8963C65.3181 18.0599 65.3186 18.2235 65.3191 18.392C65.3199 18.8461 65.3181 19.3001 65.3153 19.7542C65.3129 20.2439 65.3137 20.7335 65.3141 21.2231C65.3144 22.0715 65.3126 22.9199 65.3095 23.7682C65.3049 24.9948 65.3034 26.2214 65.3027 27.448C65.3015 29.438 65.2978 31.4281 65.2924 33.4181C65.2873 35.3513 65.2833 37.2845 65.2809 39.2178C65.2808 39.3369 65.2806 39.456 65.2805 39.5788C65.2797 40.1765 65.279 40.7742 65.2783 41.3719C65.2725 46.3313 65.2625 51.2906 65.25 56.25C64.5075 56.25 63.765 56.25 63 56.25C63 42.885 63 29.52 63 15.75Z" fill="#0065FF"/>
<path d="M7.31284 15.75C7.86972 15.75 8.42659 15.75 9.00034 15.75C9.00034 29.115 9.00034 42.48 9.00034 56.25C8.25784 56.25 7.51534 56.25 6.75034 56.25C6.73752 51.1718 6.72756 46.0936 6.72162 41.0153C6.72091 40.4161 6.72019 39.8169 6.71944 39.2178C6.7193 39.0985 6.71915 38.9792 6.719 38.8563C6.71655 36.9234 6.71211 34.9905 6.70694 33.0575C6.70169 31.075 6.69856 29.0925 6.69742 27.1099C6.69665 25.8861 6.6942 24.6622 6.68964 23.4383C6.68667 22.5997 6.68577 21.7611 6.6865 20.9224C6.68686 20.4382 6.6863 19.954 6.68329 19.4697C6.68051 18.9452 6.68116 18.4208 6.6827 17.8963C6.68024 17.6657 6.68024 17.6657 6.67773 17.4304C6.67885 17.2902 6.67997 17.1499 6.68113 17.0054C6.68091 16.8843 6.6807 16.7632 6.68048 16.6384C6.75034 16.3125 6.75034 16.3125 7.31284 15.75Z" fill="#0065FF"/>
<path d="M29.5306 29.25C33.8 29.25 38.0694 29.25 42.4681 29.25C42.7851 30.2009 42.7851 30.2009 42.7867 30.7617C42.7873 30.9423 42.7873 30.9423 42.7878 31.1265C42.7868 31.2497 42.7857 31.373 42.7845 31.5C42.7862 31.6849 42.7862 31.6849 42.7878 31.8735C42.7875 31.9939 42.7871 32.1143 42.7867 32.2383C42.7864 32.3463 42.7861 32.4544 42.7858 32.5657C42.7494 32.9062 42.7494 32.9062 42.4681 33.75C38.1988 33.75 33.9294 33.75 29.5306 33.75C29.2137 32.7991 29.2137 32.7991 29.212 32.2383C29.2117 32.1179 29.2113 31.9975 29.2109 31.8735C29.212 31.7503 29.2131 31.627 29.2142 31.5C29.2131 31.3767 29.2121 31.2535 29.2109 31.1265C29.2113 31.0061 29.2117 30.8857 29.212 30.7617C29.2124 30.6537 29.2127 30.5456 29.213 30.4343C29.2494 30.0938 29.2494 30.0938 29.5306 29.25Z" fill="#0065FF"/>
<path d="M46.8281 39.375C47.6553 40.0633 48.4219 40.8011 49.1858 41.5585C49.3788 41.7499 49.3788 41.7499 49.5758 41.9451C49.8465 42.2137 50.1168 42.4826 50.387 42.7518C50.7318 43.0949 51.0781 43.4365 51.4249 43.7776C51.7579 44.106 52.0889 44.4364 52.4202 44.7665C52.5441 44.888 52.668 45.0095 52.7957 45.1346C53.4976 45.839 54.0596 46.4253 54.1807 47.4478C54.0912 48.2897 53.8123 48.8158 53.1562 49.3594C52.5894 49.6617 52.0323 49.7166 51.4024 49.6182C50.9611 49.4715 50.7286 49.2605 50.3894 48.9433C50.2665 48.8287 50.1436 48.7142 50.017 48.5961C49.4183 48.0207 48.8274 47.4385 48.2421 46.8495C48.1161 46.7234 47.9901 46.5972 47.8603 46.4672C47.5304 46.1366 47.2008 45.8058 46.8713 45.4747C46.5331 45.1351 46.1944 44.7958 45.8558 44.4565C45.1952 43.7943 44.5349 43.1317 43.875 42.4688C44.2129 42.0395 44.5326 41.6627 44.9561 41.3174C45.6465 40.7296 46.2342 40.0582 46.8281 39.375Z" fill="#0065FF"/>
<path d="M25.875 58.5C32.5575 58.5 39.24 58.5 46.125 58.5C46.125 59.0569 46.125 59.6137 46.125 60.1875C45.4922 60.8203 45.4922 60.8203 44.7726 60.8214C44.6117 60.823 44.4508 60.8246 44.2851 60.8262C44.1091 60.8251 43.9332 60.824 43.752 60.8228C43.5644 60.8235 43.3768 60.8245 43.1892 60.8258C42.6801 60.8283 42.1711 60.8273 41.6621 60.8256C41.1293 60.8241 40.5966 60.8255 40.0638 60.8263C39.1692 60.8274 38.2745 60.826 37.3799 60.8233C36.3456 60.8203 35.3113 60.8213 34.277 60.8244C33.3889 60.8269 32.5009 60.8273 31.6128 60.8258C31.0824 60.8249 30.552 60.8248 30.0217 60.8267C29.523 60.8283 29.0244 60.8272 28.5258 60.8239C28.2555 60.8228 27.9852 60.8245 27.7149 60.8262C27.4736 60.8239 27.4736 60.8239 27.2274 60.8214C27.0876 60.8212 26.9478 60.821 26.8038 60.8208C26.4375 60.75 26.4375 60.75 25.875 60.1875C25.875 59.6306 25.875 59.0738 25.875 58.5Z" fill="#0065FF"/>
<path d="M49.2188 29.25C51.5391 29.25 53.8594 29.25 56.25 29.25C56.25 30.735 56.25 32.22 56.25 33.75C53.9297 33.75 51.6094 33.75 49.2188 33.75C49.2188 32.265 49.2188 30.78 49.2188 29.25Z" fill="#0065FF"/>
<path d="M15.75 29.25C18.0703 29.25 20.3906 29.25 22.7812 29.25C22.7812 30.735 22.7812 32.22 22.7812 33.75C20.4609 33.75 18.1406 33.75 15.75 33.75C15.75 32.265 15.75 30.78 15.75 29.25Z" fill="#0065FF"/>
<path d="M35.9736 24.6885C36.1582 24.6902 36.1582 24.6902 36.3465 24.692C37.9662 24.7341 39.2699 25.225 40.5 26.2969C40.6856 26.5289 40.8713 26.7609 41.0625 27C37.7213 27 34.38 27 30.9375 27C31.8916 25.8868 31.8916 25.8868 32.5283 25.5586C32.6496 25.4941 32.7709 25.4295 32.8958 25.363C33.9345 24.9037 34.8339 24.6744 35.9736 24.6885Z" fill="#0065FF"/>
<path d="M30.9375 36C34.2787 36 37.62 36 41.0625 36C40.1084 37.1132 40.1084 37.1132 39.4717 37.4414C39.2898 37.5382 39.2898 37.5382 39.1042 37.637C38.0655 38.0963 37.1661 38.3256 36.0264 38.3115C35.9033 38.3104 35.7802 38.3092 35.6535 38.308C34.0338 38.2659 32.7301 37.775 31.5 36.7031C31.3144 36.4711 31.1287 36.2391 30.9375 36Z" fill="#0065FF"/>
</svg>
