<svg width="252" height="252" viewBox="0 0 252 252" fill="none" xmlns="http://www.w3.org/2000/svg">
<g opacity="0.4">
<path d="M136.981 19.595C140.183 22.2135 142.412 25.0743 143.718 29.0388C143.718 29.5261 143.718 30.0133 143.718 30.5154C144.114 30.5763 144.51 30.6372 144.918 30.6999C162.17 33.7266 178.001 41.9952 190.968 53.6482C191.686 54.2533 192.404 54.8583 193.122 55.4631C194.779 56.9171 196.218 58.5117 197.64 60.1947C198.372 61.0783 198.372 61.0783 199.335 62.0154C200.812 62.0358 202.26 62.0092 203.734 61.9539C209.946 61.8457 214.36 63.387 218.867 67.7371C222.661 71.8243 223.64 76.4354 223.589 81.8624C223.282 85.9303 221.751 89.1069 219.156 92.208C218.427 93.0667 218.427 93.0667 218.039 94.4997C218.218 95.5174 218.218 95.5174 218.585 96.6108C218.776 97.2391 218.776 97.2391 218.971 97.8801C219.11 98.3279 219.249 98.7757 219.392 99.2371C221.995 107.961 223.076 116.531 223.083 125.631C223.084 125.977 223.084 126.323 223.085 126.68C223.071 135.534 221.894 143.842 219.605 152.389C219.51 152.749 219.415 153.109 219.316 153.48C219.117 154.204 218.906 154.924 218.684 155.641C218.049 157.575 218.049 157.575 218.519 159.467C218.787 159.701 219.055 159.935 219.331 160.176C222.458 163.296 223.515 167.239 223.606 171.558C223.554 177.198 221.61 181.38 217.731 185.399C214.956 187.974 211.126 190.089 207.241 189.95C206.712 189.914 206.712 189.914 206.172 189.876C201.839 189.491 201.839 189.491 197.857 190.882C196.761 192.003 195.826 193.146 194.906 194.414C194.085 195.234 193.265 196.054 192.445 196.875C192.078 197.255 192.078 197.255 191.704 197.643C189.726 199.671 187.675 201.464 185.4 203.15C185.062 203.401 184.724 203.652 184.375 203.911C172.355 212.69 158.511 219.208 143.718 221.484C143.635 222.141 143.635 222.141 143.549 222.811C142.662 227.279 139.463 230.719 135.843 233.297C131.202 235.863 126.269 236.581 121.037 235.421C116.234 233.802 112.06 230.758 109.63 226.239C108.281 223.327 108.281 223.327 108.281 221.484C107.885 221.423 107.489 221.362 107.081 221.3C89.2879 218.178 70.9703 209.245 58.5698 195.89C58.1638 195.484 57.7577 195.078 57.3394 194.66C56.1089 193.429 56.1089 193.429 55.5206 192.512C54.6305 191.299 54.0092 190.691 52.6636 189.984C50.7292 189.747 48.7981 189.865 46.8555 189.941C41.6967 190.114 37.7771 188.552 33.9604 185.062C30.2319 181.463 28.5016 177.126 28.3926 171.989C28.4378 167.15 29.7417 163.498 32.8434 159.792C33.5719 158.933 33.5719 158.933 33.9604 157.5C33.781 156.482 33.781 156.482 33.4144 155.389C33.2233 154.76 33.2233 154.76 33.0283 154.119C32.8197 153.448 32.8197 153.448 32.6069 152.762C30.0041 144.038 28.9234 135.469 28.9155 126.369C28.9152 126.022 28.9149 125.676 28.9145 125.319C28.9279 116.466 30.1048 108.158 32.3935 99.61C32.489 99.2502 32.5845 98.8903 32.6829 98.5196C32.8818 97.7958 33.0931 97.0753 33.3154 96.3583C33.9499 94.4245 33.9499 94.4245 33.4798 92.5329C33.2121 92.2988 32.9443 92.0647 32.6685 91.8235C29.5414 88.7036 28.4843 84.7603 28.3926 80.4416C28.4453 74.8011 30.3894 70.6194 34.2681 66.6008C37.0573 64.0117 40.8677 61.9358 44.766 62.0415C45.1218 62.0627 45.4775 62.0839 45.8441 62.1057C50.0918 62.4793 50.0918 62.4793 54.0325 61.2271C55.0038 60.2297 55.8066 59.2192 56.6011 58.0779C57.4214 57.2576 58.2417 56.4373 59.062 55.6169C59.3088 55.3473 59.5556 55.0777 59.8099 54.7998C71.9747 41.893 90.9467 33.1822 108.281 30.5154C108.365 29.8587 108.365 29.8587 108.45 29.1888C109.338 24.7183 112.537 21.2846 116.156 18.7029C122.803 14.9738 130.71 15.1648 136.981 19.595ZM116.759 28.114C114.845 31.0475 114.822 34.0034 115.171 37.406C116.017 40.4507 117.968 42.588 120.585 44.2966C123.552 45.7306 126.939 45.8405 130.108 44.9599C132.968 43.6759 135.045 41.5172 136.405 38.7057C137.373 35.7295 137.349 32.2212 136.059 29.3464C134.416 26.5504 132.027 24.6252 128.953 23.6248C123.682 22.9996 120.15 24.0327 116.759 28.114ZM60.9077 64.0764C60.2912 64.7006 59.6754 65.3256 59.062 65.9529C59.7439 67.408 60.5501 68.6527 61.4922 69.9519C64.1145 73.8757 65.0267 78.0005 64.4761 82.6872C63.4129 87.9843 61.3589 91.9829 56.9395 95.1765C51.8603 98.2652 46.608 98.5089 40.8511 97.4529C34.8091 115.627 34.1197 135.298 40.3589 153.562C40.6837 153.887 41.0086 154.212 41.3433 154.547C42.504 154.377 42.504 154.377 43.8042 154.054C49.4892 153.636 53.8453 154.581 58.441 158.015C62.0521 161.133 64.1555 165.331 64.5934 170.097C64.7472 176.12 63.0854 180.587 59.062 185.062C60.0872 187.327 61.652 188.806 63.3994 190.538C63.8967 191.031 63.8967 191.031 64.4041 191.534C69.6149 196.621 75.4558 200.564 81.7026 204.258C82.1339 204.518 82.1339 204.518 82.5738 204.784C90.2984 209.412 99.3843 212.717 108.281 214.101C108.389 213.756 108.496 213.411 108.608 213.055C110.389 207.725 113.027 203.972 118.071 201.304C122.655 199.232 127.971 199.167 132.704 200.793C137.611 202.936 140.79 206.197 142.851 211.092C143.21 212.088 143.483 213.071 143.718 214.101C163.4 210.134 179.104 200.287 192.937 186.047C192.255 184.591 191.449 183.347 190.507 182.048C187.885 178.124 186.972 173.999 187.523 169.312C188.586 164.015 190.64 160.017 195.06 156.823C200.139 153.734 205.391 153.491 211.148 154.547C217.188 136.379 217.877 116.694 211.64 98.4372C211.315 98.1124 210.99 97.7876 210.656 97.4529C209.495 97.6227 209.495 97.6227 208.195 97.9451C202.385 98.3724 197.438 97.365 192.937 93.5154C188.867 89.1771 187.321 84.7941 187.386 78.8786C187.734 74.7869 189.151 71.3423 191.868 68.2754C192.63 67.329 192.63 67.329 192.445 65.4607C191.829 64.5503 191.829 64.5503 190.947 63.7188C190.625 63.395 190.302 63.0711 189.97 62.7374C189.619 62.3976 189.269 62.0579 188.907 61.7078C188.37 61.1805 188.37 61.1805 187.821 60.6425C177.356 50.5279 158.96 37.8982 143.718 37.8982C143.61 38.2433 143.503 38.5885 143.391 38.9441C141.61 44.2748 138.972 48.0275 133.928 50.6951C129.344 52.768 124.028 52.8323 119.295 51.2065C114.388 49.0631 111.209 45.803 109.148 40.9071C108.789 39.912 108.516 38.9288 108.281 37.8982C90.9294 37.8982 72.4676 52.5704 60.9077 64.0764ZM38.2056 73.0588C36.3464 75.4319 35.5859 77.6917 35.437 80.7185C36.0724 84.5867 37.5952 87.3731 40.7261 89.7336C43.5441 91.4151 46.5134 91.4761 49.7104 91.0544C53.2783 90.0082 54.9491 87.8122 57.001 84.8406C58.102 81.7112 58.1854 78.1884 56.8164 75.1199C55.1737 72.3238 52.7847 70.3987 49.7104 69.3982C44.9946 68.8388 41.4428 69.4947 38.2056 73.0588ZM196.002 73.8875C194.087 76.8209 194.064 79.7768 194.414 83.1794C195.26 86.2241 197.21 88.3614 199.828 90.0701C202.794 91.504 206.181 91.614 209.35 90.7334C212.21 89.4493 214.288 87.2906 215.647 84.4791C216.615 81.5029 216.591 77.9947 215.301 75.1199C213.658 72.3238 211.269 70.3987 208.195 69.3982C202.924 68.773 199.392 69.8062 196.002 73.8875ZM37.5173 165.434C35.6023 168.368 35.5796 171.324 35.9292 174.726C36.7752 177.771 38.7259 179.908 41.3433 181.617C44.3094 183.051 47.6969 183.161 50.8659 182.28C53.726 180.996 55.8033 178.837 57.1625 176.026C58.1311 173.05 58.107 169.542 56.8164 166.667C55.1737 163.871 52.7847 161.946 49.7104 160.945C44.4399 160.32 40.9073 161.353 37.5173 165.434ZM196.967 164.329C194.513 167.834 193.92 170.461 194.414 174.726C195.266 177.772 197.207 179.906 199.828 181.617C202.794 183.051 206.181 183.161 209.35 182.28C212.268 180.97 214.259 178.762 215.731 175.957C216.721 172.359 216.587 169.768 215.085 166.359C213.451 163.689 211.226 161.802 208.195 160.945C203.783 160.368 200.011 160.906 196.967 164.329ZM116.759 211.208C114.845 214.141 114.822 217.097 115.171 220.5C116.017 223.544 117.968 225.682 120.585 227.39C123.552 228.824 126.939 228.934 130.108 228.054C132.968 226.77 135.045 224.611 136.405 221.799C137.373 218.823 137.349 215.315 136.059 212.44C134.416 209.644 132.027 207.719 128.953 206.719C123.682 206.093 120.15 207.126 116.759 211.208Z" fill="#BBDDFD"/>
<path d="M140.319 63.2766C142.495 65.0843 144.141 67.0456 145.72 69.3905C147.404 71.1458 149.072 71.7951 151.453 71.9411C153.009 71.9338 154.56 71.8856 156.115 71.8284C163.318 71.7123 168.242 72.8643 173.742 77.7654C178.227 82.5423 180.28 87.5578 180.131 94.0624C180.096 95.152 180.058 96.2415 180.015 97.3308C179.948 100.603 180.093 103.145 182.109 105.82C183.349 107.058 183.349 107.058 184.754 108.035C189.25 111.538 192.602 116.283 193.429 122.062C193.842 129.46 192.758 135.462 187.892 141.319C186.314 143.067 184.558 144.408 182.609 145.72C180.85 147.408 180.204 149.075 180.058 151.461C180.068 153.557 180.149 155.646 180.241 157.74C180.396 163.951 178.148 168.387 174.603 173.311C171.416 176.643 166.972 179.219 162.421 180.14C161.506 180.158 160.591 180.148 159.676 180.119C159.145 180.109 158.614 180.098 158.067 180.088C156.958 180.061 155.849 180.029 154.741 179.991C151.453 179.939 148.865 180.081 146.179 182.109C144.941 183.35 144.941 183.35 143.964 184.755C140.72 188.934 136.446 192.118 131.179 193.274C123.956 194.179 117.592 193.135 111.68 188.723C109.504 186.915 107.858 184.954 106.279 182.609C104.592 180.85 102.924 180.204 100.538 180.058C98.4424 180.068 96.3529 180.149 94.2592 180.241C88.8783 180.375 84.5809 178.832 80.2261 175.711C79.7287 175.355 79.2312 175 78.7188 174.634C75.1351 171.49 72.6061 167.114 71.8589 162.422C71.7719 159.793 71.8131 157.166 71.9311 154.539C72.0373 151.294 71.8842 148.835 69.8901 146.179C68.6497 144.942 68.6497 144.942 67.2446 143.965C62.7494 140.462 59.3967 135.717 58.5698 129.937C58.1566 122.539 59.2412 116.537 64.1069 110.68C65.6851 108.933 67.4406 107.592 69.3903 106.28C71.1455 104.596 71.7948 102.927 71.9408 100.546C71.9335 98.9902 71.8853 97.4393 71.8281 95.884C71.712 88.6811 72.8641 83.7572 77.7651 78.2576C82.5421 73.7724 87.5576 71.7198 94.0621 71.8687C95.1517 71.9033 96.2412 71.9417 97.3305 71.9841C100.603 72.0511 103.144 71.9061 105.82 69.8904C107.058 68.65 107.058 68.65 108.035 67.2449C115.976 57.0546 130.077 55.6333 140.319 63.2766ZM115.664 69.3982C114.476 70.7284 113.386 72.1066 112.297 73.5183C109.311 77.1519 105.926 78.7254 101.267 79.2054C99.5764 79.251 97.9368 79.0888 96.2529 78.9343C91.7179 78.5844 88.2696 79.3377 84.6558 82.1951C81.4398 85.0188 79.4071 88.2697 78.7495 92.531C78.7295 93.9183 78.8552 95.2739 78.9956 96.6531C79.3888 101.733 78.9465 106.045 75.7964 110.25C74.3953 111.659 72.8985 112.924 71.3667 114.187C67.4938 117.708 65.7399 121.23 65.4604 126.492C65.6323 130.239 67.0519 133.432 69.3979 136.336C70.7296 137.525 72.1115 138.617 73.52 139.714C77.1179 142.642 78.7489 145.996 79.2417 150.609C79.2145 152.498 79.0542 154.376 78.9019 156.259C78.5918 160.57 79.4748 163.903 82.1948 167.344C85.0186 170.559 88.2695 172.592 92.5308 173.25C93.918 173.27 95.2737 173.144 96.6528 173.004C99.8674 172.751 102.718 172.71 105.82 173.742C106.155 173.852 106.49 173.961 106.835 174.075C110.047 175.398 111.996 178.035 114.187 180.633C117.712 184.502 121.226 186.259 126.492 186.539C130.239 186.367 133.432 184.947 136.335 182.601C137.525 181.27 138.617 179.888 139.713 178.479C142.642 174.881 145.996 173.25 150.609 172.758C152.498 172.785 154.376 172.945 156.259 173.097C160.57 173.408 163.903 172.524 167.343 169.804C170.559 166.981 172.592 163.73 173.25 159.469C173.27 158.081 173.144 156.726 173.003 155.346C172.751 152.132 172.71 149.281 173.742 146.179C173.851 145.844 173.961 145.509 174.074 145.164C175.398 141.952 178.035 140.004 180.632 137.812C184.502 134.287 186.259 130.773 186.539 125.508C186.367 121.761 184.947 118.567 182.601 115.664C181.269 114.475 179.887 113.382 178.479 112.286C174.881 109.357 173.25 106.003 172.757 101.39C172.785 99.5011 172.945 97.6231 173.097 95.7406C173.407 91.4292 172.524 88.096 169.804 84.656C166.988 81.449 163.722 79.3848 159.468 78.7498C156.994 78.6674 154.524 78.7729 152.052 78.8747C147.102 78.9813 143.816 77.6139 140.186 74.2835C139.302 73.3496 138.598 72.3972 137.874 71.3362C135.537 68.1022 132.321 66.4908 128.46 65.7068C123.574 65.1069 119.507 66.2926 115.664 69.3982Z" fill="#BBDDFD"/>
<path d="M151.593 92.531C160.521 99.855 166.6 109.408 167.835 121.078C168.679 132.972 165.854 143.658 158.336 153.001C150.9 161.477 141.159 167.109 129.753 167.919C117.649 168.484 106.893 165.262 97.7295 157.223C89.2345 149.171 84.3067 139.051 83.9895 127.27C83.8916 115.378 87.6972 105.307 95.8761 96.5858C110.654 81.5723 134.834 79.6557 151.593 92.531ZM99.852 102.928C92.7789 111.247 90.8658 120.778 91.5464 131.414C92.6019 139.892 97.6193 147.633 104.045 153.097C112.544 159.443 122.062 161.617 132.537 160.313C141.045 158.795 148.913 153.557 154.054 146.672C159.67 138.084 161.956 128.67 160.133 118.457C157.899 109.32 152.257 101.273 144.203 96.3698C129.357 87.6995 111.687 90.519 99.852 102.928Z" fill="#BBDDFD"/>
<path d="M147.225 108.989C148.64 109.265 148.64 109.265 149.809 110.034C150.958 111.758 150.989 112.643 150.609 114.679C149.625 116.02 148.427 117.051 147.164 118.125C146.879 118.38 146.594 118.636 146.3 118.9C144.773 120.262 143.21 121.584 141.651 122.91C141.069 123.407 140.486 123.903 139.904 124.4C139.459 124.78 139.459 124.78 139.004 125.167C137.062 126.832 135.164 128.535 133.29 130.276C131.058 132.349 128.743 134.291 126.369 136.199C124.41 137.821 122.553 139.542 120.691 141.273C119.427 142.396 118.906 142.695 117.232 142.919C115.11 142.669 114.652 141.829 113.203 140.273C112.672 139.718 112.141 139.163 111.611 138.608C108.215 135.005 104.968 131.351 101.882 127.476C101.72 127.314 101.557 127.151 101.39 126.984C101.211 125.085 101.114 123.952 102.19 122.339C103.731 121.325 104.499 121.237 106.312 121.57C107.512 122.585 107.512 122.585 108.773 124.031C109.324 124.578 109.877 125.121 110.434 125.661C112.854 128.081 115.111 130.626 117.14 133.383C119.041 132.596 120.38 131.305 121.847 129.906C123.733 128.14 125.64 126.444 127.661 124.831C129.823 123.092 131.856 121.256 133.875 119.355C136.368 117.009 138.905 114.783 141.586 112.651C142.553 111.872 143.455 111.062 144.364 110.219C145.687 109.265 145.687 109.265 147.225 108.989Z" fill="#BBDDFD"/>
</g>
</svg>
