<svg width="196" height="220" viewBox="0 0 196 220" fill="none" xmlns="http://www.w3.org/2000/svg">
<g>
<path d="M108.589 3.51928C111.79 6.13779 114.02 8.99864 115.326 12.9631C115.326 13.4504 115.326 13.9377 115.326 14.4397C115.722 14.5006 116.117 14.5615 116.525 14.6243C133.777 17.6509 149.609 25.9195 162.576 37.5725C163.293 38.1776 164.011 38.7826 164.729 39.3875C166.387 40.8414 167.825 42.436 169.247 44.119C169.979 45.0027 169.979 45.0027 170.943 45.9397C172.42 45.9601 173.868 45.9335 175.342 45.8782C181.553 45.77 185.968 47.3113 190.475 51.6614C194.269 55.7486 195.247 60.3597 195.197 65.7868C194.89 69.8546 193.358 73.0312 190.763 76.1323C190.035 76.991 190.035 76.991 189.646 78.4241C189.825 79.4417 189.825 79.4417 190.192 80.5351C190.383 81.1634 190.383 81.1634 190.578 81.8044C190.717 82.2522 190.856 82.7 191 83.1614C193.602 91.8857 194.683 100.455 194.691 109.555C194.691 109.901 194.692 110.248 194.692 110.605C194.679 119.458 193.502 127.766 191.213 136.314C191.117 136.674 191.022 137.034 190.924 137.404C190.725 138.128 190.513 138.849 190.291 139.566C189.657 141.499 189.657 141.499 190.127 143.391C190.394 143.625 190.662 143.859 190.938 144.1C194.065 147.22 195.122 151.163 195.214 155.482C195.161 161.123 193.217 165.304 189.338 169.323C186.564 171.898 182.733 174.013 178.848 173.874C178.319 173.838 178.319 173.838 177.78 173.801C173.447 173.415 173.447 173.415 169.464 174.806C168.369 175.928 167.433 177.071 166.513 178.338C165.693 179.158 164.873 179.979 164.052 180.799C163.685 181.179 163.685 181.179 163.311 181.567C161.333 183.595 159.282 185.388 157.008 187.074C156.67 187.326 156.331 187.577 155.983 187.835C143.962 196.614 130.118 203.133 115.326 205.408C115.242 206.065 115.242 206.065 115.156 206.735C114.269 211.203 111.071 214.643 107.451 217.221C102.809 219.787 97.8763 220.506 92.6447 219.345C87.8414 217.726 83.6674 214.683 81.2379 210.163C79.8882 207.251 79.8882 207.251 79.8882 205.408C79.4923 205.348 79.0964 205.287 78.6885 205.224C60.8954 202.102 42.5777 193.169 30.1772 179.815C29.7712 179.409 29.3651 179.003 28.9468 178.584C27.7163 177.354 27.7163 177.354 27.128 176.437C26.2379 175.223 25.6166 174.616 24.271 173.908C22.3366 173.671 20.4055 173.79 18.4629 173.865C13.3041 174.039 9.38452 172.476 5.56787 168.987C1.8393 165.388 0.109069 161.051 0 155.913C0.0452161 151.075 1.34911 147.422 4.45084 143.716C5.17936 142.857 5.17936 142.857 5.56787 141.424C5.38847 140.406 5.38847 140.406 5.02185 139.313C4.83074 138.685 4.83074 138.685 4.63577 138.044C4.42717 137.372 4.42717 137.372 4.21436 136.687C1.61154 127.962 0.530837 119.393 0.522949 110.293C0.522617 109.947 0.522285 109.6 0.521943 109.243C0.535345 100.39 1.7122 92.0822 4.00095 83.5344C4.09643 83.1745 4.19192 82.8146 4.2903 82.4439C4.48925 81.7201 4.70056 80.9996 4.92284 80.2826C5.55732 78.3488 5.55732 78.3488 5.08722 76.4572C4.81948 76.2231 4.55173 75.989 4.27588 75.7478C1.14887 72.6279 0.0916819 68.6847 0 64.366C0.0527154 58.7254 1.99678 54.5437 5.87549 50.5251C8.66475 47.936 12.4751 45.8601 16.3734 45.9658C16.7292 45.987 17.085 46.0082 17.4515 46.0301C21.6992 46.4036 21.6992 46.4036 25.6399 45.1514C26.6112 44.154 27.414 43.1436 28.2085 42.0022C29.0288 41.1819 29.8491 40.3616 30.6694 39.5413C30.9162 39.2716 31.163 39.002 31.4173 38.7242C43.5821 25.8173 62.5541 17.1065 79.8882 14.4397C79.9719 13.783 79.9719 13.783 80.0574 13.1131C80.9451 8.64261 84.1441 5.20888 87.7632 2.62719C94.4107 -1.10193 102.318 -0.910925 108.589 3.51928ZM88.3669 12.0384C86.4519 14.9718 86.4293 17.9277 86.7788 21.3303C87.6248 24.375 89.5755 26.5123 92.1929 28.2209C95.159 29.6549 98.5465 29.7648 101.716 28.8842C104.576 27.6002 106.653 25.4415 108.012 22.63C108.981 19.6538 108.957 16.1456 107.666 13.2707C106.023 10.4747 103.634 8.54955 100.56 7.54907C95.2895 6.92387 91.7569 7.95704 88.3669 12.0384ZM32.5151 48.0007C31.8986 48.6249 31.2828 49.2499 30.6694 49.8772C31.3513 51.3324 32.1576 52.577 33.0996 53.8762C35.7219 57.8001 36.6341 61.9248 36.0835 66.6116C35.0203 71.9086 32.9663 75.9072 28.5469 79.1008C23.4677 82.1895 18.2155 82.4332 12.4585 81.3772C6.41653 99.5509 5.72712 119.222 11.9663 137.487C12.2912 137.811 12.616 138.136 12.9507 138.471C14.1114 138.301 14.1114 138.301 15.4116 137.979C21.0967 137.561 25.4528 138.505 30.0484 141.939C33.6595 145.058 35.763 149.255 36.2008 154.021C36.3546 160.044 34.6928 164.511 30.6694 168.987C31.6946 171.252 33.2594 172.73 35.0068 174.462C35.5042 174.955 35.5042 174.955 36.0115 175.458C41.2223 180.545 47.0632 184.489 53.3101 188.182C53.7413 188.443 53.7413 188.443 54.1812 188.708C61.9059 193.336 70.9917 196.641 79.8882 198.026C79.996 197.68 80.1039 197.335 80.215 196.98C81.9967 191.649 84.6347 187.896 89.6781 185.229C94.2624 183.156 99.578 183.092 104.311 184.717C109.218 186.861 112.398 190.121 114.459 195.017C114.817 196.012 115.091 196.995 115.326 198.026C135.008 194.058 150.711 184.212 164.544 169.971C163.863 168.516 163.056 167.271 162.114 165.972C159.492 162.048 158.58 157.923 159.13 153.237C160.194 147.94 162.248 143.941 166.667 140.747C171.746 137.659 176.998 137.415 182.755 138.471C188.795 120.303 189.484 100.619 183.248 82.3616C182.923 82.0367 182.598 81.7119 182.263 81.3772C181.102 81.547 181.102 81.547 179.802 81.8694C173.993 82.2967 169.045 81.2893 164.544 77.4397C160.475 73.1014 158.928 68.7184 158.994 62.8029C159.342 58.7113 160.758 55.2667 163.475 52.1997C164.237 51.2533 164.237 51.2533 164.052 49.385C163.437 48.4746 163.437 48.4746 162.555 47.6431C162.232 47.3193 161.91 46.9954 161.578 46.6618C161.227 46.322 160.876 45.9822 160.515 45.6321C159.977 45.1048 159.977 45.1048 159.429 44.5668C148.963 34.4523 130.568 21.8225 115.326 21.8225C115.218 22.1677 115.11 22.5128 114.999 22.8684C113.217 28.1991 110.579 31.9518 105.536 34.6194C100.951 36.6923 95.6358 36.7566 90.9028 35.1308C85.9955 32.9874 82.8163 29.7273 80.7553 24.8314C80.3966 23.8363 80.1232 22.8532 79.8882 21.8225C62.5368 21.8225 44.075 36.4948 32.5151 48.0007ZM9.81299 56.9832C7.95386 59.3562 7.19329 61.616 7.04443 64.6428C7.67979 68.511 9.20258 71.2975 12.3335 73.6579C15.1516 75.3394 18.1208 75.4004 21.3179 74.9788C24.8857 73.9325 26.5565 71.7366 28.6084 68.7649C29.7095 65.6355 29.7929 62.1127 28.4238 59.0442C26.7811 56.2481 24.3921 54.323 21.3179 53.3225C16.6021 52.7631 13.0503 53.419 9.81299 56.9832ZM167.609 57.8118C165.694 60.7452 165.671 63.7011 166.021 67.1038C166.867 70.1484 168.818 72.2857 171.435 73.9944C174.401 75.4283 177.789 75.5383 180.958 74.6577C183.818 73.3737 185.895 71.2149 187.254 68.4034C188.223 65.4272 188.199 61.919 186.908 59.0442C185.266 56.2481 182.876 54.323 179.802 53.3225C174.532 52.6973 170.999 53.7305 167.609 57.8118ZM9.12469 149.359C7.20974 152.292 7.18707 155.248 7.53662 158.651C8.38264 161.695 10.3333 163.833 12.9507 165.541C15.9168 166.975 19.3043 167.085 22.4734 166.205C25.3335 164.921 27.4107 162.762 28.7699 159.95C29.7385 156.974 29.7144 153.466 28.4238 150.591C26.7811 147.795 24.3921 145.87 21.3179 144.869C16.0473 144.244 12.5147 145.277 9.12469 149.359ZM168.574 148.253C166.12 151.759 165.527 154.386 166.021 158.651C166.874 161.696 168.814 163.83 171.435 165.541C174.401 166.975 177.789 167.085 180.958 166.205C183.876 164.895 185.866 162.687 187.339 159.881C188.328 156.284 188.195 153.693 186.693 150.283C185.059 147.614 182.833 145.726 179.802 144.869C175.39 144.293 171.618 144.831 168.574 148.253ZM88.3669 195.132C86.4519 198.066 86.4293 201.021 86.7788 204.424C87.6248 207.469 89.5755 209.606 92.1929 211.315C95.159 212.749 98.5465 212.859 101.716 211.978C104.576 210.694 106.653 208.535 108.012 205.724C108.981 202.748 108.957 199.239 107.666 196.365C106.023 193.568 103.634 191.643 100.56 190.643C95.2895 190.018 91.7569 191.051 88.3669 195.132Z" fill="#BBDDFD"/>
<path d="M111.927 47.2009C114.102 49.0086 115.749 50.9699 117.327 53.3148C119.011 55.0701 120.68 55.7194 123.06 55.8654C124.617 55.8581 126.167 55.8099 127.723 55.7527C134.926 55.6366 139.85 56.7886 145.349 61.6897C149.834 66.4666 151.887 71.4822 151.738 77.9867C151.703 79.0763 151.665 80.1658 151.623 81.2551C151.556 84.5273 151.701 87.069 153.716 89.7444C154.957 90.9823 154.957 90.9823 156.362 91.9592C160.857 95.4622 164.21 100.207 165.037 105.987C165.45 113.385 164.365 119.386 159.5 125.243C157.921 126.991 156.166 128.332 154.216 129.644C152.457 131.332 151.811 133 151.666 135.385C151.675 137.481 151.756 139.571 151.848 141.664C152.003 147.876 149.756 152.311 146.21 157.236C143.024 160.567 138.579 163.143 134.029 164.065C133.114 164.082 132.198 164.072 131.283 164.044C130.752 164.033 130.221 164.023 129.674 164.012C128.565 163.986 127.457 163.954 126.348 163.916C123.06 163.863 120.473 164.005 117.787 166.033C116.549 167.274 116.549 167.274 115.572 168.679C112.327 172.858 108.054 176.043 102.786 177.198C95.5638 178.104 89.1994 177.059 83.2874 172.647C81.1115 170.84 79.4651 168.878 77.8867 166.533C76.1992 164.774 74.5313 164.128 72.1457 163.983C70.0498 163.993 67.9603 164.073 65.8666 164.166C60.4857 164.3 56.1884 162.757 51.8335 159.635C51.3361 159.28 50.8387 158.924 50.3262 158.558C46.7425 155.414 44.2135 151.038 43.4663 146.346C43.3794 143.717 43.4205 141.09 43.5385 138.463C43.6447 135.218 43.4916 132.759 41.4976 130.104C40.2571 128.866 40.2571 128.866 38.8521 127.889C34.3568 124.386 31.0041 119.641 30.1772 113.862C29.764 106.464 30.8486 100.462 35.7144 94.6047C37.2925 92.857 39.048 91.5162 40.9977 90.2039C42.753 88.52 43.4022 86.8515 43.5483 84.4708C43.541 82.9145 43.4928 81.3636 43.4355 79.8083C43.3195 72.6054 44.4715 67.6815 49.3726 62.1819C54.1495 57.6967 59.165 55.6441 65.6695 55.7931C66.7591 55.8276 67.8486 55.8661 68.938 55.9084C72.2102 55.9754 74.7519 55.8304 77.4272 53.8147C78.6651 52.5743 78.6651 52.5743 79.6421 51.1692C87.5829 40.9789 101.684 39.5576 111.927 47.2009ZM87.271 53.3225C86.0831 54.6527 84.9936 56.0309 83.9045 57.4427C80.9188 61.0762 77.5332 62.6497 72.8745 63.1297C71.1838 63.1754 69.5443 63.0131 67.8603 62.8586C63.3253 62.5087 59.877 63.262 56.2632 66.1194C53.0472 68.9432 51.0145 72.1941 50.3569 76.4553C50.3369 77.8426 50.4627 79.1982 50.603 80.5774C50.9962 85.6569 50.5539 89.9688 47.4038 94.1741C46.0027 95.5828 44.5059 96.8481 42.9741 98.1116C39.1012 101.632 37.3473 105.154 37.0679 110.416C37.2397 114.163 38.6593 117.357 41.0054 120.26C42.337 121.449 43.719 122.541 45.1274 123.638C48.7254 126.567 50.3563 129.921 50.8491 134.533C50.8219 136.423 50.6616 138.301 50.5093 140.183C50.1992 144.495 51.0822 147.828 53.8022 151.268C56.626 154.484 59.8769 156.517 64.1382 157.174C65.5255 157.194 66.8811 157.069 68.2602 156.928C71.4748 156.676 74.3255 156.634 77.4272 157.666C77.7622 157.776 78.0972 157.886 78.4424 157.999C81.6547 159.323 83.6032 161.96 85.7944 164.557C89.3199 168.426 92.8334 170.183 98.0991 170.463C101.846 170.291 105.039 168.872 107.943 166.526C109.132 165.194 110.224 163.812 111.321 162.404C114.25 158.806 117.604 157.175 122.216 156.682C124.106 156.709 125.984 156.869 127.866 157.022C132.177 157.332 135.511 156.449 138.951 153.729C142.167 150.905 144.199 147.654 144.857 143.393C144.877 142.006 144.751 140.65 144.611 139.271C144.359 136.056 144.317 133.206 145.349 130.104C145.459 129.769 145.569 129.434 145.682 129.089C147.006 125.876 149.642 123.928 152.24 121.737C156.109 118.211 157.866 114.698 158.146 109.432C157.974 105.685 156.555 102.492 154.208 99.5881C152.877 98.399 151.495 97.3067 150.086 96.2101C146.489 93.2815 144.858 89.9274 144.365 85.3147C144.392 83.4254 144.552 81.5474 144.705 79.6649C145.015 75.3535 144.132 72.0204 141.412 68.5803C138.596 65.3733 135.33 63.3091 131.076 62.6741C128.602 62.5917 126.131 62.6973 123.659 62.799C118.71 62.9056 115.424 61.5382 111.794 58.2079C110.909 57.2739 110.205 56.3215 109.481 55.2605C107.145 52.0265 103.928 50.4151 100.068 49.6311C95.1811 49.0312 91.1146 50.2169 87.271 53.3225Z" fill="#BBDDFD"/>
<path d="M123.201 76.4553C132.128 83.7793 138.207 93.3319 139.443 105.002C140.287 116.896 137.461 127.582 129.943 136.925C122.507 145.401 112.766 151.034 101.36 151.843C89.2562 152.409 78.5005 149.186 69.3369 141.147C60.842 133.096 55.9141 122.975 55.5969 111.194C55.499 99.3027 59.3046 89.2315 67.4835 80.5101C82.2612 65.4966 106.442 63.58 123.201 76.4553ZM71.4595 86.8528C64.3863 95.1716 62.4732 104.702 63.1538 115.338C64.2093 123.817 69.2267 131.558 75.6527 137.021C84.1516 143.367 93.6693 145.541 104.145 144.237C112.652 142.719 120.521 137.481 125.662 130.596C131.277 122.008 133.563 112.594 131.741 102.382C129.507 93.2444 123.864 85.1974 115.81 80.2942C100.964 71.6239 83.2944 74.4433 71.4595 86.8528Z" fill="#BBDDFD"/>
<path d="M118.833 92.9128C120.248 93.1897 120.248 93.1897 121.417 93.9587C122.565 95.6821 122.596 96.5674 122.216 98.6038C121.232 99.9448 120.034 100.975 118.771 102.049C118.486 102.305 118.201 102.56 117.908 102.824C116.38 104.186 114.818 105.508 113.259 106.834C112.676 107.331 112.094 107.828 111.511 108.324C111.066 108.704 111.066 108.704 110.612 109.092C108.669 110.756 106.771 112.459 104.897 114.2C102.665 116.273 100.351 118.215 97.9761 120.123C96.0179 121.745 94.1603 123.466 92.2986 125.197C91.0348 126.321 90.5139 126.62 88.8398 126.843C86.7176 126.593 86.2596 125.753 84.8101 124.198C84.2795 123.642 83.7489 123.087 83.2181 122.533C79.8222 118.929 76.5757 115.275 73.4897 111.401C73.3273 111.238 73.1649 111.076 72.9976 110.908C72.8184 109.01 72.7219 107.877 73.7974 106.263C75.3388 105.249 76.1059 105.161 77.9194 105.494C79.1191 106.51 79.1191 106.51 80.3804 107.955C80.931 108.502 81.4849 109.045 82.0415 109.586C84.4612 112.005 86.7184 114.55 88.7476 117.307C90.6486 116.52 91.9872 115.229 93.4541 113.831C95.3402 112.065 97.2472 110.369 99.2681 108.755C101.43 107.017 103.464 105.18 105.482 103.28C107.975 100.933 110.512 98.7069 113.194 96.5754C114.16 95.7967 115.063 94.9865 115.972 94.1433C117.294 93.1897 117.294 93.1897 118.833 92.9128Z" fill="#BBDDFD"/>
</g>
</svg>
