<svg width="72" height="72" viewBox="0 0 72 72" fill="none" xmlns="http://www.w3.org/2000/svg">
<g clip-path="url(#clip0_737_90)">
<path d="M33.1861 25.0313C33.1861 25.1241 33.1861 25.217 33.1861 25.3126C33.0715 25.3621 32.957 25.4116 32.839 25.4625C32.598 25.5667 32.598 25.5667 32.3522 25.6729C32.2654 25.7105 32.1785 25.748 32.089 25.7866C31.6094 25.994 31.1301 26.2018 30.6511 26.4105C30.4572 26.495 30.2632 26.5795 30.0692 26.6639C29.9734 26.7056 29.8775 26.7474 29.7788 26.7904C29.2457 27.0219 28.711 27.2481 28.173 27.4681C26.5004 28.159 25.3904 28.936 24.3833 30.4844C24.2592 30.6729 24.1351 30.8614 24.011 31.0499C23.9473 31.1471 23.8836 31.2444 23.818 31.3446C23.5629 31.7332 23.3052 32.1201 23.0475 32.507C22.7905 32.8936 22.5347 33.2809 22.2789 33.6684C22.1485 33.8657 22.0178 34.0628 21.8867 34.2597C21.6931 34.5508 21.5006 34.8425 21.3082 35.1344C21.2502 35.2211 21.1922 35.3078 21.1324 35.3972C20.427 36.4731 20.0222 37.5056 20.1079 38.8126C20.4135 40.228 21.0426 41.1964 22.2173 42.047C23.572 42.7855 24.9486 42.9614 26.474 42.6589C28.2541 42.1242 29.205 41.0119 30.2329 39.5157C30.3163 39.3571 30.3163 39.3571 30.4013 39.1954C30.6848 38.6891 30.9004 38.3331 31.4358 38.0808C31.857 37.9635 32.2713 37.8812 32.7027 37.8106C32.8472 37.7816 32.9918 37.7526 33.1407 37.7227C34.3582 37.4923 34.3582 37.4923 35.0142 37.6876C35.2537 37.9903 35.2537 37.9903 35.4712 38.3819C37.028 40.9622 39.5162 42.5367 42.397 43.295C43.7739 43.5958 45.2875 43.7953 46.6822 43.5076C47.3557 43.3714 47.8568 43.3617 48.4515 43.7231C48.6386 43.8475 48.8244 43.9739 49.0091 44.1019C49.2222 44.2448 49.4354 44.3876 49.6485 44.5304C49.7611 44.6068 49.8737 44.6832 49.9897 44.762C50.4735 45.0887 50.9622 45.4079 51.4508 45.7274C51.9745 46.07 52.497 46.4144 53.0195 46.7587C53.4169 47.0205 53.8146 47.282 54.2122 47.5434C54.8597 47.9695 55.5059 48.3974 56.1512 48.8267C56.4046 48.995 56.6583 49.1629 56.9123 49.3303C57.2783 49.5718 57.643 49.8153 58.0075 50.0593C58.17 50.1658 58.17 50.1658 58.3359 50.2745C59.1652 50.8343 59.8499 51.4315 60.2476 52.3653C60.3944 53.3111 60.3043 54.1742 59.7642 54.9845C58.9756 55.7984 58.3038 56.1334 57.1731 56.1605C56.0945 56.0083 55.2578 55.4441 54.382 54.8383C54.2591 54.7548 54.1363 54.6713 54.0097 54.5852C53.7479 54.407 53.4864 54.2283 53.2253 54.0491C52.6817 53.6761 52.1363 53.3057 51.591 52.9351C51.3198 52.7509 51.0487 52.5665 50.7777 52.382C49.699 51.648 48.6137 50.925 47.521 50.212C47.382 50.121 47.243 50.0299 47.0998 49.9362C46.7289 49.6947 46.3565 49.4561 45.9829 49.2188C45.7901 49.0948 45.7901 49.0948 45.5933 48.9683C45.4057 48.8509 45.4057 48.8509 45.2144 48.731C45.1035 48.661 44.9926 48.5909 44.8783 48.5187C44.5573 48.3326 44.5573 48.3326 44.0845 48.4366C43.6996 48.6436 43.6996 48.6436 43.4517 49.0782C43.4682 49.5796 43.4996 49.8315 43.8637 50.1867C43.9797 50.2598 44.0958 50.3329 44.2154 50.4082C44.3431 50.4909 44.4708 50.5735 44.6024 50.6587C44.7331 50.7404 44.8639 50.8221 44.9986 50.9063C45.231 51.0605 45.4631 51.2151 45.695 51.3701C45.9366 51.5286 46.1783 51.687 46.4202 51.8451C46.6886 52.0213 46.9571 52.1976 47.2255 52.3738C47.6406 52.6461 48.0559 52.9182 48.4712 53.1901C51.1619 54.9523 51.1619 54.9523 52.322 55.7639C52.4684 55.866 52.6147 55.9681 52.7655 56.0733C53.575 56.7333 53.979 57.3446 54.126 58.3864C54.1549 59.2526 53.8564 59.9162 53.3306 60.5919C52.7456 61.2113 52.1123 61.4696 51.2652 61.5059C50.079 61.5194 49.0982 60.8073 48.1648 60.1623C48.0389 60.0767 47.9129 59.9911 47.7831 59.903C47.3815 59.6298 46.981 59.3551 46.5806 59.0802C45.6685 58.4571 44.7555 57.8355 43.8406 57.2165C43.5789 57.0393 43.3174 56.8618 43.0561 56.6839C42.6758 56.4257 42.2939 56.17 41.9114 55.915C41.7976 55.8372 41.6838 55.7594 41.5665 55.6792C40.9297 55.2587 40.4402 55.0062 39.6548 54.9845C39.5156 55.0309 39.3764 55.0773 39.2329 55.1251C39.0598 55.9153 39.0598 55.9153 39.2329 56.672C39.4666 56.7674 39.7011 56.8608 39.9361 56.9532C40.1454 57.0782 40.3511 57.2095 40.5531 57.3461C40.6705 57.425 40.7879 57.5039 40.9088 57.5852C41.0339 57.6703 41.159 57.7554 41.2879 57.8431C41.4185 57.9312 41.549 58.0193 41.6835 58.1101C41.9595 58.2966 42.2353 58.4834 42.5108 58.6704C42.9297 58.9548 43.3492 59.2381 43.7689 59.5213C44.0377 59.703 44.3064 59.8848 44.575 60.0667C44.7614 60.1927 44.7614 60.1927 44.9516 60.3212C47.4335 62.0079 47.4335 62.0079 47.8111 63.1407C47.9155 64.1045 47.8263 64.8778 47.2486 65.672C46.6568 66.3461 46.0378 66.7159 45.1392 66.797C44.1079 66.811 43.3068 66.3722 42.4673 65.8126C42.4116 65.4616 42.3771 65.1286 42.3531 64.7755C42.2196 63.4232 41.8183 62.2681 40.8062 61.3126C39.5334 60.311 38.1509 60.0454 36.5611 60.1876C36.1662 60.3112 35.81 60.4579 35.4394 60.6408C35.1548 60.7501 35.1548 60.7501 34.7329 60.6095C34.6033 60.2403 34.6033 60.2403 34.4868 59.7657C34.0746 58.3509 33.4008 57.5568 32.1215 56.8395C31.3954 56.4834 30.787 56.34 29.9781 56.3028C29.8319 56.2947 29.8319 56.2947 29.6828 56.2863C29.4444 56.2732 29.2058 56.2615 28.9673 56.2501C28.945 56.1125 28.9227 55.9749 28.8997 55.8331C28.6232 54.2359 28.1902 52.9241 26.8579 51.8907C26.0922 51.4259 25.3312 51.1403 24.4673 50.9063C24.4923 50.6793 24.4923 50.6793 24.5178 50.4477C24.6738 48.8019 24.5915 47.3969 23.606 45.9932C22.7751 45.0212 21.5919 44.3716 20.3167 44.2497C18.5874 44.2316 17.4836 44.5998 16.1704 45.7032C16.0312 45.8199 15.892 45.9367 15.7486 46.057C15.433 46.3228 15.1187 46.59 14.8048 46.8579C14.4003 47.2023 13.9903 47.5394 13.5777 47.8741C12.9622 48.3772 12.3491 48.8829 11.7407 49.3946C11.6564 49.4643 11.572 49.534 11.4851 49.6058C11.0123 50.0063 10.7253 50.371 10.4048 50.9063C10.2656 50.9063 10.1264 50.9063 9.98294 50.9063C9.90136 50.7472 9.81979 50.588 9.73574 50.424C9.62492 50.2156 9.51395 50.0072 9.40286 49.7989C9.34956 49.694 9.29627 49.589 9.24136 49.4809C8.95292 48.9472 8.82022 48.7033 8.25259 48.4443C8.06497 48.41 8.06497 48.41 7.87356 48.3751C7.85999 47.717 7.90166 47.1095 8.01676 46.4618C8.0485 46.2808 8.08025 46.0998 8.11295 45.9133C8.14858 45.7152 8.18422 45.5171 8.21987 45.319C8.25712 45.1085 8.2943 44.898 8.33141 44.6875C8.43203 44.118 8.53372 43.5486 8.63563 42.9793C8.74215 42.3834 8.84779 41.7873 8.95355 41.1913C9.13113 40.1913 9.30937 39.1915 9.48804 38.1918C9.69481 37.0347 9.90059 35.8774 10.1058 34.7201C10.3032 33.607 10.5012 32.494 10.6996 31.3811C10.7841 30.9071 10.8683 30.4331 10.9524 29.959C11.0513 29.4019 11.1507 28.8449 11.2505 28.2879C11.2872 28.083 11.3236 27.8781 11.3599 27.6731C11.4092 27.3945 11.4593 27.116 11.5094 26.8375C11.5373 26.6813 11.5651 26.525 11.5938 26.3641C11.6704 26.0157 11.6704 26.0157 11.8111 25.8751C12.0371 25.8806 12.2628 25.8975 12.4878 25.919C12.6719 25.9356 12.6719 25.9356 12.8597 25.9525C13.3579 26.0157 13.3579 26.0157 13.6734 26.0976C15.0051 26.4077 16.2209 26.1833 17.5468 25.9621C17.9648 25.8923 18.3833 25.8259 18.802 25.7601C19.5415 25.6435 20.2804 25.524 21.0193 25.4036C22.1988 25.2115 23.3787 25.0218 24.5592 24.8356C24.9674 24.7706 25.3751 24.7032 25.7828 24.6356C28.3644 24.2183 30.6796 24.167 33.1861 25.0313Z" fill="#0065FF"/>
<path d="M46.6326 24.7056C47.052 24.7756 47.4717 24.8427 47.8916 24.9091C49.0835 25.0979 50.2747 25.2909 51.4653 25.4876C52.199 25.6085 52.9332 25.7256 53.6679 25.8404C53.9444 25.8844 54.2207 25.9299 54.4968 25.9769C56.0792 26.2461 57.4263 26.35 58.9988 25.981C59.4169 25.8898 59.7632 25.8532 60.1879 25.875C60.3903 26.4468 60.5358 27.0014 60.6418 27.5984C60.6885 27.8589 60.6885 27.8589 60.7362 28.1247C60.7697 28.3153 60.8032 28.5059 60.8367 28.6965C60.8727 28.8987 60.9088 29.1009 60.9449 29.3031C61.0426 29.8507 61.1394 30.3984 61.236 30.9461C61.3168 31.404 61.3981 31.8618 61.4793 32.3195C61.6709 33.3997 61.8619 34.48 62.0525 35.5603C62.2489 36.6737 62.4464 37.7869 62.6444 38.8999C62.8146 39.8568 62.9842 40.8138 63.1532 41.7709C63.2541 42.342 63.3552 42.9131 63.4569 43.484C63.5525 44.0209 63.6473 44.558 63.7415 45.0952C63.7762 45.2919 63.8111 45.4886 63.8463 45.6852C63.8945 45.9543 63.9415 46.2237 63.9885 46.4932C64.0151 46.6436 64.0417 46.794 64.0691 46.949C64.1303 47.4285 64.1349 47.8921 64.1254 48.375C64.0003 48.3978 63.8753 48.4207 63.7464 48.4442C63.0909 48.7433 62.9134 49.1741 62.5961 49.7988C62.5396 49.9049 62.483 50.0109 62.4247 50.1202C62.2861 50.3809 62.1507 50.6434 62.016 50.9063C61.5349 50.7459 61.5042 50.6721 61.2426 50.2647C60.0537 48.6371 57.8062 47.5831 56.145 46.4941C55.6036 46.1387 55.0624 45.783 54.5212 45.4274C54.3264 45.2994 54.3264 45.2994 54.1276 45.1689C53.0506 44.4613 51.9776 43.748 50.9067 43.0313C50.7675 42.9384 50.6282 42.8456 50.4848 42.75C50.4848 42.6572 50.4848 42.5644 50.4848 42.4688C50.6188 42.3941 50.7527 42.3194 50.8907 42.2424C51.0689 42.1421 51.2471 42.0418 51.4252 41.9414C51.5132 41.8925 51.6012 41.8435 51.6919 41.7931C52.6982 41.2643 52.6982 41.2643 53.2973 40.3594C53.3246 39.9419 53.3246 39.9419 53.1567 39.6035C52.7332 39.2594 52.425 39.3279 51.891 39.375C51.4435 39.5898 51.4435 39.5898 51.0209 39.8936C48.6521 41.4406 46.0124 41.9547 43.225 41.458C40.6221 40.8745 38.4626 39.4936 37.02 37.2481C36.7344 36.7952 36.4562 36.3383 36.1828 35.8781C36.0246 35.5912 36.0246 35.5912 35.8598 35.4375C34.8019 35.3904 33.787 35.5891 32.7524 35.7808C32.5275 35.8214 32.3023 35.8595 32.0766 35.8952C30.7365 36.0786 30.7365 36.0786 29.6 36.7413C29.3516 37.0936 29.1559 37.4402 28.9692 37.8281C28.8693 37.9838 28.7694 38.1396 28.6665 38.3C28.5837 38.4314 28.5008 38.5628 28.4155 38.6982C27.846 39.5541 27.2498 40.2227 26.3325 40.7022C25.1414 40.9083 24.1387 40.8998 23.0723 40.2852C22.4289 39.8268 22.2025 39.3239 22.0698 38.5664C22.0017 37.2337 22.9838 36.0705 23.7045 35.0156C23.8787 34.7578 24.0528 34.5 24.2269 34.2422C24.3141 34.1137 24.4013 33.9851 24.4911 33.8527C24.7409 33.4829 24.9882 33.1115 25.2344 32.7393C25.3099 32.6251 25.3855 32.5109 25.4634 32.3932C25.6052 32.1787 25.7469 31.9641 25.8884 31.7494C25.9847 31.6042 25.9847 31.6042 26.0831 31.4561C26.1383 31.3725 26.1935 31.2889 26.2504 31.2028C26.3123 31.1153 26.3742 31.0277 26.4379 30.9375C26.5183 30.8215 26.5987 30.7055 26.6815 30.586C27.0591 30.1697 27.4582 29.95 27.9584 29.7147C28.0557 29.6676 28.1529 29.6205 28.2531 29.5719C29.6428 28.9085 31.0658 28.3176 32.4848 27.7207C32.781 27.5957 33.0772 27.4706 33.3734 27.3455C33.8095 27.1614 34.2456 26.9774 34.6819 26.7938C35.4437 26.4732 36.2039 26.1497 36.9623 25.8212C40.3204 24.3722 43.0262 24.1017 46.6326 24.7056Z" fill="#0065FF"/>
<path d="M32.5025 -0.0408349C32.6734 -0.0426292 32.8443 -0.0444236 33.0203 -0.0462723C33.2039 -0.0465853 33.3874 -0.0468982 33.5766 -0.0472207C33.7683 -0.0481255 33.9601 -0.0490717 34.1519 -0.0500574C34.5534 -0.0517384 34.955 -0.0522628 35.3565 -0.0520959C35.8686 -0.0520674 36.3806 -0.0559035 36.8926 -0.0607506C37.2887 -0.0638932 37.6848 -0.0644477 38.0809 -0.0642994C38.3607 -0.0647885 38.6405 -0.0678282 38.9202 -0.0709229C40.0939 -0.0650253 40.8918 0.0435747 41.7993 0.838827C41.875 0.93037 41.9508 1.02191 42.0289 1.11623C42.1068 1.20741 42.1848 1.29859 42.2651 1.39254C42.6626 1.96952 42.7848 2.47093 42.7771 3.16683C42.7757 3.38232 42.7757 3.38232 42.7743 3.60216C42.7708 3.82472 42.7708 3.82472 42.7672 4.05178C42.7659 4.20287 42.7646 4.35396 42.7633 4.50963C42.76 4.88146 42.7554 5.25322 42.7496 5.62502C42.8581 5.62377 42.9666 5.62252 43.0784 5.62124C44.1044 5.60993 45.1305 5.60138 46.1567 5.59588C46.6841 5.59295 47.2115 5.58898 47.739 5.58259C48.2487 5.57644 48.7583 5.5731 49.2681 5.57165C49.4618 5.57062 49.6556 5.5686 49.8493 5.56555C51.133 5.54614 52.0512 5.5892 53.0493 6.46383C53.125 6.55537 53.2008 6.64691 53.2789 6.74123C53.3568 6.83241 53.4348 6.92359 53.5151 7.01754C54.1206 7.8963 54.0519 8.82964 54.0517 9.85397C54.0523 10.1481 54.0574 10.442 54.0628 10.7361C54.0752 12.2113 53.866 13.4441 52.8328 14.5503C51.8354 15.4471 50.8268 15.7958 49.4996 15.75C49.4842 15.6432 49.4688 15.5365 49.4529 15.4265C49.4306 15.2867 49.4083 15.1469 49.3853 15.003C49.3641 14.8643 49.3429 14.7256 49.3211 14.5827C49.2116 14.1784 49.1276 14.029 48.7965 13.7813C48.0495 13.5323 47.2411 13.6145 46.4588 13.6146C46.1443 13.6143 45.8299 13.6117 45.5154 13.6091C45.3145 13.6086 45.1137 13.6084 44.9128 13.6082C44.6396 13.6074 44.6396 13.6074 44.3608 13.6065C43.8944 13.6393 43.5827 13.7046 43.1715 13.9219C42.8227 14.5147 42.8388 15.0364 42.7496 15.75C38.2946 15.75 33.8396 15.75 29.2496 15.75C29.1104 14.9843 29.1104 14.9843 28.9683 14.2031C28.2448 13.4796 27.4882 13.6179 26.5222 13.6146C26.4188 13.6146 26.3154 13.6146 26.2088 13.6146C25.8943 13.6143 25.5799 13.6117 25.2654 13.6091C25.0645 13.6086 24.8637 13.6084 24.6628 13.6082C24.4806 13.6077 24.2985 13.6071 24.1108 13.6065C23.6444 13.6393 23.3327 13.7046 22.9215 13.9219C22.5905 14.4846 22.5645 15.1115 22.4996 15.75C21.3351 15.8363 20.3534 15.5337 19.4322 14.8008C18.6012 14.0247 18.0562 13.0372 17.9587 11.8969C17.953 11.4348 17.9474 10.9728 17.9475 10.5106C17.9469 10.2146 17.9417 9.91891 17.9364 9.62295C17.9258 8.38753 17.9998 7.53228 18.8384 6.57534C18.9299 6.49957 19.0215 6.42379 19.1158 6.34572C19.2526 6.2288 19.2526 6.2288 19.3921 6.10952C20.0104 5.68348 20.539 5.59011 21.2833 5.59309C21.5493 5.59312 21.5493 5.59312 21.8206 5.59316C22.0127 5.59459 22.2048 5.59606 22.3969 5.59755C22.5945 5.59808 22.7921 5.59848 22.9897 5.59876C23.5083 5.59983 24.0268 5.60259 24.5454 5.60571C25.0751 5.60859 25.6049 5.60987 26.1347 5.61129C27.173 5.6143 28.2113 5.61909 29.2496 5.62502C29.2452 5.48689 29.2452 5.48689 29.2407 5.34597C29.2289 4.92338 29.2216 4.50083 29.2144 4.07815C29.2097 3.93331 29.205 3.78847 29.2001 3.63924C29.1862 2.54122 29.3449 1.79875 30.0884 0.950338C30.1799 0.874565 30.2715 0.798792 30.3658 0.720724C30.457 0.642776 30.5482 0.564828 30.6421 0.484518C31.2472 0.0675747 31.7741 -0.0356264 32.5025 -0.0408349ZM31.7808 2.6719C31.3603 3.59698 31.3603 3.59698 31.4996 5.62502C34.4696 5.62502 37.4396 5.62502 40.4996 5.62502C40.6673 3.55321 40.6673 3.55321 40.0777 2.53127C39.6151 2.26761 39.2153 2.21434 38.6885 2.2114C38.5562 2.21006 38.4238 2.20872 38.2874 2.20733C38.1461 2.20746 38.0047 2.20759 37.859 2.20772C37.6388 2.20682 37.6388 2.20682 37.4141 2.2059C37.1041 2.20509 36.794 2.20502 36.484 2.20563C36.0105 2.20607 35.5372 2.20277 35.0638 2.19921C34.7622 2.19889 34.4605 2.19879 34.1588 2.19893C34.0177 2.19764 33.8767 2.19634 33.7313 2.19501C32.9872 2.19992 32.4035 2.21571 31.7808 2.6719Z" fill="#0065FF"/>
<path d="M7.77815 22.4649C7.91528 22.487 8.05242 22.5091 8.19371 22.5319C8.74454 22.6302 9.17599 22.7126 9.64747 23.0208C10.0909 23.7511 9.98632 24.539 9.84379 25.3475C9.82698 25.4452 9.81017 25.543 9.79286 25.6437C9.73654 25.969 9.67808 26.2939 9.61959 26.6188C9.57861 26.8528 9.53775 27.0869 9.49702 27.321C9.38625 27.9552 9.27356 28.5891 9.16047 29.2229C9.04222 29.887 8.92552 30.5514 8.80859 31.2158C8.61198 32.3315 8.41413 33.4469 8.21554 34.5622C7.98617 35.8504 7.75874 37.139 7.53236 38.4278C7.31431 39.669 7.09489 40.9098 6.87485 42.1506C6.78134 42.678 6.68831 43.2055 6.59565 43.7331C6.48641 44.3547 6.37597 44.9761 6.26462 45.5974C6.22402 45.825 6.18382 46.0528 6.14406 46.2805C6.08959 46.5923 6.03363 46.9037 5.97729 47.2151C5.94639 47.3892 5.91548 47.5633 5.88364 47.7427C5.56421 49.0717 5.56421 49.0717 4.9217 49.5C4.00015 49.5619 3.12904 49.4169 2.22346 49.2539C2.08687 49.2318 1.95028 49.2097 1.80955 49.1869C0.401645 48.936 0.401645 48.936 -0.000171546 48.375C-0.165048 47.101 0.142275 45.8055 0.367493 44.5556C0.407097 44.3302 0.446587 44.1048 0.485973 43.8794C0.59257 43.2714 0.700816 42.6637 0.809427 42.056C0.923244 41.4179 1.0357 40.7795 1.14835 40.1412C1.33765 39.0698 1.52801 37.9987 1.71902 36.9276C1.93942 35.6917 2.15819 34.4555 2.37609 33.2191C2.58633 32.0264 2.79765 30.8339 3.0095 29.6414C3.09937 29.1354 3.18888 28.6294 3.2781 28.1233C3.38329 27.5268 3.48944 26.9305 3.59632 26.3344C3.63525 26.1164 3.67386 25.8983 3.71212 25.6802C4.10089 23.4659 4.10089 23.4659 4.49983 22.5C5.41724 21.8884 6.74797 22.2787 7.77815 22.4649Z" fill="#0065FF"/>
<path d="M67.2191 22.2188C67.8339 22.8163 67.9276 23.4139 68.0587 24.2255C68.0818 24.357 68.1048 24.4884 68.1285 24.6239C68.2051 25.0631 68.2787 25.5029 68.3524 25.9426C68.4066 26.2564 68.4611 26.5702 68.5157 26.8839C68.6328 27.5562 68.7489 28.2286 68.8646 28.9011C69.1392 30.4909 69.43 32.0778 69.7188 33.6651C69.916 34.7518 70.111 35.8388 70.3062 36.9259C70.4727 37.8526 70.6398 38.7792 70.8082 39.7056C70.9752 40.6244 71.1406 41.5434 71.3049 42.4626C71.3668 42.807 71.4292 43.1513 71.4922 43.4954C72.2301 47.5321 72.2301 47.5321 72.0004 48.375C71.5495 48.8049 71.2031 49.0093 70.5914 49.1155C70.393 49.1509 70.393 49.1509 70.1907 49.1869C70.0541 49.209 69.9175 49.2312 69.7768 49.2539C69.6418 49.2782 69.5068 49.3025 69.3678 49.3275C68.5981 49.46 67.8581 49.5789 67.0785 49.5C66.5972 49.1158 66.429 48.7975 66.2966 48.2027C66.2629 48.0526 66.2293 47.9025 66.1946 47.7478C66.0064 46.8152 65.8332 45.8809 65.6674 44.9441C65.6268 44.7168 65.5861 44.4896 65.5453 44.2624C65.4358 43.6503 65.3271 43.0382 65.2186 42.426C65.1507 42.0429 65.0828 41.6599 65.0147 41.2768C64.8016 40.0766 64.5891 38.8762 64.3773 37.6757C64.1333 36.2929 63.8874 34.9105 63.6399 33.5283C63.4483 32.4569 63.2583 31.3852 63.0695 30.3133C62.957 29.6742 62.8437 29.0352 62.7286 28.3965C62.6206 27.7968 62.5147 27.1967 62.4104 26.5962C62.3718 26.3763 62.3325 26.1565 62.2924 25.9369C62.2376 25.6365 62.1856 25.3358 62.1342 25.0348C62.1044 24.8668 62.0746 24.6988 62.0439 24.5257C62.0115 23.9703 62.0944 23.5793 62.2973 23.0625C62.9687 22.6669 63.6785 22.5297 64.4418 22.4034C64.5461 22.386 64.6503 22.3685 64.7578 22.3506C66.6183 22.0566 66.6183 22.0566 67.2191 22.2188Z" fill="#0065FF"/>
<path d="M18 16.1719C18.5105 16.4967 19.0209 16.8216 19.5469 17.1562C20.5012 17.586 21.4596 17.79 22.5 17.8594C22.5154 17.9763 22.5308 18.0932 22.5467 18.2137C22.569 18.3665 22.5913 18.5193 22.6143 18.6768C22.6355 18.8285 22.6567 18.9802 22.6785 19.1365C22.7851 19.5622 22.8541 19.7144 23.2031 19.9688C23.9501 20.2178 24.7584 20.1355 25.5408 20.1354C25.8553 20.1357 26.1697 20.1383 26.4842 20.141C26.6851 20.1414 26.8859 20.1417 27.0868 20.1418C27.36 20.1427 27.36 20.1427 27.6388 20.1435C28.1052 20.1108 28.4169 20.0454 28.8281 19.8281C29.1769 19.2353 29.1608 18.7136 29.25 18C33.705 18 38.16 18 42.75 18C42.8892 18.7657 42.8892 18.7657 43.0312 19.5469C43.7548 20.2705 44.5114 20.1321 45.4774 20.1355C45.5808 20.1355 45.6842 20.1354 45.7908 20.1354C46.1053 20.1357 46.4197 20.1383 46.7342 20.141C46.9351 20.1414 47.1359 20.1417 47.3368 20.1418C47.61 20.1427 47.61 20.1427 47.8888 20.1435C48.3551 20.1108 48.6667 20.0448 49.0781 19.8281C49.4357 19.2382 49.4442 18.5338 49.5 17.8594C49.6735 17.8387 49.6735 17.8387 49.8505 17.8176C51.533 17.5923 52.5526 17.1368 54 16.1719C54 18.6778 54 21.1838 54 23.7656C52.5933 23.6001 51.2003 23.4326 49.8038 23.2108C49.477 23.1604 49.1503 23.11 48.8235 23.0598C48.3221 22.9823 47.8208 22.9042 47.3197 22.8246C43.8696 22.2781 40.9651 22.0952 37.6666 23.4141C37.579 23.4477 37.4913 23.4813 37.401 23.5159C37.2068 23.5927 37.015 23.6757 36.8254 23.7632C36.2029 24.0233 35.8182 24.0888 35.1749 23.8568C34.9385 23.754 34.7038 23.6473 34.4707 23.5371C34.2232 23.429 33.9755 23.3216 33.7275 23.2147C33.61 23.1631 33.4925 23.1116 33.3715 23.0584C30.1992 21.7236 26.7385 22.4956 23.4757 23.0113C22.7183 23.1306 21.9604 23.2469 21.2026 23.3634C20.8009 23.4252 20.3993 23.4879 19.9978 23.5512C19.8174 23.5794 19.637 23.6075 19.4511 23.6365C19.2133 23.674 19.2133 23.674 18.9708 23.7122C18.5625 23.7656 18.5625 23.7656 18 23.7656C18 21.2597 18 18.7538 18 16.1719Z" fill="#0065FF"/>
<path d="M25.0919 53.1172C25.8881 53.4868 26.3344 54.0025 26.6937 54.7997C26.9915 55.6669 26.856 56.4666 26.5267 57.3046C25.7844 58.4463 24.5151 59.2942 23.4676 60.1396C23.109 60.4319 22.7559 60.729 22.4044 61.0296C22.0168 61.3606 21.6268 61.6887 21.2357 62.0156C21.1508 62.0865 21.066 62.1574 20.9786 62.2305C20.7201 62.445 20.4597 62.6569 20.1986 62.8681C20.12 62.9335 20.0415 62.9989 19.9606 63.0663C19.2419 63.6406 18.5108 63.9193 17.5882 63.8349C16.7179 63.7172 16.0883 63.4082 15.5256 62.7264C15.002 61.908 14.9047 61.1407 15.0482 60.1874C15.4052 58.6595 17.2916 57.5035 18.4457 56.5746C18.8056 56.282 19.1592 55.9838 19.5115 55.6822C23.1768 52.5457 23.1768 52.5457 25.0919 53.1172Z" fill="#0065FF"/>
<path d="M21.016 46.3887C21.733 46.8047 22.3365 47.4278 22.5854 48.2317C22.759 49.1383 22.6721 49.9615 22.2179 50.7657C21.6346 51.507 20.8507 52.0743 20.1201 52.6619C19.6454 53.0494 19.1827 53.4491 18.7199 53.8506C18.0619 54.4186 17.3944 54.9706 16.7072 55.503C16.6312 55.5623 16.5552 55.6217 16.4768 55.6829C15.5928 56.3591 14.7241 56.3641 13.6398 56.2501C12.912 55.9751 12.3687 55.5004 11.9523 54.8438C11.5794 54.0048 11.5483 53.1724 11.8205 52.3038C12.2741 51.2292 13.3181 50.5542 14.2001 49.8445C14.5689 49.545 14.9314 49.2401 15.2921 48.9311C19.0719 45.6953 19.0719 45.6953 21.016 46.3887Z" fill="#0065FF"/>
<path d="M39.3737 62.7189C39.9476 63.2519 40.3049 63.8521 40.4053 64.6332C40.4212 65.7299 40.2734 66.4438 39.4995 67.2436C39.1385 67.5759 38.7681 67.8913 38.3893 68.2032C38.2668 68.3046 38.1442 68.4059 38.018 68.5103C37.7647 68.7181 37.5105 68.9248 37.2555 69.1305C36.9557 69.376 36.6607 69.624 36.3678 69.8776C36.2472 69.9816 36.2472 69.9816 36.1241 70.0877C35.9687 70.2221 35.8139 70.3572 35.6599 70.493C34.8209 71.2164 34.0152 71.6093 32.9049 71.5782C32.0397 71.408 31.3038 71.0933 30.7692 70.367C30.279 69.5449 30.2691 68.716 30.3737 67.7814C30.756 66.5387 32.0603 65.6808 33.0351 64.8991C33.6147 64.427 34.1785 63.9374 34.7405 63.4446C36.1196 62.2482 37.718 61.5204 39.3737 62.7189Z" fill="#0065FF"/>
<path d="M31.8529 58.9396C32.5091 59.589 32.7737 60.2655 32.8197 61.1808C32.702 62.4165 32.075 63.2078 31.1668 63.9922C30.908 64.2039 30.6477 64.4138 30.3862 64.6223C29.921 64.9958 29.4674 65.381 29.014 65.7687C26.8863 67.5733 26.8863 67.5733 25.683 67.6847C24.6645 67.5969 23.9245 67.2358 23.2044 66.5157C22.6145 65.7291 22.6973 64.7832 22.7826 63.8439C23.1595 62.6465 24.3574 61.8637 25.2984 61.1072C25.8813 60.6358 26.4452 60.142 27.0088 59.6478C28.448 58.3991 30.1639 57.5828 31.8529 58.9396Z" fill="#0065FF"/>
<path d="M41.2031 68.2031C41.2959 68.2031 41.3888 68.2031 41.4844 68.2031C41.7555 69.0166 41.6932 69.8133 41.3701 70.5992C40.9789 71.2453 40.3699 71.7621 39.6562 72C39.3518 72.0133 39.0469 72.0183 38.7422 72.0176C38.5812 72.0179 38.4202 72.0183 38.2544 72.0187C37.8281 72 37.8281 72 37.4062 71.8594C37.5937 71.4341 37.7879 71.1714 38.1418 70.8717C38.2765 70.7564 38.2765 70.7564 38.414 70.6388C38.5078 70.5601 38.6016 70.4814 38.6982 70.4004C38.7893 70.3228 38.8804 70.2452 38.9743 70.1653C39.1569 70.0099 39.34 69.855 39.5235 69.7007C39.7091 69.5433 39.8929 69.3838 40.0752 69.2225C40.2063 69.1068 40.2063 69.1068 40.3401 68.9886C40.4183 68.9187 40.4965 68.8488 40.5771 68.7768C40.7812 68.625 40.7812 68.625 41.0625 68.625C41.1089 68.4858 41.1553 68.3466 41.2031 68.2031Z" fill="#0065FF"/>
<path d="M45 15.75C45.7425 15.75 46.485 15.75 47.25 15.75C47.25 16.4925 47.25 17.235 47.25 18C46.5075 18 45.765 18 45 18C45 17.2575 45 16.515 45 15.75Z" fill="#0065FF"/>
<path d="M24.75 15.75C25.4925 15.75 26.235 15.75 27 15.75C27 16.4925 27 17.235 27 18C26.2575 18 25.515 18 24.75 18C24.75 17.2575 24.75 16.515 24.75 15.75Z" fill="#0065FF"/>
</g>
<defs>
<clipPath id="clip0_737_90">
<rect width="72" height="72" fill="white"/>
</clipPath>
</defs>
</svg>
