<svg width="262" height="280" viewBox="0 0 262 280" fill="none" xmlns="http://www.w3.org/2000/svg">
<g opacity="0.8" clip-path="url(#clip0_1077_1377)">
<path d="M211.922 93.4102C212.458 93.4015 212.995 93.3927 213.548 93.3836C216.009 93.3592 218.471 93.3368 220.933 93.3243C222.228 93.3152 223.522 93.3003 224.817 93.2794C226.69 93.2493 228.562 93.2375 230.434 93.2295C231.008 93.2171 231.581 93.2047 232.171 93.1919C235.962 93.2027 238.903 93.8897 242.042 96.2501C244.612 99.1461 246.265 102.131 246.262 106.198C246.264 106.762 246.266 107.326 246.268 107.906C246.265 108.522 246.262 109.137 246.259 109.771C246.26 110.756 246.26 110.756 246.262 111.761C246.263 113.582 246.26 115.403 246.255 117.224C246.25 119.188 246.252 121.152 246.252 123.116C246.253 126.518 246.25 129.921 246.244 133.323C246.236 138.243 246.233 143.162 246.232 148.081C246.23 156.063 246.223 164.044 246.213 172.025C246.204 179.778 246.196 187.531 246.192 195.285C246.192 195.762 246.192 196.24 246.191 196.733C246.19 199.13 246.189 201.528 246.187 203.925C246.177 223.815 246.159 243.704 246.136 263.594C246.461 263.582 246.786 263.571 247.121 263.559C248.605 263.513 250.088 263.485 251.573 263.457C252.084 263.439 252.595 263.42 253.122 263.402C256.265 263.357 258.081 263.522 260.464 265.781C262.54 268.637 262.395 271.607 261.999 275.078C260.886 277.589 259.719 278.815 257.394 280C255.937 280.155 254.595 280.222 253.139 280.208C252.711 280.211 252.282 280.213 251.84 280.216C250.397 280.222 248.953 280.217 247.51 280.212C246.467 280.214 245.424 280.217 244.382 280.221C241.511 280.229 238.641 280.227 235.77 280.223C232.676 280.22 229.583 280.227 226.489 280.232C220.777 280.241 215.065 280.243 209.353 280.24C204.076 280.237 198.799 280.238 193.522 280.241C192.814 280.241 192.107 280.242 191.399 280.242C190.333 280.243 189.267 280.243 188.201 280.244C178.289 280.25 168.376 280.253 158.464 280.248C158.09 280.248 157.716 280.248 157.331 280.248C154.296 280.246 151.26 280.245 148.224 280.243C136.383 280.238 124.541 280.243 112.699 280.255C99.3985 280.269 86.0983 280.277 72.798 280.273C71.3804 280.272 69.9628 280.272 68.5451 280.272C68.1961 280.271 67.847 280.271 67.4874 280.271C62.2137 280.27 56.9401 280.274 51.6665 280.282C45.6704 280.29 39.6743 280.29 33.6782 280.28C30.6174 280.276 27.5566 280.275 24.4958 280.283C21.6957 280.29 18.8958 280.288 16.0957 280.277C15.0809 280.275 14.0661 280.277 13.0513 280.283C11.6751 280.29 10.2994 280.284 8.92314 280.274C8.52638 280.279 8.12962 280.284 7.72084 280.29C5.07387 280.252 3.57457 279.597 1.53428 277.813C-0.541403 274.956 -0.39693 271.987 -0.000872537 268.516C1.10799 266.014 2.25108 264.71 4.6046 263.594C6.53798 263.394 8.45341 263.44 10.3934 263.491C10.9188 263.499 11.4442 263.506 11.9855 263.514C13.2781 263.533 14.5701 263.56 15.8624 263.594C15.8567 262.907 15.851 262.22 15.8452 261.513C15.7932 255.028 15.7549 248.543 15.7298 242.058C15.7165 238.725 15.6984 235.391 15.6694 232.057C15.6415 228.838 15.6263 225.618 15.6197 222.398C15.6149 221.173 15.6057 219.947 15.5919 218.721C15.5732 216.999 15.5708 215.277 15.5719 213.554C15.5627 213.052 15.5535 212.55 15.5441 212.033C15.5714 208.329 16.4676 205.423 18.421 202.344C21.1619 199.554 23.9755 197.849 27.8192 197.801C28.624 197.788 28.624 197.788 29.445 197.775C30.3078 197.77 30.3078 197.77 31.188 197.766C31.7856 197.761 32.3832 197.756 32.9988 197.751C34.263 197.743 35.5271 197.738 36.7913 197.736C38.7141 197.73 40.6361 197.703 42.5587 197.675C43.7897 197.67 45.0207 197.666 46.2517 197.663C46.8217 197.653 47.3917 197.642 47.979 197.631C51.7563 197.654 54.6944 198.355 57.8233 200.703C61.2705 204.588 62.0709 208.011 62.0333 213.244C62.0334 213.788 62.0336 214.332 62.0337 214.893C62.033 216.69 62.0251 218.486 62.017 220.282C62.0151 221.528 62.0137 222.775 62.0127 224.022C62.0087 227.301 61.9987 230.58 61.9874 233.858C61.9769 237.205 61.9722 240.552 61.9671 243.899C61.9561 250.464 61.9381 257.029 61.9171 263.594C66.9831 263.594 72.0491 263.594 77.2687 263.594C77.2553 261.336 77.2419 259.079 77.2281 256.753C77.1856 249.288 77.1573 241.823 77.1361 234.357C77.1229 229.832 77.105 225.307 77.0756 220.781C77.0501 216.835 77.0336 212.889 77.0279 208.943C77.0246 206.855 77.0168 204.768 76.9981 202.68C76.9807 200.711 76.9754 198.743 76.9793 196.774C76.9782 195.714 76.9645 194.654 76.9503 193.595C76.9732 189.407 77.5077 186.116 79.8272 182.656C82.5801 179.873 85.3731 178.161 89.2255 178.114C90.0302 178.101 90.0302 178.101 90.8513 178.087C91.714 178.083 91.714 178.083 92.5942 178.078C93.1918 178.073 93.7894 178.069 94.4051 178.063C95.6692 178.056 96.9334 178.051 98.1975 178.049C100.12 178.042 102.042 178.015 103.965 177.988C105.196 177.982 106.427 177.978 107.658 177.976C108.228 177.965 108.798 177.954 109.385 177.943C113.163 177.967 116.101 178.668 119.23 181.016C121.933 184.062 123.454 187.062 123.446 191.319C123.449 192.277 123.449 192.277 123.451 193.255C123.445 194.298 123.445 194.298 123.44 195.363C123.439 196.107 123.439 196.851 123.44 197.595C123.44 199.611 123.434 201.626 123.427 203.642C123.421 205.75 123.42 207.857 123.419 209.965C123.416 213.955 123.407 217.945 123.397 221.934C123.386 226.477 123.38 231.02 123.375 235.563C123.364 244.907 123.345 254.25 123.323 263.594C128.22 263.594 133.118 263.594 138.163 263.594C138.161 262.332 138.159 261.069 138.156 259.769C138.135 247.876 138.12 235.983 138.11 224.09C138.105 217.975 138.098 211.861 138.086 205.747C138.076 200.416 138.069 195.086 138.067 189.755C138.066 186.934 138.062 184.113 138.055 181.291C138.048 178.633 138.046 175.975 138.047 173.317C138.047 172.344 138.045 171.371 138.041 170.398C137.988 156.546 137.988 156.546 142.257 151.484C144.846 149.292 147.191 148.147 150.516 148.098C151.052 148.089 151.589 148.08 152.142 148.071C154.603 148.047 157.065 148.024 159.527 148.012C160.821 148.003 162.116 147.988 163.411 147.967C165.283 147.937 167.155 147.925 169.028 147.917C169.601 147.905 170.175 147.892 170.765 147.879C174.556 147.89 177.497 148.577 180.636 150.938C183.715 154.408 184.888 157.6 184.853 162.383C184.854 163.033 184.854 163.033 184.855 163.696C184.857 165.146 184.851 166.596 184.846 168.046C184.846 169.087 184.846 170.127 184.846 171.167C184.847 173.99 184.841 176.814 184.833 179.637C184.827 182.588 184.826 185.539 184.825 188.49C184.822 194.077 184.814 199.665 184.803 205.253C184.792 211.614 184.786 217.975 184.781 224.337C184.77 237.423 184.752 250.508 184.73 263.594C189.627 263.594 194.524 263.594 199.569 263.594C199.567 261.647 199.565 259.699 199.563 257.693C199.542 239.828 199.527 221.963 199.517 204.097C199.516 201.755 199.515 199.413 199.513 197.07C199.513 196.371 199.513 196.371 199.512 195.657C199.508 188.111 199.5 180.564 199.49 173.018C199.481 165.272 199.475 157.526 199.473 149.781C199.472 145.003 199.467 140.225 199.459 135.447C199.454 132.169 199.452 128.89 199.453 125.612C199.454 123.722 199.453 121.832 199.447 119.941C199.442 117.889 199.444 115.836 199.446 113.783C199.442 112.894 199.442 112.894 199.437 111.987C199.458 106.249 199.953 101.196 203.663 96.797C206.253 94.605 208.597 93.4598 211.922 93.4102ZM215.433 109.922C215.433 160.634 215.433 211.345 215.433 263.594C220.33 263.594 225.227 263.594 230.273 263.594C230.273 212.882 230.273 162.17 230.273 109.922C225.375 109.922 220.478 109.922 215.433 109.922ZM154.026 164.609C154.026 197.274 154.026 229.939 154.026 263.594C158.924 263.594 163.821 263.594 168.866 263.594C168.866 230.929 168.866 198.264 168.866 164.609C163.969 164.609 159.072 164.609 154.026 164.609ZM92.6202 194.688C92.6202 217.427 92.6202 240.166 92.6202 263.594C97.6862 263.594 102.752 263.594 107.972 263.594C107.972 240.855 107.972 218.116 107.972 194.688C102.906 194.688 97.8398 194.688 92.6202 194.688ZM31.214 214.375C31.214 230.617 31.214 246.859 31.214 263.594C36.28 263.594 41.346 263.594 46.5655 263.594C46.5655 247.352 46.5655 231.109 46.5655 214.375C41.4995 214.375 36.4335 214.375 31.214 214.375Z" fill="#61B5FB"/>
<path d="M246.425 0.957041C249.022 3.51971 249.723 5.8816 250.596 9.46565C250.725 9.97883 250.854 10.492 250.987 11.0207C251.411 12.7121 251.828 14.4053 252.245 16.0986C252.538 17.2745 252.83 18.4503 253.123 19.626C253.577 21.4477 254.03 23.2695 254.481 25.0919C255.377 28.705 256.288 32.3125 257.22 35.9151C257.795 38.1424 258.366 40.3712 258.936 42.6002C259.207 43.6541 259.48 44.7073 259.755 45.7598C263.066 58.4306 263.066 58.4306 261.392 62.8565C259.855 64.7263 258.166 66.5684 255.771 66.8491C252.79 66.9408 251.002 66.7616 248.695 64.5313C246.488 61.6085 245.778 58.4416 244.899 54.8477C244.667 53.928 244.667 53.928 244.43 52.9898C243.938 51.0393 243.454 49.0867 242.97 47.1338C242.48 45.1716 241.988 43.2098 241.494 41.2485C241.188 40.0295 240.884 38.8099 240.582 37.5895C240.445 37.0418 240.309 36.494 240.168 35.9297C240.048 35.4453 239.928 34.9609 239.804 34.4619C239.576 33.3723 239.576 33.3723 238.973 32.8125C238.821 33.0757 238.67 33.3389 238.515 33.6101C230.479 47.5429 221.266 60.3634 210.964 72.4608C210.24 73.3141 209.521 74.1713 208.808 75.0342C205.856 78.5959 202.764 81.9839 199.611 85.3404C198.768 86.238 197.928 87.1386 197.089 88.0394C194.251 91.0738 191.376 94.0216 188.312 96.7969C187.703 97.3683 187.094 97.9408 186.486 98.5144C182.563 102.189 178.567 105.719 174.437 109.122C173.415 109.97 172.402 110.829 171.39 111.691C157.955 123.079 143.497 132.893 128.441 141.641C127.652 142.1 127.652 142.1 126.846 142.569C92.2437 162.565 54.164 174.497 14.8398 176.641C14.365 176.667 13.8901 176.693 13.4009 176.72C5.38666 177.113 5.38666 177.113 2.04688 174.453C0.231749 172.465 -0.14624 170.862 -0.255859 168.164C-0.153361 165.473 0.292104 163.898 2.04688 161.875C4.39466 159.893 6.0049 159.398 8.97906 159.292C9.34742 159.276 9.71578 159.259 10.0953 159.242C10.8836 159.207 11.672 159.176 12.4605 159.149C14.5473 159.076 16.6323 158.966 18.7177 158.859C19.1335 158.838 19.5494 158.817 19.9778 158.796C46.8824 157.4 73.6555 149.327 98.25 137.813C99.0192 137.455 99.0192 137.455 99.8039 137.089C125.475 125.058 149.559 108.962 170.864 89.4824C172.349 88.1283 173.868 86.8221 175.392 85.5176C177.56 83.6339 179.544 81.6388 181.474 79.4806C182.492 78.4055 183.528 77.4089 184.611 76.4108C186.801 74.3799 188.859 72.2313 190.903 70.0342C191.245 69.6708 191.587 69.3074 191.94 68.933C193.956 66.7733 195.876 64.553 197.741 62.2427C198.791 60.9487 199.885 59.7 200.978 58.4473C203.66 55.2998 206.115 51.9982 208.539 48.6225C209.312 47.5518 210.093 46.4891 210.876 45.4269C214.007 41.1515 216.96 36.7801 219.783 32.2656C220.225 31.5603 220.225 31.5603 220.675 30.8406C222.477 27.9236 224.097 24.9393 225.668 21.875C225.318 21.9778 224.968 22.0805 224.608 22.1864C221.297 23.1577 217.985 24.1236 214.671 25.0837C212.968 25.5773 211.265 26.073 209.564 26.5734C207.604 27.1496 205.642 27.7169 203.68 28.2837C203.074 28.4631 202.469 28.6426 201.845 28.8274C194.886 30.8205 194.886 30.8205 191.287 29.4629C189.201 27.9764 187.683 26.5731 186.963 23.9835C186.528 21.0502 186.863 19.0056 188.312 16.4063C190.907 13.547 193.62 12.7769 197.174 11.8027C197.743 11.6391 198.313 11.4754 198.9 11.3068C200.752 10.7766 202.608 10.2587 204.464 9.74122C205.74 9.37946 207.017 9.01697 208.293 8.65375C210.214 8.10764 212.135 7.5625 214.056 7.02107C217.842 5.95414 221.617 4.85581 225.384 3.71705C226.247 3.45854 227.109 3.20018 227.972 2.942C229.153 2.58839 230.333 2.23281 231.512 1.86863C242 -1.36558 242 -1.36558 246.425 0.957041Z" fill="#61B5FB"/>
</g>
<defs>
<clipPath id="clip0_1077_1377">
<rect width="262" height="280" fill="white"/>
</clipPath>
</defs>
</svg>
