<svg width="284" height="252" viewBox="0 0 284 252" fill="none" xmlns="http://www.w3.org/2000/svg">
<path d="M244.559 86.9291C245.995 88.0308 247.453 89.1033 248.905 90.1836C259.162 97.9554 268.753 106.596 277.878 115.672C278.449 116.235 278.449 116.235 279.031 116.81C281.828 119.618 283.847 121.74 283.929 125.896C283.952 126.439 283.976 126.982 284 127.541C282.943 132.507 278.005 136.247 274.559 139.666C274.057 140.17 273.555 140.675 273.038 141.195C270.198 144.032 267.3 146.755 264.256 149.368C263.657 149.896 263.058 150.425 262.46 150.954C226.574 182.437 180.961 205.721 132.327 202.658C110.629 200.888 89.8272 194.6 70.5735 184.41C69.5105 183.851 68.4405 183.308 67.3686 182.767C57.5607 177.755 48.1735 171.799 39.441 165.071C38.0049 163.969 36.5473 162.897 35.0954 161.816C24.8378 154.045 15.2475 145.404 6.12186 136.328C5.55134 135.765 5.55134 135.765 4.96929 135.19C2.17205 132.382 0.152541 130.26 0.0713101 126.104C0.0477778 125.561 0.0242454 125.018 0 124.459C1.05685 119.493 5.99533 115.753 9.44102 112.334C9.94305 111.83 10.4451 111.325 10.9623 110.805C13.8019 107.968 16.6995 105.245 19.7443 102.632C20.3434 102.104 20.942 101.575 21.54 101.046C37.6148 86.9433 55.7518 74.551 75.0374 65.3412C75.8125 64.9703 76.5854 64.595 77.3566 64.216C128.282 39.262 183.802 48.0322 244.559 86.9291ZM102.723 80.934C102.317 81.2625 101.91 81.5909 101.492 81.9294C92.6512 89.3125 87.2055 99.5207 83.9147 110.422C83.7257 111.01 83.5368 111.599 83.342 112.206C79.5361 126.36 82.34 142.575 89.425 155.194C98.6511 170.644 112.414 180.063 129.588 184.551C144.82 187.946 160.798 184.688 174.042 176.649C176.602 174.947 178.955 173.082 181.277 171.066C181.683 170.738 182.09 170.409 182.508 170.071C193.06 161.258 200.18 147.45 201.745 133.789C203.09 116.045 198.912 100.596 187.466 86.915C177.662 75.583 163.54 68.0957 148.638 66.4684C131.466 65.6242 115.94 69.4562 102.723 80.934ZM207.277 84.2722C207.938 86.0726 208.729 87.7777 209.585 89.4904C212.034 94.4167 214.278 99.294 215.851 104.58C215.979 105.004 216.106 105.428 216.238 105.865C218.076 112.403 218.569 118.951 218.548 125.722C218.548 126.11 218.547 126.498 218.547 126.898C218.492 140.211 215.355 152.109 208.802 163.692C208.265 164.651 207.767 165.631 207.277 166.615C207.459 166.982 207.642 167.349 207.83 167.728C218.592 161.928 228.859 155.536 238.426 147.889C239.627 146.931 240.843 145.994 242.059 145.056C242.821 144.455 243.582 143.852 244.341 143.247C244.801 142.881 245.262 142.515 245.737 142.137C249.565 139.043 253.162 135.744 256.748 132.375C258.856 130.408 261.005 128.484 263.149 126.556C262.398 124.85 261.566 123.734 260.213 122.464C259.666 121.948 259.666 121.948 259.108 121.422C258.719 121.062 258.33 120.703 257.929 120.332C257.529 119.959 257.129 119.586 256.717 119.201C254.068 116.748 251.371 114.396 248.552 112.141C247.015 110.905 245.525 109.621 244.03 108.335C239.702 104.705 235.123 101.433 230.511 98.1815C230.167 97.9377 229.823 97.694 229.468 97.4428C218.902 89.7933 218.902 89.7933 207.277 84.2722ZM76.17 84.2722C65.4449 90.0517 55.2213 96.4215 45.6811 104.032C44.6809 104.824 43.6709 105.6 42.6542 106.371C38.9005 109.217 35.3729 112.228 31.9145 115.429C31.2022 116.057 30.4877 116.683 29.7709 117.307C26.7426 119.958 23.8025 122.707 20.8506 125.444C21.6023 127.15 22.4336 128.266 23.7873 129.536C24.1519 129.88 24.5165 130.224 24.8921 130.578C25.2813 130.938 25.6704 131.297 26.0714 131.668C26.4713 132.041 26.8711 132.414 27.2831 132.799C29.932 135.252 32.6292 137.604 35.4476 139.859C36.9845 141.095 38.4747 142.379 39.9704 143.665C44.2976 147.295 48.8768 150.567 53.4891 153.819C53.8332 154.062 54.1774 154.306 54.532 154.557C65.0977 162.207 65.0977 162.207 76.7232 167.728C76.0615 165.927 75.2712 164.222 74.4153 162.51C71.9662 157.583 69.7215 152.706 68.1487 147.42C67.9575 146.784 67.9575 146.784 67.7624 146.135C65.9083 139.54 65.448 132.968 65.4864 126.139C65.4878 125.747 65.4892 125.355 65.4906 124.951C65.5227 119.038 65.7135 113.365 67.3189 107.64C67.4408 107.196 67.5628 106.751 67.6884 106.294C69.4612 100.033 71.8098 94.314 75.0011 88.6474C75.2328 88.2342 75.4645 87.821 75.7032 87.3953C75.9132 87.0326 76.1232 86.6699 76.3396 86.2962C76.5295 85.8452 76.5295 85.8452 76.7232 85.3849C76.4493 84.8341 76.4493 84.8341 76.17 84.2722Z" fill="#61B5FB"/>
<path d="M150.135 100.739C151.065 100.728 151.065 100.728 152.015 100.717C152.68 100.719 153.345 100.72 154.03 100.722C155.062 100.718 155.062 100.718 156.115 100.713C157.941 100.709 159.766 100.713 161.592 100.719C162.708 100.72 163.824 100.713 164.94 100.704C167.089 100.687 169.237 100.685 171.386 100.687C172.382 100.678 172.382 100.678 173.398 100.668C179.264 100.718 179.264 100.718 181.83 103.189C184.188 105.784 183.738 109.138 183.729 112.454C183.732 113.084 183.735 113.714 183.738 114.364C183.742 115.695 183.741 117.027 183.736 118.358C183.732 120.392 183.747 122.426 183.765 124.46C183.766 125.755 183.766 127.05 183.764 128.345C183.77 128.952 183.776 129.559 183.783 130.184C183.752 133.599 183.567 135.653 181.277 138.24C178.388 140.497 175.383 140.34 171.872 139.909C169.381 138.722 168.008 137.439 166.894 134.902C166.692 133.606 166.506 132.308 166.341 131.007C166.118 131.234 165.895 131.46 165.666 131.693C163.345 134.052 161.02 136.407 158.693 138.76C157.825 139.638 156.959 140.517 156.093 141.397C154.848 142.664 153.599 143.926 152.349 145.188C151.771 145.778 151.771 145.778 151.182 146.379C148.39 149.188 146.228 151.268 142.104 151.35C141.294 151.385 141.294 151.385 140.468 151.421C136.085 150.478 132.852 146.435 129.83 143.317C129.454 142.934 129.078 142.551 128.691 142.156C127.777 141.224 126.866 140.29 125.957 139.353C124.184 140.134 123.042 141.058 121.709 142.463C121.332 142.853 120.955 143.244 120.566 143.646C119.784 144.467 119.003 145.288 118.223 146.111C115.847 148.566 113.77 150.661 110.278 151.258C107.543 151.228 105.611 150.951 103.276 149.368C101.319 147.186 100.422 145.786 100.338 142.865C100.317 142.404 100.296 141.943 100.275 141.468C100.875 137.496 103.745 134.745 106.472 132.042C106.831 131.681 107.19 131.32 107.559 130.948C108.314 130.19 109.07 129.435 109.829 128.681C110.986 127.531 112.136 126.372 113.285 125.213C114.022 124.475 114.759 123.738 115.496 123.001C115.838 122.657 116.18 122.312 116.532 121.958C119.222 119.296 121.373 117.419 125.3 117.341C125.84 117.318 126.38 117.294 126.936 117.27C131.319 118.213 134.552 122.256 137.574 125.374C137.95 125.757 138.326 126.14 138.713 126.535C139.627 127.467 140.538 128.401 141.447 129.338C143.364 128.511 144.595 127.415 146.054 125.926C146.496 125.478 146.938 125.03 147.394 124.568C148.078 123.865 148.078 123.865 148.777 123.149C149.242 122.676 149.707 122.203 150.186 121.716C151.332 120.55 152.476 119.382 153.617 118.211C152.933 118.168 152.933 118.168 152.234 118.123C151.636 118.08 151.038 118.038 150.421 117.993C149.828 117.953 149.235 117.913 148.623 117.871C146.463 117.586 145.254 116.91 143.66 115.429C141.506 112.404 141.563 109.575 142 105.971C143.724 102.31 146.14 100.761 150.135 100.739Z" fill="#61B5FB"/>
<path d="M90.553 204.448C92.3451 207.001 92.6184 208.938 92.5378 212.014C91.8992 215.73 89.8603 218.774 87.9253 221.939C87.5164 222.635 87.1087 223.332 86.7023 224.029C81.6879 232.545 81.6879 232.545 77.8296 233.936C74.6809 234.351 72.2203 234.09 69.5317 232.267C67.4185 229.969 66.4463 227.959 66.515 224.771C67.1088 221.44 69 218.491 70.6381 215.576C71.0249 214.88 71.0249 214.88 71.4195 214.17C72.2652 212.661 73.1255 211.161 73.9918 209.664C74.2651 209.183 74.5384 208.701 74.82 208.205C76.6783 205.065 78.2528 203.244 81.6328 201.771C85.2414 201.451 87.7686 202.104 90.553 204.448Z" fill="#61B5FB"/>
<path d="M205.038 203.09C207.122 204.769 208.154 206.501 209.42 208.83C209.654 209.245 209.888 209.66 210.129 210.088C210.609 210.941 211.085 211.796 211.559 212.653C212.22 213.843 212.894 215.023 213.576 216.202C217.787 223.498 217.787 223.498 217.234 227.816C216.47 230.112 215.266 231.728 213.258 233.067C210.194 234.591 207.372 234.339 204.2 233.275C201.48 231.46 200.092 228.416 198.533 225.623C197.802 224.354 197.024 223.122 196.239 221.887C190.917 213.367 190.917 213.367 191.437 208.56C192.131 205.923 193.212 204.466 195.383 202.883C198.725 201.287 201.75 201.345 205.038 203.09Z" fill="#61B5FB"/>
<path d="M212.982 18.7248C215.157 20.2003 216.404 21.6788 217.234 24.1842C217.94 28.8836 215.565 32.4558 213.362 36.4243C213.143 36.8282 212.924 37.2321 212.698 37.6482C212.008 38.9155 211.304 40.1746 210.596 41.4317C210.38 41.8243 210.164 42.2169 209.942 42.6214C208.171 45.6827 206.008 48.4407 202.627 49.7272C199.702 49.9412 197.7 49.663 195.107 48.1081C192.941 46.0368 191.919 44.1572 191.545 41.1535C191.611 37.8063 193.452 35.3331 195.107 32.5297C195.568 31.6911 196.026 30.8506 196.481 30.0087C196.722 29.5647 196.962 29.1206 197.21 28.6631C197.689 27.7792 198.168 26.8949 198.645 26.01C201.935 20.0104 205.886 16.1665 212.982 18.7248Z" fill="#61B5FB"/>
<path d="M79.8003 18.7248C82.5245 20.5346 83.9308 23.6177 85.4959 26.4078C86.1877 27.6288 86.901 28.8354 87.6185 30.0413C89.6985 33.5466 89.6985 33.5466 90.5508 35.003C90.7515 35.3445 90.9522 35.6859 91.159 36.0378C92.3709 38.3215 92.4706 40.5734 92.2126 43.1008C91.2632 45.8061 89.7603 47.8374 87.2339 49.2209C84.7128 49.9737 82.7485 49.9118 80.2152 49.2209C75.6859 46.4704 73.4834 41.6506 71.0184 37.1198C70.6686 36.4879 70.3188 35.8561 69.9584 35.2051C66.2062 28.3855 66.2062 28.3855 66.7657 24.1842C67.6691 21.8068 68.9772 19.9135 71.1912 18.6205C74.1702 17.6218 76.8286 17.7285 79.8003 18.7248Z" fill="#61B5FB"/>
<path d="M145.319 217.801C147.856 219.01 149.125 220.268 150.298 222.808C150.545 224.605 150.544 226.385 150.538 228.196C150.541 228.715 150.544 229.234 150.547 229.769C150.55 230.865 150.549 231.961 150.545 233.056C150.54 234.728 150.556 236.399 150.573 238.071C150.574 239.137 150.574 240.204 150.572 241.271C150.582 242.017 150.582 242.017 150.591 242.778C150.557 245.854 150.134 247.636 148.085 250.071C145.196 252.327 142.192 252.17 138.681 251.74C136.144 250.531 134.875 249.273 133.702 246.732C133.455 244.936 133.456 243.156 133.462 241.345C133.459 240.826 133.456 240.306 133.453 239.772C133.45 238.676 133.451 237.58 133.455 236.485C133.46 234.813 133.444 233.142 133.427 231.47C133.426 230.404 133.426 229.337 133.428 228.27C133.421 227.773 133.415 227.275 133.409 226.763C133.443 223.687 133.866 221.905 135.915 219.47C138.804 217.213 141.808 217.371 145.319 217.801Z" fill="#61B5FB"/>
<path d="M145.319 0.260248C147.857 1.46915 149.12 2.72891 150.298 5.26758C150.544 7.02339 150.544 8.76246 150.538 10.5335C150.541 11.0404 150.544 11.5472 150.547 12.0693C150.55 13.1388 150.549 14.2083 150.545 15.2778C150.54 16.9093 150.556 18.5397 150.573 20.1711C150.574 21.2125 150.574 22.2539 150.572 23.2953C150.582 24.0231 150.582 24.0231 150.591 24.7655C150.557 27.8096 150.104 29.5609 148.085 31.9734C145.196 34.2302 142.192 34.0731 138.681 33.6425C136.143 32.4336 134.88 31.1738 133.702 28.6352C133.456 26.8793 133.456 25.1403 133.462 23.3692C133.459 22.8624 133.456 22.3556 133.453 21.8334C133.45 20.7639 133.451 19.6944 133.455 18.625C133.46 16.9934 133.444 15.363 133.427 13.7316C133.426 12.6902 133.426 11.6488 133.428 10.6074C133.421 10.1223 133.415 9.63708 133.409 9.13719C133.443 6.09312 133.896 4.34181 135.915 1.92936C138.804 -0.327448 141.808 -0.170369 145.319 0.260248Z" fill="#61B5FB"/>
</svg>
