<svg width="48" height="48" viewBox="0 0 48 48" fill="none" xmlns="http://www.w3.org/2000/svg">
<circle cx="24" cy="24" r="24" fill="#0A3380"/>
<g clip-path="url(#clip0_639_7280)">
<path d="M40 24.0977C40 32.083 34.1413 38.703 26.4933 39.9043V28.7537H30.212L30.92 24.1403H26.4933V21.147C26.4933 19.8843 27.112 18.655 29.0933 18.655H31.1053V14.727C31.1053 14.727 29.2787 14.415 27.5333 14.415C23.888 14.415 21.5067 16.6243 21.5067 20.623V24.139H17.4547V28.7523H21.5067V39.903C13.86 38.7003 8 32.0817 8 24.0977C8 15.2617 15.164 8.09766 24 8.09766C32.836 8.09766 40 15.2603 40 24.0977Z" fill="white"/>
</g>
<defs>
<clipPath id="clip0_639_7280">
<rect width="32" height="32" fill="white" transform="translate(8 8)"/>
</clipPath>
</defs>
</svg>
