<svg width="112" height="112" viewBox="0 0 112 112" fill="none" xmlns="http://www.w3.org/2000/svg">
<g filter="url(#filter0_d_357_2453)">
<path d="M102 56C102 81.4051 81.4051 102 56 102C30.5949 102 10 81.4051 10 56C10 30.5949 30.5949 10 56 10C81.4051 10 102 30.5949 102 56Z" fill="white"/>
<path d="M56 11C80.8528 11 101 31.1472 101 56C101 80.8528 80.8528 101 56 101C31.1472 101 11 80.8528 11 56C11 31.1472 31.1472 11 56 11Z" stroke="url(#paint0_linear_357_2453)" stroke-width="2"/>
</g>
<path d="M56.832 55.2266C59.327 55.2138 61.3422 55.5798 63.4766 56.6562L63.4805 56.6582H63.4814L63.4824 56.6592H63.4834L63.4844 56.6602H63.4854L63.4863 56.6611H63.4873L63.4883 56.6621H63.4893L63.4902 56.6631H63.4912L63.4922 56.6641H63.4932L63.4941 56.665H63.4951L63.4961 56.666H63.4971L63.498 56.667H63.499L63.5 56.668H63.501L63.502 56.6689H63.5029L63.5039 56.6699H63.5049L63.5059 56.6709H63.5068L63.5078 56.6719H63.5088L63.5098 56.6729H63.5107L63.5117 56.6738H63.5127L63.5137 56.6748H63.5146L63.5156 56.6758L63.5176 56.6768H63.5186L63.5195 56.6777H63.5205L63.5215 56.6787H63.5225L63.5234 56.6797L63.5254 56.6807H63.5264L63.5273 56.6816H63.5283L63.5293 56.6826H63.5303L63.5312 56.6836L63.5332 56.6846H63.5342L63.5352 56.6855H63.5371V56.6865H63.5381L63.5391 56.6875L63.541 56.6885H63.542L63.543 56.6895H63.5449V56.6904H63.5459L63.5469 56.6914H63.5479L63.5488 56.6924H63.5498L63.5508 56.6934H63.5518L63.5527 56.6943H63.5537L63.5547 56.6953H63.5557L63.5566 56.6963H63.5576L63.5586 56.6973H63.5596L63.5605 56.6982H63.5615L63.5625 56.6992H63.5635L63.5645 56.7002H63.5654L63.5664 56.7012H63.5674L63.5684 56.7021H63.5693L63.5703 56.7031H63.5713L63.5723 56.7041H63.5732L63.5742 56.7051H63.5752L63.5762 56.7061H63.5771L63.5781 56.707H63.5791L63.5801 56.708L63.582 56.709H63.583L63.584 56.71H63.585L63.5859 56.7109H63.5869L63.5879 56.7119L63.5898 56.7129H63.5908L63.5918 56.7139H63.5938V56.7148H63.5947L63.5957 56.7158L63.5977 56.7168H63.5986L63.5996 56.7178H63.6016V56.7188H63.6025L63.6035 56.7197H63.6045L63.6055 56.7207H63.6064L63.6074 56.7217H63.6084L63.6094 56.7227H63.6104L63.6113 56.7236H63.6123L63.6133 56.7246H63.6143L63.6152 56.7256H63.6162L63.6172 56.7266H63.6182L63.6191 56.7275H63.6201L63.6211 56.7285L63.623 56.7295H63.624L63.625 56.7305H63.626L63.627 56.7314H63.6279L63.6289 56.7324L63.6309 56.7334H63.6318L63.6328 56.7344H63.6348V56.7354H63.6357L63.6367 56.7363L63.6387 56.7373H63.6396L63.6406 56.7383H63.6416L63.6426 56.7393H63.6436L63.6445 56.7402H63.6455L63.6465 56.7412H63.6475L63.6484 56.7422H63.6494L63.6504 56.7432H63.6514L63.6523 56.7441H63.6533L63.6543 56.7451L63.6562 56.7461H63.6572L63.6582 56.7471H63.6592L63.6602 56.748H63.6611L63.6621 56.749L63.6641 56.75H63.665L63.666 56.751H63.668V56.752H63.6689L63.6699 56.7529H63.6709L63.6719 56.7539H63.6729L63.6738 56.7549H63.6748L63.6758 56.7559H63.6768L63.6777 56.7568H63.6787L63.6797 56.7578H63.6807L63.6816 56.7588H63.6826L63.6836 56.7598H63.6846L63.6855 56.7607H63.6865L63.6875 56.7617L63.6895 56.7627H63.6904L63.6914 56.7637H63.6934V56.7646H63.6943L63.6953 56.7656H63.6963L63.6973 56.7666H63.6982L63.6992 56.7676H63.7002L63.7012 56.7686H63.7021L63.7031 56.7695H63.7041L63.7051 56.7705L63.707 56.7715H63.708L63.709 56.7725H63.7109V56.7734H63.7119L63.7129 56.7744L63.7148 56.7754H63.7158L63.7168 56.7764H63.7178L63.7188 56.7773H63.7197L63.7207 56.7783H63.7217L63.7227 56.7793H63.7236L63.7246 56.7803H63.7256L63.7266 56.7812H63.7275L63.7285 56.7822H63.7295L63.7305 56.7832L63.7324 56.7842H63.7334L63.7344 56.7852H63.7354L63.7363 56.7861H63.7373L63.7383 56.7871H63.7393L63.7402 56.7881H63.7412L63.7422 56.7891H63.7432L63.7441 56.79H63.7451L63.7461 56.791H63.7471L63.748 56.792L63.75 56.793H63.751L63.752 56.7939H63.7529L63.7539 56.7949H63.7549L63.7559 56.7959H63.7568L63.7578 56.7969L63.7598 56.7979H63.7607L63.7617 56.7988H63.7637V56.7998H63.7646L63.7656 56.8008H63.7666L63.7676 56.8018H63.7686L63.7695 56.8027H63.7705L63.7715 56.8037H63.7725L63.7734 56.8047H63.7744L63.7754 56.8057L63.7773 56.8066H63.7783L63.7793 56.8076H63.7803L63.7812 56.8086H63.7822L63.7832 56.8096H63.7842L63.7852 56.8105H63.7861L63.7871 56.8115H63.7881L63.7891 56.8125H63.791V56.8135H63.792L63.793 56.8145H63.7939L63.7949 56.8154H63.7959L63.7969 56.8164H63.7979L63.7988 56.8174H63.7998L63.8008 56.8184H63.8018L63.8027 56.8193L63.8047 56.8203H63.8057L63.8066 56.8213H63.8076L63.8086 56.8223H63.8096L63.8105 56.8232H63.8115L63.8125 56.8242L63.8145 56.8252H63.8154L63.8164 56.8262H63.8174L63.8184 56.8271H63.8193L63.8203 56.8281H63.8213L63.8223 56.8291L63.8242 56.8301H63.8252L63.8262 56.8311H63.8281V56.832H63.8291L63.8301 56.833H63.8311L63.832 56.834H63.833L63.834 56.835H63.835L63.8359 56.8359H63.8379V56.8369H63.8389L63.8398 56.8379H63.8408L63.8418 56.8389H63.8428L63.8438 56.8398H63.8447L63.8457 56.8408H63.8477V56.8418H63.8486L63.8496 56.8428H63.8506L63.8516 56.8438H63.8525L63.8535 56.8447H63.8545L63.8555 56.8457H63.8574V56.8467H63.8584L63.8594 56.8477H63.8604L63.8613 56.8486L63.8633 56.8496H63.8643L63.8652 56.8506H63.8672V56.8516H63.8682L63.8691 56.8525H63.8701L63.8711 56.8535L63.873 56.8545H63.874L63.875 56.8555H63.876L63.877 56.8564H63.8779L63.8789 56.8574H63.8799L63.8809 56.8584L63.8828 56.8594H63.8838L63.8848 56.8604H63.8857L63.8867 56.8613H63.8877L63.8887 56.8623H63.8896L63.8906 56.8633H63.8916L63.8926 56.8643H63.8936L63.8945 56.8652H63.8955L63.8965 56.8662H63.8984V56.8672H63.8994L63.9004 56.8682H63.9014L63.9023 56.8691H63.9033C64.819 57.3679 65.5569 58.024 66.4316 58.8848L66.4326 58.8857C66.5442 58.9953 66.6559 59.1053 66.7705 59.2178H66.7715C68.914 61.402 69.8589 64.0905 70.3018 67.3213L70.3037 67.332L70.4043 68.0283L70.6113 69.4814C70.7039 70.1397 70.8006 70.7963 70.8984 71.4492C70.9771 71.9744 71.0552 72.5004 71.1328 73.0273V73.0283C71.1702 73.2812 71.2072 73.5342 71.2451 73.7871V73.7881C71.5365 75.7405 71.6434 76.4983 71.6338 76.915C71.6323 76.978 71.6271 77.011 71.625 77.0234C71.6135 77.0464 71.5833 77.0939 71.4629 77.2627C70.4542 78.3042 68.8886 79.0194 66.9951 79.5C65.0843 79.985 63.0296 80.1878 61.2471 80.3398L61.2441 80.3408C61.1105 80.3526 60.9763 80.3639 60.8389 80.376C59.2681 80.498 57.6882 80.5017 56.04 80.5H56.0391C55.8908 80.4999 55.7426 80.4991 55.5898 80.499H55.5908C53.476 80.4958 51.4795 80.4755 49.4961 80.209L49.4873 80.208L49.0693 80.1543H49.0703C47.4623 79.9419 45.7391 79.6955 44.1455 79.2178C42.6125 78.7582 41.331 78.1205 40.4326 77.2148C40.3266 76.984 40.2671 76.6042 40.3203 75.9795C40.3879 75.1868 40.5473 74.6147 40.6816 73.6982L40.6826 73.6943C40.7156 73.4649 40.7484 73.2353 40.7812 73.0059L40.9893 71.5732C41.0787 70.9628 41.1656 70.3526 41.252 69.7441C41.3191 69.273 41.3881 68.8009 41.457 68.3281V68.3271L41.5537 67.6514C42.0481 64.1734 43.0541 61.4175 45.3799 58.9932L45.3887 58.9834L45.3975 58.9746C45.4842 58.881 45.5711 58.7875 45.6602 58.6914C47.7821 56.467 50.9418 55.2493 54.0723 55.2422H54.0781C54.224 55.2413 54.3702 55.2412 54.5205 55.2402L54.5195 55.2393C54.8238 55.2379 55.1282 55.2382 55.4326 55.2383H55.4346C55.9038 55.2377 56.3719 55.2318 56.832 55.2266ZM71.4072 55.877C74.7469 54.6775 78.4738 55.0719 81.4229 57.1152C81.8105 57.4035 82.1828 57.7262 82.5732 58.0859L82.5879 58.0996L82.6025 58.1123C82.6834 58.1829 82.7638 58.2539 82.8467 58.3262C84.7864 60.1228 85.5387 62.7188 86.1074 65.7139V65.7168L86.2012 66.207C86.3063 66.7823 86.3786 67.1789 86.4238 67.4834C86.4701 67.7944 86.4752 67.9272 86.4727 67.9873C86.4717 68.0094 86.473 68.0031 86.4639 68.0254C86.4381 68.0883 86.3936 68.1713 86.2754 68.3828C85.6853 69.1731 84.7846 69.7985 83.6582 70.2861C82.5143 70.7813 81.2273 71.0972 80.0039 71.3115C79.6598 71.3664 79.3115 71.4145 78.9512 71.4619L78.9463 71.4629L78.5732 71.5127C77.956 71.5815 77.3333 71.5965 76.6758 71.5967C76.668 71.5486 76.6611 71.5002 76.6533 71.4521L76.6523 71.4512L76.5791 70.9941C76.4398 70.128 76.3053 69.2638 76.1797 68.3994C76.1106 67.9241 76.0397 67.4491 75.9697 66.9766H75.9707C75.9371 66.7469 75.9035 66.5168 75.8711 66.2871C75.5992 64.3622 75.2107 62.3022 74.3232 60.3516L74.1396 59.9629C74.0944 59.8694 74.0486 59.776 74.002 59.6797L73.9941 59.6641L73.833 59.3506C73.1441 58.0528 72.2855 56.9206 71.4072 55.877ZM29.1152 58.2812C31.91 55.2798 36.6197 54.4393 40.4932 55.8408C37.289 59.7672 36.3501 63.9658 35.7051 68.6094C35.6314 69.1327 35.5577 69.6563 35.4834 70.1797V70.1807C35.4375 70.5051 35.3918 70.8296 35.3467 71.1543C35.3264 71.299 35.3061 71.4438 35.2852 71.5928C31.7379 71.5431 28.243 70.8435 25.877 68.667C25.6956 68.4677 25.6205 68.3544 25.583 68.2773C25.5575 68.2248 25.5338 68.1565 25.5293 68.0234C25.8607 64.2784 26.6059 61.121 28.8984 58.5322L28.9033 58.5273L28.9082 58.5215C28.9769 58.4424 29.0448 58.3623 29.1152 58.2812ZM49.0156 34.3525C52.3778 30.7453 58.3478 30.5932 62.2217 33.7021C64.0613 35.2957 65.4151 37.5523 65.5986 39.835C65.7175 43.1111 65.1042 45.5445 63.0459 47.9141C61.2 49.8455 58.6829 50.8708 55.96 50.9512C53.2653 50.8714 50.8758 49.8565 48.9258 47.9746C46.9076 45.8249 46.2609 43.374 46.3096 40.2764C46.3857 38.2344 47.2925 36.2444 48.7354 34.6719L48.7461 34.6602L48.7568 34.6475C48.8424 34.5501 48.9278 34.4525 49.0156 34.3525ZM36.6191 37.457H36.624C36.8164 37.4585 36.824 37.4576 37.0059 37.459V37.46C38.1502 37.4863 39.2467 37.7382 40.0986 38.2422C40.0919 38.2711 40.0867 38.3046 40.0771 38.3418L40.0654 38.3857L40.0576 38.4297C39.3641 41.9884 40.0909 45.67 41.7227 48.7686C40.6855 49.9533 39.1931 50.6218 37.4346 50.9121C35.6963 51.0983 33.8977 50.5489 32.4424 49.4648C30.9394 48.1949 30.1636 46.5338 29.9141 44.4658C29.8647 42.718 30.45 41.0697 31.5879 39.7578L32.1699 39.1602L32.1797 39.1504C32.2502 39.0785 32.3204 39.0063 32.3926 38.9326C33.4671 37.9356 35.0181 37.4393 36.6191 37.457ZM75.0215 37.3848C76.5213 37.4331 78.0175 37.893 79.0166 38.502C80.565 39.6279 81.5026 41.0957 81.8857 42.9609C82.1753 44.7888 81.7665 46.6361 80.7207 48.1494C80.1298 48.913 79.4815 49.4798 78.623 50.0225L78.6094 50.0303C78.5382 50.0763 78.4671 50.123 78.3945 50.1699C76.9252 50.9994 75.0438 51.1147 73.2695 50.6533C72.0748 50.3057 70.9726 49.6287 70.2148 48.7344C70.2423 48.6762 70.2733 48.6108 70.3125 48.5352C70.3591 48.4454 70.4557 48.2628 70.5205 48.1357L70.5322 48.1143C71.6051 45.9208 72.0655 43.5582 72.0645 41.1914C72.0646 41.0559 72.0652 40.92 72.0654 40.7803L72.0645 40.7686C72.0589 39.9533 72.0137 39.0939 71.7979 38.1826C72.573 37.6212 73.6976 37.3422 75.0215 37.3848Z" stroke="url(#paint1_linear_357_2453)" stroke-width="3"/>
<defs>
<filter id="filter0_d_357_2453" x="0" y="0" width="112" height="112" filterUnits="userSpaceOnUse" color-interpolation-filters="sRGB">
<feFlood flood-opacity="0" result="BackgroundImageFix"/>
<feColorMatrix in="SourceAlpha" type="matrix" values="0 0 0 0 0 0 0 0 0 0 0 0 0 0 0 0 0 0 127 0" result="hardAlpha"/>
<feOffset/>
<feGaussianBlur stdDeviation="5"/>
<feComposite in2="hardAlpha" operator="out"/>
<feColorMatrix type="matrix" values="0 0 0 0 0 0 0 0 0 0.396078 0 0 0 0 1 0 0 0 0.27 0"/>
<feBlend mode="normal" in2="BackgroundImageFix" result="effect1_dropShadow_357_2453"/>
<feBlend mode="normal" in="SourceGraphic" in2="effect1_dropShadow_357_2453" result="shape"/>
</filter>
<linearGradient id="paint0_linear_357_2453" x1="10" y1="10" x2="102" y2="102" gradientUnits="userSpaceOnUse">
<stop/>
<stop offset="1" stop-color="#0065FF"/>
</linearGradient>
<linearGradient id="paint1_linear_357_2453" x1="30.0002" y1="30" x2="82.0002" y2="82" gradientUnits="userSpaceOnUse">
<stop/>
<stop offset="1" stop-color="#0065FF"/>
</linearGradient>
</defs>
</svg>
