<svg width="252" height="252" viewBox="0 0 252 252" fill="none" xmlns="http://www.w3.org/2000/svg">
<g opacity="0.4">
<path d="M109.042 86.7819C109.655 86.7785 109.655 86.7785 110.28 86.7751C111.635 86.7684 112.99 86.7653 114.345 86.7628C115.285 86.7602 116.225 86.7576 117.166 86.755C119.139 86.7502 121.112 86.7476 123.085 86.746C125.613 86.7435 128.142 86.7327 130.671 86.7198C132.613 86.7113 134.556 86.709 136.498 86.7083C137.431 86.7069 138.363 86.7032 139.295 86.6973C140.599 86.6896 141.904 86.6904 143.208 86.6934C143.593 86.6892 143.979 86.685 144.376 86.6807C147.609 86.7036 149.238 87.7401 151.516 90.0184C152.059 90.5582 152.059 90.5582 152.613 91.1089C152.997 91.4956 153.381 91.8822 153.777 92.2806C154.176 92.6789 154.575 93.0772 154.986 93.4875C156.041 94.5427 157.095 95.5999 158.147 96.6579C159.221 97.7358 160.299 98.8098 161.376 99.8846C162.192 100.701 163.008 101.518 163.824 102.335C164.405 102.917 164.405 102.917 164.999 103.51C165.533 104.048 165.533 104.048 166.078 104.596C166.393 104.912 166.708 105.228 167.032 105.553C167.993 106.592 168.2 107.085 168.33 108.506C168.196 110.216 167.743 111.054 166.83 112.498C166.526 112.987 166.223 113.476 165.91 113.98C165.745 114.239 165.58 114.498 165.41 114.765C164.701 115.88 164.004 117.004 163.307 118.128C162.937 118.723 162.567 119.318 162.196 119.913C160.326 122.913 158.521 125.95 156.722 128.993C153.851 133.85 150.95 138.687 148.009 143.502C144.22 149.706 140.501 155.95 136.795 162.204C135.921 163.677 135.044 165.147 134.16 166.614C134.547 166.706 134.547 166.706 134.942 166.8C137.803 167.596 139.655 168.743 141.425 171.145C142.139 172.471 142.725 173.811 143.241 175.224C155.529 172.208 166.802 165.683 177.723 159.476C179.004 158.751 180.286 158.028 181.569 157.306C182.32 156.883 183.071 156.459 183.82 156.033C187.603 153.901 190.981 152.131 195.46 153.018C198.262 153.838 200.294 155.53 201.817 158.003C203.102 160.831 203.612 163.598 202.725 166.614C201.008 170.41 197.75 173.042 194.653 175.704C193.494 176.714 192.364 177.753 191.231 178.793C189.191 180.649 187.096 182.412 184.947 184.141C183.836 185.045 182.748 185.971 181.665 186.908C172.184 195.068 161.657 202.594 150.506 208.306C150.2 208.464 149.893 208.623 149.577 208.786C137.742 214.834 127.518 215.308 114.634 212.838C101.939 210.427 89.3806 209.921 76.4921 209.665C76.4305 210.241 76.3688 210.816 76.3053 211.408C76.1253 213.088 75.7643 214.006 74.5907 215.273C74.2017 215.713 74.2017 215.713 73.8049 216.162C71.0301 218.375 67.4476 217.976 64.0901 217.966C63.1294 217.964 62.1694 217.975 61.2088 217.986C60.59 217.987 59.9713 217.988 59.3525 217.987C58.7968 217.988 58.2411 217.99 57.6685 217.991C54.6929 217.679 52.5253 216.546 50.6098 214.197C49.6305 211.917 49.5696 209.875 49.577 207.441C49.5735 206.846 49.5735 206.846 49.5699 206.239C49.5636 204.932 49.564 203.626 49.5651 202.319C49.5633 201.407 49.5614 200.495 49.5592 199.583C49.5558 197.673 49.5559 195.763 49.5583 193.853C49.561 191.411 49.5533 188.969 49.5427 186.527C49.536 184.643 49.5356 182.76 49.5371 180.877C49.5368 179.977 49.5345 179.077 49.5299 178.177C49.5242 176.915 49.5274 175.654 49.5326 174.393C49.5291 174.025 49.5257 173.657 49.5221 173.277C49.5461 170.653 49.8528 167.917 51.7232 165.904C53.9692 163.995 55.5099 163.814 58.3646 163.787C58.7297 163.783 59.0949 163.779 59.4711 163.776C60.2452 163.769 61.0193 163.764 61.7934 163.761C62.9725 163.753 64.1511 163.733 65.33 163.713C66.0827 163.709 66.8353 163.705 67.588 163.702C67.9386 163.694 68.2892 163.686 68.6504 163.678C71.0196 163.687 72.3301 164.166 74.2218 165.707C75.584 167.248 75.584 167.248 75.584 168.426C81.6595 166.959 87.1875 164.921 92.8111 162.185C99.4302 158.981 105.559 157.596 112.756 159.972C113.774 160.336 113.774 160.336 115.089 160.269C114.9 159.961 114.711 159.652 114.517 159.335C110.267 152.381 106.06 145.403 101.901 138.394C99.9703 135.142 98.0348 131.894 96.0832 128.654C95.5344 127.743 94.9868 126.831 94.4403 125.918C93.1104 123.698 91.7704 121.485 90.4035 119.287C89.7122 118.173 89.0277 117.054 88.3441 115.935C88.0145 115.399 87.6818 114.865 87.3458 114.333C86.8796 113.594 86.425 112.848 85.971 112.102C85.7076 111.678 85.4442 111.254 85.1728 110.817C84.4606 108.987 84.4893 108.224 85.1196 106.341C86.3765 104.715 87.8278 103.312 89.3038 101.884C89.7243 101.467 90.1448 101.05 90.5781 100.621C91.6922 99.5165 92.8145 98.421 93.9385 97.3269C94.8564 96.4306 95.7683 95.5284 96.68 94.6259C98.5618 92.7631 100.448 90.9049 102.344 89.0564C102.68 88.7288 103.015 88.4013 103.361 88.0638C105.074 86.5037 106.84 86.7847 109.042 86.7819ZM96.4715 104.529C96.4715 104.678 96.4715 104.828 96.4715 104.982C101.416 104.982 106.361 104.982 111.456 104.982C112.655 101.243 113.853 97.5045 115.089 93.6525C106.343 91.7823 101.67 98.3121 96.4715 104.529ZM121.9 93.6525C120.701 97.3912 119.502 101.13 118.267 104.982C123.662 104.982 129.056 104.982 134.614 104.982C133.415 101.243 132.216 97.5045 130.981 93.6525C127.984 93.6525 124.987 93.6525 121.9 93.6525ZM137.792 93.6525C138.991 97.3912 140.19 101.13 141.425 104.982C146.37 104.982 151.315 104.982 156.409 104.982C155.51 103.935 154.611 102.888 153.685 101.81C153.376 101.444 153.067 101.078 152.748 100.701C148.787 95.7109 148.787 95.7109 143.261 93.1232C141.343 93.0164 139.761 93.3529 137.792 93.6525ZM94.2011 111.78C94.9176 113.567 95.6468 115.05 96.6151 116.695C96.7641 116.949 96.913 117.203 97.0665 117.465C97.557 118.299 98.05 119.132 98.5432 119.965C98.8909 120.554 99.2385 121.144 99.5861 121.733C102.699 127.003 105.875 132.235 109.07 137.456C110.292 139.454 111.505 141.457 112.717 143.461C113.25 144.342 113.783 145.222 114.316 146.102C114.658 146.668 115 147.234 115.342 147.801C115.814 148.584 116.287 149.365 116.761 150.147C117.031 150.593 117.3 151.039 117.578 151.499C118.233 152.595 118.233 152.595 119.175 153.472C118.506 148.787 117.627 144.159 116.704 139.519C116.554 138.758 116.404 137.998 116.253 137.237C115.941 135.657 115.628 134.076 115.313 132.496C114.911 130.47 114.51 128.444 114.11 126.417C113.801 124.853 113.491 123.288 113.181 121.724C113.033 120.976 112.885 120.229 112.738 119.481C112.532 118.441 112.325 117.401 112.118 116.361C112.058 116.054 111.997 115.746 111.935 115.428C111.684 114.178 111.407 112.992 111.002 111.78C105.458 111.78 99.9133 111.78 94.2011 111.78ZM117.813 111.78C118.119 114.528 118.477 117.162 119.027 119.857C119.103 120.233 119.178 120.61 119.256 120.997C119.502 122.226 119.751 123.454 120 124.683C120.173 125.54 120.345 126.398 120.517 127.256C120.969 129.502 121.423 131.749 121.877 133.995C122.341 136.291 122.802 138.588 123.265 140.885C124.17 145.383 125.077 149.88 125.986 154.378C126.286 154.378 126.586 154.378 126.895 154.378C127.962 149.092 129.028 143.805 130.092 138.518C130.585 136.064 131.08 133.609 131.576 131.155C132.054 128.787 132.531 126.418 133.007 124.05C133.189 123.145 133.371 122.241 133.554 121.337C133.81 120.072 134.064 118.807 134.318 117.542C134.432 116.98 134.432 116.98 134.549 116.406C134.864 114.822 135.068 113.401 135.068 111.78C129.374 111.78 123.68 111.78 117.813 111.78ZM141.879 111.78C140.802 117.014 139.728 122.249 138.658 127.485C138.162 129.916 137.664 132.347 137.163 134.778C136.68 137.122 136.201 139.467 135.724 141.812C135.541 142.708 135.357 143.604 135.171 144.499C134.912 145.75 134.658 147.003 134.404 148.255C134.326 148.628 134.248 149 134.168 149.383C133.749 151.44 133.749 151.44 134.16 153.472C134.353 153.14 134.547 152.808 134.746 152.467C139.289 144.685 143.903 136.952 148.605 129.265C150.189 126.676 151.765 124.082 153.342 121.489C153.843 120.665 154.344 119.841 154.846 119.017C155.15 118.517 155.454 118.017 155.767 117.503C156.034 117.064 156.302 116.625 156.577 116.172C156.821 115.77 157.066 115.367 157.318 114.952C157.574 114.544 157.831 114.136 158.096 113.716C158.754 112.752 158.754 112.752 158.68 111.78C153.136 111.78 147.591 111.78 141.879 111.78ZM189.832 160.345C189.246 160.668 189.246 160.668 188.647 160.997C188.016 161.352 188.016 161.352 187.372 161.714C186.929 161.958 186.486 162.203 186.03 162.455C183.767 163.708 181.516 164.982 179.271 166.267C155.565 179.824 155.565 179.824 144.369 181.767C141.872 182.217 141.184 182.692 139.609 184.741C136.174 187.249 132.832 187.29 128.711 187.007C126.48 186.658 124.295 186.167 122.098 185.647C116.173 184.25 111.007 183.598 105.127 185.449C100.69 186.82 100.69 186.82 98.2878 186.1C97.3804 185.037 97.3817 184.321 97.2945 182.928C97.9094 181.378 98.1183 181.26 99.5648 180.577C100.344 180.288 101.13 180.015 101.92 179.756C102.289 179.62 102.657 179.484 103.036 179.343C111.629 176.644 120.761 178.734 129.216 180.866C131.355 181.273 132.783 181.345 134.756 180.379C136.061 179.401 136.061 179.401 136.458 177.971C136.424 176.295 136.122 175.615 135.068 174.318C132.915 172.736 130.378 172.129 127.852 171.37C127.131 171.15 127.131 171.15 126.395 170.925C125.379 170.616 124.362 170.308 123.345 170.001C121.797 169.534 120.251 169.063 118.705 168.59C117.715 168.289 116.725 167.989 115.734 167.688C115.276 167.548 114.817 167.409 114.345 167.265C106.498 164.905 101.735 165.111 94.2915 168.834C89.5764 171.166 84.872 172.726 79.7731 174.023C78.655 174.349 77.5737 174.792 76.4921 175.224C76.4921 184.346 76.4921 193.469 76.4921 202.868C79.7606 202.989 83.0291 203.111 86.3967 203.236C96.8149 203.666 106.884 204.414 117.104 206.578C132.71 209.865 144.172 205.114 157.314 196.672C164.788 191.765 171.832 186.283 178.625 180.483C179.884 179.412 181.17 178.379 182.462 177.348C185.179 175.145 187.705 172.751 190.249 170.354C191.732 168.959 193.253 167.616 194.816 166.311C195.577 165.643 195.577 165.643 196.368 164.348C196.333 162.413 196.215 161.492 194.864 160.071C192.909 158.937 191.686 159.315 189.832 160.345ZM56.5128 170.692C56.4696 171.947 56.4558 173.191 56.4613 174.446C56.4612 174.84 56.4611 175.233 56.4611 175.638C56.4614 176.945 56.4649 178.252 56.4685 179.559C56.4693 180.463 56.47 181.367 56.4704 182.27C56.4721 184.653 56.4766 187.037 56.4816 189.42C56.4863 191.85 56.4883 194.28 56.4906 196.71C56.4955 201.482 56.5035 206.253 56.5128 211.025C60.8583 211.025 65.2038 211.025 69.681 211.025C69.6912 205.774 69.6996 200.523 69.7045 195.272C69.7069 192.834 69.7101 190.396 69.7153 187.958C69.7202 185.608 69.7229 183.257 69.7241 180.906C69.7249 180.007 69.7266 179.109 69.729 178.21C69.7323 176.955 69.7328 175.701 69.7325 174.446C69.7342 174.071 69.7358 173.695 69.7375 173.308C69.8949 171.637 69.8949 171.637 69.2269 170.239C68.3244 170.194 67.4203 170.18 66.5167 170.179C65.6922 170.178 65.6922 170.178 64.8511 170.177C64.2722 170.179 63.6933 170.181 63.0969 170.182C62.518 170.181 61.9391 170.179 61.3427 170.177C60.793 170.178 60.2434 170.178 59.6771 170.179C59.1688 170.179 58.6604 170.18 58.1367 170.18C56.998 170.107 56.998 170.107 56.5128 170.692Z" fill="#BBDDFD"/>
<path d="M74.6758 53.6032C74.9755 53.6651 75.2752 53.727 75.584 53.7908C77.2026 54.567 78.0201 55.7973 78.6993 57.4341C79.0761 58.5112 79.4218 59.5931 79.7558 60.684C79.9882 61.4231 80.2217 62.1619 80.4564 62.9003C80.6067 63.3878 80.6067 63.3878 80.7601 63.885C80.973 64.6543 80.973 64.6543 81.487 65.1025C82.197 65.1518 82.9091 65.1731 83.6208 65.1821C84.0577 65.193 84.4947 65.2038 84.9449 65.2149C85.8659 65.2342 86.7871 65.2484 87.7083 65.2574C90.4561 65.3358 92.1027 65.5458 94.2011 67.3684C95.3755 68.9134 95.275 70.4675 95.1092 72.3533C94.2068 74.1866 93.1188 75.2533 91.505 76.4885C91.1169 76.7888 90.7289 77.089 90.329 77.3984C89.9585 77.6776 89.588 77.9569 89.2062 78.2446C88.8779 78.5051 88.5495 78.7656 88.2112 79.0341C87.3899 79.6041 87.3899 79.6041 86.4818 79.6041C86.6574 81.8826 87.0969 83.7935 87.8724 85.9485C88.6569 88.234 89.1256 89.8915 88.7522 92.293C87.7697 93.9465 86.6369 95.1882 84.7311 95.6847C82.004 95.9947 80.5325 95.2544 78.4125 93.6591C77.8185 93.1867 77.2318 92.705 76.6532 92.2138C74.9642 90.8074 74.9642 90.8074 72.8453 90.4095C71.1105 91.0838 69.8695 92.0678 68.4323 93.2277C66.1834 94.9332 64.4777 96.0908 61.5342 95.729C60.0163 95.3006 59.3093 94.9059 58.3291 93.6525C57.2591 91.6581 57.2721 89.9156 57.875 87.7754C58.2698 86.4992 58.7112 85.2442 59.1628 83.9871C59.8795 82.0266 59.8795 82.0266 59.6913 80.0573C58.3187 78.7505 56.7026 77.766 55.1284 76.7204C52.9006 75.171 51.8484 74.068 51.0639 71.4469C51.0639 68.9351 52.1218 67.7532 53.7883 66.0088C54.9563 65.426 55.8631 65.4603 57.1691 65.4123C57.6578 65.3933 58.1466 65.3743 58.6501 65.3547C59.1623 65.3369 59.6745 65.3191 60.2022 65.3008C60.7178 65.2812 61.2335 65.2616 61.7648 65.2414C63.0413 65.1933 64.3177 65.147 65.5943 65.1025C65.809 64.3177 66.0236 63.5329 66.2382 62.7481C66.3577 62.3111 66.4772 61.874 66.6004 61.4238C66.8287 60.5865 67.0548 59.7488 67.2784 58.9103C67.9707 56.38 68.8343 55.2128 71.0432 53.7731C72.3719 53.3195 73.3111 53.2893 74.6758 53.6032ZM72.8595 63.743C72.7547 64.0438 72.65 64.3447 72.542 64.6546C71.5238 67.4061 70.6617 69.6366 67.8629 70.9761C65.3908 71.9115 63.2264 72.025 60.5995 71.9001C61.6227 72.9606 62.6129 73.8573 63.8064 74.7325C65.4289 76.0689 66.0412 77.5846 66.5025 79.6041C66.7215 82.0519 66.2516 84.0649 65.5943 86.4017C67.0068 85.8731 68.305 85.2547 69.6242 84.5324C71.6783 83.5074 73.3516 83.3079 75.6017 83.9447C77.389 84.5726 78.99 85.3611 80.5788 86.4017C80.5039 86.0559 80.429 85.7101 80.3518 85.3537C79.9106 82.1062 79.4566 78.7419 81.487 75.9787C82.7998 74.7079 84.1639 73.5154 85.5736 72.3533C84.442 71.7886 83.573 71.8193 82.31 71.7585C79.8555 71.5469 78.461 71.118 76.4921 69.6342C75.0337 67.8148 74.1731 65.8876 73.3136 63.743C73.1638 63.743 73.0139 63.743 72.8595 63.743Z" fill="#BBDDFD"/>
<path d="M179.539 53.5182C179.908 53.5083 180.278 53.4983 180.658 53.4881C182.356 53.8985 183.475 54.7103 184.562 56.039C185.218 57.3843 185.633 58.7645 186.038 60.2025C186.255 60.9367 186.475 61.6702 186.698 62.4029C186.836 62.8868 186.836 62.8868 186.977 63.3804C187.259 64.2931 187.259 64.2931 188.195 65.1025C189.207 65.2332 189.207 65.2332 190.373 65.2105C190.808 65.2178 191.244 65.2251 191.693 65.2326C192.608 65.2402 193.523 65.2427 194.438 65.2397C198.195 65.3174 198.195 65.3174 199.823 66.6443C201.186 68.1222 201.808 68.976 201.824 71.0097C201.541 73.4334 200.673 74.571 198.78 76.092C197.984 76.6689 197.18 77.236 196.368 77.7914C195.744 78.2443 195.119 78.6974 194.495 79.1509C194.064 79.45 193.633 79.7491 193.19 80.0573C193.374 82.4048 193.859 84.3719 194.637 86.6C195.464 89.1976 195.768 91.1497 194.552 93.6525C193.366 95.169 192.188 95.6335 190.323 95.8901C187.381 95.8193 185.261 93.9527 183.028 92.2141C181.347 90.8735 181.347 90.8735 179.312 90.4254C177.811 91.1145 176.496 92.0031 175.168 92.9728C172.447 94.9199 170.737 95.9936 167.307 95.4652C165.911 94.6937 164.852 93.7376 164.129 92.293C163.933 89.1821 164.606 86.8668 165.672 83.9765C166.285 82.237 166.285 82.237 166.193 80.4308C165.151 79.2041 163.896 78.2996 162.596 77.3665C160.716 76.0116 159.077 74.7632 157.772 72.8065C157.488 70.5798 157.53 69.6466 158.566 67.6516C159.799 66.2161 160.645 65.6534 162.527 65.4112C163.141 65.3898 163.141 65.3898 163.767 65.368C164.212 65.3505 164.657 65.333 165.115 65.3149C165.807 65.2939 165.807 65.2939 166.513 65.2724C166.981 65.2549 167.449 65.2374 167.932 65.2193C169.086 65.1767 170.24 65.1379 171.394 65.1025C172.565 62.4633 173.478 59.7907 174.356 57.0392C175.45 54.6674 176.897 53.514 179.539 53.5182ZM179.567 63.2898C179.435 63.6561 179.303 64.0223 179.166 64.3997C177.232 69.4324 177.232 69.4324 174.572 70.9938C172.167 71.927 169.862 71.9912 167.307 71.9001C167.799 72.3908 167.799 72.3908 168.301 72.8914C168.722 73.312 169.143 73.7326 169.578 74.166C169.98 74.5492 170.383 74.9324 170.798 75.3273C172.932 77.5722 172.866 79.3535 172.818 82.355C172.754 83.7336 172.602 85.0536 172.302 86.4017C172.576 86.2434 172.85 86.0851 173.132 85.922C173.677 85.6127 173.677 85.6127 174.232 85.2971C174.769 84.9895 174.769 84.9895 175.317 84.6758C177.335 83.6591 179.13 83.465 181.384 83.6827C182.602 84.1945 183.749 84.7774 184.91 85.4086C185.954 86.0004 185.954 86.0004 187.287 86.4017C187.18 86.0389 187.18 86.0389 187.072 85.6688C186.215 82.3964 186.047 79.4223 187.542 76.3186C188.952 74.7306 190.532 73.548 192.281 72.3533C191.335 71.7897 191.335 71.7897 189.983 71.9568C187.252 71.8702 185.064 71.2192 182.831 69.6342C181.41 67.6891 180.738 65.5728 180.021 63.2898C179.872 63.2898 179.722 63.2898 179.567 63.2898Z" fill="#BBDDFD"/>
<path d="M128.711 33.3802C131.353 35.1095 132.098 36.8394 132.968 39.8097C133.144 40.3665 133.144 40.3665 133.324 40.9346C134.16 43.6146 134.16 43.6146 134.16 44.7096C134.634 44.7124 134.634 44.7124 135.117 44.7153C136.558 44.7302 137.998 44.7622 139.438 44.7946C139.935 44.7972 140.432 44.7998 140.944 44.8025C145.084 44.9152 145.084 44.9152 146.743 46.2621C148.271 47.9775 148.457 49.0952 148.413 51.3408C147.924 54.3018 145.14 55.9096 142.872 57.5685C142.087 58.1162 141.302 58.6638 140.517 59.2112C140.367 59.3608 140.217 59.5103 140.063 59.6644C140.214 61.742 140.573 63.5504 141.226 65.5273C142.06 68.1922 142.428 70.6122 141.311 73.2313C140.02 74.75 138.872 75.0424 136.913 75.3839C133.695 75.3465 131.151 72.8627 128.711 70.9938C127.445 69.961 127.445 69.961 126.079 70.1299C124.301 70.6317 123.229 71.4364 121.786 72.5799C119.409 74.4451 118.248 75.2546 115.238 75.2352C113.458 74.9611 112.68 74.0895 111.456 72.8065C110.365 70.6281 110.844 68.3253 111.541 66.1044C111.859 65.1935 112.19 64.2914 112.544 63.3939C113.162 61.7613 113.162 61.7613 113.067 60.0538C112.032 58.8125 110.774 57.91 109.469 56.9737C104.979 53.7379 104.979 53.7379 104.388 51.3957C104.391 49.4989 104.498 48.2542 105.723 46.7489C107.349 45.2034 108.105 45.1 110.296 45.0194C110.785 45.0004 111.273 44.9814 111.777 44.9619C112.289 44.9441 112.801 44.9262 113.329 44.9079C113.845 44.8883 114.36 44.8687 114.892 44.8486C116.168 44.8004 117.445 44.7542 118.721 44.7096C118.854 44.2127 118.854 44.2127 118.989 43.7058C121.321 35.0571 121.321 35.0571 124.17 33.3802C125.922 32.7975 126.916 32.9551 128.711 33.3802ZM125.986 43.3501C125.882 43.6509 125.777 43.9518 125.669 44.2617C124.65 47.014 123.692 49.0275 121.112 50.6398C119.742 51.1915 118.49 51.2492 117.018 51.3373C116.487 51.3712 115.955 51.4051 115.408 51.44C115.003 51.4622 114.598 51.4844 114.18 51.5072C114.499 51.8157 114.817 52.1241 115.145 52.4419C119.687 56.9879 119.687 56.9879 119.714 60.4291C119.699 62.579 119.332 64.4056 118.721 66.462C119.033 66.271 119.345 66.08 119.667 65.8832C120.076 65.6349 120.485 65.3866 120.906 65.1308C121.312 64.8837 121.718 64.6366 122.136 64.382C124.124 63.2536 126.006 62.9355 128.257 63.2898C129.488 63.8098 130.635 64.4035 131.799 65.06C132.815 65.6566 132.815 65.6566 134.16 65.5557C133.935 65.0089 133.935 65.0089 133.706 64.451C132.843 61.3836 132.883 58.7916 134.456 55.9735C135.508 54.5279 136.841 53.4986 138.246 52.4136C138.546 52.1145 138.846 51.8154 139.155 51.5072C138.738 51.5008 138.321 51.4944 137.892 51.4878C131.452 51.238 131.452 51.238 129.165 48.7882C128.379 47.4773 127.829 46.1569 127.349 44.7096C127.199 44.261 127.049 43.8123 126.895 43.3501C126.595 43.3501 126.295 43.3501 125.986 43.3501Z" fill="#BBDDFD"/>
<path d="M64.6862 105.435C66.9186 106.556 67.772 107.606 68.5742 109.874C68.7287 110.354 68.7287 110.354 68.8864 110.845C69.1062 111.482 69.3262 112.118 69.5462 112.755C69.6472 113.055 69.7481 113.354 69.8522 113.663C70.4276 115.818 70.4276 115.818 71.9514 117.218C72.6818 117.26 73.4138 117.277 74.1455 117.281C74.583 117.29 75.0205 117.299 75.4713 117.308C76.3924 117.323 77.3136 117.331 78.2348 117.333C81.613 117.418 81.613 117.418 83.3653 118.768C84.6474 120.539 84.886 121.689 84.8411 123.849C84.4257 126.387 82.5399 127.663 80.5469 129.096C79.2094 129.995 77.8609 130.868 76.4921 131.719C76.6574 134.194 77.0568 136.239 77.9111 138.573C78.6555 140.718 79.065 142.187 78.3084 144.408C77.3294 145.949 76.4574 146.988 74.6758 147.58C71.7284 148.071 70.1245 146.889 67.7051 145.268C66.6928 144.544 65.7195 143.791 64.7429 143.02C64.0405 142.586 64.0405 142.586 63.3239 142.142C61.3033 142.668 59.6925 143.917 58.0169 145.116C54.1705 147.839 54.1705 147.839 51.0639 147.58C49.6773 146.849 48.6853 146.207 47.7151 144.975C46.8695 141.936 47.6334 139.155 48.5665 136.251C48.6748 135.9 48.7831 135.549 48.8946 135.187C49.1591 134.332 49.4297 133.478 49.7017 132.626C47.7135 130.546 45.5314 128.938 43.1832 127.271C42.0503 126.337 41.5372 125.833 41.0742 124.468C40.8675 122.199 41.0238 120.843 42.4365 119.03C43.8794 117.712 44.8759 117.49 46.814 117.439C47.2999 117.423 47.7857 117.407 48.2862 117.39C48.7908 117.38 49.2953 117.37 49.8152 117.359C50.3268 117.344 50.8383 117.328 51.3654 117.312C52.6271 117.275 53.8886 117.244 55.1506 117.218C55.2828 116.721 55.2828 116.721 55.4176 116.214C57.7106 107.691 57.7106 107.691 60.1454 105.888C61.7888 105.342 62.9572 105.289 64.6862 105.435ZM62.8699 115.405C62.5001 116.207 62.1313 117.01 61.7631 117.812C61.5576 118.259 61.3521 118.706 61.1405 119.167C60.5735 120.397 60.5735 120.397 60.1454 121.749C59.3508 122.231 59.3508 122.231 58.3291 122.656C57.9925 122.808 57.656 122.961 57.3092 123.118C55.9057 123.616 54.6766 123.748 53.1924 123.845C52.7071 123.879 52.2219 123.913 51.7219 123.948C51.1714 123.981 51.1714 123.981 50.6098 124.015C51.5699 124.996 52.4783 125.866 53.5897 126.678C55.278 128.147 55.9854 129.391 56.1563 131.648C56.1823 133.976 56.1127 136.235 55.6047 138.517C55.8511 138.359 56.0975 138.2 56.3514 138.037C56.8387 137.728 56.8387 137.728 57.3358 137.412C57.6572 137.207 57.9785 137.002 58.3096 136.791C60.5949 135.461 63.0277 135.437 65.5943 135.798C67.3683 136.547 68.9758 137.47 70.5891 138.517C70.3644 137.732 70.3644 137.732 70.1351 136.931C69.3296 133.622 69.3794 131.388 71.1 128.395C71.5677 127.649 71.5677 127.649 71.4973 126.734C71.7595 126.622 72.0218 126.51 72.2919 126.394C73.45 125.752 74.2299 124.978 75.1299 124.015C74.8115 124.004 74.4931 123.992 74.165 123.98C70.6628 123.771 68.0435 123.204 65.4524 120.758C64.4312 119.059 63.8705 117.302 63.3239 115.405C63.1741 115.405 63.0242 115.405 62.8699 115.405Z" fill="#BBDDFD"/>
<path d="M191.373 105.435C193.659 106.39 194.859 108.101 195.819 110.357C196.137 111.241 196.428 112.129 196.709 113.026C196.859 113.482 196.859 113.482 197.012 113.948C197.73 116.17 197.73 116.17 197.73 117.218C198.204 117.22 198.204 117.22 198.687 117.223C200.128 117.238 201.568 117.27 203.009 117.303C203.506 117.305 204.003 117.308 204.515 117.311C208.655 117.423 208.655 117.423 210.313 118.77C211.756 120.39 211.877 121.285 212 123.442C211.584 125.649 210.206 127.117 208.438 128.397C207.871 128.782 207.3 129.163 206.727 129.538C204.474 130.894 204.474 130.894 203.179 133.079C203.605 134.578 204.097 136.033 204.62 137.5C205.501 140.107 206.024 142.598 204.91 145.23C203.532 146.889 202.434 147.501 200.284 147.779C197.759 147.474 196.185 146.333 194.229 144.808C193.792 144.471 193.356 144.133 192.906 143.785C192.497 143.454 192.089 143.124 191.668 142.783C190.523 142.01 190.523 142.01 189.367 142.364C187.913 143.213 186.527 144.137 185.158 145.116C182.674 146.874 181.357 147.794 178.205 147.58C176.515 146.814 175.565 145.96 174.572 144.408C173.957 141.355 174.874 138.575 175.947 135.734C176.403 134.398 176.646 133.115 176.843 131.719C176.6 131.611 176.357 131.502 176.107 131.39C174.729 130.654 173.526 129.763 172.274 128.83C171.8 128.481 171.327 128.132 170.839 127.772C168.362 125.735 168.362 125.735 168.019 123.833C168.015 121.868 168.018 120.712 169.067 119.002C170.486 117.71 171.288 117.61 173.166 117.559C173.828 117.537 173.828 117.537 174.504 117.514C175.437 117.486 176.37 117.46 177.303 117.436C177.745 117.421 178.188 117.405 178.643 117.389C179.049 117.378 179.454 117.367 179.872 117.355C181.052 117.281 181.052 117.281 182.292 116.311C182.689 115.484 182.689 115.484 182.941 114.518C183.049 114.163 183.158 113.808 183.269 113.443C183.486 112.699 183.701 111.954 183.915 111.209C184.626 108.89 185.347 107.472 187.287 105.888C188.678 105.194 189.837 105.331 191.373 105.435ZM189.557 115.405C189.447 115.706 189.337 116.007 189.223 116.317C187.279 121.43 187.279 121.43 184.534 122.996C182.366 123.832 180.051 123.895 177.751 124.015C178.243 124.506 178.243 124.506 178.744 125.007C179.166 125.427 179.587 125.848 180.021 126.281C180.424 126.646 180.827 127.01 181.242 127.386C183.038 129.372 183.354 131.294 183.292 133.939C183.139 135.522 182.729 136.989 182.292 138.517C182.594 138.321 182.897 138.124 183.209 137.922C186.271 136.076 188.698 135.149 192.281 135.798C194.133 136.457 195.648 137.433 197.276 138.517C197.164 138.012 197.164 138.012 197.049 137.497C196.567 133.888 196.14 130.577 198.376 127.499C199.541 126.256 200.842 125.391 202.271 124.468C202.271 124.319 202.271 124.169 202.271 124.015C201.909 123.998 201.548 123.981 201.175 123.964C198.502 123.798 196.427 123.633 194.098 122.203C193.648 122.053 193.199 121.903 192.735 121.749C192.31 120.843 192.31 120.843 191.827 119.483C191.51 118.754 191.188 118.028 190.862 117.303C190.702 116.944 190.542 116.586 190.376 116.217C190.256 115.949 190.135 115.681 190.011 115.405C189.861 115.405 189.711 115.405 189.557 115.405Z" fill="#BBDDFD"/>
</g>
</svg>
