<svg width="48" height="48" viewBox="0 0 48 48" fill="none" xmlns="http://www.w3.org/2000/svg">
<circle cx="24" cy="24" r="24" fill="#0A3380"/>
<g clip-path="url(#clip0_639_7285)">
<path d="M27.3357 23.982C27.3357 25.89 25.7891 27.4367 23.8811 27.4367C21.9731 27.4367 20.4277 25.89 20.4277 23.982C20.4277 22.074 21.9744 20.5273 23.8811 20.5273C25.7877 20.5273 27.3357 22.074 27.3357 23.982Z" fill="white"/>
<path d="M24 8C15.164 8 8 15.164 8 24C8 32.836 15.164 40 24 40C32.836 40 40 32.836 40 24C40 15.164 32.836 8 24 8ZM34.1827 28.2533C34.1333 29.356 33.9573 30.1093 33.7013 30.768C33.436 31.4493 33.0813 32.028 32.5053 32.604C31.9293 33.18 31.3507 33.5347 30.6707 33.7987C30.012 34.0547 29.2573 34.2293 28.1547 34.28C27.0493 34.3307 26.696 34.3427 23.8813 34.3427C21.0667 34.3427 20.7147 34.3307 19.6093 34.28C18.5067 34.2293 17.7533 34.0547 17.0933 33.7987C16.412 33.5347 15.8347 33.1787 15.2573 32.604C14.6813 32.028 14.3267 31.4493 14.0613 30.768C13.8053 30.1093 13.6307 29.356 13.58 28.2533C13.5293 27.148 13.5173 26.7947 13.5173 23.98C13.5173 21.1653 13.5293 20.8133 13.58 19.708C13.6307 18.6053 13.8053 17.852 14.0613 17.192C14.3267 16.5107 14.6813 15.9333 15.2573 15.3573C15.8333 14.7813 16.412 14.4267 17.0933 14.1613C17.752 13.9053 18.5067 13.7307 19.6093 13.68C20.7147 13.6293 21.068 13.6173 23.8813 13.6173C26.6947 13.6173 27.0493 13.6293 28.1547 13.68C29.2573 13.7293 30.0107 13.9053 30.6707 14.1613C31.352 14.4253 31.9293 14.7813 32.5053 15.3573C33.0813 15.9333 33.436 16.512 33.7013 17.192C33.9573 17.8507 34.132 18.6053 34.1827 19.708C34.2333 20.8133 34.2453 21.1653 34.2453 23.98C34.2453 26.7947 34.2333 27.1467 34.1827 28.2533ZM31.9613 17.8693C31.7733 17.3853 31.5493 17.04 31.1853 16.6773C30.8227 16.3147 30.4773 16.0893 29.9933 15.9013C29.628 15.76 29.08 15.5907 28.0693 15.5453C26.976 15.4947 26.648 15.4853 23.8813 15.4853C21.1147 15.4853 20.7867 15.496 19.6933 15.5453C18.684 15.5907 18.1347 15.76 17.7693 15.9013C17.2853 16.0893 16.94 16.3133 16.5773 16.6773C16.2147 17.04 15.9893 17.3853 15.8013 17.8693C15.66 18.2347 15.4907 18.7827 15.4453 19.7933C15.3947 20.8853 15.3853 21.2133 15.3853 23.9813C15.3853 26.7493 15.396 27.076 15.4453 28.1693C15.492 29.1787 15.66 29.728 15.8013 30.0933C15.9893 30.5773 16.2133 30.9227 16.5773 31.2853C16.94 31.648 17.2853 31.872 17.7693 32.06C18.1347 32.2027 18.6827 32.3707 19.6933 32.4173C20.7853 32.468 21.1133 32.4773 23.8813 32.4773C26.6493 32.4773 26.9773 32.4667 28.0693 32.4173C29.08 32.3707 29.628 32.2027 29.9933 32.06C30.4773 31.872 30.8227 31.648 31.1853 31.2853C31.548 30.9227 31.7733 30.5773 31.9613 30.0933C32.1027 29.728 32.272 29.18 32.3173 28.1693C32.368 27.076 32.3787 26.748 32.3787 23.9813C32.3787 21.2147 32.368 20.8867 32.3173 19.7933C32.2707 18.7827 32.1027 18.2347 31.9613 17.8693ZM23.8827 29.3013C20.944 29.3013 18.5613 26.9187 18.5613 23.98C18.5613 21.0413 20.944 18.6587 23.8827 18.6587C26.8213 18.6587 29.204 21.0413 29.204 23.98C29.204 26.9187 26.8213 29.3013 23.8827 29.3013ZM29.4147 19.692C28.728 19.692 28.1707 19.136 28.1707 18.4493C28.1707 17.7627 28.7267 17.2053 29.4147 17.2053C30.1027 17.2053 30.6587 17.7627 30.6587 18.4493C30.6587 19.136 30.1013 19.692 29.4147 19.692Z" fill="white"/>
</g>
<defs>
<clipPath id="clip0_639_7285">
<rect width="32" height="32" fill="white" transform="translate(8 8)"/>
</clipPath>
</defs>
</svg>
