<svg width="48" height="48" viewBox="0 0 48 48" fill="none" xmlns="http://www.w3.org/2000/svg">
<circle cx="24" cy="24" r="24" fill="#0A3380"/>
<g clip-path="url(#clip0_639_7295)">
<path d="M35.5328 32.2295H35.3008V31.7588H35.5941C35.7461 31.7588 35.9194 31.7828 35.9194 31.9815C35.9194 32.2095 35.7448 32.2281 35.5328 32.2281V32.2295Z" fill="white"/>
<path d="M35.5187 31.1543C34.888 31.165 34.3853 31.685 34.3947 32.3156C34.4053 32.9463 34.9253 33.4503 35.556 33.4396H35.5853C36.2027 33.4263 36.692 32.9156 36.68 32.2983V32.2796C36.6693 31.649 36.1493 31.145 35.5187 31.1556V31.1543ZM35.932 32.9916L35.552 32.393L35.5467 32.3863H35.3013V32.9916H35.1027V31.601H35.6333C35.9613 31.601 36.1227 31.7276 36.1227 31.993C36.1227 32.001 36.1227 32.009 36.1227 32.017C36.1213 32.213 35.996 32.3716 35.7373 32.3716L36.148 32.9916H35.9347H35.932Z" fill="white"/>
<path d="M24 8C15.164 8 8 15.164 8 24C8 32.836 15.164 40 24 40C32.836 40 40 32.836 40 24C40 15.164 32.836 8 24 8ZM33.3827 32.0747C33.372 32.8453 32.7387 33.464 31.9667 33.4533H15.68C14.9107 33.4613 14.2787 32.844 14.2693 32.0747V15.72C14.2787 14.9507 14.9093 14.3333 15.68 14.3427H31.9667C32.7373 14.3307 33.3707 14.948 33.3827 15.7187V32.0747ZM35.5827 33.5893C34.8627 33.596 34.2733 33.0187 34.2667 32.2987C34.26 31.58 34.8373 30.9907 35.5573 30.9827H35.5827C36.292 30.9893 36.8667 31.564 36.8733 32.2733C36.88 32.992 36.3027 33.5813 35.5827 33.5893ZM27.156 21.28C26.0587 21.24 25.028 21.8053 24.4733 22.7533H24.436V21.5067H21.7173V30.6267H24.5493V26.116C24.5493 24.9253 24.7747 23.7747 26.2507 23.7747C27.704 23.7747 27.7227 25.136 27.7227 26.1933V30.628H30.5547V25.6253C30.5547 23.168 30.0267 21.2813 27.156 21.2813V21.28ZM17.1027 30.6267H19.9373V21.5067H17.1027V30.6267ZM18.5213 16.9733C17.6133 16.9733 16.8773 17.7093 16.8773 18.6173C16.8773 19.5253 17.6133 20.26 18.5213 20.26C19.4293 20.26 20.1653 19.524 20.1653 18.616C20.1653 17.708 19.4293 16.972 18.5213 16.9733Z" fill="white"/>
</g>
<defs>
<clipPath id="clip0_639_7295">
<rect width="32" height="32" fill="white" transform="translate(8 8)"/>
</clipPath>
</defs>
</svg>
