<svg width="112" height="112" viewBox="0 0 112 112" fill="none" xmlns="http://www.w3.org/2000/svg">
<g filter="url(#filter0_d_357_2435)">
<circle cx="56" cy="56" r="46" fill="white"/>
<circle cx="56" cy="56" r="45" stroke="url(#paint0_linear_357_2435)" stroke-width="2"/>
</g>
<path d="M48.0301 32.7106C50.1215 34.6029 51.5802 37.1831 51.7436 40.0459C51.9174 44.663 49.6255 48.0966 47.3228 51.8856C46.6831 52.9389 46.0556 53.9993 45.4309 55.0616C44.8376 56.0693 44.2315 57.0687 43.6215 58.0663C43.7239 58.0656 43.8264 58.0649 43.9319 58.0642C44.9021 58.058 45.8724 58.0535 46.8426 58.0505C47.3413 58.0489 47.84 58.0467 48.3387 58.0433C48.8209 58.0399 49.3031 58.0381 49.7853 58.0373C49.9683 58.0368 50.1513 58.0357 50.3343 58.034C52.321 58.0167 53.9565 58.3147 55.4537 59.7496C56.6862 61.1178 57.0921 62.675 57.0106 64.4762C56.9084 65.8571 56.124 67.2691 55.1018 68.1762C53.6348 69.3419 52.1768 69.5938 50.3491 69.5879C50.2037 69.5882 50.0582 69.5885 49.9128 69.589C49.6019 69.5898 49.291 69.59 48.9801 69.5898C48.4878 69.5895 47.9954 69.591 47.5031 69.5928C46.1039 69.5975 44.7046 69.6 43.3054 69.6006C42.5309 69.601 41.7564 69.6029 40.9819 69.6062C40.4931 69.6083 40.0044 69.6085 39.5157 69.6074C39.2111 69.6072 38.9065 69.6086 38.6019 69.6105C38.4615 69.611 38.321 69.6109 38.1806 69.61C37.0977 69.6036 36.281 69.7601 35.4657 70.5065C34.8926 71.1627 34.765 71.9264 34.7715 72.7732C34.8488 73.5393 35.2335 74.1601 35.82 74.6484C36.5427 75.2129 37.2802 75.2893 38.1629 75.2872C38.2525 75.2878 38.3422 75.2883 38.4345 75.2889C38.7331 75.2907 39.0316 75.291 39.3301 75.2913C39.5448 75.2922 39.7596 75.2932 39.9743 75.2944C40.556 75.2971 41.1377 75.2987 41.7193 75.3C42.3277 75.3016 42.9361 75.3043 43.5444 75.3069C44.6959 75.3117 45.8474 75.3154 46.9988 75.3188C48.31 75.3227 49.6211 75.3277 50.9322 75.3328C53.6288 75.3433 56.3254 75.3524 59.022 75.3606C59.0368 75.2484 59.0516 75.1361 59.0669 75.0205C59.2489 73.8199 60.1284 72.83 61.0547 72.1115C62.056 71.3931 62.056 71.3931 62.6695 71.3931C62.6691 71.2769 62.6687 71.1607 62.6683 71.041C62.6593 68.2145 62.6527 65.3881 62.6485 62.5615C62.6481 62.2894 62.6476 62.0173 62.6472 61.7452C62.6471 61.6776 62.647 61.61 62.6469 61.5403C62.6451 60.4459 62.6419 59.3514 62.6382 58.257C62.6344 57.1336 62.6322 56.0103 62.6313 54.8869C62.6308 54.2561 62.6296 53.6253 62.6266 52.9944C62.6239 52.4006 62.623 51.8068 62.6236 51.2129C62.6235 50.9951 62.6227 50.7772 62.6212 50.5594C62.6191 50.2616 62.6196 49.9639 62.6207 49.6662C62.6195 49.5802 62.6184 49.4944 62.6172 49.4058C62.6229 48.8278 62.7412 48.3718 63.0747 47.8932C63.5195 47.4932 63.9396 47.4483 64.5215 47.4585C64.9917 47.5059 65.3991 47.6737 65.8331 47.8539C65.9315 47.8932 66.0299 47.9324 66.1313 47.9728C66.4564 48.1029 66.7804 48.2355 67.1045 48.3681C67.3357 48.4612 67.567 48.5541 67.7983 48.6469C68.4102 48.8929 69.0213 49.141 69.6321 49.3896C70.233 49.6336 70.8347 49.8757 71.4363 50.118C72.5099 50.5506 73.5826 50.9854 74.655 51.4211C75.4573 51.7468 76.2605 52.0703 77.0642 52.3928C77.4909 52.564 77.9173 52.7358 78.3438 52.9076C78.5755 53.0007 78.8072 53.0935 79.0391 53.1862C79.359 53.314 79.6785 53.4427 79.998 53.5716C80.1388 53.6275 80.1388 53.6275 80.2825 53.6845C81.6149 54.2248 81.6149 54.2248 81.9201 54.9126C81.9747 55.2007 81.9747 55.2007 81.9834 55.5039C81.9889 55.6032 81.9943 55.7025 82 55.8048C81.8469 56.4342 81.4449 56.802 80.9051 57.137C80.5384 57.3319 80.1676 57.5135 79.7924 57.6912C79.6688 57.7513 79.5453 57.8117 79.4219 57.8722C79.1645 57.9979 78.9065 58.1223 78.6479 58.2457C78.5717 58.2821 78.4955 58.3185 78.417 58.356C78.2518 58.4348 78.0866 58.5135 77.9214 58.5923C76.4192 59.3083 74.9278 60.0438 73.4413 60.792C73.222 60.9021 73.0028 61.0123 72.7835 61.1224C72.2149 61.4081 71.6465 61.6939 71.0781 61.9799C70.3915 62.3252 69.7047 62.6702 69.0179 63.0153C67.9824 63.5356 66.947 64.0564 65.9117 64.5771C65.8782 66.8263 65.8448 69.0756 65.8103 71.3931C66.011 71.4266 66.2116 71.4602 66.4183 71.4948C67.9397 72.1772 68.8737 73.3196 69.4578 74.8519C69.6384 75.4049 69.6968 75.9313 69.6921 76.5114C69.6916 76.587 69.691 76.6625 69.6904 76.7404C69.6617 78.0554 69.1685 79.3858 68.259 80.3513C66.8849 81.5868 65.4286 82.0707 63.598 81.9918C62.2224 81.8746 61.068 81.1173 60.1365 80.1419C59.7135 79.6216 59.4293 79.1541 59.2246 78.5142C59.1119 78.5144 58.9992 78.5146 58.8831 78.5148C56.1381 78.5193 53.3931 78.5227 50.6481 78.5248C49.3206 78.5258 47.9931 78.5272 46.6656 78.5296C45.5083 78.5316 44.3511 78.5329 43.1938 78.5334C42.5812 78.5336 41.9687 78.5343 41.3562 78.5357C40.779 78.5371 40.2019 78.5375 39.6248 78.5372C39.4135 78.5373 39.2023 78.5377 38.9911 78.5385C36.8228 78.5461 34.895 78.3118 33.2173 76.7721C31.9208 75.3764 31.5104 73.7542 31.5361 71.912C31.5603 71.2514 31.7154 70.6787 31.9698 70.0705C32.003 69.9836 32.0362 69.8967 32.0704 69.8071C32.6942 68.36 33.9898 67.3888 35.37 66.7436C36.2787 66.3998 37.1325 66.3792 38.0929 66.3823C38.2389 66.382 38.385 66.3816 38.531 66.3811C38.844 66.3803 39.1569 66.3801 39.4699 66.3803C39.9657 66.3806 40.4615 66.3791 40.9572 66.3774C42.3665 66.3726 43.7758 66.3701 45.1851 66.3695C45.9646 66.3691 46.7442 66.3673 47.5237 66.3639C48.0156 66.3618 48.5075 66.3616 48.9994 66.3627C49.3066 66.363 49.6137 66.3615 49.9208 66.3596C50.0622 66.3591 50.2035 66.3592 50.3449 66.3601C51.2658 66.3656 52.2339 66.3412 52.9631 65.7051C53.5676 65.064 53.8131 64.4173 53.7902 63.5379C53.7323 63.0919 53.5598 62.7307 53.3481 62.339C53.3186 62.2675 53.2891 62.196 53.2587 62.1224C53.1161 61.8826 52.9903 61.8452 52.7402 61.7286C52.6746 61.6932 52.609 61.6579 52.5414 61.6214C51.9143 61.3065 51.379 61.2648 50.6851 61.2726C50.5744 61.2722 50.4638 61.2718 50.3497 61.2714C50.1109 61.2708 49.8721 61.2711 49.6333 61.2723C49.2551 61.274 48.8769 61.2732 48.4987 61.2718C47.6962 61.2692 46.8937 61.2698 46.0912 61.2708C45.1602 61.272 44.2293 61.2719 43.2983 61.2684C42.9262 61.2676 42.554 61.2693 42.1819 61.2711C41.9534 61.2705 41.7248 61.2698 41.4963 61.269C41.3933 61.2702 41.2902 61.2713 41.184 61.2725C40.5563 61.2671 40.1835 61.1824 39.6701 60.813C39.4912 60.613 39.4912 60.613 39.3633 60.4009C39.314 60.3206 39.2646 60.2403 39.2138 60.1575C39.1638 60.0717 39.1137 59.9859 39.0622 59.8974C39.0096 59.8094 38.9571 59.7214 38.903 59.6306C38.7322 59.3414 38.5645 59.0506 38.3973 58.7593C38.2712 58.541 38.1451 58.3227 38.0189 58.1044C37.9244 57.9408 37.9244 57.9408 37.8279 57.7738C37.5557 57.304 37.2801 56.8362 37.0041 56.3686C36.4887 55.4948 35.9765 54.6191 35.4653 53.7427C34.9604 52.877 34.4544 52.0119 33.9456 51.1486C33.786 50.8774 33.6265 50.6063 33.467 50.3351C33.3363 50.1133 33.2055 49.8916 33.0746 49.6699C32.883 49.3457 32.692 49.0212 32.5013 48.6965C32.4273 48.5707 32.3531 48.445 32.2787 48.3194C30.9666 46.1027 30.9666 46.1027 30.5767 44.8985C30.5396 44.7874 30.5025 44.6763 30.4643 44.5619C30.1309 43.3842 29.9909 42.2635 30.0005 41.0391C30.0007 40.9705 30.001 40.902 30.0013 40.8315C30.0079 39.7442 30.1002 38.7509 30.4501 37.7201C30.4879 37.6044 30.5258 37.4888 30.5648 37.3696C31.566 34.5536 33.5603 32.3946 36.2088 31.0822C36.9348 30.7389 37.6788 30.4966 38.4543 30.2937C38.5488 30.2687 38.6434 30.2436 38.7408 30.2178C42.0272 29.5183 45.5106 30.5444 48.0301 32.7106ZM35.6173 35.2785C35.5459 35.3421 35.4744 35.4057 35.4008 35.4713C34.8545 35.9843 34.469 36.5624 34.0975 37.2114C34.0505 37.2919 34.0035 37.3725 33.9551 37.4554C32.9372 39.3312 32.8761 41.5702 33.4673 43.5887C33.8096 44.6617 34.3357 45.6069 34.9081 46.5707C35.0074 46.7403 35.1066 46.91 35.2057 47.0797C35.4225 47.4501 35.6405 47.8196 35.8591 48.1888C36.1207 48.6308 36.3804 49.0739 36.6388 49.5177C36.692 49.609 36.692 49.609 36.7462 49.7021C36.8188 49.8268 36.8914 49.9514 36.9639 50.0761C37.5494 51.0817 38.14 52.0839 38.7392 53.0815C39.4052 54.1904 40.0497 55.3107 40.6833 56.4386C41.0846 56.3043 41.1255 56.1472 41.3331 55.7817C41.3662 55.7241 41.3994 55.6665 41.4335 55.6072C41.5053 55.4821 41.5767 55.3568 41.6478 55.2313C41.8392 54.8932 42.0336 54.5569 42.2276 54.2204C42.2874 54.1163 42.2874 54.1163 42.3485 54.0101C42.7539 53.3062 43.1739 52.6116 43.5962 51.9179C44.148 51.0098 44.6953 50.0995 45.2314 49.182C45.5219 48.6851 45.8148 48.1898 46.1112 47.6964C46.2855 47.4062 46.4592 47.1157 46.6328 46.8251C46.7178 46.6832 46.8032 46.5415 46.8888 46.3999C48.201 44.2297 49.0075 41.8738 48.4822 39.3097C48.0032 37.3457 46.818 35.5361 45.1049 34.4448C44.4088 34.022 43.695 33.6768 42.9123 33.4474C42.8387 33.4246 42.7652 33.4017 42.6895 33.3782C40.196 32.7403 37.4838 33.5598 35.6173 35.2785ZM65.8103 51.352C65.8103 54.5413 65.8103 57.7306 65.8103 61.0165C67.4533 60.2353 67.4533 60.2353 69.0826 59.4277C69.2627 59.3371 69.4427 59.2464 69.6227 59.1557C69.9923 58.9695 70.3618 58.7829 70.7313 58.5963C72.2313 57.8391 73.734 57.0894 75.2513 56.3674C75.6873 56.1596 76.1193 55.9448 76.5502 55.7265C76.3379 55.5133 76.2029 55.45 75.9276 55.3402C75.7957 55.2871 75.7957 55.2871 75.6612 55.233C75.5645 55.1947 75.4678 55.1565 75.3681 55.117C75.2665 55.0763 75.1648 55.0356 75.0601 54.9937C74.7231 54.8588 74.3858 54.7248 74.0484 54.5907C73.815 54.4976 73.5815 54.4043 73.3481 54.3111C72.7958 54.0905 72.2433 53.8705 71.6907 53.6507C71.1241 53.4252 70.5578 53.1991 69.9915 52.973C69.5094 52.7805 69.0273 52.5882 68.5451 52.396C68.313 52.3034 68.0809 52.2109 67.8489 52.1183C67.5253 51.9892 67.2016 51.8604 66.8779 51.7317C66.781 51.693 66.6841 51.6543 66.5843 51.6145C66.4966 51.5797 66.409 51.5449 66.3187 51.509C66.2421 51.4785 66.1655 51.448 66.0866 51.4166C65.9269 51.3462 65.9269 51.3462 65.8103 51.352ZM62.3465 75.2398C61.9633 75.9164 61.8652 76.5416 62.0616 77.2935C62.3794 77.9398 62.7905 78.4359 63.4484 78.7431C64.1439 78.9013 64.7844 78.917 65.4165 78.5552C65.8957 78.1976 66.3918 77.6887 66.5196 77.09C66.5956 76.2642 66.4573 75.6584 65.956 74.9854C65.5139 74.4939 64.9259 74.2891 64.2842 74.197C63.4694 74.3189 62.8616 74.5748 62.3465 75.2398Z" fill="url(#paint1_linear_357_2435)"/>
<path d="M43.7228 37.2114C44.7432 38.0721 45.4309 39.1325 45.6479 40.4668C45.7421 41.9397 45.4608 43.2907 44.5144 44.4534C43.6284 45.4045 42.4771 45.986 41.1804 46.0863C39.6618 46.1195 38.3963 45.6656 37.2701 44.6378C36.3765 43.6944 35.9431 42.484 35.8896 41.198C35.9273 39.8531 36.3979 38.6784 37.3081 37.6883C39.1035 36.0242 41.71 35.805 43.7228 37.2114ZM39.4294 40.1044C39.1041 40.6195 39.0231 40.9619 39.1089 41.5644C39.246 42.1291 39.6127 42.485 40.0754 42.8066C40.5753 42.974 41.014 42.9684 41.5065 42.8003C41.9643 42.4905 42.3307 42.1168 42.507 41.5859C42.5443 41.0145 42.5288 40.6523 42.2031 40.1616C41.7664 39.7423 41.4035 39.4917 40.8036 39.4114C40.2457 39.4773 39.8205 39.7014 39.4294 40.1044Z" fill="url(#paint2_linear_357_2435)"/>
<defs>
<filter id="filter0_d_357_2435" x="0" y="0" width="112" height="112" filterUnits="userSpaceOnUse" color-interpolation-filters="sRGB">
<feFlood flood-opacity="0" result="BackgroundImageFix"/>
<feColorMatrix in="SourceAlpha" type="matrix" values="0 0 0 0 0 0 0 0 0 0 0 0 0 0 0 0 0 0 127 0" result="hardAlpha"/>
<feOffset/>
<feGaussianBlur stdDeviation="5"/>
<feComposite in2="hardAlpha" operator="out"/>
<feColorMatrix type="matrix" values="0 0 0 0 0 0 0 0 0 0.396078 0 0 0 0 1 0 0 0 0.27 0"/>
<feBlend mode="normal" in2="BackgroundImageFix" result="effect1_dropShadow_357_2435"/>
<feBlend mode="normal" in="SourceGraphic" in2="effect1_dropShadow_357_2435" result="shape"/>
</filter>
<linearGradient id="paint0_linear_357_2435" x1="10" y1="10" x2="102" y2="102" gradientUnits="userSpaceOnUse">
<stop/>
<stop offset="1" stop-color="#0065FF"/>
</linearGradient>
<linearGradient id="paint1_linear_357_2435" x1="81.8947" y1="82" x2="29.8951" y2="30.2111" gradientUnits="userSpaceOnUse">
<stop stop-color="#0065FF"/>
<stop offset="1" stop-color="#020A1A"/>
</linearGradient>
<linearGradient id="paint2_linear_357_2435" x1="81.8947" y1="82" x2="29.8951" y2="30.2111" gradientUnits="userSpaceOnUse">
<stop stop-color="#0065FF"/>
<stop offset="1" stop-color="#020A1A"/>
</linearGradient>
</defs>
</svg>
