<svg width="32" height="32" viewBox="0 0 32 32" fill="none" xmlns="http://www.w3.org/2000/svg">
<path d="M17.333 2.66699C18.5523 2.66699 19.6009 2.66404 20.4365 2.77637C21.3105 2.89387 22.1486 3.15846 22.8281 3.83789C23.5077 4.51743 23.7731 5.35549 23.8906 6.22949C24.003 7.06508 24 8.11376 24 9.33301V22.667C24 23.8862 24.003 24.9349 23.8906 25.7705C23.7731 26.6445 23.5077 27.4826 22.8281 28.1621C22.1486 28.8415 21.3105 29.1061 20.4365 29.2236C19.6009 29.336 18.5523 29.333 17.333 29.333H14.666C13.4468 29.333 12.3981 29.336 11.5625 29.2236C10.6885 29.1061 9.85041 28.8416 9.1709 28.1621C8.49139 27.4826 8.22689 26.6445 8.10938 25.7705C7.99703 24.9349 8 23.8862 8 22.667V9.33301C8 8.11376 7.99703 7.06508 8.10938 6.22949C8.22689 5.35552 8.49139 4.5174 9.1709 3.83789C9.85041 3.15838 10.6885 2.89389 11.5625 2.77637C12.3981 2.66402 13.4468 2.66699 14.666 2.66699H17.333Z" stroke="#0A3380" stroke-width="2.66667"/>
<path d="M9.33301 21.3335H22.6663" stroke="#0A3380" stroke-width="2.66667"/>
</svg>
