<svg width="112" height="112" viewBox="0 0 112 112" fill="none" xmlns="http://www.w3.org/2000/svg">
<g filter="url(#filter0_d_357_2450)">
<circle cx="56" cy="56" r="46" fill="white"/>
<circle cx="56" cy="56" r="45" stroke="url(#paint0_linear_357_2450)" stroke-width="2"/>
</g>
<path d="M47.7571 32.7554C47.9588 32.8243 48.1606 32.8931 48.3625 32.9615C48.7612 33.0971 49.1594 33.2341 49.5572 33.3722C50.0445 33.5406 50.534 33.7005 51.0255 33.8559C51.2241 33.9194 51.2241 33.9194 51.4267 33.9841C51.6649 34.0599 51.9034 34.135 52.1421 34.2092C52.8739 34.4475 53.5104 34.7197 53.8824 35.4414C54.1977 36.131 54.1089 36.8926 53.949 37.6142C54.0028 37.6513 54.0566 37.6884 54.112 37.7266C54.3558 37.8952 54.599 38.0646 54.8421 38.2341C54.9268 38.2924 55.0115 38.3508 55.0987 38.4109C55.1798 38.4676 55.2609 38.5243 55.3445 38.5827C55.4193 38.6347 55.4942 38.6866 55.5713 38.7401C55.7619 38.8939 55.7619 38.8939 55.9752 39.2138C56.0218 39.6889 55.9575 39.9617 55.7048 40.3627C55.6457 40.4583 55.5865 40.5538 55.5255 40.6522C55.4606 40.7538 55.3956 40.8554 55.3287 40.9601C55.229 41.1197 55.229 41.1197 55.1273 41.2826C54.986 41.5084 54.8441 41.7339 54.7017 41.959C54.4825 42.3059 54.2656 42.6542 54.0494 43.0029C53.6628 43.6254 53.2754 44.2473 52.8826 44.8658C52.7966 45.0042 52.7966 45.0042 52.7089 45.1455C52.654 45.2316 52.5992 45.3178 52.5427 45.4065C52.495 45.4824 52.4473 45.5583 52.3981 45.6365C52.218 45.8557 52.082 45.9422 51.8162 46.0389C51.6075 46.055 51.6075 46.055 51.3867 46.0401C51.3032 46.0352 51.2197 46.0302 51.1337 46.0251C51.0444 46.0187 50.9551 46.0122 50.8631 46.0056C50.6727 45.9938 50.4823 45.9822 50.292 45.9706C50.1929 45.9642 50.0939 45.9578 49.9919 45.9512C49.4716 45.9192 48.951 45.8961 48.4303 45.8723C48.2398 45.8633 48.0493 45.8542 47.8588 45.8452C47.7219 45.8387 47.5849 45.8323 47.4439 45.8256C47.6394 46.8314 47.8715 47.8016 48.2237 48.7649C49.5486 52.4117 50.1299 56.1569 50.4298 60.0089C50.5191 59.9677 50.6083 59.9264 50.7002 59.884C51.9027 59.3459 53.1518 58.8932 54.4822 58.8359C54.5622 58.8316 54.6422 58.8273 54.7247 58.823C56.3032 58.7795 57.7897 59.1567 59.1744 59.9023C59.1864 59.7781 59.1984 59.654 59.2107 59.5261C59.2676 59.0759 59.3907 58.665 59.5543 58.2427C59.5824 58.1696 59.6105 58.0965 59.6394 58.0212C60.771 55.1623 62.8605 52.6267 65.6862 51.3339C68.2905 50.2092 71.2482 50.2648 73.8715 51.2754C77.1292 52.6127 79.1631 55.2529 80.5161 58.4026C81.3277 60.5399 81.7431 62.7559 81.9957 65.0211C82.0048 65.1019 82.0138 65.1828 82.0231 65.2661C82.0702 65.7177 82.0918 66.1668 82.1024 66.6207C82.1045 66.7095 82.1067 66.7983 82.109 66.8899C82.1633 69.4591 81.9652 71.991 81.4625 74.5122C81.4469 74.5914 81.4312 74.6707 81.4151 74.7524C81.0889 76.3352 80.3815 77.6523 79.223 78.7778C79.1269 78.8772 79.1269 78.8772 79.0289 78.9786C75.8166 82.0797 69.5953 81.4813 65.5063 81.7238C65.3942 81.7305 65.2821 81.7371 65.1667 81.744C64.5161 81.7824 63.8655 81.8191 63.2147 81.8539C63.0166 81.8645 62.8186 81.8755 62.6206 81.8868C60.7325 81.9934 58.8446 81.9971 56.9541 81.9968C56.5967 81.9968 56.2392 81.9976 55.8818 81.999C52.8152 82.0113 49.7684 81.91 46.7174 81.5772C46.5942 81.564 46.5942 81.564 46.4686 81.5505C42.7578 81.1494 39.0769 80.4571 35.4934 79.411C35.3821 79.3787 35.3821 79.3787 35.2685 79.3458C33.0513 78.6984 31.0581 77.948 29.8022 75.8868C28.7407 73.9329 28.9609 71.8374 29.1882 69.7133C29.2077 69.5247 29.2272 69.336 29.2466 69.1473C29.2951 68.6773 29.3443 68.2073 29.3938 67.7373C29.4502 67.2005 29.5059 66.6636 29.5607 66.1266C29.5866 65.8725 29.613 65.6184 29.6399 65.3643C29.6919 64.8567 29.741 64.3515 29.7571 63.8414C29.7979 62.6274 29.9956 61.4841 30.2508 60.2977C30.7096 58.1558 31.1037 56.0047 31.461 53.8437C31.4831 53.7107 31.5051 53.5776 31.5279 53.4405C31.7713 51.9683 32.0029 50.4947 32.2187 49.0182C32.2377 48.8892 32.2567 48.7601 32.2762 48.6272C32.3657 48.0175 32.4535 47.4077 32.5381 46.7973C32.7525 45.2866 33.0228 43.841 33.8071 42.5064C33.8474 42.4362 33.8878 42.366 33.9294 42.2937C34.3348 41.6124 34.8317 41.0261 35.3601 40.4383C35.5744 40.1963 35.7768 39.9451 35.9799 39.6937C36.3796 39.2027 36.7872 38.719 37.1971 38.2366C37.5062 37.8722 37.8111 37.5049 38.1127 37.1343C38.5122 36.6436 38.9194 36.1601 39.3293 35.6781C39.6459 35.3051 39.9572 34.9282 40.2656 34.5483C40.4188 34.3616 40.5721 34.175 40.7255 33.9884C40.7953 33.9014 40.8651 33.8144 40.9371 33.7247C41.4353 33.1278 41.9474 32.7326 42.645 32.3888C42.7508 32.3343 42.7508 32.3343 42.8587 32.2788C44.4554 31.6039 46.2287 32.2156 47.7571 32.7554ZM41.766 35.5497C41.608 35.7421 41.4512 35.9355 41.2957 36.13C41.0224 36.4698 40.7416 36.8024 40.4589 37.1343C40.0991 37.5575 39.7431 37.9832 39.3924 38.414C39.0418 38.8448 38.6857 39.2704 38.326 39.6937C37.888 40.2098 37.4528 40.7278 37.0272 41.2542C36.8483 41.4752 36.6678 41.6942 36.4856 41.9124C34.7166 44.0579 34.389 46.3959 34.0006 49.078C33.8864 49.8655 33.7684 50.6524 33.65 51.4393C33.6382 51.5183 33.6263 51.5973 33.6141 51.6788C33.3878 53.1816 33.1401 54.6801 32.874 56.1765C32.8545 56.2865 32.835 56.3964 32.8149 56.5097C32.612 57.6507 32.3986 58.7888 32.1654 59.9239C31.8142 61.6369 31.4881 63.3025 31.4113 65.0548C31.3611 66.17 31.2345 67.2684 31.0989 68.3761C30.4953 72.1829 30.4953 72.1829 31.7763 75.6581C32.7389 76.7893 33.927 77.1759 35.3134 77.5781C35.3922 77.6011 35.4711 77.6241 35.5523 77.6479C40.9369 79.2121 46.5414 80.0052 52.1361 80.2708C52.2309 80.2754 52.3258 80.2799 52.4235 80.2846C54.2877 80.3715 56.1487 80.3949 58.0147 80.3908C58.1526 80.3906 58.2904 80.3904 58.4325 80.3902C61.5709 80.3848 64.6772 80.292 67.804 80.0163C68.3969 79.9642 68.9902 79.9162 69.5836 79.8701C74.4227 79.6288 74.4227 79.6288 78.3418 77.0251C80.812 73.9679 80.4797 68.2778 80.1087 64.5878C80.0239 63.9072 79.902 63.2383 79.7562 62.5683C79.7345 62.4644 79.7128 62.3606 79.6904 62.2535C78.9931 59.0107 77.6485 55.733 74.8012 53.8437C74.2387 53.4875 73.66 53.2073 73.0378 52.9706C72.9277 52.9266 72.8176 52.8826 72.7042 52.8373C71.7661 52.5242 70.8544 52.5032 69.8719 52.4974C69.7415 52.4963 69.611 52.4952 69.4766 52.4941C68.3017 52.5053 67.2442 52.7115 66.1994 53.2572C66.1271 53.2943 66.0548 53.3314 65.9803 53.3697C65.3555 53.7005 64.8143 54.0912 64.2932 54.5702C64.2139 54.641 64.1346 54.7118 64.0529 54.7847C61.9489 56.7643 60.809 59.5099 60.7189 62.3657C60.6995 62.8261 60.6822 63.2219 60.4541 63.6347C60.1226 63.8005 59.747 63.8189 59.3877 63.7414C59.1086 63.4878 59.0694 63.3481 59.0507 62.9691C59.0542 62.8412 59.0576 62.7134 59.0611 62.5816C59.0409 62.0391 59.0409 62.0391 58.7629 61.5969C58.4795 61.4218 58.2069 61.2982 57.8947 61.182C57.7837 61.1398 57.6726 61.0976 57.5582 61.0541C55.7461 60.4149 53.7165 60.4266 51.9578 61.2511C51.6143 61.4291 51.2866 61.6098 50.963 61.8218C50.7935 61.9286 50.7935 61.9286 50.6206 62.0376C50.1689 62.4269 50.1463 62.9873 50.0566 63.5481C49.572 66.1654 48.6206 68.9186 46.482 70.6647C46.1077 70.8685 45.7201 70.891 45.311 70.7797C45.0174 70.5543 44.9944 70.4821 44.9378 70.0999C45.0055 69.6088 45.1685 69.5155 45.5243 69.1801C47.5533 67.0026 48.5136 64.2386 48.5319 61.262C48.5331 61.1393 48.5331 61.1393 48.5342 61.0141C48.5474 59.1655 48.5268 57.3539 48.1904 55.53C48.1692 55.415 48.148 55.3001 48.1262 55.1816C47.7254 53.0738 47.1646 51.0084 46.5072 48.9667C46.1819 47.9499 45.9153 46.9213 45.6625 45.8843C45.59 45.5883 45.5157 45.2928 45.4414 44.9973C45.3948 44.8075 45.3483 44.6178 45.3019 44.428C45.2797 44.3405 45.2575 44.253 45.2346 44.1628C45.1297 43.7247 45.0567 43.3867 45.2044 42.9463C45.3244 42.753 45.3244 42.753 45.5243 42.6264C45.99 42.5848 46.1967 42.577 46.5907 42.8396C46.689 43.1131 46.7526 43.3875 46.8207 43.6699C46.8652 43.7868 46.8652 43.7868 46.9107 43.9061C47.2318 44.0131 47.4943 44.0436 47.8309 44.0698C47.9501 44.0791 48.0694 44.0883 48.1922 44.0979C48.317 44.1072 48.4417 44.1164 48.5703 44.126C48.6921 44.1357 48.814 44.1454 48.9396 44.1554C49.294 44.1823 49.6485 44.2046 50.0033 44.226C50.1062 44.2347 50.2091 44.2434 50.3152 44.2523C50.5778 44.2669 50.8107 44.2719 51.0697 44.226C51.3451 44.0034 51.3451 44.0034 51.5096 43.6528C51.5863 43.518 51.6633 43.3833 51.7404 43.2487C51.7838 43.1699 51.8273 43.0911 51.8721 43.0099C52.0617 42.6762 52.2626 42.3499 52.4652 42.024C52.5037 41.962 52.5423 41.8999 52.582 41.836C52.6606 41.7096 52.7392 41.5831 52.8179 41.4567C53.0083 41.1502 53.1971 40.8427 53.3858 40.5352C53.483 40.3769 53.483 40.3769 53.5822 40.2154C53.734 39.9706 53.734 39.9706 53.8424 39.747C53.5256 39.5359 53.2089 39.3247 52.8826 39.1072C52.5865 39.4624 52.3461 39.8198 52.1161 40.2203C51.66 40.9419 51.117 41.3763 50.2899 41.6066C49.2662 41.7778 48.3019 41.6201 47.4439 41.0267C46.8159 40.4691 46.4569 39.7613 46.377 38.9185C46.3785 38.1001 46.629 37.3084 46.9107 36.5478C47.0814 36.5212 47.2526 36.4973 47.4239 36.4745C47.5191 36.4609 47.6144 36.4473 47.7126 36.4332C47.9771 36.4412 47.9771 36.4412 48.1658 36.5849C48.3534 36.8369 48.3898 36.9764 48.4036 37.2943C48.3571 37.4468 48.3054 37.5978 48.2503 37.7475C48.0738 38.2411 47.9762 38.6929 48.0837 39.2138C48.2686 39.5405 48.4893 39.7899 48.8302 39.9603C49.3688 40.006 49.7426 40.0076 50.2227 39.7171C50.6598 39.3302 50.9328 38.8023 51.221 38.3007C51.3366 38.1002 51.4557 37.9021 51.5754 37.704C51.6503 37.5766 51.725 37.449 51.7995 37.3214C51.8668 37.2062 51.9341 37.0911 52.0034 36.9725C52.154 36.6115 52.1555 36.4852 52.0295 36.1212C51.8313 35.9797 51.8313 35.9797 51.5725 35.9035C51.4755 35.8692 51.3786 35.8348 51.2787 35.7995C51.1746 35.7649 51.0704 35.7303 50.963 35.6947C50.8604 35.6582 50.7577 35.6217 50.6519 35.5841C49.9311 35.3285 49.2056 35.0863 48.4808 34.8424C48.2159 34.7529 47.9511 34.6627 47.6866 34.5718C47.3018 34.4396 46.9164 34.3096 46.5308 34.18C46.3551 34.119 46.3551 34.119 46.1759 34.0568C44.1925 33.3993 43.0741 34.0092 41.766 35.5497Z" fill="url(#paint1_linear_357_2450)"/>
<path d="M73.0378 30.0427C73.453 30.3968 73.7027 30.7668 73.9543 31.2474C74.0045 31.3423 74.0045 31.3423 74.0558 31.439C74.1617 31.6396 74.2663 31.8409 74.3708 32.0422C74.4409 32.1755 74.511 32.3088 74.5812 32.4421C74.6325 32.5396 74.6325 32.5396 74.6849 32.6392C74.7529 32.7683 74.8212 32.8973 74.8897 33.0262C75.0345 33.2993 75.1757 33.5725 75.307 33.8524C75.6224 34.4994 75.976 34.7474 76.6236 35.0415C76.8041 35.13 76.9843 35.2188 77.1644 35.3081C77.257 35.3533 77.3497 35.3985 77.4452 35.4451C77.923 35.6848 78.3865 35.9481 78.8498 36.2145C78.9358 36.2628 79.0218 36.311 79.1104 36.3607C79.8706 36.7981 79.8706 36.7981 80.0762 37.1876C80.1295 37.5542 80.1295 37.5542 80.0762 37.9341C79.7325 38.3328 79.3816 38.5837 78.9181 38.8273C78.7395 38.9221 78.7395 38.9221 78.5574 39.0189C78.4339 39.0832 78.3105 39.1476 78.1833 39.2138C77.9394 39.3426 77.6956 39.4715 77.4518 39.6004C77.3357 39.6613 77.2196 39.7222 77.1 39.785C76.7262 39.9838 76.358 40.1911 75.9916 40.4031C75.8105 40.4935 75.8105 40.4935 75.5972 40.4935C75.5682 40.5697 75.5391 40.646 75.5092 40.7245C75.2878 41.2587 74.9997 41.7587 74.7241 42.2664C74.6652 42.3763 74.6063 42.4861 74.5456 42.5993C73.3605 44.7878 73.3605 44.7878 72.8245 44.9725C72.4513 44.9658 72.4513 44.9658 72.0781 44.8658C71.7474 44.5056 71.5134 44.1116 71.2787 43.6844C71.245 43.6236 71.2114 43.5627 71.1767 43.5C71.0701 43.3068 70.9642 43.1132 70.8583 42.9196C70.7878 42.7914 70.7172 42.6633 70.6465 42.5351C70.6121 42.4726 70.5777 42.41 70.5423 42.3456C70.4401 42.1603 70.3369 41.9756 70.2337 41.7909C70.0519 41.4533 70.0519 41.4533 69.9298 41.1745C69.5693 40.3796 68.9389 40.1062 68.179 39.7337C67.9388 39.6115 67.6987 39.489 67.4587 39.3663C67.3409 39.3066 67.2231 39.2469 67.1017 39.1854C65.4962 38.3511 65.4962 38.3511 65.1464 37.9341C65.0926 37.7117 65.0926 37.7117 65.0864 37.4676C65.0796 37.3476 65.0796 37.3476 65.0726 37.2251C65.2089 36.7615 65.6096 36.5405 66.0112 36.3146C66.2674 36.1833 66.5262 36.0586 66.786 35.9346C66.9772 35.8384 67.1684 35.7422 67.3596 35.6459C67.6961 35.4789 68.031 35.3277 68.3818 35.1935C69.8426 34.5849 70.3726 33.2407 71.0421 31.8949C72.0457 29.9229 72.0457 29.9229 73.0378 30.0427Z" fill="url(#paint2_linear_357_2450)"/>
<path d="M62.6936 38.6806C62.9195 38.9394 63.0742 39.2239 63.2335 39.5271C63.2756 39.6028 63.3177 39.6784 63.3612 39.7564C63.5494 40.0962 63.733 40.4314 63.888 40.7879C64.3064 41.6901 64.8712 42.0226 65.7462 42.4531C65.9859 42.5751 66.225 42.6981 66.4635 42.8221C66.5689 42.8744 66.6743 42.9267 66.7829 42.9806C67.102 43.1824 67.2835 43.3796 67.4925 43.6928C67.5525 44.066 67.5525 44.066 67.4925 44.4393C67.0303 45.0282 66.3675 45.3278 65.7196 45.679C65.498 45.7998 65.2766 45.9212 65.0555 46.0431C64.9579 46.0961 64.8602 46.1491 64.7595 46.2037C64.3041 46.4829 64.1146 46.7819 63.8708 47.2549C63.8117 47.3674 63.7526 47.4799 63.6917 47.5958C63.5687 47.8325 63.4463 48.0693 63.3243 48.3065C63.2352 48.4755 63.2352 48.4755 63.1443 48.6479C63.0911 48.7508 63.0378 48.8538 62.983 48.9598C62.7783 49.2716 62.5756 49.4568 62.267 49.6647C61.8441 49.7165 61.5545 49.6899 61.2006 49.4514C61.0511 49.1785 61.0511 49.1785 60.9103 48.8336C60.0044 46.7974 59.0565 45.8805 56.9969 45.0137C56.7021 44.8553 56.5715 44.7246 56.4018 44.4393C56.3382 44.0895 56.3868 43.8117 56.5084 43.4795C56.9279 43.0924 57.4479 42.8376 57.9722 42.6218C59.4101 42.0114 60.03 41.1482 60.6746 39.7799C61.178 38.727 61.178 38.727 61.5718 38.5273C62.0392 38.4526 62.2676 38.4684 62.6936 38.6806Z" fill="url(#paint3_linear_357_2450)"/>
<path d="M45.458 75.7292C45.7607 75.7918 46.0624 75.8583 46.3641 75.9252C47.4723 76.159 48.5796 76.3249 49.7033 76.4584C49.7765 76.4672 49.8496 76.476 49.925 76.485C50.4127 76.5433 50.9005 76.6 51.3896 76.645C51.5464 76.6595 51.5464 76.6595 51.7064 76.6743C52.6488 76.752 53.5808 76.7595 54.5251 76.7466C54.8806 76.742 55.2361 76.7396 55.5915 76.737C56.2499 76.7322 56.9081 76.7264 57.5664 76.7173C58.0279 76.7109 58.4894 76.7072 58.951 76.7052C59.1259 76.7039 59.3008 76.7017 59.4756 76.6985C59.7193 76.6941 59.9628 76.6931 60.2065 76.6928C60.3448 76.6913 60.4831 76.6898 60.6256 76.6882C61.0809 76.768 61.2366 76.9281 61.5205 77.2848C61.5839 77.5356 61.5839 77.5356 61.5739 77.7781C61.5728 77.8586 61.5717 77.9392 61.5705 78.0222C61.5082 78.2997 61.427 78.3948 61.2006 78.5645C60.8285 78.6894 60.4703 78.6861 60.08 78.6884C60.0111 78.6889 59.9421 78.6894 59.8711 78.69C59.6421 78.6915 59.413 78.6923 59.184 78.6928C59.1044 78.6931 59.0247 78.6934 58.9426 78.6938C58.5172 78.6954 58.0918 78.6963 57.6664 78.6968C57.3224 78.6973 56.9785 78.6987 56.6345 78.7012C53.5792 78.7226 50.5259 78.616 47.5119 78.0713C47.2813 78.0297 47.0503 77.9904 46.8192 77.9514C46.1413 77.8352 45.4656 77.7071 44.7941 77.5581C44.695 77.5363 44.5958 77.5144 44.4937 77.4919C44.1892 77.3691 44.0863 77.2479 43.9247 76.9649C43.8565 76.4961 43.8701 76.2962 44.1447 75.9052C44.5861 75.5952 44.9469 75.6406 45.458 75.7292Z" fill="url(#paint4_linear_357_2450)"/>
<path d="M68.7255 76.3317C68.9168 76.7226 68.9414 76.9613 68.8788 77.3915C68.5881 77.7542 68.3758 77.8756 67.919 77.938C67.7506 77.9611 67.7506 77.9611 67.5787 77.9847C67.3777 78.0078 67.3777 78.0078 67.1725 78.0313C67.0915 78.041 67.0104 78.0506 66.9268 78.0605C63.8819 78.4164 63.8819 78.4164 63.4068 78.0592C63.205 77.7888 63.169 77.6646 63.1735 77.3315C63.1724 77.25 63.1713 77.1685 63.1702 77.0845C63.2268 76.8583 63.2268 76.8583 63.3907 76.692C63.7473 76.4834 64.0977 76.4531 64.5011 76.4138C64.6246 76.4003 64.6246 76.4003 64.7506 76.3865C64.9247 76.3677 65.0989 76.3495 65.2731 76.332C65.537 76.3053 65.8006 76.2768 66.0643 76.2478C66.2341 76.2297 66.404 76.2117 66.5739 76.1939C66.6516 76.1855 66.7293 76.1772 66.8093 76.1686C68.3342 76.0168 68.3342 76.0168 68.7255 76.3317Z" fill="url(#paint5_linear_357_2450)"/>
<defs>
<filter id="filter0_d_357_2450" x="0" y="0" width="112" height="112" filterUnits="userSpaceOnUse" color-interpolation-filters="sRGB">
<feFlood flood-opacity="0" result="BackgroundImageFix"/>
<feColorMatrix in="SourceAlpha" type="matrix" values="0 0 0 0 0 0 0 0 0 0 0 0 0 0 0 0 0 0 127 0" result="hardAlpha"/>
<feOffset/>
<feGaussianBlur stdDeviation="5"/>
<feComposite in2="hardAlpha" operator="out"/>
<feColorMatrix type="matrix" values="0 0 0 0 0 0 0 0 0 0.396078 0 0 0 0 1 0 0 0 0.27 0"/>
<feBlend mode="normal" in2="BackgroundImageFix" result="effect1_dropShadow_357_2450"/>
<feBlend mode="normal" in="SourceGraphic" in2="effect1_dropShadow_357_2450" result="shape"/>
</filter>
<linearGradient id="paint0_linear_357_2450" x1="10" y1="10" x2="102" y2="102" gradientUnits="userSpaceOnUse">
<stop/>
<stop offset="1" stop-color="#0065FF"/>
</linearGradient>
<linearGradient id="paint1_linear_357_2450" x1="29.5588" y1="30" x2="81.5588" y2="82" gradientUnits="userSpaceOnUse">
<stop/>
<stop offset="1" stop-color="#0065FF"/>
</linearGradient>
<linearGradient id="paint2_linear_357_2450" x1="29.5588" y1="30" x2="81.5588" y2="82" gradientUnits="userSpaceOnUse">
<stop/>
<stop offset="1" stop-color="#0065FF"/>
</linearGradient>
<linearGradient id="paint3_linear_357_2450" x1="29.5588" y1="30" x2="81.5588" y2="82" gradientUnits="userSpaceOnUse">
<stop/>
<stop offset="1" stop-color="#0065FF"/>
</linearGradient>
<linearGradient id="paint4_linear_357_2450" x1="29.5588" y1="30" x2="81.5588" y2="82" gradientUnits="userSpaceOnUse">
<stop/>
<stop offset="1" stop-color="#0065FF"/>
</linearGradient>
<linearGradient id="paint5_linear_357_2450" x1="29.5588" y1="30" x2="81.5588" y2="82" gradientUnits="userSpaceOnUse">
<stop/>
<stop offset="1" stop-color="#0065FF"/>
</linearGradient>
</defs>
</svg>
