<svg width="32" height="32" viewBox="0 0 32 32" fill="none" xmlns="http://www.w3.org/2000/svg">
<path d="M23.6095 18.2761L27.1403 21.807C27.6151 22.2818 27.6151 23.0516 27.1403 23.5264C24.5734 26.0933 20.5095 26.3821 17.6053 24.204L15.5048 22.6286C13.1801 20.885 11.115 18.8199 9.37143 16.4952L7.79601 14.3947C5.61788 11.4905 5.90669 7.42665 8.47364 4.85969C8.94844 4.3849 9.71823 4.3849 10.193 4.85969L13.7239 8.39052C14.2446 8.91122 14.2446 9.75544 13.7239 10.2761L12.3623 11.6377C12.1459 11.8541 12.0923 12.1846 12.2292 12.4583C13.8114 15.6227 16.3773 18.1886 19.5417 19.7708C19.8154 19.9077 20.146 19.8541 20.3623 19.6377L21.7239 18.2761C22.2446 17.7554 23.0888 17.7554 23.6095 18.2761Z" stroke="#0A3380" stroke-width="2.66667"/>
</svg>
