<svg width="32" height="32" viewBox="0 0 32 32" fill="none" xmlns="http://www.w3.org/2000/svg">
<path d="M16 2.66675V1.33341V2.66675ZM25.333 11.9998H26.6663V11.9997L25.333 11.9998ZM16.5303 23.739L17.1437 24.9229L17.1442 24.9226L16.5303 23.739ZM15.4697 23.739L14.8558 24.9226L14.8563 24.9229L15.4697 23.739ZM6.66699 11.9998L5.33366 11.9997V11.9998H6.66699ZM12 11.9998L10.6667 11.9997V11.9998H12ZM20 11.9998H21.3333V11.9997L20 11.9998ZM16 2.66675V4.00008C20.4181 4.00008 23.9995 7.58159 23.9997 11.9998L25.333 11.9998L26.6663 11.9997C26.6661 6.1089 21.891 1.33341 16 1.33341V2.66675ZM25.333 11.9998H23.9997C23.9997 14.8608 22.5435 17.2211 20.7262 19.0543C18.9102 20.8861 16.8451 22.0737 15.9164 22.5554L16.5303 23.739L17.1442 24.9226C18.1927 24.3788 20.529 23.0409 22.62 20.9317C24.7098 18.8237 26.6663 15.8271 26.6663 11.9998H25.333ZM16.5303 23.739L15.9169 22.5552C15.9353 22.5456 15.9644 22.5366 16 22.5366C16.0356 22.5366 16.0647 22.5456 16.0831 22.5552L15.4697 23.739L14.8563 24.9229C15.5779 25.2967 16.4221 25.2967 17.1437 24.9229L16.5303 23.739ZM15.4697 23.739L16.0836 22.5554C15.1549 22.0737 13.0898 20.8861 11.2738 19.0543C9.45651 17.2211 8.00033 14.8608 8.00033 11.9998H6.66699H5.33366C5.33366 15.8271 7.29022 18.8237 9.38 20.9317C11.471 23.0409 13.8073 24.3788 14.8558 24.9226L15.4697 23.739ZM6.66699 11.9998L8.00033 11.9998C8.00048 7.58159 11.5819 4.00008 16 4.00008V2.66675V1.33341C10.109 1.33341 5.33386 6.1089 5.33366 11.9997L6.66699 11.9998ZM16 7.99976V6.66642C13.0545 6.66642 10.6669 9.05447 10.6667 11.9997L12 11.9998L13.3333 11.9999C13.3335 10.5271 14.5275 9.33309 16 9.33309V7.99976ZM12 11.9998H10.6667C10.6667 14.9453 13.0545 17.3331 16 17.3331V15.9998V14.6664C14.5272 14.6664 13.3333 13.4725 13.3333 11.9998H12ZM16 15.9998V17.3331C18.9455 17.3331 21.3333 14.9453 21.3333 11.9998H20H18.6667C18.6667 13.4725 17.4728 14.6664 16 14.6664V15.9998ZM20 11.9998L21.3333 11.9997C21.3331 9.05447 18.9455 6.66642 16 6.66642V7.99976V9.33309C17.4725 9.33309 18.6665 10.5271 18.6667 11.9999L20 11.9998Z" fill="#0A3380"/>
<path d="M26.3923 23.3335C27.4455 23.9416 28 24.6313 28 25.3335C28 26.0356 27.4455 26.7254 26.3923 27.3335C25.3391 27.9416 23.8242 28.4465 22 28.7976C20.1758 29.1487 18.1064 29.3335 16 29.3335C13.8936 29.3335 11.8242 29.1487 10 28.7976C8.17577 28.4465 6.66092 27.9416 5.6077 27.3335C4.55448 26.7254 4 26.0356 4 25.3335C4 24.6313 4.55447 23.9416 5.60769 23.3335" stroke="#0A3380" stroke-width="2.66667" stroke-linecap="round"/>
</svg>
