<svg width="112" height="112" viewBox="0 0 112 112" fill="none" xmlns="http://www.w3.org/2000/svg">
<g filter="url(#filter0_d_357_2444)">
<path d="M102 56C102 81.4051 81.4051 102 56 102C30.5949 102 10 81.4051 10 56C10 30.5949 30.5949 10 56 10C81.4051 10 102 30.5949 102 56Z" fill="white"/>
<path d="M56 11C80.8528 11 101 31.1472 101 56C101 80.8528 80.8528 101 56 101C31.1472 101 11 80.8528 11 56C11 31.1472 31.1472 11 56 11Z" stroke="url(#paint0_linear_357_2444)" stroke-width="2"/>
</g>
<path d="M59.65 38.6624C59.9567 38.8384 60.1993 39.0513 60.3597 39.3721C60.3886 40.0639 60.3107 40.7063 60.1938 41.387C60.1762 41.4933 60.1585 41.5995 60.1404 41.7091C60.0823 42.0578 60.0232 42.4063 59.9641 42.7548C59.9234 42.998 59.8827 43.2413 59.8421 43.4845C59.757 43.9929 59.6715 44.5013 59.5856 45.0096C59.4754 45.6615 59.366 46.3135 59.2569 46.9655C59.1528 47.5877 59.0484 48.2098 58.9439 48.8318C58.9139 49.01 58.9139 49.01 58.8834 49.1918C58.8271 49.5272 58.7705 49.8626 58.7138 50.198C58.6971 50.2975 58.6804 50.397 58.6632 50.4995C58.6399 50.6365 58.6399 50.6365 58.6162 50.7764C58.6028 50.8556 58.5895 50.9347 58.5757 51.0163C58.5362 51.2269 58.4876 51.433 58.4333 51.6403C58.5285 51.6391 58.6237 51.638 58.7218 51.6368C59.6198 51.6266 60.5178 51.619 61.4159 51.614C61.8776 51.6113 62.3392 51.6078 62.8009 51.602C63.2466 51.5965 63.6923 51.5935 64.138 51.5922C64.3079 51.5912 64.4777 51.5894 64.6476 51.5867C64.8859 51.583 65.1241 51.5825 65.3625 51.5827C65.4324 51.5809 65.5023 51.5791 65.5742 51.5772C66.1367 51.5831 66.3656 51.7647 66.7473 52.1472C66.9113 52.4753 66.8982 52.8057 66.8487 53.1611C66.7345 53.4408 66.5758 53.6795 66.4051 53.9279C66.3453 54.0193 66.3453 54.0193 66.2843 54.1126C66.1364 54.3376 65.9855 54.5603 65.8348 54.7833C65.6779 55.0178 65.5212 55.2524 65.3647 55.4871C65.3213 55.5522 65.2779 55.6172 65.2332 55.6842C64.7585 56.3967 64.288 57.1119 63.8179 57.8274C63.5407 58.2493 63.2633 58.671 62.986 59.0928C62.9284 59.1803 62.8708 59.2679 62.8115 59.3582C62.1848 60.3112 61.5575 61.2638 60.9301 62.2164C60.8153 62.3906 60.7006 62.5648 60.5859 62.739C60.3553 63.0891 60.1247 63.4393 59.8941 63.7894C59.4934 64.3977 59.0928 65.0061 58.6922 65.6144C58.4091 66.0444 58.1259 66.4743 57.8426 66.9042C57.3077 67.716 56.7733 68.5281 56.2406 69.3413C55.9889 69.7256 55.7369 70.1096 55.4849 70.4936C55.3648 70.6768 55.2449 70.8601 55.125 71.0434C54.9589 71.2976 54.7924 71.5515 54.6257 71.8053C54.5771 71.8798 54.5286 71.9544 54.4785 72.0313C53.7433 73.1479 53.7433 73.1479 53.3639 73.3376C52.9069 73.3924 52.5578 73.3987 52.1535 73.1665C51.8281 72.8016 51.7378 72.5484 51.753 72.0551C51.7696 71.9065 51.7877 71.758 51.8069 71.6097C51.8216 71.4848 51.8216 71.4848 51.8366 71.3574C51.871 71.071 51.9075 70.7848 51.9444 70.4987C51.9642 70.3421 51.9642 70.3421 51.9845 70.1823C52.0925 69.3301 52.2056 68.4785 52.3191 67.6269C52.3552 67.3546 52.3913 67.0823 52.4273 66.81C52.5119 66.172 52.5967 65.5339 52.6815 64.8959C52.7784 64.1682 52.8749 63.4404 52.9714 62.7126C53.1695 61.2185 53.3679 59.7245 53.5667 58.2306C53.4725 58.2312 53.3784 58.2319 53.2814 58.2326C52.3938 58.2387 51.5062 58.2433 50.6185 58.2463C50.1622 58.2479 49.7059 58.2501 49.2496 58.2535C48.8091 58.2568 48.3687 58.2586 47.9282 58.2594C47.7602 58.26 47.5923 58.2611 47.4243 58.2627C47.1889 58.2649 46.9535 58.2652 46.718 58.2651C46.6488 58.2662 46.5795 58.2673 46.5081 58.2684C45.972 58.2649 45.6589 58.1158 45.2717 57.7553C45.0865 57.3946 45.0643 57.0979 45.1513 56.7097C45.5265 55.8982 46.1626 55.1948 46.7123 54.4966C47.1449 53.947 47.5649 53.3899 47.9776 52.8252C48.481 52.1369 48.9926 51.4556 49.5111 50.7784C50.0248 50.1073 50.5325 49.4325 51.0319 48.7507C51.5983 47.9773 52.1769 47.214 52.7595 46.4528C53.2037 45.8713 53.6412 45.2854 54.0736 44.6951C54.6394 43.9226 55.217 43.1598 55.7994 42.3999C56.2631 41.7935 56.7164 41.1803 57.166 40.5635C58.677 38.4963 58.677 38.4963 59.65 38.6624ZM57.2167 44.3402C56.4311 45.365 55.6477 46.3908 54.8847 47.4326C54.3183 48.2059 53.7397 48.9693 53.1571 49.7305C52.7129 50.312 52.2754 50.8978 51.843 51.4882C51.3329 52.1846 50.8145 52.8742 50.2905 53.5603C50.188 53.6947 50.188 53.6947 50.0834 53.8317C49.8395 54.1511 49.5957 54.4704 49.3509 54.7891C49.218 54.9622 49.0857 55.1357 48.9534 55.3093C48.8834 55.4006 48.8133 55.492 48.7412 55.5861C48.5797 55.7828 48.5797 55.7828 48.5986 56C48.7245 56.0002 48.7245 56.0002 48.8531 56.0004C49.6452 56.0022 50.4373 56.0065 51.2294 56.0134C51.6367 56.0169 52.0439 56.0194 52.4511 56.0198C52.8443 56.0203 53.2373 56.0231 53.6305 56.0277C53.7803 56.029 53.9302 56.0295 54.08 56.029C54.2903 56.0285 54.5003 56.0312 54.7105 56.0345C54.8301 56.0352 54.9496 56.0359 55.0728 56.0366C55.4923 56.1218 55.6433 56.2693 55.8986 56.6083C56.117 57.5807 55.8053 58.7932 55.6702 59.7683C55.6281 60.072 55.5871 60.3758 55.5463 60.6797C55.4745 61.214 55.4018 61.7481 55.3287 62.2821C55.2113 63.1407 55.0946 63.9993 54.9791 64.8582C54.9386 65.1578 54.8973 65.4574 54.856 65.757C54.8313 65.9392 54.8067 66.1215 54.7821 66.3038C54.7704 66.3872 54.7586 66.4707 54.7465 66.5567C54.6755 66.9671 54.6755 66.9671 54.7833 67.3556C55.5466 66.214 56.3035 65.0683 57.0583 63.921C57.1781 63.739 57.2979 63.5569 57.4178 63.3748C57.6037 63.0924 57.7896 62.8099 57.9755 62.5275C58.4547 61.7993 58.9341 61.0714 59.4136 60.3435C59.8662 59.6565 60.3185 58.9694 60.7708 58.2824C61.1108 57.7659 61.4511 57.2496 61.7917 56.7335C62.0121 56.3994 62.2324 56.0651 62.4526 55.7308C62.5565 55.5732 62.6604 55.4158 62.7644 55.2583C62.9066 55.0431 63.0485 54.8277 63.1903 54.6122C63.2326 54.5483 63.2749 54.4845 63.3185 54.4186C63.5175 54.1647 63.5175 54.1647 63.6042 53.8708C63.4763 53.8699 63.4763 53.8699 63.3459 53.869C62.5418 53.8631 61.7377 53.8558 60.9337 53.8469C60.5203 53.8424 60.107 53.8384 59.6936 53.8357C59.2945 53.8331 58.8955 53.829 58.4965 53.8239C58.3444 53.8222 58.1923 53.821 58.0402 53.8204C57.8268 53.8194 57.6135 53.8165 57.4002 53.8133C57.2788 53.8121 57.1575 53.811 57.0324 53.8099C56.6792 53.7656 56.4861 53.6772 56.2028 53.4653C55.8014 52.6625 56.1787 51.431 56.3298 50.5776C56.372 50.3391 56.413 50.1003 56.4537 49.8615C56.54 49.3558 56.628 48.8505 56.7161 48.3451C56.8185 47.7562 56.9203 47.1671 57.0209 46.5778C57.0612 46.3429 57.1026 46.1082 57.144 45.8735C57.1687 45.7299 57.1933 45.5863 57.2179 45.4426C57.2506 45.255 57.2506 45.255 57.2841 45.0635C57.3145 44.7791 57.3117 44.6059 57.2167 44.3402Z" fill="url(#paint1_linear_357_2444)"/>
<path d="M41.8055 69.3834C42.2096 69.601 42.4473 69.7678 42.6166 70.1945C42.6647 70.524 42.6162 70.791 42.5152 71.107C42.3453 71.3345 42.3453 71.3345 42.1251 71.5692C42.0427 71.6574 41.9603 71.7457 41.8754 71.8366C41.7854 71.9304 41.6954 72.0242 41.6027 72.1209C41.5566 72.1693 41.5104 72.2176 41.4629 72.2675C41.1704 72.5737 40.8747 72.8764 40.5765 73.177C40.4741 73.2807 40.3721 73.3848 40.2705 73.4893C40.1207 73.6434 39.9696 73.7962 39.8181 73.9487C39.7299 74.0383 39.6417 74.128 39.5509 74.2204C39.1299 74.5698 38.7527 74.757 38.1935 74.757C37.7723 74.6323 37.605 74.5013 37.3443 74.1487C37.2031 73.6721 37.2334 73.3697 37.4379 72.9192C37.6424 72.5636 37.9298 72.291 38.2208 72.0053C38.3193 71.9066 38.3193 71.9066 38.4197 71.8059C38.5581 71.6677 38.6969 71.5301 38.8362 71.3929C39.0485 71.1835 39.2588 70.9724 39.469 70.7609C39.6041 70.6264 39.7394 70.492 39.8747 70.3577C39.9372 70.295 39.9996 70.2322 40.0639 70.1676C40.5693 69.6731 41.0605 69.2748 41.8055 69.3834Z" fill="url(#paint2_linear_357_2444)"/>
<path d="M74.1487 37.3443C74.5013 37.605 74.6323 37.7723 74.757 38.1935C74.757 38.8966 74.4446 39.3252 73.9703 39.8071C73.9072 39.869 73.8442 39.9309 73.7792 39.9947C73.7135 40.0605 73.6479 40.1263 73.5803 40.1941C73.4419 40.3323 73.3031 40.4699 73.1638 40.6071C72.9515 40.8165 72.7412 41.0276 72.531 41.2391C72.3959 41.3736 72.2606 41.508 72.1253 41.6423C72.0628 41.705 72.0004 41.7678 71.9361 41.8324C71.5073 42.2519 71.1109 42.5717 70.4987 42.661C70.1047 42.6035 69.8926 42.4617 69.5862 42.211C69.3614 41.8463 69.3351 41.5735 69.4009 41.1556C69.5031 40.8358 69.6455 40.6753 69.8749 40.4308C69.9573 40.3426 70.0397 40.2543 70.1246 40.1634C70.2146 40.0696 70.3046 39.9758 70.3973 39.8791C70.4434 39.8307 70.4896 39.7823 70.5371 39.7325C70.8296 39.4263 71.1253 39.1236 71.4235 38.823C71.5259 38.7193 71.6279 38.6152 71.7295 38.5107C71.8793 38.3566 72.0304 38.2038 72.1819 38.0513C72.2701 37.9616 72.3583 37.872 72.4491 37.7796C72.9754 37.3429 73.4658 37.142 74.1487 37.3443Z" fill="url(#paint3_linear_357_2444)"/>
<path d="M39.1842 37.5134C39.8126 38.0943 40.4303 38.6847 41.0366 39.2886C41.1924 39.4434 41.3493 39.5972 41.5063 39.751C41.607 39.851 41.7077 39.9512 41.8083 40.0514C41.8979 40.1401 41.9876 40.2288 42.0799 40.3202C42.3953 40.6846 42.5911 41.0225 42.661 41.5013C42.6035 41.8953 42.4617 42.1074 42.211 42.4138C41.8463 42.6386 41.5735 42.6649 41.1556 42.5991C40.8358 42.4969 40.6753 42.3545 40.4308 42.1251C40.3426 42.0427 40.2543 41.9603 40.1634 41.8754C40.0696 41.7854 39.9758 41.6954 39.8791 41.6027C39.8307 41.5566 39.7823 41.5104 39.7325 41.4629C39.4263 41.1704 39.1236 40.8747 38.823 40.5765C38.7193 40.4741 38.6152 40.372 38.5107 40.2705C38.3566 40.1207 38.2038 39.9696 38.0513 39.8181C37.9616 39.7299 37.872 39.6417 37.7796 39.5509C37.4302 39.1299 37.243 38.7527 37.243 38.1935C37.3653 37.7807 37.5157 37.6097 37.8513 37.3443C38.3146 37.1281 38.7906 37.2076 39.1842 37.5134Z" fill="url(#paint4_linear_357_2444)"/>
<path d="M71.107 69.4848C71.3668 69.6305 71.3668 69.6305 71.5126 69.789C71.5126 69.8559 71.5126 69.9228 71.5126 69.9917C71.5795 69.9917 71.6464 69.9917 71.7154 69.9917C71.7154 70.0587 71.7154 70.1256 71.7154 70.1945C71.7823 70.1945 71.8492 70.1945 71.9181 70.1945C71.9181 70.2614 71.9181 70.3284 71.9181 70.3973C71.9851 70.3973 72.052 70.3973 72.1209 70.3973C72.1209 70.4642 72.1209 70.5311 72.1209 70.6001C72.1878 70.6001 72.2548 70.6001 72.3237 70.6001C72.3237 70.667 72.3237 70.7339 72.3237 70.8029C72.3906 70.8029 72.4575 70.8029 72.5265 70.8029C72.5265 70.8698 72.5265 70.9367 72.5265 71.0056C72.5934 71.0056 72.6603 71.0056 72.7293 71.0056C72.8615 71.1403 72.8615 71.1403 73.0207 71.3351C73.2524 71.6114 73.4903 71.8698 73.7527 72.1166C73.8074 72.1686 73.8622 72.2207 73.9186 72.2743C74.0279 72.3773 74.1384 72.4791 74.25 72.5794C74.6352 72.9459 74.7401 73.215 74.757 73.7431C74.6534 74.1483 74.4825 74.4031 74.1487 74.6557C73.6728 74.7903 73.3678 74.7667 72.919 74.5623C72.5637 74.3574 72.291 74.0701 72.0053 73.7792C71.9395 73.7135 71.8737 73.6479 71.8059 73.5803C71.6677 73.4419 71.5301 73.3031 71.3929 73.1638C71.1835 72.9515 70.9724 72.7412 70.7609 72.531C70.6264 72.3959 70.492 72.2606 70.3577 72.1253C70.295 72.0628 70.2322 72.0004 70.1676 71.9361C69.7481 71.5073 69.4283 71.1109 69.339 70.4987C69.3965 70.1047 69.5383 69.8926 69.789 69.5862C70.2267 69.3075 70.6183 69.3736 71.107 69.4848Z" fill="url(#paint5_linear_357_2444)"/>
<path d="M56.5069 75.4668C56.7933 75.6888 56.9546 75.8551 57.1153 76.1765C57.1265 76.3358 57.1314 76.4955 57.1332 76.6552C57.1345 76.7547 57.1358 76.8543 57.1372 76.9568C57.1379 77.0647 57.1387 77.1727 57.1394 77.2839C57.1403 77.3947 57.1411 77.5054 57.1419 77.6196C57.1433 77.8545 57.1444 78.0894 57.1452 78.3243C57.147 78.683 57.1514 79.0417 57.1559 79.4004C57.1569 79.6285 57.1578 79.8566 57.1585 80.0847C57.1602 80.1919 57.162 80.299 57.1638 80.4093C57.162 81.0232 57.1253 81.3896 56.7097 81.8543C56.3331 82.0426 55.9031 82.015 55.4931 81.9557C55.2067 81.7336 55.0454 81.5674 54.8847 81.246C54.8735 81.0867 54.8686 80.9269 54.8668 80.7672C54.8655 80.6677 54.8642 80.5682 54.8628 80.4657C54.8621 80.3577 54.8613 80.2498 54.8606 80.1386C54.8597 80.0278 54.8589 79.917 54.8581 79.8029C54.8567 79.568 54.8556 79.3331 54.8548 79.0982C54.853 78.7394 54.8486 78.3808 54.8441 78.0221C54.8431 77.794 54.8422 77.5658 54.8415 77.3377C54.8398 77.2306 54.838 77.1235 54.8362 77.0131C54.838 76.3993 54.8747 76.0329 55.2903 75.5682C55.6669 75.3799 56.0969 75.4075 56.5069 75.4668Z" fill="url(#paint6_linear_357_2444)"/>
<path d="M76.6552 54.8668C76.7547 54.8655 76.8543 54.8642 76.9568 54.8628C77.0647 54.8621 77.1727 54.8613 77.2839 54.8606C77.45 54.8593 77.45 54.8593 77.6196 54.8581C77.8545 54.8567 78.0894 54.8556 78.3243 54.8548C78.683 54.853 79.0417 54.8486 79.4004 54.8441C79.6285 54.8431 79.8566 54.8422 80.0847 54.8415C80.1919 54.8398 80.299 54.838 80.4093 54.8362C81.0232 54.838 81.3896 54.8747 81.8543 55.2903C82.0426 55.6669 82.015 56.0969 81.9557 56.5069C81.7336 56.7933 81.5674 56.9546 81.246 57.1153C81.0867 57.1265 80.9269 57.1314 80.7672 57.1332C80.6677 57.1345 80.5682 57.1358 80.4657 57.1372C80.3038 57.1383 80.3038 57.1383 80.1386 57.1394C80.0278 57.1403 79.917 57.1411 79.8029 57.1419C79.568 57.1433 79.3331 57.1444 79.0982 57.1452C78.7394 57.147 78.3808 57.1514 78.0221 57.1559C77.794 57.1569 77.5658 57.1578 77.3377 57.1585C77.1771 57.1611 77.1771 57.1611 77.0131 57.1638C76.3993 57.162 76.0329 57.1253 75.5682 56.7097C75.3799 56.3331 75.4075 55.9031 75.4668 55.4931C75.8281 55.0271 76.0809 54.8733 76.6552 54.8668Z" fill="url(#paint7_linear_357_2444)"/>
<path d="M31.2328 54.8668C31.3323 54.8655 31.4318 54.8642 31.5343 54.8628C31.6423 54.8621 31.7502 54.8613 31.8614 54.8606C32.0276 54.8593 32.0276 54.8593 32.1971 54.8581C32.432 54.8567 32.6669 54.8556 32.9018 54.8548C33.2606 54.853 33.6192 54.8486 33.9779 54.8441C34.206 54.8431 34.4342 54.8422 34.6623 54.8415C34.7694 54.8398 34.8765 54.838 34.9869 54.8362C35.6007 54.838 35.9671 54.8747 36.4318 55.2903C36.6201 55.6669 36.5925 56.0969 36.5332 56.5069C36.3112 56.7933 36.1449 56.9546 35.8235 57.1153C35.6642 57.1265 35.5045 57.1314 35.3448 57.1332C35.2453 57.1345 35.1457 57.1358 35.0432 57.1372C34.8813 57.1383 34.8813 57.1383 34.7161 57.1394C34.6053 57.1403 34.4946 57.1411 34.3804 57.1419C34.1455 57.1433 33.9106 57.1444 33.6757 57.1452C33.317 57.147 32.9583 57.1514 32.5996 57.1559C32.3715 57.1569 32.1434 57.1578 31.9153 57.1585C31.7546 57.1611 31.7546 57.1611 31.5907 57.1638C30.9768 57.162 30.6104 57.1253 30.1457 56.7097C29.9574 56.3331 29.985 55.9031 30.0443 55.4931C30.4057 55.0271 30.6584 54.8733 31.2328 54.8668Z" fill="url(#paint8_linear_357_2444)"/>
<path d="M56.5069 30.0443C56.7933 30.2664 56.9546 30.4326 57.1153 30.754C57.1265 30.9133 57.1314 31.0731 57.1332 31.2328C57.1345 31.3323 57.1358 31.4318 57.1372 31.5343C57.1379 31.6423 57.1387 31.7502 57.1394 31.8614C57.1403 31.9722 57.1411 32.083 57.1419 32.1971C57.1433 32.432 57.1444 32.6669 57.1452 32.9018C57.147 33.2606 57.1514 33.6192 57.1559 33.9779C57.1569 34.206 57.1578 34.4342 57.1585 34.6623C57.1602 34.7694 57.162 34.8765 57.1638 34.9869C57.162 35.6007 57.1253 35.9671 56.7097 36.4318C56.3331 36.6201 55.9031 36.5925 55.4931 36.5332C55.2067 36.3112 55.0454 36.1449 54.8847 35.8235C54.8735 35.6642 54.8686 35.5045 54.8668 35.3448C54.8655 35.2453 54.8642 35.1457 54.8628 35.0432C54.8621 34.9353 54.8613 34.8273 54.8606 34.7161C54.8597 34.6053 54.8589 34.4946 54.8581 34.3804C54.8567 34.1455 54.8556 33.9106 54.8548 33.6757C54.853 33.317 54.8486 32.9583 54.8441 32.5996C54.8431 32.3715 54.8422 32.1434 54.8415 31.9153C54.8398 31.8081 54.838 31.701 54.8362 31.5907C54.838 30.9768 54.8747 30.6104 55.2903 30.1457C55.6669 29.9574 56.0969 29.985 56.5069 30.0443Z" fill="url(#paint9_linear_357_2444)"/>
<defs>
<filter id="filter0_d_357_2444" x="0" y="0" width="112" height="112" filterUnits="userSpaceOnUse" color-interpolation-filters="sRGB">
<feFlood flood-opacity="0" result="BackgroundImageFix"/>
<feColorMatrix in="SourceAlpha" type="matrix" values="0 0 0 0 0 0 0 0 0 0 0 0 0 0 0 0 0 0 127 0" result="hardAlpha"/>
<feOffset/>
<feGaussianBlur stdDeviation="5"/>
<feComposite in2="hardAlpha" operator="out"/>
<feColorMatrix type="matrix" values="0 0 0 0 0 0 0 0 0 0.396078 0 0 0 0 1 0 0 0 0.27 0"/>
<feBlend mode="normal" in2="BackgroundImageFix" result="effect1_dropShadow_357_2444"/>
<feBlend mode="normal" in="SourceGraphic" in2="effect1_dropShadow_357_2444" result="shape"/>
</filter>
<linearGradient id="paint0_linear_357_2444" x1="10" y1="10" x2="102" y2="102" gradientUnits="userSpaceOnUse">
<stop/>
<stop offset="1" stop-color="#0065FF"/>
</linearGradient>
<linearGradient id="paint1_linear_357_2444" x1="39.5781" y1="39.5781" x2="82" y2="82" gradientUnits="userSpaceOnUse">
<stop/>
<stop offset="1" stop-color="#0065FF"/>
</linearGradient>
<linearGradient id="paint2_linear_357_2444" x1="39.5781" y1="39.5781" x2="82" y2="82" gradientUnits="userSpaceOnUse">
<stop/>
<stop offset="1" stop-color="#0065FF"/>
</linearGradient>
<linearGradient id="paint3_linear_357_2444" x1="39.5781" y1="39.5781" x2="82" y2="82" gradientUnits="userSpaceOnUse">
<stop/>
<stop offset="1" stop-color="#0065FF"/>
</linearGradient>
<linearGradient id="paint4_linear_357_2444" x1="39.5781" y1="39.5781" x2="82" y2="82" gradientUnits="userSpaceOnUse">
<stop/>
<stop offset="1" stop-color="#0065FF"/>
</linearGradient>
<linearGradient id="paint5_linear_357_2444" x1="39.5781" y1="39.5781" x2="82" y2="82" gradientUnits="userSpaceOnUse">
<stop/>
<stop offset="1" stop-color="#0065FF"/>
</linearGradient>
<linearGradient id="paint6_linear_357_2444" x1="39.5781" y1="39.5781" x2="82" y2="82" gradientUnits="userSpaceOnUse">
<stop/>
<stop offset="1" stop-color="#0065FF"/>
</linearGradient>
<linearGradient id="paint7_linear_357_2444" x1="39.5781" y1="39.5781" x2="82" y2="82" gradientUnits="userSpaceOnUse">
<stop/>
<stop offset="1" stop-color="#0065FF"/>
</linearGradient>
<linearGradient id="paint8_linear_357_2444" x1="39.5781" y1="39.5781" x2="82" y2="82" gradientUnits="userSpaceOnUse">
<stop/>
<stop offset="1" stop-color="#0065FF"/>
</linearGradient>
<linearGradient id="paint9_linear_357_2444" x1="39.5781" y1="39.5781" x2="82" y2="82" gradientUnits="userSpaceOnUse">
<stop/>
<stop offset="1" stop-color="#0065FF"/>
</linearGradient>
</defs>
</svg>
