<svg width="18" height="13" viewBox="0 0 18 13" fill="none" xmlns="http://www.w3.org/2000/svg">
<path d="M16 6.01742L16.7295 5.33347L17.3707 6.01742L16.7295 6.70136L16 6.01742ZM1 7.01742C0.447715 7.01742 0 6.5697 0 6.01742C0 5.46513 0.447715 5.01742 1 5.01742V6.01742V7.01742ZM11 0.684082L11.7295 0.000140905L16.7295 5.33347L16 6.01742L15.2705 6.70136L10.2705 1.36802L11 0.684082ZM16 6.01742L16.7295 6.70136L11.7295 12.0347L11 11.3507L10.2705 10.6668L15.2705 5.33347L16 6.01742ZM16 6.01742V7.01742H1V6.01742V5.01742H16V6.01742Z" fill="#1356BC"/>
</svg>
