<svg width="222" height="222" viewBox="0 0 222 222" fill="none" xmlns="http://www.w3.org/2000/svg">
<g clip-path="url(#clip0_1077_587)">
<path d="M216.012 -0.189585C216.36 -0.204571 216.709 -0.219558 217.067 -0.234998C218.833 -0.247576 219.639 -0.130325 221.14 0.880849C222.218 2.4927 222.312 3.73405 222.245 5.60973C222.237 5.96406 222.23 6.31838 222.222 6.68345C220.785 46.7089 203.075 87.4678 173.438 116.637C171.906 118.048 170.403 119.383 168.669 120.539C168.94 122.331 169.549 123.742 170.349 125.363C174.106 133.327 174.492 141.96 171.594 150.284C166.944 161.917 156.407 169.917 145.241 174.867C140.599 176.828 135.848 178.348 130.946 179.508C130.276 179.668 130.276 179.668 129.593 179.831C126.894 180.374 124.18 180.497 121.434 180.565C121.08 180.58 120.725 180.595 120.36 180.61C118.459 180.623 117.738 180.562 116.202 179.333C114.938 177.688 114.703 176.82 114.903 174.738C115.632 173.402 116.468 172.338 117.449 171.176C119.595 168.609 121.1 166.168 122.274 163.031C122.413 162.678 122.552 162.324 122.694 161.959C123.585 159.292 123.707 156.687 123.738 153.899C123.744 153.532 123.75 153.165 123.756 152.787C123.763 151.628 123.763 151.628 123.575 150.024C123.146 149.737 122.717 149.451 122.274 149.156C121.136 149.4 121.136 149.4 119.891 149.929C119.412 150.114 118.932 150.299 118.438 150.49C117.924 150.694 117.411 150.898 116.882 151.108C115.813 151.515 114.744 151.92 113.674 152.324C113.145 152.524 112.616 152.724 112.072 152.93C107.17 154.763 102.912 156.292 97.6408 155.931C96.3636 155.853 95.3799 155.905 94.0908 156.094C92.5326 157.588 91.9001 159.34 91.0556 161.297C89.997 162.829 88.8122 164.232 87.5868 165.633C87.3253 165.936 87.0637 166.239 86.7942 166.551C78.0463 175.997 60.9967 179.603 48.6549 180.494C48.106 180.508 47.5571 180.523 46.9916 180.538C46.4405 180.559 45.8894 180.58 45.3216 180.602C43.7939 180.375 43.7939 180.375 42.527 179.445C40.3791 176.494 41.5196 172.259 42.0409 168.851C44.3234 154.991 47.8333 140.139 59.8639 131.46C61.8129 130.157 63.8312 128.998 65.9072 127.91C65.8619 127.493 65.8166 127.075 65.77 126.645C65.1675 118.147 68.6827 109.656 72.0394 101.977C72.4505 101.043 72.4505 101.043 72.8447 99.7267C72.5585 99.2974 72.2723 98.8682 71.9775 98.4259C70.6738 98.2794 69.4876 98.2203 68.1835 98.2362C67.8127 98.2395 67.4418 98.2428 67.0597 98.2461C59.971 98.4277 54.4095 101.303 49.0902 105.86C47.9811 106.789 47.5082 107.07 46.0702 107.233C44.3103 107.064 43.4327 106.449 42.0595 105.363C39.056 99.3564 42.8563 88.8673 44.7695 82.952C46.1233 78.952 47.8141 75.2298 49.8642 71.5431C50.0127 71.2695 50.1613 70.9959 50.3143 70.714C55.6766 60.909 63.7007 52.8054 74.579 49.4298C82.8247 47.1799 91.4628 48.8635 98.9416 52.7495C100.131 53.4256 100.131 53.4256 101.462 53.3321C102.157 52.7153 102.157 52.7153 102.817 51.8688C103.219 51.39 103.219 51.39 103.63 50.9016C103.916 50.559 104.202 50.2164 104.497 49.8634C108.897 44.8016 113.532 40.1372 118.806 35.9884C119.311 35.5749 119.816 35.1605 120.32 34.7452C144.077 15.2614 174.67 5.36492 204.657 0.8673C205.023 0.80973 205.389 0.75216 205.766 0.692846C209.173 0.158269 212.567 -0.104401 216.012 -0.189585ZM201.378 10.6232C201.039 10.6796 200.701 10.736 200.352 10.7942C195.268 11.6486 190.252 12.6951 185.254 13.9564C184.819 14.0656 184.819 14.0656 184.376 14.177C181.383 14.9353 178.468 15.7489 175.606 16.9103C177.299 18.9365 179.058 20.8574 180.931 22.7179C181.319 23.1056 181.319 23.1056 181.714 23.501C182.558 24.3443 183.403 25.1859 184.248 26.0276C184.837 26.6162 185.426 27.2048 186.016 27.7936C187.559 29.3349 189.103 30.8749 190.647 32.4147C192.227 33.9893 193.804 35.5652 195.382 37.141C198.473 40.2267 201.564 43.3111 204.657 46.3946C205.632 46.0311 205.632 46.0311 205.9 44.9311C206.024 44.4739 206.148 44.0168 206.276 43.5458C206.487 42.7707 206.487 42.7707 206.702 41.9799C206.852 41.4101 207.001 40.8402 207.15 40.2701C207.226 39.9829 207.302 39.6956 207.381 39.3997C211.345 24.6399 211.345 24.6399 212.462 9.53918C208.693 9.36922 205.079 9.99757 201.378 10.6232ZM162.607 21.2056C161.962 21.4723 161.962 21.4723 161.304 21.7444C160.617 22.0344 160.617 22.0344 159.916 22.3302C159.211 22.626 159.211 22.626 158.492 22.9279C154.992 24.4131 151.571 26.0002 148.208 27.7717C147.423 28.1834 146.634 28.5856 145.844 28.9865C136.572 33.7438 128.17 39.7409 120.54 46.8282C119.963 47.3269 119.385 47.8238 118.806 48.3187C115.516 51.1892 112.52 54.341 109.7 57.6681C109.349 58.0722 108.998 58.4763 108.636 58.8926C100.516 68.287 93.8416 78.6551 87.8578 89.5101C87.6357 89.9107 87.4135 90.3113 87.1846 90.7241C86.9742 91.1099 86.7637 91.4957 86.5469 91.8932C86.3606 92.2333 86.1742 92.5733 85.9823 92.9237C85.2579 94.4232 84.7028 95.9995 84.1181 97.5587C97.4251 110.866 110.732 124.173 124.442 137.883C128.259 136.247 131.805 134.682 135.363 132.626C135.789 132.382 136.215 132.138 136.654 131.886C147.213 125.79 156.871 118.849 165.893 110.646C166.606 109.998 167.324 109.353 168.044 108.712C171.528 105.61 174.709 102.46 177.627 98.8138C178.294 97.9884 178.975 97.1737 179.67 96.3714C188.664 85.9665 194.95 73.276 200.321 60.7032C200.459 60.3841 200.597 60.0649 200.739 59.7361C201.605 57.6347 201.605 57.6347 201.188 55.5001C200.591 54.708 200.591 54.708 199.812 53.9582C199.517 53.6603 199.223 53.3624 198.92 53.0555C198.433 52.5722 198.433 52.5722 197.936 52.0792C197.425 51.565 197.425 51.565 196.904 51.0404C195.776 49.9063 194.642 48.777 193.509 47.648C192.725 46.8632 191.941 46.0783 191.158 45.2932C189.515 43.648 187.869 42.0051 186.222 40.3639C184.316 38.4654 182.415 36.5622 180.517 34.6566C178.691 32.8242 176.862 30.9955 175.031 29.1684C174.251 28.39 173.473 27.6106 172.696 26.8303C171.611 25.7422 170.522 24.6583 169.432 23.5755C169.109 23.2498 168.786 22.9241 168.453 22.5886C168.157 22.2956 167.86 22.0026 167.554 21.7007C167.297 21.4439 167.04 21.1872 166.775 20.9227C165.362 19.8368 164.085 20.5929 162.607 21.2056ZM63.2243 67.9659C57.654 74.9288 52.8194 83.8173 51.5986 92.7892C52.0491 92.6114 52.4996 92.4337 52.9637 92.2506C53.5745 92.0144 54.1854 91.7784 54.7963 91.5426C55.0909 91.4258 55.3854 91.309 55.6889 91.1886C59.883 89.5815 63.845 89.1796 68.319 89.212C69.0162 89.207 69.0162 89.207 69.7274 89.2019C72.4918 89.2086 74.9407 89.4807 77.6142 90.1876C77.7509 89.9137 77.8876 89.6399 78.0284 89.3577C82.4736 80.5041 87.2214 71.7834 93.4769 64.055C94.0016 63.3949 94.4846 62.702 94.9579 62.004C94.6622 60.6282 94.6622 60.6282 93.4963 60.1325C81.7634 55.3646 71.5131 58.3591 63.2243 67.9659ZM80.2158 106.664C78.6517 110.016 77.4896 113.462 76.3947 116.989C76.2586 117.418 76.1224 117.848 75.9822 118.29C74.9095 121.543 74.9095 121.543 75.0126 124.875C75.7679 125.866 75.7679 125.866 76.7323 126.88C77.0872 127.264 77.4421 127.648 77.8077 128.044C79.4959 129.823 81.2128 131.571 82.9494 133.303C83.3162 133.67 83.6829 134.037 84.0607 134.416C84.8275 135.183 85.5949 135.949 86.3627 136.715C87.5402 137.89 88.7154 139.068 89.8903 140.246C90.6388 140.994 91.3874 141.742 92.1362 142.49C92.4871 142.842 92.8381 143.193 93.1996 143.556C93.5255 143.88 93.8513 144.205 94.1871 144.539C94.4728 144.825 94.7586 145.11 95.053 145.404C96.3973 146.653 97.3396 147.176 99.1825 147.12C101.434 146.818 103.586 146.05 105.744 145.362C106.235 145.212 106.726 145.061 107.232 144.905C110.026 144.031 112.693 143.038 115.337 141.785C113.484 139.572 111.545 137.497 109.501 135.46C109.189 135.147 108.876 134.833 108.554 134.51C107.53 133.484 106.504 132.46 105.478 131.435C104.763 130.72 104.048 130.005 103.334 129.29C101.841 127.797 100.348 126.304 98.8543 124.813C96.9349 122.896 95.0175 120.977 93.1006 119.057C91.6281 117.583 90.1545 116.11 88.6807 114.637C87.9727 113.93 87.2651 113.222 86.5579 112.514C85.5738 111.528 84.5885 110.545 83.6027 109.561C83.3083 109.266 83.0139 108.971 82.7106 108.667C81.6283 107.317 81.6283 107.317 80.2158 106.664ZM157.639 128.886C149.832 135.038 140.79 140.149 131.813 144.387C131.953 144.849 132.092 145.311 132.235 145.788C133.948 152.697 133.349 162.003 129.981 168.373C129.508 169.182 129.508 169.182 130.079 170.402C138.85 167.798 146.861 164.665 153.927 158.695C154.245 158.444 154.564 158.194 154.892 157.935C159.741 153.944 163.506 148.072 164.333 141.785C164.759 136.463 163.498 131.654 160.864 127.043C159.455 127.043 158.715 128.014 157.639 128.886ZM61.1393 142.593C54.9748 149.005 51.165 162.163 51.165 170.836C61.4421 169.803 74.5918 166.992 81.5165 158.695C83.6332 155.983 85.2793 153.143 86.7197 150.024C85.0028 147.968 83.2151 146.021 81.3184 144.131C81.0632 143.876 80.8081 143.62 80.5452 143.357C80.012 142.823 79.4782 142.29 78.9439 141.758C78.1222 140.938 77.3028 140.117 76.4836 139.295C75.9635 138.775 75.4433 138.255 74.9229 137.736C74.6772 137.489 74.4315 137.242 74.1784 136.988C70.2822 133.116 64.3116 139.632 61.1393 142.593Z" fill="#BBDDFD"/>
<path d="M169.97 48.1288C174.462 51.7744 177.429 56.6823 178.208 62.4374C178.712 69.164 177.367 75.1078 172.924 80.2961C168.819 84.6111 163.88 87.2543 157.868 87.6739C150.853 87.7782 145.264 85.6759 140.148 80.8279C135.988 76.3089 134.261 70.4095 134.322 64.3784C134.737 57.6605 137.839 52.6191 142.653 48.1288C150.757 41.9813 161.823 42.3405 169.97 48.1288ZM146.122 57.6679C144.136 60.8744 143.118 63.8663 143.521 67.6405C144.3 70.9477 145.657 73.6834 148.29 75.8788C151.853 78.0805 155.3 79.1789 159.455 78.1992C163.645 76.8375 166.237 74.6133 168.274 70.7248C169.596 67.6559 169.555 64.1784 168.425 61.0553C166.739 57.3414 164.164 54.9397 160.431 53.3319C155.131 51.6753 149.668 53.4994 146.122 57.6679Z" fill="#BBDDFD"/>
<path d="M72.4102 183.844C73.9273 184.761 74.4506 185.196 75.0117 186.879C75.2313 188.279 75.3705 189.377 74.5517 190.603C70.1008 195.492 65.4083 200.163 60.7583 204.862C59.0813 206.556 57.4089 208.255 55.7463 209.964C54.1302 211.625 52.5037 213.275 50.8693 214.919C50.2507 215.544 49.6358 216.173 49.0248 216.806C48.1699 217.691 47.3023 218.561 46.4304 219.428C46.1832 219.69 45.9359 219.953 45.6812 220.223C44.1943 221.669 43.1822 222.166 41.0825 222.217C39.5025 222.16 39.0612 222.026 37.6956 221.106C36.6838 219.572 36.4219 218.634 36.4219 216.797C37.3407 214.447 38.7944 212.943 40.5563 211.207C40.8419 210.921 41.1276 210.634 41.422 210.339C42.3627 209.397 43.3081 208.46 44.2537 207.522C44.91 206.867 45.5661 206.212 46.2219 205.556C47.5948 204.186 48.9697 202.817 50.3464 201.45C52.1122 199.696 53.8741 197.939 55.6347 196.18C56.9885 194.829 58.3434 193.478 59.6988 192.128C60.3491 191.48 60.9991 190.832 61.6489 190.184C62.5559 189.28 63.4644 188.377 64.3734 187.475C64.6424 187.206 64.9114 186.938 65.1885 186.661C65.4365 186.416 65.6845 186.17 65.94 185.917C66.1546 185.704 66.3691 185.491 66.5901 185.271C68.4358 183.596 70.0274 183.497 72.4102 183.844Z" fill="#BBDDFD"/>
<path d="M37.7227 183.844C39.2398 184.761 39.7631 185.196 40.3242 186.879C40.5438 188.279 40.683 189.377 39.8642 190.603C35.4133 195.492 30.7208 200.163 26.0708 204.862C24.3938 206.556 22.7214 208.255 21.0588 209.964C19.4427 211.625 17.8162 213.275 16.1818 214.919C15.5632 215.544 14.9483 216.173 14.3373 216.806C13.4824 217.691 12.6148 218.561 11.7429 219.428C11.4957 219.69 11.2484 219.953 10.9937 220.223C9.50683 221.669 8.49469 222.166 6.39496 222.217C4.81496 222.16 4.37373 222.026 3.00806 221.106C1.99629 219.572 1.73438 218.634 1.73438 216.797C2.65316 214.447 4.10687 212.943 5.86876 211.207C6.15444 210.921 6.44012 210.634 6.73445 210.339C7.67524 209.397 8.62059 208.46 9.56616 207.522C10.2225 206.867 10.8786 206.212 11.5344 205.556C12.9073 204.186 14.2822 202.817 15.6589 201.45C17.4247 199.696 19.1866 197.939 20.9472 196.18C22.301 194.829 23.6559 193.478 25.0113 192.128C25.6616 191.48 26.3116 190.832 26.9614 190.184C27.8684 189.28 28.7769 188.377 29.6859 187.475C29.9549 187.206 30.2239 186.938 30.501 186.661C30.749 186.416 30.997 186.17 31.2525 185.917C31.4671 185.704 31.6816 185.491 31.9026 185.271C33.7483 183.596 35.3399 183.497 37.7227 183.844Z" fill="#BBDDFD"/>
<path d="M35.1206 146.988C36.655 147.704 37.2065 148.166 38.1558 149.59C38.5256 150.97 38.4665 152.101 38.1558 153.492C37.4905 154.429 37.4905 154.429 36.5725 155.402C36.2166 155.781 35.8606 156.16 35.4938 156.55C35.0812 156.977 34.6676 157.403 34.2534 157.828C34.0317 158.057 33.8099 158.285 33.5815 158.521C31.758 160.395 29.9145 162.25 28.0679 164.102C27.6325 164.539 27.6325 164.539 27.1882 164.985C25.6575 166.522 24.1255 168.058 22.5925 169.593C21.0126 171.175 19.4367 172.762 17.8617 174.349C16.6446 175.574 15.4245 176.797 14.2037 178.018C13.6211 178.602 13.0395 179.187 12.4591 179.773C11.65 180.59 10.8368 181.402 10.0225 182.213C9.66638 182.576 9.66638 182.576 9.30301 182.945C8.02477 184.21 6.95132 185.102 5.20263 185.578C3.38973 185.546 2.41145 185.305 0.893791 184.304C-0.36852 182.43 -0.402751 180.846 -0.000495911 178.641C0.747166 177.306 1.74688 176.337 2.85153 175.289C3.15463 174.985 3.45773 174.681 3.77002 174.367C4.76938 173.368 5.78324 172.386 6.79812 171.403C7.49689 170.711 8.19473 170.019 8.89168 169.325C10.7252 167.506 12.5716 165.7 14.4208 163.896C16.3039 162.055 18.1734 160.199 20.0447 158.345C22.7747 155.646 25.508 152.951 28.254 150.268C28.5428 149.984 28.8316 149.701 29.1292 149.409C29.393 149.152 29.6569 148.895 29.9288 148.63C30.1582 148.406 30.3876 148.182 30.624 147.951C32.0164 146.711 33.3204 146.866 35.1206 146.988Z" fill="#BBDDFD"/>
<path d="M103.195 177.774C104.39 178.72 105.119 179.452 105.797 180.809C106.063 183.147 105.439 184.153 104.063 186.012C103.178 187.01 102.244 187.952 101.298 188.891C101.036 189.155 100.773 189.419 100.502 189.69C99.9489 190.244 99.395 190.796 98.84 191.348C97.9918 192.191 97.1484 193.039 96.3053 193.888C95.7659 194.427 95.2262 194.965 94.6861 195.504C94.435 195.756 94.1838 196.009 93.925 196.27C92.3607 197.816 91.1878 198.889 88.941 199.182C87.2297 198.977 86.3243 198.345 84.9845 197.285C84.2047 195.726 84.2607 194.212 84.5509 192.516C85.0407 191.748 85.0407 191.748 85.7348 191C86.0103 190.702 86.2858 190.404 86.5696 190.097C88.4959 188.107 90.4365 186.133 92.3987 184.178C93.149 183.43 93.8969 182.68 94.6446 181.929C95.1218 181.452 95.5992 180.975 96.0767 180.499C96.2998 180.275 96.5229 180.051 96.7528 179.82C98.806 177.78 100.319 177.316 103.195 177.774Z" fill="#BBDDFD"/>
<path d="M41.1917 116.203C43.6107 117.572 43.6107 117.572 44.2268 118.805C44.524 120.432 44.6528 122.039 43.737 123.475C43.508 123.722 43.2789 123.969 43.0429 124.223C42.7674 124.521 42.4919 124.819 42.2081 125.126C40.2818 127.116 38.3412 129.09 36.3791 131.045C35.6288 131.793 34.8808 132.543 34.1331 133.294C33.6559 133.771 33.1785 134.247 32.701 134.724C32.4779 134.948 32.2548 135.172 32.0249 135.403C30.5297 136.888 29.7183 137.52 27.6148 137.612C25.953 137.601 25.6585 137.51 24.2815 136.419C23.0212 134.765 22.7801 133.899 22.9807 131.812C24.2129 129.693 25.7547 128.044 27.4793 126.332C27.7422 126.068 28.0051 125.804 28.276 125.532C28.8288 124.979 29.3827 124.427 29.9377 123.875C30.7859 123.032 31.6293 122.184 32.4724 121.335C33.0118 120.796 33.5516 120.258 34.0916 119.719C34.3427 119.466 34.5939 119.213 34.8527 118.953C36.8395 116.989 38.2595 115.851 41.1917 116.203Z" fill="#BBDDFD"/>
<path d="M133.981 85.8516C135.44 86.7266 135.961 87.337 136.413 88.9765C136.61 90.8155 136.426 91.9468 135.379 93.4936C134.379 94.6148 133.334 95.655 132.247 96.6914C131.974 96.9887 131.7 97.2861 131.419 97.5925C129.814 99.3326 128.466 100.361 126.177 101.027C124.434 101.027 123.75 100.726 122.356 99.6724C121.191 98.142 120.94 97.3118 120.973 95.3906C122.142 92.9707 123.63 91.2555 125.553 89.4016C125.803 89.1537 126.054 88.9058 126.311 88.6504C128.769 86.2383 130.462 85.3304 133.981 85.8516Z" fill="#BBDDFD"/>
<path d="M114.903 104.063C116.127 104.607 116.838 105.053 117.64 106.122C118.156 107.812 118.156 109.419 117.64 111.109C116.81 112.215 116.198 112.645 114.903 113.168C113.044 113.255 111.521 113.047 109.917 112.084C108.951 110.474 108.632 108.971 108.833 107.098C110.258 104.394 111.984 103.865 114.903 104.063Z" fill="#BBDDFD"/>
</g>
<defs>
<clipPath id="clip0_1077_587">
<rect width="222" height="222" fill="white"/>
</clipPath>
</defs>
</svg>
