<svg width="72" height="72" viewBox="0 0 72 72" fill="none" xmlns="http://www.w3.org/2000/svg">
<path d="M14.2024 1.26562C14.1997 1.44633 14.1971 1.62703 14.1944 1.81321C14.1709 3.53184 14.1582 5.25028 14.1554 6.96908C14.1536 7.85239 14.1483 8.73536 14.1344 9.61856C13.8982 14.8987 13.8982 14.8987 16.0743 19.5276C16.4409 19.9916 16.719 20.4993 17.0061 21.0146C17.1172 21.2032 17.2289 21.3915 17.3411 21.5793C17.9087 22.5382 18.4613 23.5058 19.0154 24.4724C19.46 25.246 19.9098 26.0154 20.3739 26.7775C20.5023 26.9896 20.5023 26.9896 20.6333 27.2059C20.7957 27.4732 20.9596 27.7396 21.125 28.0051C21.1971 28.1241 21.2692 28.243 21.3435 28.3656C21.4074 28.469 21.4713 28.5724 21.5371 28.6789C21.6555 28.9688 21.6555 28.9688 21.6243 29.2759C21.5149 29.5312 21.5149 29.5312 21.2001 29.7202C17.1959 31.2262 12.9414 31.2487 8.99923 29.5312C7.75926 28.941 6.6602 28.18 5.62423 27.2812C5.45129 27.1388 5.45129 27.1388 5.27487 26.9934C2.65946 24.7679 1.04339 21.5241 0.561732 18.1406C0.4369 15.9083 0.405916 13.6673 1.12423 11.5312C1.17354 11.3761 1.22284 11.2209 1.27365 11.061C2.56232 7.374 5.28205 4.34999 8.78664 2.63342C10.4656 1.86088 12.3383 1.26562 14.2024 1.26562Z" fill="#0065FF"/>
<path d="M52.5586 31.2626C55.5747 33.8748 57.7609 37.2855 58.0781 41.3437C58.3209 45.386 57.2922 49.2694 54.6007 52.3657C52.1596 55.0839 48.7781 57.0724 45.0725 57.3623C40.5166 57.525 36.6343 56.3606 33.2534 53.2205C30.4657 50.446 28.9365 46.7549 28.8984 42.8203C28.9382 38.7142 30.6153 34.9555 33.5388 32.0842C35.3932 30.3181 37.7522 29.1713 40.2188 28.5468C40.3514 28.5124 40.4841 28.4779 40.6208 28.4424C44.691 27.5837 49.3038 28.6772 52.5586 31.2626ZM34.875 35.0156C32.6479 37.5763 31.7149 40.66 31.9219 44.0156C32.2538 47.1132 33.7926 49.7596 36.0989 51.806C38.5746 53.7879 41.7056 54.7267 44.8673 54.3911C46.1589 54.2163 47.3421 53.8721 48.5156 53.2968C48.6454 53.2346 48.7752 53.1725 48.9089 53.1084C51.5679 51.7526 53.5626 49.4035 54.5581 46.5985C55.5228 43.4487 55.3235 40.2668 53.8066 37.3106C52.1048 34.3417 49.5427 32.4326 46.2706 31.4615C42.1024 30.4637 37.775 31.9163 34.875 35.0156Z" fill="#0065FF"/>
<path d="M14.9057 38.7876C15.0797 38.7849 15.0797 38.7849 15.2571 38.7821C15.3827 38.7811 15.5082 38.78 15.6375 38.7789C15.7666 38.7778 15.8956 38.7767 16.0285 38.7755C16.302 38.7736 16.5754 38.7721 16.8488 38.7709C17.2664 38.7685 17.6839 38.7624 18.1015 38.7561C18.3671 38.7547 18.6327 38.7535 18.8983 38.7526C19.0853 38.7489 19.0853 38.7489 19.2761 38.7451C19.8627 38.7472 20.1684 38.7619 20.6762 39.0799C21.1875 39.6266 21.1129 40.1317 21.1116 40.8447C21.1119 40.9692 21.1122 41.0936 21.1126 41.2219C21.1135 41.6414 21.1133 42.0609 21.1132 42.4804C21.1136 42.7802 21.1141 43.08 21.1147 43.3798C21.1159 44.1959 21.1162 45.012 21.1163 45.8282C21.1164 46.5086 21.117 47.1891 21.1175 47.8695C21.1186 49.4744 21.1189 51.0793 21.1189 52.6842C21.1188 54.3417 21.1202 55.9992 21.1225 57.6567C21.1243 59.078 21.1251 60.4993 21.125 61.9206C21.1249 62.7703 21.1253 63.6199 21.1268 64.4696C21.1282 65.2686 21.1282 66.0675 21.1272 66.8665C21.127 67.1601 21.1274 67.4538 21.1282 67.7474C21.1293 68.1475 21.1286 68.5475 21.1276 68.9476C21.1283 69.0645 21.129 69.1814 21.1298 69.3019C21.1238 70.2959 21.1238 70.2959 20.8115 70.7343C20.2 71.245 19.5986 71.222 18.8389 71.2221C18.7171 71.2232 18.5952 71.2243 18.4697 71.2254C18.2126 71.2269 17.9555 71.2273 17.6985 71.2267C17.3064 71.2265 16.9148 71.2324 16.5228 71.2386C16.2724 71.2393 16.022 71.2397 15.7716 71.2397C15.6551 71.242 15.5386 71.2443 15.4186 71.2467C14.8299 71.2397 14.4559 71.194 13.9898 70.817C13.4215 70.2263 13.4782 69.7683 13.4783 68.9843C13.4778 68.8599 13.4773 68.7355 13.4768 68.6074C13.4752 68.1882 13.4747 67.769 13.4742 67.3498C13.4733 67.0503 13.4723 66.7507 13.4714 66.4512C13.4689 65.6356 13.4674 64.8201 13.4663 64.0045C13.4655 63.4953 13.4647 62.9862 13.4638 62.477C13.4611 60.8852 13.4591 59.2933 13.4579 57.7014C13.4566 55.8617 13.4529 54.0221 13.4472 52.1824C13.443 50.7618 13.4409 49.3412 13.4404 47.9206C13.4401 47.0715 13.4388 46.2224 13.4353 45.3733C13.432 44.5747 13.4314 43.7761 13.4328 42.9775C13.4329 42.6841 13.432 42.3908 13.4301 42.0974C13.4276 41.6973 13.4286 41.2974 13.4305 40.8974C13.4289 40.7809 13.4274 40.6644 13.4258 40.5443C13.4321 39.9856 13.459 39.719 13.767 39.2359C14.163 38.8557 14.3731 38.7948 14.9057 38.7876Z" fill="#0065FF"/>
<path d="M2.74416 45.2477C2.8635 45.2466 2.98283 45.2454 3.10578 45.2443C3.35875 45.2423 3.61172 45.2408 3.8647 45.2397C4.25023 45.2373 4.63559 45.2311 5.02108 45.2249C5.26699 45.2235 5.5129 45.2223 5.75881 45.2213C5.9309 45.2176 5.9309 45.2176 6.10647 45.2139C6.85331 45.2167 7.29016 45.3359 7.87478 45.8437C8.20492 46.3383 8.19204 46.7802 8.19364 47.3651C8.19427 47.4614 8.19491 47.5578 8.19557 47.6571C8.19735 47.9798 8.19712 48.3026 8.19689 48.6254C8.19773 48.8568 8.19868 49.0883 8.19975 49.3198C8.20223 49.9485 8.20289 50.5773 8.20307 51.206C8.20334 51.7309 8.20437 52.2558 8.20537 52.7807C8.20766 54.0191 8.20835 55.2576 8.20815 56.496C8.20798 57.7734 8.21094 59.0509 8.21539 60.3283C8.21906 61.4251 8.22057 62.522 8.22039 63.6188C8.22032 64.2739 8.22112 64.9289 8.2241 65.5839C8.22682 66.2001 8.22684 66.8162 8.2248 67.4323C8.2245 67.6583 8.22517 67.8842 8.22687 68.1102C8.22904 68.4191 8.22773 68.7278 8.22557 69.0366C8.22572 69.2093 8.22587 69.3821 8.22603 69.56C8.13138 70.1972 7.8612 70.6625 7.35368 71.0654C6.84327 71.2091 6.33219 71.202 5.80605 71.2034C5.68712 71.2044 5.56818 71.2053 5.44565 71.2063C5.19436 71.2077 4.94306 71.2084 4.69176 71.2083C4.30871 71.2089 3.92588 71.214 3.54287 71.2194C3.29824 71.2202 3.05361 71.2208 2.80898 71.221C2.63822 71.2241 2.63822 71.2241 2.464 71.2271C1.71928 71.2212 1.29347 71.0886 0.702903 70.5937C0.497871 70.1836 0.542662 69.8233 0.540636 69.3651C0.54002 69.2666 0.539403 69.1681 0.538768 69.0666C0.536883 68.7348 0.536016 68.4031 0.535155 68.0713C0.534045 67.8342 0.532882 67.597 0.531671 67.3598C0.527981 66.5794 0.525831 65.7991 0.523826 65.0187C0.523072 64.7503 0.522316 64.4819 0.521557 64.2135C0.518515 63.0973 0.51588 61.981 0.514298 60.8648C0.512013 59.2638 0.507346 57.6629 0.499335 56.0619C0.493898 54.9369 0.491147 53.8119 0.490403 52.6869C0.489888 52.0146 0.488192 51.3424 0.483638 50.6701C0.479416 50.0377 0.478518 49.4054 0.480177 48.7729C0.480208 48.5408 0.479034 48.3086 0.476569 48.0765C0.473386 47.7595 0.47454 47.4428 0.476778 47.1259C0.476312 46.9485 0.475847 46.7712 0.475367 46.5884C0.585608 46.0005 0.809262 45.7952 1.2654 45.4218C1.72639 45.1913 2.23724 45.2522 2.74416 45.2477Z" fill="#0065FF"/>
<path d="M49.1705 35.0506C51.3318 36.8136 52.7459 39.1237 53.0469 41.9226C53.2338 44.4775 52.4942 46.8455 50.9473 48.8914C50.8871 48.953 50.8269 49.0147 50.7649 49.0782C50.6721 49.0782 50.5793 49.0782 50.4837 49.0782C50.4289 48.954 50.3742 48.8298 50.3178 48.7019C49.3626 46.6195 48.0431 45.2197 45.8782 44.3936C44.09 43.7917 42.2582 43.8791 40.5109 44.6089C38.6088 45.5747 37.3123 47.0917 36.5618 49.0782C35.7285 48.8004 35.3529 47.7531 34.9501 47.0133C33.8105 44.6891 33.7054 42.0852 34.498 39.6454C35.3465 37.2312 37.1164 35.2582 39.4183 34.128C42.557 32.787 46.3688 32.946 49.1705 35.0506ZM40.7015 37.13C39.9331 38.1802 39.7739 39.211 39.9368 40.5C40.0696 40.922 40.2501 41.2613 40.4993 41.625C40.5776 41.7498 40.6559 41.8745 40.7366 42.003C41.4744 42.7408 42.4282 43.1877 43.47 43.2159C44.4928 43.2051 45.1771 42.861 46.0188 42.3106C46.8231 41.4697 47.1515 40.6645 47.1878 39.4981C47.1373 38.2719 46.7521 37.4772 45.8601 36.6389C44.2418 35.4617 42.041 35.6069 40.7015 37.13Z" fill="#0065FF"/>
<path d="M16.3125 1.26562C20.2276 1.75501 23.1622 3.00793 26.0156 5.76562C26.1092 5.85554 26.2027 5.94545 26.2991 6.03809C28.5278 8.35746 29.9531 11.7009 29.9531 14.9062C25.4517 14.9062 20.9503 14.9062 16.3125 14.9062C16.3125 10.4048 16.3125 5.90344 16.3125 1.26562Z" fill="#0065FF"/>
<path d="M27.8442 49.2188C28.2661 49.3594 28.2661 49.3594 28.5396 49.8367C28.6426 50.0434 28.7447 50.2506 28.8461 50.458C29.4022 51.5483 30.0133 52.4926 30.7973 53.4375C30.899 53.5638 31.0007 53.6902 31.1055 53.8204C32.0598 54.9427 33.1959 55.7885 34.3811 56.6533C34.5942 56.8125 34.5942 56.8125 34.7348 56.9531C34.7512 57.3552 34.7584 57.754 34.7597 58.1562C34.7611 58.3456 34.7611 58.3456 34.7625 58.5387C34.7653 58.9585 34.7669 59.3783 34.7683 59.798C34.7689 59.9411 34.7695 60.0842 34.77 60.2317C34.773 60.9894 34.775 61.7472 34.7763 62.505C34.7779 63.2879 34.7827 64.0708 34.7883 64.8537C34.792 65.4553 34.7931 66.057 34.7936 66.6586C34.7943 66.9472 34.796 67.2358 34.7986 67.5243C34.802 67.9287 34.8019 68.3328 34.8009 68.7372C34.8027 68.8562 34.8045 68.9752 34.8064 69.0979C34.7997 69.8511 34.669 70.2749 34.1723 70.875C33.6609 71.281 33.0094 71.2018 32.3848 71.2035C32.2659 71.2044 32.147 71.2054 32.0244 71.2063C31.7731 71.2078 31.5218 71.2084 31.2705 71.2084C30.8875 71.209 30.5047 71.2141 30.1216 71.2194C29.877 71.2203 29.6324 71.2208 29.3878 71.2211C29.217 71.2241 29.217 71.2241 29.0428 71.2272C28.2981 71.2212 27.8722 71.0886 27.2817 70.5938C27.0939 70.2182 27.1216 69.9301 27.1194 69.5093C27.1182 69.3384 27.117 69.1674 27.1157 68.9913C27.1151 68.8009 27.1145 68.6104 27.1139 68.4199C27.1128 68.2201 27.1117 68.0204 27.1104 67.8206C27.1068 67.1635 27.1046 66.5064 27.1026 65.8493C27.1018 65.6232 27.1011 65.3971 27.1003 65.1711C27.0973 64.2307 27.0947 63.2904 27.0931 62.35C27.0908 61.0018 27.0861 59.6536 27.0781 58.3053C27.0727 57.3577 27.0699 56.41 27.0692 55.4623C27.0687 54.8962 27.067 54.33 27.0624 53.7639C27.0582 53.2312 27.0573 52.6986 27.059 52.1659C27.059 51.9704 27.0578 51.775 27.0553 51.5796C27.0377 50.0979 27.0377 50.0979 27.3031 49.6461C27.4977 49.4486 27.4977 49.4486 27.8442 49.2188Z" fill="#0065FF"/>
<path d="M56.9531 52.5938C57.6464 53.1808 58.32 53.7837 58.9834 54.4043C59.0729 54.4877 59.1623 54.5711 59.2545 54.657C59.4719 54.8597 59.6891 55.0626 59.9063 55.2656C60.0357 55.1964 60.1651 55.1271 60.2985 55.0558C60.8797 54.7828 61.1216 54.7942 61.7344 54.9844C62.8353 55.7915 63.764 56.8651 64.7188 57.8337C65.3379 58.4582 65.9616 59.0625 66.6285 59.6354C67.2578 60.1871 67.8638 60.7626 68.4643 61.3452C68.619 61.494 68.775 61.6413 68.9323 61.7873C70.2296 62.9928 70.2296 62.9928 70.4282 63.6838C70.4454 64.2089 70.4229 64.538 70.1063 64.9669C69.86 65.2196 69.596 65.4424 69.3281 65.6719C69.1667 65.8507 69.0085 66.0324 68.8535 66.2168C67.1061 68.2364 67.1061 68.2364 66.1289 68.4141C65.0971 68.2553 64.29 67.2824 63.5845 66.5601C63.4982 66.4731 63.412 66.3861 63.3231 66.2965C63.0506 66.0216 62.7792 65.7457 62.5078 65.4697C62.1494 65.1061 61.7906 64.743 61.4312 64.3804C61.3453 64.2938 61.2595 64.2072 61.1711 64.118C60.6652 63.6105 60.1486 63.1258 59.6016 62.6625C59.0721 62.2004 58.5823 61.6962 58.0869 61.1982C57.9791 61.091 57.8714 60.9838 57.7603 60.8733C57.658 60.7708 57.5557 60.6683 57.4503 60.5627C57.358 60.4703 57.2657 60.3779 57.1707 60.2826C56.7741 59.8528 56.7921 59.506 56.7801 58.9318C56.8175 58.5961 56.9375 58.3748 57.0938 58.0781C57.0171 58.0037 56.9404 57.9292 56.8614 57.8525C56.5159 57.5157 56.172 57.1773 55.8281 56.8389C55.647 56.6631 55.647 56.6631 55.4623 56.4837C55.3481 56.3709 55.2339 56.258 55.1162 56.1418C55.0102 56.0379 54.9041 55.9341 54.7949 55.8271C54.5625 55.5469 54.5625 55.5469 54.5625 55.125C54.7641 54.9229 54.7641 54.9229 55.0459 54.7031C55.7873 54.0864 56.3615 53.3511 56.9531 52.5938Z" fill="#0065FF"/>
<path d="M48.2348 58.7812C48.2511 60.2726 48.2636 61.7639 48.2712 63.2553C48.2749 63.9478 48.2799 64.6403 48.2879 65.3328C48.2955 66.0011 48.2997 66.6694 48.3015 67.3378C48.3028 67.5928 48.3054 67.8477 48.3092 68.1026C48.3143 68.4599 48.315 68.8169 48.3146 69.1741C48.3184 69.3321 48.3184 69.3321 48.3223 69.4932C48.3168 70.0532 48.2555 70.2872 47.8958 70.7264C47.2846 71.2119 46.8038 71.1809 46.048 71.1848C45.8685 71.186 45.8685 71.186 45.6854 71.1872C45.4318 71.1886 45.1782 71.1895 44.9247 71.19C44.5376 71.1914 44.1507 71.1958 43.7637 71.2002C43.5173 71.2011 43.2709 71.2019 43.0245 71.2024C42.8514 71.205 42.8514 71.205 42.6747 71.2077C42.0241 71.2051 41.581 71.1706 41.0629 70.7344C40.626 70.1557 40.5824 69.6598 40.5932 68.9574C40.5931 68.8517 40.593 68.746 40.593 68.6371C40.5933 68.2893 40.5966 67.9417 40.5999 67.5939C40.6007 67.3522 40.6013 67.1104 40.6017 66.8686C40.6033 66.2336 40.6074 65.5985 40.6121 64.9635C40.6164 64.3149 40.6183 63.6664 40.6205 63.0179C40.625 61.7463 40.6322 60.4747 40.6411 59.2031C40.7452 59.2129 40.8494 59.2228 40.9567 59.2329C41.0944 59.2457 41.2322 59.2585 41.3741 59.2717C41.5782 59.2907 41.5782 59.2907 41.7864 59.3102C43.7949 59.478 45.7692 59.3293 47.7256 58.8378C47.9536 58.7812 47.9536 58.7812 48.2348 58.7812Z" fill="#0065FF"/>
<path d="M17.1562 17.1562C21.3792 17.1562 25.6022 17.1562 29.9531 17.1562C29.9531 18.425 29.9531 18.425 29.8597 18.8399C29.8388 18.9333 29.8178 19.0266 29.7962 19.1228C29.7726 19.2193 29.749 19.3157 29.7246 19.415C29.6993 19.5184 29.6741 19.6219 29.648 19.7284C28.7848 23.1061 26.7371 26.344 23.7656 28.2656C23.6728 28.2656 23.58 28.2656 23.4844 28.2656C23.4308 28.1725 23.3772 28.0795 23.322 27.9836C22.349 26.2939 21.3744 24.6053 20.3906 22.9219C19.7189 21.7715 19.0477 20.6208 18.3801 19.468C18.24 19.2264 18.0995 18.9849 17.9591 18.7435C17.8745 18.5973 17.7899 18.4511 17.7028 18.3005C17.6277 18.171 17.5526 18.0415 17.4752 17.9081C17.2969 17.5781 17.2969 17.5781 17.1562 17.1562Z" fill="#0065FF"/>
<path d="M48.8872 12.4442C48.9808 12.4433 49.0745 12.4425 49.1711 12.4415C49.4848 12.4393 49.7984 12.4411 50.1122 12.4429C50.3372 12.4421 50.5622 12.4411 50.7872 12.4399C51.3982 12.4373 52.0092 12.4383 52.6202 12.4401C53.2594 12.4415 53.8985 12.4402 54.5377 12.4393C55.6111 12.4383 56.6845 12.4396 57.7579 12.4423C58.9993 12.4454 60.2406 12.4444 61.4819 12.4413C62.5473 12.4387 63.6128 12.4384 64.6782 12.4398C65.3147 12.4407 65.9512 12.4408 66.5876 12.439C67.186 12.4373 67.7843 12.4385 68.3827 12.4417C68.6024 12.4425 68.8222 12.4423 69.0419 12.441C69.3416 12.4395 69.6412 12.4414 69.9409 12.4442C70.1926 12.4445 70.1926 12.4445 70.4493 12.4448C70.9599 12.5298 71.1252 12.6736 71.4375 13.0781C71.5681 13.6046 71.5083 14.0716 71.2529 14.5459C70.7893 14.9752 70.2994 14.9245 69.6989 14.926C69.5621 14.9266 69.5621 14.9266 69.4226 14.9273C69.1165 14.9285 68.8105 14.9287 68.5045 14.9289C68.2852 14.9296 68.066 14.9303 67.8468 14.931C67.2509 14.9329 66.655 14.9338 66.0591 14.9344C65.6869 14.9348 65.3147 14.9354 64.9424 14.936C63.7781 14.938 62.6138 14.9393 61.4494 14.9399C60.1049 14.9405 58.7604 14.943 57.4158 14.947C56.3768 14.9501 55.3378 14.9515 54.2987 14.9517C53.678 14.9518 53.0574 14.9527 52.4367 14.9552C51.8528 14.9575 51.269 14.9578 50.6852 14.9565C50.471 14.9564 50.2568 14.9571 50.0425 14.9584C49.75 14.9602 49.4575 14.9594 49.1649 14.9579C49.0012 14.9581 48.8375 14.9584 48.6689 14.9586C48.1847 14.9003 47.9198 14.7741 47.5312 14.4844C47.3112 14.0443 47.2926 13.5547 47.3906 13.0781C47.84 12.4931 48.1653 12.4451 48.8872 12.4442Z" fill="#0065FF"/>
<path d="M49.1337 0.823174C49.2255 0.822657 49.3172 0.82214 49.4117 0.821607C49.7197 0.820056 50.0277 0.819514 50.3357 0.818979C50.5563 0.818098 50.7769 0.817163 50.9975 0.816178C51.7223 0.813221 52.4471 0.811763 53.1719 0.810361C53.4214 0.809792 53.6708 0.809213 53.9203 0.808624C55.092 0.805946 56.2637 0.803944 57.4354 0.802773C58.7884 0.801398 60.1415 0.797694 61.4945 0.792015C62.5401 0.787777 63.5857 0.785692 64.6313 0.785225C65.2559 0.784895 65.8805 0.783631 66.5052 0.780098C67.0927 0.776829 67.6802 0.776227 68.2677 0.777674C68.4833 0.777744 68.6989 0.776851 68.9145 0.774924C69.2089 0.772439 69.5032 0.773428 69.7976 0.77528C69.9624 0.774944 70.1271 0.774608 70.2968 0.774262C70.8255 0.85852 71.06 1.0328 71.4367 1.40637C71.53 1.71838 71.53 1.71838 71.5246 2.03918C71.5264 2.14505 71.5282 2.25091 71.53 2.35998C71.3901 2.8274 71.136 2.96955 70.7335 3.23449C70.2954 3.30567 70.2954 3.30567 69.7942 3.30687C69.7016 3.30785 69.6091 3.30882 69.5137 3.30983C69.2046 3.3124 68.8956 3.31096 68.5865 3.30951C68.3645 3.3105 68.1425 3.31173 67.9205 3.31318C67.3182 3.31635 66.7159 3.31593 66.1136 3.31468C65.6107 3.31397 65.1078 3.31499 64.6049 3.31602C63.4186 3.31841 62.2323 3.3179 61.046 3.31555C59.8221 3.31317 58.5983 3.3154 57.3745 3.31994C56.3235 3.3237 55.2725 3.32472 54.2215 3.32353C53.5939 3.32283 52.9663 3.32315 52.3387 3.32603C51.7486 3.32861 51.1586 3.32777 50.5686 3.32431C50.3521 3.32361 50.1356 3.3241 49.9191 3.32588C49.6234 3.32812 49.328 3.32602 49.0323 3.32283C48.7842 3.32271 48.7842 3.32271 48.5311 3.32258C47.9583 3.20742 47.747 2.98486 47.3898 2.53137C47.3147 1.99616 47.3116 1.6884 47.5744 1.21301C48.0337 0.770667 48.5289 0.825382 49.1337 0.823174Z" fill="#0065FF"/>
<path d="M49.2568 24.0271C49.442 24.0263 49.6271 24.0255 49.8178 24.0247C50.0235 24.0245 50.2292 24.0243 50.4348 24.0242C50.651 24.0235 50.8672 24.0228 51.0834 24.0221C51.6712 24.0202 52.259 24.0193 52.8468 24.0187C53.214 24.0183 53.5813 24.0177 53.9485 24.0171C55.0974 24.0152 56.2464 24.0138 57.3953 24.0133C58.7216 24.0126 60.0479 24.0102 61.3742 24.0061C62.3994 24.003 63.4246 24.0016 64.4498 24.0014C65.0621 24.0013 65.6743 24.0005 66.2866 23.9979C66.8627 23.9956 67.4388 23.9953 68.0149 23.9966C68.2261 23.9967 68.4373 23.9961 68.6485 23.9947C68.9374 23.9929 69.2261 23.9937 69.5149 23.9952C69.6764 23.995 69.8379 23.9948 70.0043 23.9945C70.5162 24.0544 70.8563 24.2028 71.2955 24.4687C71.5155 24.9088 71.5341 25.3984 71.4361 25.875C71.1247 26.2804 70.9585 26.4234 70.448 26.5083C70.2802 26.5085 70.1124 26.5087 69.9395 26.5089C69.8459 26.5098 69.7522 26.5107 69.6556 26.5116C69.3419 26.5138 69.0283 26.512 68.7145 26.5103C68.4895 26.511 68.2645 26.512 68.0395 26.5132C67.4285 26.5158 66.8175 26.5148 66.2065 26.513C65.5673 26.5116 64.9282 26.5129 64.289 26.5138C63.2156 26.5148 62.1422 26.5135 61.0688 26.5108C59.8274 26.5077 58.5861 26.5087 57.3448 26.5118C56.2794 26.5144 55.2139 26.5148 54.1485 26.5133C53.512 26.5124 52.8755 26.5123 52.2391 26.5141C51.6407 26.5158 51.0424 26.5146 50.444 26.5114C50.2243 26.5106 50.0045 26.5109 49.7848 26.5121C49.4851 26.5136 49.1855 26.5117 48.8858 26.5089C48.6341 26.5086 48.6341 26.5086 48.3774 26.5083C47.8668 26.4233 47.7018 26.2793 47.3892 25.875C47.2869 25.4895 47.3085 25.1395 47.3892 24.75C47.9056 24.0555 48.4344 24.0292 49.2568 24.0271Z" fill="#0065FF"/>
<path d="M39.1411 0.815198C39.2922 0.813996 39.2922 0.813996 39.4463 0.812769C39.6593 0.811442 39.8723 0.810522 40.0853 0.809979C40.41 0.808615 40.7346 0.804251 41.0593 0.799817C41.2665 0.798899 41.4738 0.79816 41.6811 0.79762C41.7777 0.795884 41.8742 0.794147 41.9737 0.792358C42.7196 0.795799 43.1429 0.999694 43.6993 1.47658C44.1018 1.95962 44.0428 2.54155 44.0492 3.13606C44.0503 3.23647 44.0515 3.33687 44.0526 3.44032C44.0546 3.65273 44.0561 3.86514 44.0572 4.07756C44.0588 4.294 44.0617 4.51044 44.0659 4.72685C44.0719 5.04037 44.0741 5.35373 44.0756 5.66731C44.078 5.76314 44.0805 5.85897 44.083 5.95771C44.0799 6.66023 43.8939 7.05403 43.4532 7.59377C42.5365 8.1906 41.4904 8.07789 40.4298 8.06837C40.157 8.07082 40.157 8.07082 39.8788 8.07332C38.1346 8.06794 38.1346 8.06794 37.4063 7.59377C36.88 6.94674 36.7729 6.50435 36.7741 5.6772C36.7739 5.57706 36.7736 5.47692 36.7734 5.37374C36.7737 5.16325 36.7753 4.95276 36.7782 4.7423C36.7823 4.42129 36.7811 4.10061 36.7793 3.77959C36.787 1.96471 36.787 1.96471 37.4766 1.16017C37.9619 0.755803 38.5444 0.818869 39.1411 0.815198Z" fill="#0065FF"/>
<path d="M39.0843 12.4546C39.1906 12.4539 39.2968 12.4531 39.4063 12.4524C39.6303 12.4515 39.8542 12.4517 40.0782 12.4529C40.4193 12.4541 40.7601 12.45 41.1011 12.4456C41.3195 12.4453 41.5378 12.4454 41.7562 12.4458C41.8573 12.4442 41.9584 12.4427 42.0626 12.441C42.7775 12.4508 43.1958 12.6093 43.7343 13.0781C44.1964 13.8601 44.0626 14.8292 44.0599 15.7105C44.0595 16.021 44.0628 16.3313 44.0663 16.6418C44.0667 16.8409 44.0668 17.04 44.0666 17.2392C44.067 17.4188 44.0675 17.5984 44.0679 17.7835C43.995 18.4765 43.824 18.9308 43.2855 19.3848C42.7785 19.5928 42.3143 19.61 41.7749 19.6078C41.6686 19.6086 41.5624 19.6093 41.4529 19.61C41.2289 19.6109 41.005 19.6108 40.781 19.6096C40.4399 19.6084 40.0991 19.6124 39.7581 19.6169C39.5397 19.6171 39.3214 19.617 39.103 19.6166C39.0019 19.6182 38.9008 19.6198 38.7966 19.6214C38.0817 19.6116 37.6634 19.4531 37.1249 18.9843C36.6628 18.2023 36.7966 17.2333 36.7993 16.3519C36.7997 16.0414 36.7964 15.7311 36.7928 15.4207C36.7925 15.2215 36.7924 15.0224 36.7926 14.8233C36.7922 14.6436 36.7917 14.464 36.7913 14.2789C36.8642 13.5859 37.0352 13.1317 37.5737 12.6776C38.0807 12.4696 38.5449 12.4524 39.0843 12.4546Z" fill="#0065FF"/>
<path d="M49.3169 17.1358C49.4843 17.135 49.4843 17.135 49.6551 17.1343C50.0252 17.133 50.3954 17.1327 50.7655 17.1326C51.0223 17.1321 51.2791 17.1316 51.5359 17.1311C52.0747 17.1303 52.6135 17.13 53.1524 17.1301C53.8431 17.1301 54.5338 17.1282 55.2245 17.1258C55.7551 17.1242 56.2856 17.1239 56.8162 17.124C57.0709 17.1239 57.3255 17.1232 57.5802 17.1221C57.9364 17.1208 58.2925 17.1212 58.6487 17.122C58.754 17.1212 58.8594 17.1204 58.968 17.1196C59.4874 17.1228 59.8992 17.1279 60.3291 17.4374C60.6807 17.9648 60.6857 18.2191 60.6104 18.8437C60.2264 19.3556 60.0165 19.5283 59.379 19.6361C59.1707 19.6403 58.9624 19.6406 58.7542 19.6378C58.64 19.639 58.5258 19.6403 58.4082 19.6415C58.0318 19.6446 57.6557 19.6426 57.2793 19.6402C57.0171 19.6407 56.755 19.6413 56.4928 19.6422C55.9439 19.6433 55.3949 19.6418 54.846 19.6385C54.1428 19.6345 53.4397 19.6368 52.7365 19.641C52.1953 19.6435 51.6542 19.6427 51.113 19.6409C50.8537 19.6404 50.5945 19.641 50.3352 19.6426C49.9726 19.6444 49.6103 19.6417 49.2477 19.6378C49.1409 19.6392 49.0341 19.6406 48.924 19.6421C48.3709 19.6311 48.1175 19.5646 47.676 19.2209C47.3916 18.8437 47.3916 18.8437 47.3125 18.3427C47.4027 17.7917 47.5175 17.6307 47.9541 17.2968C48.387 17.0804 48.8419 17.1355 49.3169 17.1358Z" fill="#0065FF"/>
<path d="M49.1182 5.54997C49.2939 5.54815 49.2939 5.54815 49.4731 5.54629C49.8601 5.5431 50.2468 5.54406 50.6338 5.54533C50.9027 5.54459 51.1717 5.54371 51.4407 5.54269C52.0044 5.54123 52.568 5.54187 53.1316 5.54392C53.8542 5.54634 54.5767 5.54304 55.2993 5.53809C55.8547 5.535 56.4101 5.5352 56.9655 5.53637C57.232 5.53648 57.4984 5.53551 57.7648 5.53345C58.1372 5.531 58.5094 5.53303 58.8817 5.53623C58.9919 5.53459 59.1021 5.53294 59.2156 5.53125C59.7543 5.54067 59.9962 5.57781 60.3965 5.95078C60.676 6.44627 60.6909 6.75202 60.6093 7.31248C60.2973 7.7213 60.1144 7.85246 59.625 8.01561C59.268 8.03054 58.9148 8.03772 58.5577 8.03827C58.4493 8.03896 58.3409 8.03966 58.2292 8.04038C57.8703 8.04244 57.5114 8.04339 57.1525 8.04417C56.9029 8.04498 56.6533 8.04579 56.4037 8.0466C55.8801 8.04808 55.3565 8.0489 54.833 8.04939C54.1629 8.05016 53.4929 8.05354 52.8229 8.05754C52.3071 8.06016 51.7914 8.06089 51.2756 8.06111C51.0287 8.06153 50.7817 8.06266 50.5347 8.06451C50.1887 8.06691 49.8428 8.06664 49.4968 8.06573C49.3953 8.06703 49.2938 8.06832 49.1892 8.06966C48.5352 8.06428 48.086 7.94051 47.5312 7.59373C47.3112 7.15366 47.2926 6.66408 47.3906 6.18748C47.8603 5.53488 48.3699 5.54373 49.1182 5.54997Z" fill="#0065FF"/>
<path d="M40.4293 23.9941C40.702 23.9917 40.702 23.9917 40.9803 23.9892C42.6644 23.9944 42.6644 23.9944 43.4527 24.4687C43.958 25.0517 44.0415 25.4019 44.0152 26.1562C43.9312 26.1611 43.8473 26.1659 43.7607 26.1709C41.9078 26.2852 40.1911 26.5263 38.4118 27.056C37.8942 27.2006 37.3692 27.3115 36.8434 27.4218C36.8281 27.0877 36.817 26.7542 36.8082 26.4199C36.8035 26.3264 36.7988 26.2328 36.7939 26.1364C36.7797 25.4115 36.9225 25.0066 37.4059 24.4687C38.3225 23.8719 39.3686 23.9846 40.4293 23.9941Z" fill="#0065FF"/>
<path d="M52.7344 28.8281C53.7429 28.8103 54.7513 28.798 55.7599 28.7895C56.103 28.7859 56.446 28.7811 56.789 28.7751C57.2823 28.7665 57.7754 28.7625 58.2687 28.7594C58.422 28.7558 58.5752 28.7522 58.7331 28.7484C59.7955 28.748 59.7955 28.748 60.3552 29.1526C60.6887 29.6494 60.7054 29.9287 60.6094 30.5156C60.3468 30.8482 60.1424 31.0303 59.7656 31.2187C55.8649 31.6086 55.8649 31.6086 54.7767 30.8985C54.3604 30.5408 54.0437 30.1128 53.7187 29.6718C53.4171 29.4189 53.4171 29.4189 53.1211 29.2324C52.9935 29.1454 52.8659 29.0584 52.7344 28.9687C52.7344 28.9223 52.7344 28.8759 52.7344 28.8281Z" fill="#0065FF"/>
</svg>
