<svg width="950" height="3387" viewBox="0 0 950 3387" fill="none" xmlns="http://www.w3.org/2000/svg">
<path d="M295.146 338.006L619.421 277.631C780.031 247.727 765.701 13.1376 602.646 3.00592L518.013 8.38674C305.335 21.9084 287.684 328.194 497.401 366.057C660.773 395.553 700.993 611.396 559.208 697.754L454.242 761.687C293.643 859.505 314.692 1098.96 489.893 1167.26L724.733 1258.81C1037.1 1380.58 1013.55 1830.23 690.174 1918.7L244.082 2040.75C-93.0025 2132.98 -71.3217 2618.16 272.645 2679.96L545.437 2728.97C813.62 2777.15 839.213 3151.81 580.074 3236.01L126.146 3383.51" stroke="#0065FF" stroke-width="6" stroke-dasharray="68 68"/>
</svg>
