<svg width="333" height="3374" viewBox="0 0 333 3374" fill="none" xmlns="http://www.w3.org/2000/svg">
<path d="M153.011 327.18L280.019 169.044C323.135 115.36 302.684 35.3198 239.101 8.89881C213.445 -1.76198 184.578 -1.64373 159.01 9.22687L143.164 15.9642C54.3013 53.7461 26.8968 166.45 88.4901 240.816L174.572 344.748C224.026 404.458 242.286 484.059 223.8 559.353L144.161 883.736C127.242 952.65 131.794 1025.09 157.208 1091.34L306.177 1479.7C342.748 1575.04 335.6 1681.63 286.629 1771.23L43.1843 2216.66C-21.3716 2334.77 -7.20858 2480.34 78.9052 2583.8L238.288 2775.28C302.884 2852.89 317.136 2960.7 274.923 3052.43L127.743 3372.23" stroke="#0065FF" stroke-width="6" stroke-dasharray="68 68"/>
</svg>
