<svg width="112" height="112" viewBox="0 0 112 112" fill="none" xmlns="http://www.w3.org/2000/svg">
<g filter="url(#filter0_d_357_2456)">
<path d="M102 56C102 81.4051 81.4051 102 56 102C30.5949 102 10 81.4051 10 56C10 30.5949 30.5949 10 56 10C81.4051 10 102 30.5949 102 56Z" fill="white"/>
<path d="M56 11C80.8528 11 101 31.1472 101 56C101 80.8528 80.8528 101 56 101C31.1472 101 11 80.8528 11 56C11 31.1472 31.1472 11 56 11Z" stroke="url(#paint0_linear_357_2456)" stroke-width="2"/>
</g>
<path d="M51.8613 39.3067C52.6478 39.7673 53.0156 40.4311 53.2942 41.2743C53.3254 41.3635 53.3565 41.4527 53.3886 41.5447C53.4872 41.8277 53.5835 42.1115 53.6795 42.3954C53.8069 42.7678 53.9354 43.1398 54.0647 43.5115C54.0959 43.6012 54.1271 43.6908 54.1592 43.7832C55.4838 47.5355 57.937 50.3605 61.5058 52.1026C62.4067 52.5255 63.3528 52.8401 64.2908 53.169C64.589 53.2739 64.8871 53.3791 65.1847 53.4854C65.3679 53.5507 65.5513 53.6153 65.735 53.6789C66.5821 53.981 67.2007 54.3647 67.6568 55.1629C67.851 55.8912 67.8041 56.5382 67.4633 57.2096C67.0129 57.7912 66.4852 58.0622 65.8116 58.3058C65.7288 58.337 65.646 58.3682 65.5607 58.4004C65.0569 58.589 64.5498 58.768 64.042 58.9457C61.6377 59.7897 59.5942 60.792 57.6807 62.4963C57.6096 62.5581 57.5385 62.62 57.4653 62.6838C57.0305 63.0874 56.6819 63.5561 56.3289 64.0305C56.2577 64.1258 56.2577 64.1258 56.185 64.223C55.4445 65.2426 54.8846 66.31 54.45 67.491C54.4046 67.6109 54.3591 67.7308 54.3123 67.8543C54.0772 68.4789 53.8523 69.1063 53.6368 69.7379C53.595 69.8588 53.5533 69.9797 53.5102 70.1043C53.4316 70.3334 53.3548 70.5632 53.2801 70.7937C52.9868 71.6495 52.5919 72.3007 51.8005 72.7697C51.0196 72.9851 50.4343 72.9243 49.6934 72.6033C49.0131 72.139 48.7749 71.503 48.5204 70.753C48.4848 70.6524 48.4492 70.5518 48.4125 70.4482C48.2992 70.1275 48.1876 69.8063 48.0764 69.4849C47.2256 67.032 46.3122 64.8314 44.4874 62.9288C44.4004 62.8374 44.3135 62.7459 44.2238 62.6517C44.1324 62.5647 44.0409 62.4777 43.9467 62.3881C43.8742 62.3174 43.8017 62.2468 43.7271 62.1739C41.8363 60.3906 39.4715 59.5276 37.0534 58.7026C36.7777 58.6081 36.5025 58.5121 36.2273 58.416C36.1447 58.3884 36.0621 58.3608 35.977 58.3323C35.2345 58.0722 34.5533 57.7182 34.184 56.9827C33.9412 56.3055 33.9241 55.6653 34.2207 55.007C34.7233 54.071 35.6488 53.8165 36.602 53.4859C36.7919 53.4183 36.9818 53.3507 37.1716 53.2831C37.4648 53.1793 37.7581 53.0759 38.0518 52.9737C40.0534 52.2749 41.8852 51.4342 43.5142 50.06C43.6348 49.9638 43.6348 49.9638 43.7579 49.8657C44.3782 49.3558 44.8626 48.7463 45.3526 48.1134C45.4263 48.021 45.5001 47.9286 45.576 47.8334C46.9129 46.0935 47.5777 43.9737 48.291 41.9257C48.3477 41.7646 48.3477 41.7646 48.4057 41.6003C48.4769 41.3974 48.547 41.194 48.6156 40.9902C48.8483 40.3274 49.0958 39.8202 49.6934 39.4123C50.4395 39.089 51.0969 38.971 51.8613 39.3067ZM50.8678 45.518C50.8388 45.5838 50.8098 45.6496 50.7799 45.7174C48.7573 50.2418 45.713 53.894 40.975 55.7185C40.8124 55.7798 40.6494 55.8398 40.4862 55.8996C40.4862 55.971 40.4862 56.0424 40.4862 56.1159C40.5448 56.1392 40.6034 56.1624 40.6638 56.1864C42.708 57.0066 44.4748 57.9881 46.1096 59.4683C46.206 59.5505 46.3025 59.6328 46.4019 59.7175C47.0729 60.2959 47.6281 60.927 48.1642 61.6311C48.2295 61.7158 48.2295 61.7158 48.296 61.8022C49.3104 63.1275 50.109 64.5563 50.6545 66.1359C50.7342 66.4061 50.7342 66.4061 50.9759 66.4975C51.0003 66.4372 51.0247 66.3769 51.0498 66.3148C52.0348 63.8989 53.2658 61.8939 55.0853 60.009C55.1435 59.9482 55.2018 59.8873 55.2618 59.8246C56.9132 58.1313 59.1189 56.8621 61.3575 56.1159C61.3575 56.0445 61.3575 55.9732 61.3575 55.8996C61.2617 55.8641 61.166 55.8285 61.0673 55.7919C58.6866 54.8873 56.6825 53.5783 54.869 51.7902C54.7705 51.6931 54.6719 51.5959 54.5704 51.4958C52.9274 49.7919 51.837 47.7039 50.9759 45.518C50.9402 45.518 50.9046 45.518 50.8678 45.518Z" fill="url(#paint1_linear_357_2456)"/>
<path d="M69.556 63.4357C70.2759 63.958 70.4759 64.6773 70.7523 65.4904C71.3921 67.3001 72.1402 68.7163 73.9019 69.6336C74.5641 69.9275 75.2389 70.1808 75.9211 70.424C77.0818 70.8454 77.0818 70.8454 77.4706 71.3639C77.5331 71.4442 77.5955 71.5245 77.6598 71.6072C77.9157 72.17 77.9798 72.7354 77.795 73.3307C77.4643 74.051 76.839 74.4267 76.118 74.6959C75.9946 74.7395 75.9946 74.7394 75.8688 74.7838C75.7827 74.816 75.6966 74.8481 75.6079 74.8812C75.2566 75.0123 74.9039 75.1388 74.5499 75.2624C73.1292 75.781 71.9974 76.7988 71.3538 78.1633C71.1422 78.6262 70.9607 79.0948 70.7971 79.5767C70.1581 81.4545 70.1581 81.4545 69.1437 81.9617C68.5106 82.0151 67.9336 82.0545 67.3526 81.7792C66.8992 81.3491 66.6142 80.9523 66.4043 80.3624C66.3603 80.2427 66.3163 80.1229 66.271 79.9995C66.1819 79.7513 66.0932 79.5029 66.0048 79.2544C65.397 77.6037 64.496 76.2658 62.8882 75.4687C62.2695 75.1936 61.6244 74.9736 60.9834 74.7564C60.2581 74.5019 59.5811 74.2244 59.1806 73.5315C58.9184 72.9152 58.9272 72.3348 59.1721 71.7203C59.6183 70.8728 60.4744 70.5512 61.3372 70.2757C63.2089 69.6329 64.6054 68.8303 65.575 67.0382C65.8284 66.4254 66.0305 65.7959 66.233 65.1647C66.5578 64.2195 66.9408 63.658 67.8392 63.1992C68.4454 63.1002 69.005 63.1531 69.556 63.4357ZM68.3867 69.3092C68.3512 69.3669 68.3156 69.4246 68.279 69.4841C67.6363 70.4908 66.8803 71.3146 65.9278 72.0355C65.6828 72.2293 65.467 72.4368 65.2506 72.6616C65.3317 72.7193 65.4129 72.777 65.4965 72.8364C66.6528 73.6782 67.6077 74.5853 68.3867 75.7977C68.7245 75.4804 69.0124 75.1535 69.2924 74.7838C69.877 74.0245 70.4944 73.4634 71.2917 72.9298C71.5316 72.7738 71.5316 72.7738 71.7391 72.5534C71.6736 72.5101 71.6081 72.4667 71.5406 72.422C70.4424 71.677 69.5684 70.872 68.799 69.7962C68.6125 69.5236 68.6125 69.5236 68.3867 69.3092Z" fill="url(#paint2_linear_357_2456)"/>
<path d="M69.1437 30.0538C69.529 30.243 69.529 30.243 69.7925 30.4864C69.8646 30.551 69.9366 30.6157 70.0108 30.6823C70.2488 30.9451 70.3415 31.1536 70.4575 31.4871C70.497 31.5974 70.5366 31.7078 70.5774 31.8214C70.6173 31.9362 70.6572 32.051 70.6982 32.1693C71.3463 34.0268 72.1658 35.6055 73.9845 36.5397C74.6058 36.8241 75.2565 37.0469 75.9036 37.2647C76.629 37.5166 77.3005 37.7941 77.7022 38.4849C77.9535 39.0264 77.9449 39.5404 77.795 40.111C77.5792 40.676 77.2423 41.0209 76.7136 41.3005C76.185 41.5191 75.644 41.7034 75.1042 41.8919C73.3414 42.5269 72.0848 43.4583 71.2702 45.1733C71.0678 45.6478 70.8869 46.1283 70.7156 46.6147C70.6742 46.7301 70.6742 46.7301 70.6319 46.848C70.5784 46.9982 70.5263 47.149 70.4758 47.3003C70.2616 47.9036 69.938 48.2406 69.4411 48.6271C68.8783 48.8829 68.3129 48.947 67.7176 48.7623C66.9973 48.4315 66.6215 47.8062 66.3523 47.0853C66.3233 47.003 66.2943 46.9208 66.2644 46.836C66.2323 46.7499 66.2001 46.6638 66.167 46.5751C66.036 46.2238 65.9095 45.8712 65.7858 45.5172C65.1871 43.8766 64.0277 42.8922 62.4947 42.1623C62.068 41.9688 61.633 41.8142 61.1897 41.6634C59.7314 41.1663 59.7314 41.1663 59.3062 40.5545C59.0087 39.9482 58.881 39.3634 59.0988 38.7085C59.338 38.1607 59.7289 37.7485 60.2795 37.5151C60.4398 37.4568 60.6009 37.4007 60.7627 37.3466C60.9361 37.2835 61.1095 37.2203 61.2827 37.1569C61.3683 37.1264 61.4539 37.0958 61.5421 37.0644C63.3642 36.4068 64.7696 35.4965 65.6223 33.7006C65.7602 33.3834 65.8813 33.0612 66.0008 32.7366C66.0563 32.5867 66.0563 32.5867 66.1128 32.4337C66.1852 32.2348 66.256 32.0354 66.3248 31.8353C66.5707 31.1516 66.8722 30.5227 67.5214 30.144C68.0228 29.935 68.6134 29.9996 69.1437 30.0538ZM68.3867 36.2179C68.329 36.299 68.2713 36.3801 68.2118 36.4637C67.3701 37.62 66.4629 38.575 65.2506 39.354C65.5679 39.6917 65.8947 39.9797 66.2644 40.2597C67.0238 40.8442 67.5849 41.4616 68.1185 42.259C68.2745 42.4988 68.2745 42.4988 68.4949 42.7064C68.5382 42.6408 68.5816 42.5753 68.6262 42.5078C69.3713 41.4096 70.1763 40.5357 71.252 39.7663C71.5247 39.5798 71.5247 39.5798 71.7391 39.354C71.6814 39.3184 71.6237 39.2829 71.5642 39.2463C70.5156 38.5768 69.6848 37.7773 68.9177 36.8C68.7498 36.5906 68.5812 36.402 68.3867 36.2179Z" fill="url(#paint3_linear_357_2456)"/>
<defs>
<filter id="filter0_d_357_2456" x="0" y="0" width="112" height="112" filterUnits="userSpaceOnUse" color-interpolation-filters="sRGB">
<feFlood flood-opacity="0" result="BackgroundImageFix"/>
<feColorMatrix in="SourceAlpha" type="matrix" values="0 0 0 0 0 0 0 0 0 0 0 0 0 0 0 0 0 0 127 0" result="hardAlpha"/>
<feOffset/>
<feGaussianBlur stdDeviation="5"/>
<feComposite in2="hardAlpha" operator="out"/>
<feColorMatrix type="matrix" values="0 0 0 0 0 0 0 0 0 0.396078 0 0 0 0 1 0 0 0 0.27 0"/>
<feBlend mode="normal" in2="BackgroundImageFix" result="effect1_dropShadow_357_2456"/>
<feBlend mode="normal" in="SourceGraphic" in2="effect1_dropShadow_357_2456" result="shape"/>
</filter>
<linearGradient id="paint0_linear_357_2456" x1="10" y1="10" x2="102" y2="102" gradientUnits="userSpaceOnUse">
<stop/>
<stop offset="1" stop-color="#0065FF"/>
</linearGradient>
<linearGradient id="paint1_linear_357_2456" x1="42.4092" y1="40.962" x2="77.901" y2="77.9505" gradientUnits="userSpaceOnUse">
<stop/>
<stop offset="1" stop-color="#0065FF"/>
</linearGradient>
<linearGradient id="paint2_linear_357_2456" x1="42.4092" y1="40.962" x2="77.901" y2="77.9505" gradientUnits="userSpaceOnUse">
<stop/>
<stop offset="1" stop-color="#0065FF"/>
</linearGradient>
<linearGradient id="paint3_linear_357_2456" x1="42.4092" y1="40.962" x2="77.901" y2="77.9505" gradientUnits="userSpaceOnUse">
<stop/>
<stop offset="1" stop-color="#0065FF"/>
</linearGradient>
</defs>
</svg>
