<svg width="112" height="112" viewBox="0 0 112 112" fill="none" xmlns="http://www.w3.org/2000/svg">
<g filter="url(#filter0_d_357_2447)">
<circle cx="56" cy="56" r="46" fill="white"/>
<circle cx="56" cy="56" r="45" stroke="url(#paint0_linear_357_2447)" stroke-width="2"/>
</g>
<path d="M42.2118 39.7317C42.3901 39.7297 42.3901 39.7297 42.572 39.7277C42.7657 39.7265 42.7657 39.7265 42.9632 39.7253C43.0955 39.7245 43.2277 39.7237 43.364 39.7228C43.6445 39.7213 43.925 39.7202 44.2054 39.7194C44.5638 39.7183 44.922 39.7147 45.2803 39.7105C45.623 39.7072 45.9657 39.7067 46.3084 39.7058C46.4366 39.704 46.5649 39.7022 46.697 39.7003C47.81 39.7031 47.81 39.7031 48.3081 40.1667C48.7099 40.7211 48.7407 41.1906 48.7441 41.8657C48.7456 41.9985 48.7471 42.1312 48.7486 42.268C48.707 42.9582 48.5692 43.4326 48.0648 43.8998C47.8104 44.0766 47.5716 44.1099 47.2667 44.1244C47.3011 44.3993 47.3355 44.6743 47.3709 44.9576C47.5579 45.0031 47.5579 45.0031 47.7488 45.0495C49.3138 45.4396 50.7254 45.9724 52.1357 46.7558C52.4185 46.9071 52.6937 47.0336 52.994 47.1447C53.0788 47.0676 53.0788 47.0676 53.1652 46.9889C53.2397 46.9222 53.3142 46.8554 53.391 46.7867C53.5015 46.687 53.5015 46.687 53.6143 46.5853C54.0095 46.2701 54.4222 46.2618 54.9098 46.2716C55.3973 46.3434 55.6652 46.6033 56.0138 46.9364C56.0675 46.9873 56.1212 47.0381 56.1765 47.0905C57.6249 48.4708 57.6249 48.4708 57.7251 49.0906C57.7262 49.874 57.5743 50.2534 57.0291 50.829C56.9389 50.9127 56.9389 50.9127 56.8469 50.9982C56.9641 51.3248 57.1087 51.6238 57.2776 51.9258C59.1155 55.2196 59.7462 58.9572 58.9295 62.6628C58.8639 62.8724 58.796 63.0813 58.7212 63.2877C58.8066 63.2841 58.892 63.2805 58.9799 63.2767C59.1482 63.2725 59.1482 63.2725 59.32 63.2682C59.4311 63.2646 59.5423 63.261 59.6568 63.2572C60.007 63.2912 60.1412 63.3534 60.3873 63.6002C60.5062 63.9568 60.5052 64.2308 60.5061 64.607C60.5065 64.7134 60.5065 64.7134 60.507 64.8219C60.5079 65.0601 60.5081 65.2983 60.5082 65.5364C60.5087 65.707 60.5092 65.8775 60.5098 66.0481C60.5112 66.5118 60.5118 66.9755 60.5123 67.4393C60.5126 67.7289 60.513 68.0185 60.5135 68.3081C60.5149 69.2141 60.5159 70.12 60.5163 71.0259C60.5168 72.0721 60.5186 73.1184 60.5216 74.1646C60.5239 74.973 60.5249 75.7815 60.5251 76.5899C60.5252 77.0729 60.5258 77.5559 60.5277 78.0388C60.5294 78.4931 60.5296 78.9474 60.5287 79.4016C60.5286 79.5683 60.5291 79.7351 60.5301 79.9018C60.5314 80.1294 60.5308 80.357 60.5297 80.5846C60.5299 80.712 60.53 80.8394 60.5302 80.9706C60.4878 81.337 60.3993 81.5333 60.1791 81.8262C59.8962 81.9676 59.6699 81.9467 59.3532 81.9504C59.1587 81.9529 59.1587 81.9529 58.9603 81.9555C58.8181 81.9567 58.6759 81.9578 58.5337 81.9588C58.4622 81.9593 58.3906 81.9599 58.3169 81.9605C57.9382 81.9633 57.5595 81.9653 57.1808 81.9668C56.8676 81.9682 56.5544 81.9711 56.2412 81.9753C55.8629 81.9805 55.4846 81.983 55.1062 81.9838C54.9622 81.9845 54.8181 81.9861 54.6741 81.9886C54.4723 81.9919 54.2704 81.9915 54.0685 81.9911C53.9538 81.9919 53.839 81.9928 53.7208 81.9936C53.2876 81.9052 53.1436 81.7705 52.8899 81.4096C52.8184 81.0859 52.8239 80.7725 52.8307 80.4422C52.8306 80.2973 52.8306 80.2973 52.8305 80.1495C52.8309 79.8311 52.8349 79.5128 52.839 79.1944C52.84 78.9733 52.8407 78.7522 52.8412 78.5311C52.8432 77.9498 52.8483 77.3686 52.8541 76.7873C52.8594 76.1939 52.8618 75.6005 52.8644 75.0071C52.87 73.8432 52.8789 72.6793 52.8899 71.5155C52.7853 71.5759 52.6807 71.6363 52.573 71.6985C51.6891 72.2049 50.8044 72.6696 49.87 73.0777C49.8694 73.1765 49.8688 73.2754 49.8682 73.3772C49.8622 74.3104 49.8546 75.2436 49.8455 76.1767C49.8408 76.6564 49.8368 77.1361 49.834 77.6159C49.8312 78.0791 49.827 78.5424 49.8218 79.0056C49.8201 79.182 49.8189 79.3585 49.8182 79.5349C49.8172 79.7827 49.8143 80.0304 49.8109 80.2782C49.8111 80.3506 49.8112 80.4229 49.8114 80.4975C49.8015 81.0168 49.6896 81.3723 49.4535 81.8262C49.1677 81.9691 48.9364 81.9459 48.6164 81.9487C48.4844 81.9501 48.3523 81.9514 48.2162 81.9528C48.0714 81.9537 47.9266 81.9544 47.7817 81.9551C47.7089 81.9556 47.6361 81.956 47.5611 81.9564C47.1757 81.9586 46.7904 81.9601 46.4051 81.9611C46.007 81.9622 45.6091 81.9658 45.211 81.9699C44.905 81.9727 44.5989 81.9735 44.2929 81.9739C44.1462 81.9744 43.9994 81.9756 43.8527 81.9775C43.6474 81.9801 43.442 81.9797 43.2366 81.9793C43.1197 81.9799 43.0029 81.9805 42.8825 81.9811C42.5808 81.9303 42.5808 81.9303 42.3351 81.7661C42.1005 81.4195 42.1103 81.1762 42.1075 80.7589C42.1064 80.6837 42.1053 80.6085 42.1042 80.531C42.1011 80.283 42.101 80.0351 42.1008 79.7871C42.0993 79.6149 42.0975 79.4427 42.0956 79.2705C42.0911 78.8178 42.089 78.3652 42.0874 77.9124C42.0854 77.4503 42.081 76.9881 42.0768 76.526C42.069 75.6196 42.0638 74.7132 42.0602 73.8067C41.9591 73.7815 41.9591 73.7815 41.856 73.7557C41.5453 73.6775 41.2349 73.5983 40.9245 73.5191C40.8185 73.4926 40.7126 73.4661 40.6034 73.4389C38.5426 72.91 36.6759 71.879 35.0834 70.474C34.987 70.3914 34.8906 70.3088 34.7913 70.2238C34.1169 69.6324 33.5424 69.0012 33.0007 68.2869C32.939 68.2059 32.8772 68.1249 32.8136 68.0415C30.4786 64.8438 29.6091 60.8282 30.1599 56.9184C30.2458 56.4297 30.3635 55.953 30.5016 55.4766C30.5205 55.408 30.5394 55.3394 30.559 55.2687C30.9598 53.8441 31.5877 52.3931 32.4801 51.2065C32.3044 50.8202 32.07 50.5475 31.7865 50.2362C31.4889 49.8622 31.5118 49.4776 31.5429 49.0194C31.7832 48.3532 32.2915 47.9159 32.7859 47.4311C32.8704 47.3463 32.9549 47.2614 33.042 47.174C33.9404 46.2836 33.9404 46.2836 34.6538 46.2725C35.1537 46.2828 35.4262 46.3971 35.8123 46.7281C35.9186 46.8473 35.9186 46.8473 36.027 46.969C36.0936 47.027 36.1602 47.0849 36.2288 47.1447C36.6198 47.1063 36.88 46.9804 37.205 46.7672C38.2387 46.1316 39.2998 45.6797 40.4591 45.3286C40.5924 45.2881 40.5924 45.2881 40.7284 45.2468C41.146 45.1258 41.5164 45.0249 41.956 45.0617C41.956 44.7524 41.956 44.4431 41.956 44.1244C41.8465 44.1029 41.737 44.0814 41.6241 44.0593C41.156 43.9273 40.9798 43.6852 40.7065 43.2912C40.5584 42.8471 40.579 42.4221 40.5763 41.9568C40.5741 41.8641 40.572 41.7714 40.5698 41.6759C40.5665 41.1276 40.6049 40.7434 40.9147 40.2709C41.3632 39.8661 41.6147 39.7376 42.2118 39.7317ZM42.3726 41.5207C42.3726 41.7956 42.3726 42.0706 42.3726 42.3539C43.8846 42.3539 45.3965 42.3539 46.9544 42.3539C46.9544 42.0789 46.9544 41.804 46.9544 41.5207C45.4424 41.5207 43.9304 41.5207 42.3726 41.5207ZM43.7263 44.1244C43.7263 44.3306 43.7263 44.5368 43.7263 44.7493C44.3105 44.7493 44.8946 44.7493 45.4965 44.7493C45.4965 44.5431 45.4965 44.3369 45.4965 44.1244C44.9123 44.1244 44.3282 44.1244 43.7263 44.1244ZM37.166 48.9152C37.0799 48.9781 36.9939 49.0409 36.9052 49.1056C34.5413 50.9121 32.9567 53.3461 32.1677 56.2056C32.1322 56.3318 32.0968 56.458 32.0603 56.588C31.6247 58.4678 31.6459 60.7005 32.1677 62.5587C32.1878 62.6317 32.2079 62.7046 32.2287 62.7798C33.1586 66.0667 35.3555 68.8597 38.3114 70.5781C39.4394 71.2003 40.6047 71.6202 41.8519 71.9321C41.9496 71.9565 42.0473 71.9809 42.148 72.0061C45.2761 72.6724 48.723 72.0124 51.4194 70.3159C54.4338 68.3309 56.4857 65.4393 57.2605 61.9053C57.9195 58.6064 57.2469 55.1891 55.4464 52.3538C53.5052 49.4637 50.5145 47.4215 47.1 46.731C43.6654 46.0967 39.9931 46.8219 37.166 48.9152ZM34.2918 48.4368C34.1863 48.5437 34.0814 48.6511 33.977 48.759C33.9233 48.8136 33.8696 48.8683 33.8142 48.9246C33.6814 49.0599 33.5493 49.1958 33.4172 49.3318C33.5203 49.4349 33.6234 49.538 33.7296 49.6443C34.1076 49.2662 34.4856 48.8881 34.8751 48.4986C34.8407 48.3955 34.8064 48.2924 34.771 48.1862C34.5267 48.1626 34.5267 48.1626 34.2918 48.4368ZM54.556 48.1862C54.4529 48.3408 54.4529 48.3408 54.3477 48.4986C54.5167 48.6766 54.6906 48.8501 54.8684 49.0194C54.9371 49.0194 55.0058 49.0194 55.0766 49.0194C55.1045 49.0838 55.1325 49.1483 55.1612 49.2147C55.2803 49.4672 55.2803 49.4672 55.5973 49.6443C55.666 49.5412 55.7347 49.4381 55.8055 49.3318C55.6171 49.1406 55.4283 48.9497 55.2393 48.759C55.1856 48.7044 55.1318 48.6497 55.0764 48.5934C54.9396 48.4557 54.8 48.3207 54.6601 48.1862C54.6257 48.1862 54.5914 48.1862 54.556 48.1862ZM58.0964 65.0583C58.0703 65.1106 58.0442 65.1629 58.0174 65.2168C57.1117 67.0188 56.0867 68.5264 54.6601 69.9532C54.6405 70.2765 54.6339 70.5905 54.6364 70.9138C54.6364 71.0134 54.6364 71.113 54.6364 71.2156C54.6365 71.5458 54.6381 71.876 54.6397 72.2063C54.6401 72.4348 54.6404 72.6633 54.6406 72.8919C54.6414 73.4942 54.6435 74.0966 54.6458 74.6989C54.6479 75.3132 54.6489 75.9275 54.6499 76.5418C54.6522 77.7478 54.6558 78.9538 54.6601 80.1598C56.0003 80.1598 57.3404 80.1598 58.7212 80.1598C58.7212 75.1763 58.7212 70.1928 58.7212 65.0583C58.515 65.0583 58.3089 65.0583 58.0964 65.0583ZM47.5844 73.6403C46.3873 73.8743 45.1524 73.9109 43.9345 73.9109C43.9345 75.973 43.9345 78.0352 43.9345 80.1598C45.2403 80.1598 46.5462 80.1598 47.8915 80.1598C47.8915 77.9945 47.8915 75.8293 47.8915 73.5984C47.7699 73.5949 47.7699 73.5949 47.5844 73.6403Z" fill="url(#paint1_linear_357_2447)"/>
<path d="M67.6692 30.0257C67.7511 30.0248 67.8331 30.0238 67.9175 30.0228C68.091 30.0213 68.2645 30.0204 68.4379 30.02C68.7031 30.0188 68.9681 30.0137 69.2332 30.0084C69.4018 30.0074 69.5703 30.0067 69.7388 30.0062C69.8576 30.0031 69.8576 30.0031 69.9788 30C70.3808 30.0034 70.5528 30.0259 70.8456 30.3114C71.0049 30.5787 71.1322 30.8347 71.243 31.1254C71.2779 31.2149 71.3128 31.3044 71.3488 31.3967C71.4253 31.6266 71.4253 31.6266 71.4253 31.8349C71.4971 31.8526 71.5689 31.8703 71.6429 31.8886C72.1475 32.0187 72.5862 32.1478 73.0393 32.4077C73.3499 32.5566 73.4579 32.5797 73.7914 32.4744C74.0863 32.3347 74.0863 32.3347 74.3544 32.1717C74.7452 32.0037 75.0676 31.9583 75.4864 32.0432C75.8045 32.2572 75.8045 32.2572 76.0982 32.5509C76.1506 32.6025 76.203 32.654 76.257 32.7072C76.3649 32.8139 76.4721 32.9214 76.5784 33.0298C76.7292 33.1819 76.8835 33.3288 77.0402 33.4748C77.8776 34.27 77.8776 34.27 77.9856 34.8552C77.8883 35.1904 77.8883 35.1904 77.7317 35.5321C77.5063 36.0267 77.4234 36.3048 77.569 36.834C77.6523 37.0511 77.7414 37.266 77.8359 37.4784C78.0897 38.0501 78.0897 38.0501 78.0897 38.3962C78.2121 38.4059 78.2121 38.4059 78.337 38.4158C78.9612 38.5557 79.6022 38.7907 79.9641 39.3336C79.9881 39.5921 80.0007 39.8388 80.0027 40.0976C80.0036 40.1722 80.0046 40.2468 80.0056 40.3237C80.0071 40.4814 80.008 40.6392 80.0084 40.7969C80.0096 41.0375 80.0147 41.2777 80.02 41.5182C80.021 41.6717 80.0217 41.8253 80.0222 41.9788C80.0243 42.0503 80.0263 42.1218 80.0284 42.1955C80.0247 42.5952 79.9743 42.7579 79.7185 43.0714C79.4323 43.3001 79.1975 43.4172 78.8512 43.532C78.752 43.566 78.6528 43.6 78.5506 43.635C78.298 43.7078 78.298 43.7078 78.0897 43.7078C78.0832 43.7873 78.0768 43.8668 78.0702 43.9486C77.99 44.3125 77.8757 44.5736 77.7122 44.9055C77.4993 45.3648 77.3942 45.6096 77.569 46.1032C77.6062 46.1912 77.6434 46.2791 77.6817 46.3697C78.0032 47.1622 78.0032 47.1622 77.9075 47.6329C77.5082 48.3271 76.805 48.8619 76.2011 49.3721C76.0079 49.5342 76.0079 49.5342 75.8488 49.7049C75.6432 49.9105 75.4658 50.0517 75.172 50.0841C74.7042 50.0505 74.3692 49.9195 73.957 49.7029C73.5769 49.5346 73.4356 49.5309 73.0283 49.6483C72.7679 49.7557 72.5215 49.8772 72.2689 50.0035C71.9459 50.165 71.9459 50.165 71.7141 50.1939C71.4894 50.262 71.4894 50.262 71.3667 50.5873C71.3152 50.7193 71.2654 50.852 71.217 50.9852C70.9169 51.8016 70.9169 51.8016 70.4881 52.0397C70.2141 52.0726 69.9652 52.0884 69.6912 52.0885C69.6145 52.0893 69.5377 52.0901 69.4586 52.0909C69.2966 52.092 69.1346 52.0923 68.9726 52.0919C68.7255 52.0918 68.4787 52.0961 68.2316 52.1007C68.0738 52.1012 67.916 52.1015 67.7583 52.1015C67.6848 52.1032 67.6114 52.1049 67.5357 52.1067C67.132 52.1011 66.9614 52.0508 66.6433 51.7943C66.4071 51.4937 66.3341 51.2676 66.2382 50.9006C66.0735 50.4649 65.9297 50.249 65.5138 50.0527C65.0971 49.8874 64.6723 49.7624 64.2402 49.6443C64.1371 49.6099 64.034 49.5755 63.9278 49.5401C63.6626 49.6434 63.6626 49.6434 63.3811 49.794C62.5622 50.1761 62.5622 50.1761 62.0534 50.0609C61.7385 49.8543 61.4846 49.5989 61.2204 49.3318C61.1249 49.2377 61.0295 49.1436 60.9312 49.0466C60.6435 48.762 60.3591 48.4743 60.0749 48.1862C59.979 48.0964 59.883 48.0066 59.7841 47.914C59.5543 47.6654 59.5543 47.6654 59.4892 47.2944C59.5085 46.8841 59.6668 46.5853 59.8471 46.2204C60.0543 45.7731 60.0543 45.7731 60.0009 45.3001C59.8636 45.0336 59.8636 45.0336 59.6983 44.7831C59.5487 44.5316 59.5151 44.3656 59.4827 44.0788C59.3908 43.6984 59.3908 43.6984 59.1243 43.598C58.8528 43.5194 58.5803 43.4575 58.3047 43.3954C57.7216 43.1454 57.7216 43.1454 57.4716 42.7705C57.4476 42.5119 57.435 42.2653 57.433 42.0064C57.4321 41.9318 57.4311 41.8572 57.4301 41.7803C57.4286 41.6226 57.4277 41.4648 57.4273 41.3071C57.4261 41.0665 57.421 40.8263 57.4157 40.5858C57.4147 40.4323 57.414 40.2788 57.4135 40.1253C57.4114 40.0537 57.4094 39.9822 57.4073 39.9086C57.4111 39.5077 57.4611 39.3463 57.7189 39.0326C57.9859 38.818 58.2064 38.6907 58.526 38.572C58.6143 38.538 58.7026 38.504 58.7936 38.469C59.0336 38.3962 59.0336 38.3962 59.346 38.3962C59.3649 38.3208 59.3839 38.2453 59.4034 38.1676C59.6262 37.3104 59.6262 37.3104 59.8406 36.9121C60.016 36.5262 59.9685 36.3039 59.8667 35.8967C59.813 35.7957 59.7593 35.6947 59.704 35.5907C59.5179 35.1943 59.4425 34.8628 59.5543 34.4386C59.691 34.2437 59.691 34.2437 59.8711 34.0472C59.9373 33.975 60.0034 33.9027 60.0716 33.8283C60.1414 33.7547 60.2112 33.6812 60.2832 33.6054C60.3501 33.5349 60.417 33.4645 60.4859 33.3919C60.6903 33.1815 60.8992 32.9765 61.1097 32.7722C61.1789 32.7015 61.2481 32.6307 61.3194 32.5578C61.6586 32.2308 61.9032 31.9982 62.3886 31.9842C62.7344 32.036 62.957 32.0897 63.2575 32.258C63.7111 32.4737 63.9512 32.4965 64.4485 32.3556C64.8053 32.2245 65.1591 32.0882 65.5113 31.9451C65.8022 31.8349 65.8022 31.8349 66.0104 31.8349C66.0294 31.7745 66.0483 31.714 66.0678 31.6518C66.5885 30.0333 66.5885 30.0333 67.6692 30.0257ZM67.8848 31.8349C67.8075 32.0346 67.7302 32.2344 67.6505 32.4402C67.4798 32.8813 67.3676 33.164 66.9476 33.3971C66.7027 33.4864 66.455 33.5682 66.2057 33.6444C65.7143 33.7976 65.2707 33.9646 64.8194 34.2173C64.3216 34.4794 64.0555 34.4772 63.5113 34.3344C63.3802 34.2803 63.2499 34.2239 63.1208 34.1652C62.7356 34.002 62.7356 34.002 62.3658 34.1261C62.1324 34.2986 62.1324 34.2986 61.9168 34.5167C61.842 34.587 61.7672 34.6574 61.6902 34.7299C61.5046 34.9497 61.5046 34.9497 61.5503 35.2258C61.6378 35.5005 61.6378 35.5005 61.8061 35.8251C61.977 36.2833 61.9919 36.585 61.8452 37.0423C61.7041 37.3474 61.5572 37.6459 61.398 37.9418C61.1891 38.3333 61.0589 38.6959 60.9535 39.1253C60.8203 39.5336 60.727 39.6297 60.3503 39.8555C59.9881 40.0265 59.6256 40.1394 59.2419 40.2709C59.2419 40.7864 59.2419 41.302 59.2419 41.8331C59.4588 41.9083 59.6757 41.9835 59.8992 42.061C60.54 42.283 60.54 42.283 60.7799 42.5886C60.9254 42.9135 61.0434 43.2396 61.1553 43.5776C61.3115 44.0316 61.4745 44.4418 61.7215 44.8534C61.938 45.2261 62.0316 45.4561 61.9493 45.8949C61.846 46.1383 61.7359 46.374 61.6137 46.6085C61.5149 46.8818 61.523 46.983 61.6369 47.2488C61.8093 47.4823 61.8093 47.4823 62.0274 47.698C62.0977 47.7728 62.1681 47.8475 62.2405 47.9246C62.4604 48.1103 62.4604 48.1103 62.7368 48.0645C63.0103 47.9775 63.0103 47.9775 63.329 47.8086C63.9303 47.5881 64.3675 47.639 64.9504 47.9022C65.1612 48.0107 65.371 48.1213 65.5797 48.2338C65.9103 48.3965 66.2296 48.5007 66.5832 48.6028C66.9818 48.7296 67.1314 48.7848 67.4227 49.0975C67.5938 49.4844 67.7469 49.8691 67.8848 50.2692C68.4346 50.2692 68.9844 50.2692 69.5509 50.2692C69.6282 50.0694 69.7055 49.8696 69.7852 49.6638C69.9559 49.2228 70.0681 48.9401 70.4881 48.7069C70.733 48.6176 70.9807 48.5359 71.23 48.4596C71.7212 48.3056 72.1739 48.138 72.6293 47.8933C73.0183 47.691 73.2708 47.5802 73.7162 47.6654C73.9594 47.7689 74.1952 47.8789 74.4296 48.0011C74.7027 48.0999 74.8041 48.0913 75.0699 47.9779C75.3912 47.7361 75.6618 47.4667 75.9029 47.1447C75.9278 46.7384 75.8032 46.529 75.6296 46.1618C75.4203 45.6195 75.5127 45.2375 75.7455 44.7119C75.8082 44.5953 75.8709 44.4788 75.9355 44.3587C76.1792 43.9046 76.364 43.4722 76.4952 42.9723C76.619 42.5984 76.6916 42.4855 77.0317 42.2754C77.3466 42.1439 77.659 42.0354 77.9856 41.9373C78.0543 41.9029 78.123 41.8685 78.1938 41.8331C78.1938 41.3176 78.1938 40.8021 78.1938 40.2709C77.9683 40.2065 77.7428 40.142 77.5105 40.0756C77.0236 39.8974 76.7239 39.6986 76.4952 39.2237C76.3333 38.8205 76.2056 38.4072 76.0802 37.9914C75.9837 37.7011 75.8455 37.4444 75.6947 37.179C75.469 36.7455 75.4456 36.4811 75.5905 36.0008C75.6456 35.8722 75.702 35.7442 75.7598 35.6168C75.9227 35.2272 75.9227 35.2272 75.7988 34.8552C75.6264 34.6217 75.6264 34.6217 75.4083 34.406C75.338 34.3313 75.2676 34.2565 75.1952 34.1794C74.9758 33.9941 74.9758 33.9941 74.703 34.0395C74.4086 34.1384 74.1294 34.2553 73.8471 34.3841C73.2188 34.5298 72.6709 34.2622 72.1217 33.9829C71.66 33.7553 71.224 33.5629 70.7224 33.4362C70.3038 33.3201 70.3038 33.3201 70.0846 33.0716C70.0459 32.9728 70.0073 32.874 69.9674 32.7722C69.8918 32.605 69.8159 32.4379 69.7396 32.271C69.6774 32.1271 69.6151 31.9831 69.5509 31.8349C69.0011 31.8349 68.4513 31.8349 67.8848 31.8349Z" fill="url(#paint2_linear_357_2447)"/>
<path d="M52.0741 50.3672C53.8395 51.8223 55.0037 53.6598 55.7405 55.8151C55.7653 55.8875 55.7902 55.96 55.8158 56.0347C56.7107 58.8138 56.3683 62.0633 55.069 64.6563C54.6047 65.5181 54.0464 66.2932 53.4105 67.0371C53.3608 67.1006 53.3112 67.1641 53.26 67.2295C51.5634 69.3579 48.6304 70.6507 45.9797 70.9654C42.6224 71.2248 39.579 70.3334 36.9911 68.1563C34.6503 66.1104 33.2346 63.2662 33.0007 60.1633C32.8448 56.9837 33.8193 54.0156 35.9164 51.6231C40.1254 47.009 47.1952 46.4402 52.0741 50.3672ZM38.3114 51.8314C38.2356 51.8921 38.1597 51.9528 38.0816 52.0153C36.878 53.0188 36.1289 54.2712 35.4999 55.6849C35.456 55.7809 35.4121 55.8769 35.3669 55.9758C34.4104 58.3042 34.6422 60.9884 35.5801 63.2749C36.6383 65.7019 38.6162 67.5933 41.0652 68.5737C41.9527 68.8848 42.8858 69.1836 43.8304 69.2242C43.9409 69.2296 44.0513 69.2349 44.1652 69.2405C46.8436 69.3079 49.4232 68.3986 51.3832 66.5586C53.2929 64.73 54.4209 62.344 54.5013 59.6891C54.5244 56.9566 53.623 54.5201 51.7184 52.538C49.813 50.608 47.4032 49.5284 44.683 49.5076C42.3254 49.502 40.1208 50.3109 38.3114 51.8314Z" fill="url(#paint3_linear_357_2447)"/>
<path d="M75.6205 51.6615C75.8154 51.6596 75.8154 51.6596 76.0143 51.6576C76.1552 51.6588 76.2961 51.6602 76.437 51.6617C76.5824 51.6617 76.7277 51.6614 76.873 51.661C77.1771 51.6607 77.481 51.6622 77.785 51.6651C78.1743 51.6686 78.5634 51.668 78.9527 51.666C79.2526 51.6649 79.5525 51.6659 79.8524 51.6674C79.9959 51.668 80.1395 51.6679 80.283 51.6673C80.4836 51.6667 80.6842 51.6691 80.8848 51.6717C80.9988 51.6723 81.1129 51.673 81.2304 51.6736C81.6229 51.7448 81.7132 51.8142 81.9426 52.1438C82.0066 52.5305 81.9987 52.9149 81.9955 53.3061C81.9961 53.4261 81.9968 53.5461 81.9974 53.6697C81.9988 54.0029 81.9983 54.336 81.997 54.6691C81.9961 55.0283 81.9975 55.3876 81.9987 55.7468C82.0005 56.4506 82.0001 57.1543 81.9989 57.8581C81.998 58.43 81.9978 59.0018 81.9983 59.5737C81.9984 59.655 81.9984 59.7364 81.9985 59.8202C81.9986 59.9854 81.9988 60.1506 81.9989 60.3158C82.0001 61.8658 81.9987 63.4157 81.9965 64.9657C81.9946 66.2961 81.9949 67.6266 81.9969 68.957C81.9991 70.5013 82 72.0457 81.9987 73.59C81.9986 73.7546 81.9984 73.9192 81.9983 74.0839C81.9982 74.1649 81.9982 74.2459 81.9981 74.3293C81.9977 74.9006 81.9984 75.4719 81.9993 76.0432C82.0005 76.7393 82.0002 77.4353 81.998 78.1314C81.9969 78.4867 81.9964 78.8419 81.9978 79.1972C81.999 79.582 81.9975 79.9666 81.9955 80.3514C81.9964 80.4642 81.9973 80.577 81.9983 80.6932C81.9903 81.4449 81.9903 81.4449 81.7498 81.7914C81.4457 81.9802 81.2307 81.9832 80.8736 81.9842C80.7415 81.9855 80.6095 81.9868 80.4734 81.9882C80.3297 81.9875 80.1859 81.9866 80.0422 81.9856C79.8943 81.9859 79.7465 81.9863 79.5987 81.9869C79.2892 81.9875 78.9797 81.9866 78.6701 81.9846C78.2737 81.9823 77.8774 81.9836 77.481 81.9861C77.1759 81.9876 76.8707 81.9871 76.5656 81.9861C76.4194 81.9858 76.2733 81.9861 76.1271 81.9871C75.9228 81.9882 75.7184 81.9863 75.5141 81.9842C75.3979 81.9839 75.2816 81.9836 75.1619 81.9832C74.8616 81.9303 74.8616 81.9303 74.6379 81.7911C74.3275 81.3446 74.3874 80.8871 74.3915 80.3561C74.3908 80.2366 74.39 80.1171 74.3893 79.994C74.3877 79.6622 74.388 79.3305 74.3891 78.9988C74.3898 78.641 74.3882 78.2833 74.3868 77.9256C74.3846 77.2247 74.3846 76.5238 74.3854 75.8229C74.3861 75.2533 74.386 74.6838 74.3853 74.1142C74.3852 74.0332 74.3851 73.9521 74.385 73.8687C74.3848 73.7041 74.3846 73.5395 74.3844 73.375C74.3827 71.831 74.3836 70.2871 74.3854 68.7431C74.3869 67.3302 74.3854 65.9173 74.3824 64.5044C74.3793 63.0541 74.3782 61.6038 74.3792 60.1535C74.3793 59.9895 74.3794 59.8255 74.3795 59.6615C74.3795 59.5808 74.3796 59.5001 74.3796 59.4169C74.3798 58.848 74.3788 58.2791 74.3773 57.7102C74.3755 57.0169 74.3755 56.3236 74.3779 55.6303C74.379 55.2765 74.3794 54.9227 74.3774 54.5689C74.3758 54.1855 74.3773 53.8022 74.3797 53.4188C74.3784 53.3068 74.3772 53.1947 74.3759 53.0792C74.3854 52.3282 74.3854 52.3282 74.6902 51.9185C75.0262 51.6852 75.2135 51.6619 75.6205 51.6615ZM76.2153 53.4978C76.2153 62.2962 76.2153 71.0947 76.2153 80.1598C77.5211 80.1598 78.8269 80.1598 80.1723 80.1598C80.1723 71.3613 80.1723 62.5629 80.1723 53.4978C78.8665 53.4978 77.5607 53.4978 76.2153 53.4978Z" fill="url(#paint4_linear_357_2447)"/>
<path d="M64.9585 57.116C65.0823 57.1154 65.206 57.1147 65.3334 57.114C65.4666 57.1144 65.5998 57.1149 65.7371 57.1153C65.9427 57.115 65.9427 57.115 66.1525 57.1147C66.4425 57.1144 66.7323 57.1148 67.0223 57.1158C67.3934 57.117 67.7646 57.1163 68.1357 57.1151C68.4903 57.1141 68.8449 57.1148 69.1995 57.1153C69.3993 57.1147 69.3993 57.1147 69.6031 57.114C69.7887 57.115 69.7887 57.115 69.978 57.116C70.0868 57.1162 70.1956 57.1163 70.3077 57.1165C70.5999 57.1437 70.7659 57.1893 71.0088 57.3513C71.2839 57.7641 71.2466 58.12 71.2449 58.5993C71.2453 58.6961 71.2458 58.793 71.2463 58.8928C71.2476 59.2188 71.2474 59.5447 71.2473 59.8707C71.2479 60.1039 71.2486 60.337 71.2494 60.5702C71.2512 61.2045 71.2517 61.8389 71.2518 62.4732C71.252 63.0023 71.2528 63.5313 71.2535 64.0603C71.2551 65.2369 71.2558 66.4135 71.2556 67.59C71.2556 67.6606 71.2556 67.7312 71.2556 67.804C71.2556 67.8747 71.2556 67.9454 71.2556 68.0182C71.2555 69.1641 71.2575 70.31 71.2604 71.4559C71.2634 72.6322 71.2648 73.8085 71.2647 74.9849C71.2646 75.6454 71.2652 76.3059 71.2674 76.9664C71.2694 77.5876 71.2695 78.2087 71.2679 78.8298C71.2677 79.058 71.2682 79.2862 71.2695 79.5144C71.2711 79.8255 71.2701 80.1365 71.2685 80.4476C71.2696 80.5382 71.2706 80.6289 71.2717 80.7223C71.2669 81.1427 71.2477 81.3591 71.0243 81.726C70.7245 81.9997 70.5505 81.9957 70.148 81.996C70.016 81.9973 69.8839 81.9987 69.7479 82C69.6041 81.9987 69.4604 81.9973 69.3166 81.9958C69.1688 81.9959 69.021 81.9962 68.8731 81.9966C68.5636 81.9969 68.2541 81.9953 67.9446 81.9925C67.5482 81.9889 67.1519 81.9896 66.7555 81.9915C66.4503 81.9926 66.1452 81.9917 65.84 81.9901C65.6939 81.9896 65.5477 81.9896 65.4016 81.9903C65.1972 81.9908 64.9929 81.9884 64.7885 81.9859C64.6723 81.9852 64.5561 81.9846 64.4364 81.9839C64.0673 81.918 63.9467 81.8066 63.7195 81.5137C63.583 81.1039 63.6003 80.7134 63.6008 80.2862C63.6005 80.1915 63.6002 80.0969 63.5998 79.9993C63.5989 79.6808 63.5988 79.3623 63.5986 79.0437C63.5981 78.8159 63.5976 78.588 63.5971 78.3602C63.5957 77.7402 63.595 77.1203 63.5946 76.5003C63.5943 76.1132 63.5938 75.7261 63.5934 75.339C63.5919 74.0588 63.5909 72.7786 63.5905 71.4984C63.5904 71.4293 63.5904 71.3603 63.5904 71.2892C63.5904 71.2201 63.5903 71.151 63.5903 71.0797C63.5899 69.9598 63.5881 68.84 63.5857 67.7201C63.5832 66.5702 63.5819 65.4204 63.5818 64.2706C63.5817 63.625 63.5811 62.9794 63.5792 62.3339C63.5775 61.7267 63.5773 61.1195 63.5782 60.5123C63.5782 60.2894 63.5778 60.0664 63.5768 59.8435C63.5754 59.5393 63.576 59.2351 63.5771 58.9309C63.5763 58.8426 63.5755 58.7542 63.5746 58.6632C63.5789 58.149 63.6449 57.7981 63.9278 57.3513C64.2535 57.1079 64.5603 57.1166 64.9585 57.116ZM65.4898 58.9135C65.4898 65.9248 65.4898 72.936 65.4898 80.1598C66.7956 80.1598 68.1014 80.1598 69.4468 80.1598C69.4468 73.1485 69.4468 66.1372 69.4468 58.9135C68.141 58.9135 66.8352 58.9135 65.4898 58.9135Z" fill="url(#paint5_linear_357_2447)"/>
<path d="M71.9109 36.2347C73.3004 37.2782 74.2159 38.4788 74.5073 40.2278C74.6724 41.947 74.1925 43.5101 73.1255 44.8665C72.1151 45.9721 70.5956 46.6558 69.1108 46.7493C67.3544 46.7735 65.7474 46.2424 64.4676 45.0044C63.1965 43.5784 62.9032 42.0527 62.9724 40.2082C63.0641 38.9508 63.825 37.6587 64.7381 36.8141C66.7394 35.1824 69.6845 34.7588 71.9109 36.2347ZM65.3612 38.8686C64.7201 39.7637 64.6463 40.7599 64.7608 41.8331C65.0082 42.8644 65.6741 43.7238 66.5311 44.3327C67.4759 44.9107 68.4873 45.1167 69.5765 44.886C70.7463 44.5614 71.544 43.9609 72.2583 42.9788C72.8116 41.9646 72.8863 40.9582 72.5707 39.8543C72.1029 38.6734 71.3594 37.895 70.2017 37.3743C68.3301 36.6903 66.5948 37.4089 65.3612 38.8686Z" fill="url(#paint6_linear_357_2447)"/>
<path d="M45.08 53.4978C45.2991 53.6631 45.2991 53.6631 45.4965 53.9144C45.5434 54.2514 45.5434 54.2514 45.538 54.6467C45.5385 54.7905 45.539 54.9344 45.5396 55.0783C45.5381 55.3039 45.5355 55.5294 45.5319 55.755C45.5291 55.9736 45.5301 56.192 45.5315 56.4107C45.5299 56.5411 45.5284 56.6715 45.5268 56.8059C45.5696 57.1708 45.5696 57.1708 45.9067 57.3864C46.0119 57.4435 46.117 57.5007 46.2254 57.5596C46.4754 57.8078 46.692 58.0762 46.8502 58.3927C46.9458 58.3937 47.0414 58.3947 47.1399 58.3957C47.4955 58.4003 47.851 58.4067 48.2065 58.4144C48.3602 58.4173 48.514 58.4195 48.6677 58.421C48.889 58.4232 49.1102 58.4281 49.3315 58.4334C49.4645 58.4356 49.5976 58.4378 49.7347 58.44C50.132 58.5058 50.2544 58.597 50.4948 58.9135C50.6066 59.2249 50.6113 59.3871 50.5274 59.7076C50.3684 59.9953 50.2576 60.1019 49.9742 60.2674C49.65 60.2992 49.65 60.2992 49.2721 60.2914C49.1353 60.2914 48.9985 60.2913 48.8576 60.2912C48.6414 60.2897 48.4253 60.287 48.2092 60.2814C47.3672 60.2295 47.3672 60.2295 46.63 60.5516C46.4783 60.7628 46.3532 60.9787 46.2254 61.2048C45.6755 61.6306 45.0815 61.8052 44.3901 61.7609C43.5837 61.6455 43.1666 61.3444 42.6467 60.7113C42.2444 60.1539 42.196 59.5815 42.2684 58.9135C42.4428 58.1533 42.8674 57.6734 43.518 57.2471C43.5867 57.2471 43.6555 57.2471 43.7263 57.2471C43.7246 57.1552 43.723 57.0633 43.7213 56.9686C43.716 56.626 43.7121 56.2834 43.7091 55.9408C43.7075 55.7928 43.7054 55.6448 43.7027 55.4969C43.6989 55.2836 43.6971 55.0703 43.6958 54.857C43.6941 54.7288 43.6925 54.6006 43.6908 54.4686C43.7293 54.0936 43.8128 53.9003 44.0387 53.6019C44.3645 53.4389 44.7271 53.4252 45.08 53.4978ZM44.3511 58.8093C44.1773 58.9859 44.1773 58.9859 44.0387 59.2259C44.038 59.5004 44.038 59.5004 44.1428 59.7467C44.4301 59.9858 44.4301 59.9858 44.722 59.9289C44.9915 59.8677 44.9915 59.8677 45.1841 59.6425C45.1505 59.2679 45.1505 59.2679 45.08 58.9135C44.8394 58.8791 44.5989 58.8447 44.3511 58.8093Z" fill="url(#paint7_linear_357_2447)"/>
<path d="M39.6651 63.9126C39.9843 64.1254 40.0631 64.271 40.1793 64.6351C40.1904 65.1813 39.8893 65.4746 39.5415 65.8654C39.2774 66.1206 39.0784 66.2609 38.7149 66.3276C38.3114 66.308 38.3114 66.308 38.0055 66.1518C37.7228 65.8091 37.679 65.6056 37.6866 65.1624C38.0983 64.3219 38.7148 63.7568 39.6651 63.9126Z" fill="url(#paint8_linear_357_2447)"/>
<path d="M51.0155 52.4563C51.3879 52.7178 51.5136 52.8773 51.6142 53.322C51.4876 53.9449 51.0718 54.3161 50.5969 54.7166C50.2728 54.9289 50.039 54.9046 49.6618 54.8517C49.2935 54.5931 49.1657 54.4294 49.0565 53.9925C49.2545 53.0784 50.0739 52.3426 51.0155 52.4563Z" fill="url(#paint9_linear_357_2447)"/>
<path d="M36.5217 58.4578C36.5958 58.4539 36.67 58.4501 36.7464 58.446C37.1631 58.4391 37.3514 58.4792 37.6846 58.7365C37.8949 59.0176 37.8949 59.0176 37.947 59.3887C37.8935 59.7561 37.8468 59.9087 37.5825 60.1633C37.2247 60.2826 36.9312 60.2924 36.5542 60.3C36.4278 60.3039 36.3013 60.3078 36.171 60.3118C35.7488 60.2596 35.5843 60.1544 35.2916 59.8508C35.1702 59.4334 35.1425 59.2204 35.3242 58.8224C35.6508 58.4109 36.0317 58.4674 36.5217 58.4578Z" fill="url(#paint10_linear_357_2447)"/>
<path d="M44.9759 49.9567C45.2565 50.1121 45.2565 50.1121 45.4965 50.3733C45.568 50.6705 45.5599 50.9545 45.5486 51.2586C45.549 51.3772 45.549 51.3772 45.5494 51.4982C45.5435 51.8367 45.5201 52.0987 45.3623 52.4009C45.1017 52.6342 44.8999 52.6549 44.5597 52.6825C44.2197 52.6533 44.0547 52.4927 43.8304 52.248C43.7147 51.9009 43.7088 51.6303 43.7067 51.2651C43.7053 51.1471 43.7038 51.0291 43.7023 50.9075C43.7256 50.5912 43.7572 50.4237 43.9345 50.165C44.3237 49.9055 44.5149 49.909 44.9759 49.9567Z" fill="url(#paint11_linear_357_2447)"/>
<path d="M44.9759 66.0997C45.3548 66.388 45.483 66.5432 45.5657 67.0175C45.567 67.1629 45.5656 67.3083 45.5616 67.4537C45.5646 67.5628 45.5646 67.5628 45.5677 67.6742C45.5638 68.0849 45.5087 68.2715 45.2516 68.5956C44.9759 68.8076 44.9759 68.8076 44.6635 68.8662C44.2824 68.7947 44.1062 68.6589 43.8304 68.391C43.6782 68.0866 43.7005 67.8121 43.6937 67.4732C43.6898 67.3458 43.6859 67.2184 43.6819 67.0871C43.7336 66.6649 43.8461 66.5017 44.1428 66.2039C44.4436 66.0535 44.6423 66.0605 44.9759 66.0997Z" fill="url(#paint12_linear_357_2447)"/>
<path d="M52.6621 58.4578C52.7362 58.4553 52.8104 58.4527 52.8868 58.4501C53.2671 58.448 53.4958 58.4856 53.8242 58.682C54.0758 58.9579 54.0971 59.159 54.1044 59.5282C53.9922 59.8829 53.8051 60.0412 53.5146 60.2674C53.1404 60.3329 53.1404 60.3329 52.7337 60.326C52.5994 60.3261 52.4652 60.3263 52.3269 60.3264C51.9031 60.2596 51.7288 60.1554 51.432 59.8508C51.3021 59.4693 51.2901 59.3051 51.4646 58.9395C51.8259 58.4576 52.0879 58.4589 52.6621 58.4578Z" fill="url(#paint13_linear_357_2447)"/>
<path d="M38.9362 52.4563C39.2458 52.6687 39.5063 52.9183 39.7693 53.1853C39.827 53.2386 39.8847 53.2919 39.9442 53.3468C40.1648 53.589 40.173 53.8018 40.1858 54.1227C40.0427 54.4225 39.8994 54.6173 39.6651 54.8517C39.3127 54.9272 39.1682 54.9519 38.8321 54.8517C38.3036 54.4645 37.8513 54.0789 37.7041 53.4253C37.6866 53.0797 37.6919 52.9387 37.8949 52.6646C38.2951 52.3977 38.4608 52.3861 38.9362 52.4563Z" fill="url(#paint14_linear_357_2447)"/>
<path d="M50.2317 63.8284C50.807 64.0125 51.1977 64.4711 51.5361 64.9541C51.6644 65.3568 51.5923 65.6504 51.432 66.0412C51.1768 66.2406 50.9418 66.3191 50.6189 66.3459C50.1545 66.2689 49.8661 65.9114 49.5576 65.579C49.4717 65.4909 49.3858 65.4029 49.2973 65.3121C49.0964 64.9855 49.0782 64.8108 49.1411 64.4334C49.3931 63.9292 49.6887 63.7986 50.2317 63.8284Z" fill="url(#paint15_linear_357_2447)"/>
<defs>
<filter id="filter0_d_357_2447" x="0" y="0" width="112" height="112" filterUnits="userSpaceOnUse" color-interpolation-filters="sRGB">
<feFlood flood-opacity="0" result="BackgroundImageFix"/>
<feColorMatrix in="SourceAlpha" type="matrix" values="0 0 0 0 0 0 0 0 0 0 0 0 0 0 0 0 0 0 127 0" result="hardAlpha"/>
<feOffset/>
<feGaussianBlur stdDeviation="5"/>
<feComposite in2="hardAlpha" operator="out"/>
<feColorMatrix type="matrix" values="0 0 0 0 0 0 0 0 0 0.396078 0 0 0 0 1 0 0 0 0.27 0"/>
<feBlend mode="normal" in2="BackgroundImageFix" result="effect1_dropShadow_357_2447"/>
<feBlend mode="normal" in="SourceGraphic" in2="effect1_dropShadow_357_2447" result="shape"/>
</filter>
<linearGradient id="paint0_linear_357_2447" x1="10" y1="10" x2="102" y2="102" gradientUnits="userSpaceOnUse">
<stop/>
<stop offset="1" stop-color="#0065FF"/>
</linearGradient>
<linearGradient id="paint1_linear_357_2447" x1="30" y1="30" x2="82" y2="82" gradientUnits="userSpaceOnUse">
<stop offset="0.1875"/>
<stop offset="1" stop-color="#0065FF"/>
</linearGradient>
<linearGradient id="paint2_linear_357_2447" x1="30" y1="30" x2="82" y2="82" gradientUnits="userSpaceOnUse">
<stop offset="0.1875"/>
<stop offset="1" stop-color="#0065FF"/>
</linearGradient>
<linearGradient id="paint3_linear_357_2447" x1="30" y1="30" x2="82" y2="82" gradientUnits="userSpaceOnUse">
<stop offset="0.1875"/>
<stop offset="1" stop-color="#0065FF"/>
</linearGradient>
<linearGradient id="paint4_linear_357_2447" x1="30" y1="30" x2="82" y2="82" gradientUnits="userSpaceOnUse">
<stop offset="0.1875"/>
<stop offset="1" stop-color="#0065FF"/>
</linearGradient>
<linearGradient id="paint5_linear_357_2447" x1="30" y1="30" x2="82" y2="82" gradientUnits="userSpaceOnUse">
<stop offset="0.1875"/>
<stop offset="1" stop-color="#0065FF"/>
</linearGradient>
<linearGradient id="paint6_linear_357_2447" x1="30" y1="30" x2="82" y2="82" gradientUnits="userSpaceOnUse">
<stop offset="0.1875"/>
<stop offset="1" stop-color="#0065FF"/>
</linearGradient>
<linearGradient id="paint7_linear_357_2447" x1="30" y1="30" x2="82" y2="82" gradientUnits="userSpaceOnUse">
<stop offset="0.1875"/>
<stop offset="1" stop-color="#0065FF"/>
</linearGradient>
<linearGradient id="paint8_linear_357_2447" x1="30" y1="30" x2="82" y2="82" gradientUnits="userSpaceOnUse">
<stop offset="0.1875"/>
<stop offset="1" stop-color="#0065FF"/>
</linearGradient>
<linearGradient id="paint9_linear_357_2447" x1="30" y1="30" x2="82" y2="82" gradientUnits="userSpaceOnUse">
<stop offset="0.1875"/>
<stop offset="1" stop-color="#0065FF"/>
</linearGradient>
<linearGradient id="paint10_linear_357_2447" x1="30" y1="30" x2="82" y2="82" gradientUnits="userSpaceOnUse">
<stop offset="0.1875"/>
<stop offset="1" stop-color="#0065FF"/>
</linearGradient>
<linearGradient id="paint11_linear_357_2447" x1="30" y1="30" x2="82" y2="82" gradientUnits="userSpaceOnUse">
<stop offset="0.1875"/>
<stop offset="1" stop-color="#0065FF"/>
</linearGradient>
<linearGradient id="paint12_linear_357_2447" x1="30" y1="30" x2="82" y2="82" gradientUnits="userSpaceOnUse">
<stop offset="0.1875"/>
<stop offset="1" stop-color="#0065FF"/>
</linearGradient>
<linearGradient id="paint13_linear_357_2447" x1="30" y1="30" x2="82" y2="82" gradientUnits="userSpaceOnUse">
<stop offset="0.1875"/>
<stop offset="1" stop-color="#0065FF"/>
</linearGradient>
<linearGradient id="paint14_linear_357_2447" x1="30" y1="30" x2="82" y2="82" gradientUnits="userSpaceOnUse">
<stop offset="0.1875"/>
<stop offset="1" stop-color="#0065FF"/>
</linearGradient>
<linearGradient id="paint15_linear_357_2447" x1="30" y1="30" x2="82" y2="82" gradientUnits="userSpaceOnUse">
<stop offset="0.1875"/>
<stop offset="1" stop-color="#0065FF"/>
</linearGradient>
</defs>
</svg>
