<svg width="151" height="151" viewBox="0 0 151 151" fill="none" xmlns="http://www.w3.org/2000/svg">
<g filter="url(#filter0_d_357_2438)">
<path d="M121.5 75.5C121.5 100.905 100.905 121.5 75.5 121.5C50.0949 121.5 29.5 100.905 29.5 75.5C29.5 50.0949 50.0949 29.5 75.5 29.5C100.905 29.5 121.5 50.0949 121.5 75.5Z" fill="white"/>
<path d="M75.5 30.5C100.353 30.5 120.5 50.6472 120.5 75.5C120.5 100.353 100.353 120.5 75.5 120.5C50.6472 120.5 30.5 100.353 30.5 75.5C30.5 50.6472 50.6472 30.5 75.5 30.5Z" stroke="url(#paint0_linear_357_2438)" stroke-width="2"/>
</g>
<path d="M66.1596 60.4871C67.3143 61.4355 67.9862 62.876 68.1866 64.3384C68.2704 65.4875 68.083 66.4811 67.7812 67.5816C67.8868 67.5068 67.9923 67.4319 68.1011 67.3548C68.888 66.7976 69.6771 66.2442 70.4726 65.6994C71.0809 65.2824 71.6862 64.8613 72.2913 64.4397C72.6798 64.1694 73.0683 63.8991 73.4569 63.6289C73.5359 63.574 73.615 63.519 73.6965 63.4623C74.0937 63.1864 74.492 62.912 74.8924 62.6406C75.0201 62.5538 75.1474 62.4665 75.2745 62.3789C75.4659 62.2473 75.6584 62.1176 75.8513 61.9883C75.9613 61.9137 76.0713 61.8391 76.1847 61.7623C76.5403 61.5799 76.7127 61.5292 77.1055 61.6019C77.6604 61.9669 78.0097 62.4724 78.3914 63.0082C78.5155 63.1807 78.6397 63.3532 78.764 63.5256C78.8255 63.6112 78.8869 63.6969 78.9503 63.7851C79.1201 64.0173 79.2946 64.2443 79.4726 64.4702C79.5245 64.5371 79.5763 64.6039 79.6297 64.6728C79.726 64.7965 79.8237 64.9192 79.923 65.0405C80.1546 65.3425 80.2825 65.5953 80.3084 65.9715C80.2333 66.4567 80.1205 66.5699 79.7407 66.8722C79.6869 66.9156 79.6332 66.9589 79.5778 67.0036C79.394 67.1494 79.207 67.2899 79.0185 67.4296C78.9484 67.4819 78.8784 67.5343 78.8061 67.5882C78.1857 68.0473 77.5493 68.4815 76.9099 68.9137C76.3897 69.2669 75.8826 69.6328 75.3826 70.0141C74.7245 70.5159 74.0479 70.9843 73.3623 71.4476C72.7743 71.8469 72.2053 72.2657 71.6403 72.6966C71.0322 73.1572 70.4049 73.5875 69.7722 74.0135C69.6963 74.0647 69.6204 74.1159 69.5422 74.1687C69.4761 74.2129 69.41 74.2572 69.3419 74.3028C69.2617 74.3592 69.1814 74.4155 69.0988 74.4735C69.0313 74.5119 68.9638 74.5504 68.8942 74.59C68.5716 74.7921 68.3322 74.9431 68.2133 75.3158C68.1844 75.6003 68.1809 75.8749 68.1866 76.1609C68.1855 76.2635 68.1844 76.3661 68.1833 76.4718C68.1806 76.7982 68.1836 77.1243 68.1866 77.4507C68.1858 77.6725 68.1846 77.8944 68.1831 78.1162C68.18 78.6588 68.1816 79.2012 68.1866 79.7438C68.252 79.7431 68.3175 79.7424 68.3849 79.7417C69.0722 79.735 69.7596 79.7304 70.447 79.7271C70.7027 79.7256 70.9585 79.7235 71.2142 79.7208C75.0667 79.682 75.0667 79.682 76.4281 80.9814C77.6586 82.3092 77.7618 83.7813 77.7433 85.5105C77.7428 85.6698 77.7423 85.8291 77.742 85.9884C77.7409 86.4026 77.7379 86.8168 77.7345 87.231C77.7314 87.6557 77.73 88.0804 77.7285 88.5051C77.7252 89.3347 77.7201 90.1642 77.7136 90.9938C77.8116 90.9931 77.9095 90.9924 78.0103 90.9917C78.9334 90.9855 79.8565 90.981 80.7796 90.978C81.2542 90.9764 81.7287 90.9743 82.2033 90.9708C82.6613 90.9675 83.1193 90.9657 83.5774 90.9649C83.752 90.9644 83.9267 90.9633 84.1014 90.9616C84.3462 90.9594 84.591 90.9591 84.8358 90.9592C84.944 90.9576 84.944 90.9576 85.0543 90.9559C85.617 90.9594 85.9352 91.1072 86.3285 91.5005C86.3502 91.797 86.3593 92.084 86.3595 92.3807C86.3604 92.4719 86.3612 92.563 86.3621 92.6569C86.3645 92.9594 86.3654 93.2619 86.3661 93.5644C86.367 93.7742 86.3679 93.984 86.3689 94.1938C86.3705 94.6342 86.3713 95.0746 86.3716 95.515C86.3722 96.0795 86.376 96.6438 86.3806 97.2082C86.3836 97.6418 86.3844 98.0754 86.3845 98.509C86.3849 98.7171 86.3862 98.9251 86.3883 99.1332C86.391 99.4244 86.3905 99.7154 86.3892 100.007C86.3915 100.136 86.3915 100.136 86.3938 100.267C86.3928 100.347 86.3918 100.427 86.3908 100.509C86.391 100.578 86.3912 100.646 86.3914 100.717C86.2877 101.062 86.1016 101.214 85.8217 101.433C85.4772 101.496 85.4772 101.496 85.0748 101.497C85.0006 101.497 84.9263 101.498 84.8498 101.499C84.6016 101.501 84.3535 101.499 84.1053 101.497C83.9271 101.497 83.749 101.498 83.5708 101.499C83.0873 101.501 82.6038 101.5 82.1203 101.498C81.6145 101.496 81.1087 101.497 80.6028 101.497C79.7534 101.498 78.9041 101.496 78.0547 101.493C77.0724 101.49 76.0901 101.49 75.1077 101.492C74.163 101.494 73.2183 101.493 72.2737 101.491C71.8714 101.49 71.4693 101.491 71.067 101.491C70.5936 101.492 70.1202 101.491 69.6468 101.488C69.4729 101.487 69.299 101.487 69.1251 101.488C68.888 101.489 68.651 101.487 68.4139 101.485C68.2812 101.485 68.1484 101.485 68.0117 101.484C67.6262 101.425 67.5086 101.333 67.2745 101.028C67.1102 100.642 67.1574 100.2 67.1568 99.7872C67.1563 99.7033 67.1558 99.6194 67.1553 99.5329C67.1538 99.2555 67.1531 98.9782 67.1525 98.7008C67.1519 98.5077 67.1514 98.3145 67.1508 98.1214C67.1497 97.7164 67.1491 97.3115 67.1488 96.9065C67.1482 96.3885 67.1458 95.8705 67.1429 95.3525C67.141 94.9535 67.1405 94.5545 67.1403 94.1555C67.14 93.9646 67.1392 93.7737 67.1379 93.5827C67.1361 93.3152 67.1363 93.0477 67.137 92.7801C67.1361 92.7018 67.1351 92.6235 67.1342 92.5428C67.1381 92.0221 67.2357 91.6599 67.4772 91.1965C67.8007 90.9375 68.1401 90.9703 68.5429 90.974C68.6572 90.9745 68.7714 90.975 68.8891 90.9755C69.0335 90.9773 69.178 90.9792 69.3268 90.9811C70.0166 90.9874 70.0166 90.9874 70.7204 90.9938C70.7204 89.589 70.7204 88.1843 70.7204 86.737C68.7471 86.737 66.7738 86.737 64.7407 86.737C64.7431 87.3732 64.7431 87.3732 64.7455 88.0222C64.7505 89.4219 64.7539 90.8215 64.7564 92.2212C64.758 93.07 64.7601 93.9188 64.7636 94.7676C64.7667 95.5074 64.7686 96.2472 64.7693 96.9871C64.7697 97.3788 64.7706 97.7705 64.7728 98.1622C64.7749 98.531 64.7755 98.8998 64.7751 99.2685C64.7752 99.4683 64.7768 99.668 64.7785 99.8677C64.7781 99.987 64.7777 100.106 64.7773 100.229C64.7775 100.332 64.7778 100.436 64.7781 100.542C64.7343 100.873 64.6321 101.064 64.4366 101.332C64.1674 101.466 63.9606 101.448 63.6591 101.451C63.5387 101.452 63.4183 101.453 63.2942 101.455C63.1635 101.456 63.0328 101.456 62.8982 101.457C62.7644 101.458 62.6307 101.459 62.4929 101.46C62.2095 101.461 61.9262 101.462 61.6428 101.463C61.2799 101.464 60.9171 101.467 60.5543 101.471C60.2752 101.474 59.9961 101.475 59.717 101.475C59.5182 101.476 59.3195 101.479 59.1207 101.481C58.9997 101.481 58.8786 101.481 58.7539 101.481C58.5941 101.481 58.5941 101.481 58.4311 101.482C58.0715 101.418 57.9716 101.313 57.7475 101.028C57.696 100.731 57.696 100.731 57.6949 100.379C57.6934 100.245 57.692 100.111 57.6906 99.9737C57.6911 99.8259 57.6916 99.678 57.6921 99.5301C57.6912 99.3743 57.6902 99.2185 57.689 99.0626C57.6861 98.6397 57.6858 98.2167 57.6859 97.7938C57.6856 97.3517 57.683 96.9097 57.6806 96.4676C57.6765 95.6306 57.6744 94.7935 57.6731 93.9565C57.6715 93.0035 57.6676 92.0506 57.6635 91.0976C57.6552 89.1373 57.6497 87.177 57.6461 85.2167C57.5838 85.3095 57.5215 85.4023 57.4573 85.4978C57.3745 85.6195 57.2918 85.7412 57.209 85.8629C57.1681 85.924 57.1271 85.9851 57.0849 86.0481C56.8831 86.3434 56.731 86.5363 56.4299 86.737C55.7666 86.8382 55.7666 86.8382 55.4322 86.6089C55.3398 86.5236 55.3398 86.5236 55.2454 86.4367C55.1397 86.3397 55.1397 86.3397 55.0319 86.2408C54.6379 85.865 54.2489 85.4847 53.8636 85.1C53.7326 84.9694 53.7326 84.9694 53.5988 84.8361C53.4152 84.6531 53.2318 84.4698 53.0484 84.2865C52.7692 84.0075 52.4892 83.7293 52.2092 83.4512C52.03 83.2724 51.851 83.0935 51.6719 82.9146C51.5889 82.8323 51.5059 82.75 51.4204 82.6653C50.2888 81.5291 49.5502 80.4472 49.5 78.8063C49.5316 76.932 50.6045 75.8128 51.8239 74.5282C51.9999 74.3408 52.1699 74.1488 52.3378 73.9541C52.631 73.6143 52.9333 73.2833 53.2373 72.9532C53.5453 72.6188 53.8517 72.2834 54.1495 71.9397C54.4941 71.5421 54.8502 71.1554 55.2069 70.7687C55.5435 70.403 55.8715 70.0311 56.1927 69.6518C56.3923 69.4394 56.5021 69.4071 56.7949 69.3961C56.896 69.3972 56.9972 69.3984 57.1013 69.3996C57.203 69.4005 57.3046 69.4015 57.4094 69.4024C57.4875 69.4036 57.5656 69.4047 57.6461 69.406C57.5935 69.3372 57.5408 69.2685 57.4866 69.1977C57.0272 68.5847 56.6224 67.9867 56.3285 67.2776C56.2961 67.1996 56.2637 67.1216 56.2304 67.0412C55.7262 65.5592 55.9088 63.825 56.5312 62.4127C56.7402 62.0166 56.9729 61.6564 57.2407 61.2979C57.285 61.234 57.3293 61.1701 57.3749 61.1043C58.2095 60.004 59.6778 59.2836 61.0034 59.0365C62.9302 58.7769 64.6542 59.2651 66.1596 60.4871ZM60.8893 60.9938C60.8164 61.0138 60.7435 61.0338 60.6684 61.0544C60.1224 61.2318 59.7019 61.5363 59.2677 61.906C59.2047 61.9593 59.1418 62.0126 59.0769 62.0675C58.361 62.7245 57.9045 63.6598 57.8112 64.627C57.7719 65.9651 58.0502 67.0367 58.947 68.073C59.7689 68.8904 60.8274 69.3572 61.9832 69.4151C63.3153 69.3777 64.3696 68.9208 65.2854 67.9554C65.987 67.1087 66.4267 66.0898 66.3869 64.9754C66.2431 63.619 65.7463 62.5507 64.6837 61.6748C63.5462 60.8727 62.2298 60.6219 60.8893 60.9938ZM75.921 64.1674C75.4691 64.505 75.0124 64.8313 74.5464 65.1492C73.8599 65.6188 73.1765 66.0926 72.4941 66.5681C71.8366 67.0261 71.1786 67.4833 70.5177 67.9364C69.8468 68.3966 69.1779 68.8596 68.5097 69.3236C68.4141 69.3898 68.3185 69.4561 68.2201 69.5243C68.0324 69.6548 67.8451 69.7859 67.6583 69.9177C67.4651 70.0529 67.2702 70.1857 67.0739 70.3163C66.4653 70.7323 66.083 71.0779 65.7795 71.7497C65.7408 71.8289 65.7021 71.908 65.6622 71.9896C65.5739 72.1703 65.4867 72.3516 65.4005 72.5333C65.2216 72.9057 65.0361 73.2743 64.8496 73.6429C64.5766 74.1832 64.304 74.7236 64.034 75.2653C63.9773 75.3789 63.9206 75.4924 63.8622 75.6094C63.7207 75.8911 63.7207 75.8911 63.6258 76.1965C63.4681 76.2274 63.3095 76.254 63.1507 76.2788C63.0626 76.2941 62.9744 76.3094 62.8835 76.3252C62.5661 76.2932 62.4572 76.1929 62.2419 75.966C61.9585 75.6024 61.772 75.1828 61.5719 74.7697C61.4991 74.6226 61.4991 74.6226 61.4248 74.4726C61.2707 74.1609 61.118 73.8485 60.9654 73.536C60.811 73.2223 60.6564 72.9086 60.5016 72.5951C60.4055 72.4002 60.3097 72.2052 60.2143 72.01C60.1713 71.9224 60.1283 71.8348 60.084 71.7445C60.0461 71.667 60.0083 71.5895 59.9693 71.5097C59.8884 71.3342 59.8884 71.3342 59.7745 71.2303C58.3698 71.0379 58.3698 71.0379 57.0231 71.337C56.6352 71.6408 56.3865 72.0335 56.1258 72.4465C56.0106 72.5842 55.8926 72.7197 55.7711 72.8519C55.7165 72.9149 55.6619 72.9778 55.6056 73.0427C55.3173 73.3697 55.0215 73.6898 54.7264 74.0107C54.3517 74.4182 53.9801 74.8285 53.6107 75.2408C53.4607 75.4077 53.3099 75.5739 53.1585 75.7396C51.7763 77.2055 51.7763 77.2055 51.3022 79.0996C51.4757 80.0802 52.09 80.7453 52.7832 81.4169C52.9138 81.5463 52.9138 81.5463 53.0469 81.6784C53.3225 81.9511 53.5997 82.222 53.8771 82.4929C54.0653 82.6786 54.2535 82.8644 54.4415 83.0504C54.9002 83.5036 55.3604 83.9553 55.8218 84.4059C56.1837 84.0487 56.5118 83.6878 56.8226 83.2847C56.9039 83.1811 56.9851 83.0775 57.0689 82.9708C57.2643 82.7094 57.2643 82.7094 57.2178 82.481C57.0822 82.1294 56.7868 81.8991 56.5186 81.6441C56.3975 81.5262 56.2766 81.4081 56.1559 81.2898C56.0978 81.233 56.0398 81.1761 55.9799 81.1176C55.7295 80.868 55.4978 80.6051 55.2711 80.3341C55.1102 80.1421 55.1102 80.1421 54.9124 79.9485C54.3567 79.3773 54.3567 79.3773 54.3142 78.933C54.3872 78.3934 54.7512 78.1006 55.1123 77.7168C55.1626 77.6632 55.2129 77.6097 55.2646 77.5545C55.6294 77.1673 55.9989 76.785 56.3715 76.4054C56.5038 76.2699 56.6353 76.1335 56.7659 75.9964C56.9568 75.7963 57.1503 75.5989 57.3444 75.4019C57.4018 75.3407 57.4591 75.2795 57.5182 75.2164C57.9106 74.8259 58.2122 74.7018 58.7642 74.6591C58.9637 74.6762 58.9637 74.6762 59.217 74.8536C59.4301 75.1732 59.4831 75.4261 59.4845 75.8014C59.485 75.8864 59.4856 75.9714 59.4862 76.0589C59.4863 76.1523 59.4864 76.2456 59.4865 76.3418C59.4872 76.4906 59.4872 76.4906 59.488 76.6424C59.4895 76.9762 59.4904 77.31 59.4912 77.6438C59.4922 77.8825 59.4932 78.1212 59.4943 78.3599C59.497 79.0092 59.4991 79.6585 59.5012 80.3078C59.5031 80.9173 59.5056 81.5267 59.508 82.1361C59.5129 83.3433 59.5173 84.5506 59.5214 85.7578C59.5254 86.9306 59.5296 88.1034 59.534 89.2762C59.5343 89.3484 59.5346 89.4207 59.5349 89.4952C59.5363 89.8577 59.5377 90.2203 59.539 90.5829C59.5506 93.5915 59.5614 96.6 59.5718 99.6086C60.6755 99.6086 61.7792 99.6086 62.9164 99.6086C62.9178 99.184 62.9193 98.7593 62.9208 98.3218C62.9259 96.9209 62.9327 95.52 62.9403 94.1191C62.9448 93.2695 62.9488 92.42 62.9515 91.5703C62.9538 90.8299 62.9572 90.0895 62.9618 89.349C62.9643 88.9569 62.9662 88.5648 62.9668 88.1727C62.9674 87.8036 62.9694 87.4346 62.9725 87.0656C62.9739 86.8655 62.9737 86.6654 62.9735 86.4653C62.9754 86.2866 62.9754 86.2866 62.9773 86.1044C62.9778 86.0009 62.9782 85.8973 62.9787 85.7907C63.0235 85.4807 63.1093 85.3419 63.3218 85.1154C63.6878 84.9569 64.1054 84.9991 64.4985 84.9993C64.5757 84.999 64.6529 84.9986 64.7324 84.9983C64.9872 84.9973 65.242 84.9971 65.4969 84.997C65.6743 84.9967 65.8518 84.9963 66.0293 84.996C66.4013 84.9954 66.7732 84.9952 67.1452 84.9953C67.6212 84.9953 68.0972 84.9939 68.5731 84.9921C68.9397 84.991 69.3063 84.9908 69.6729 84.9909C69.8483 84.9907 70.0238 84.9903 70.1992 84.9895C70.4449 84.9885 70.6906 84.9888 70.9363 84.9894C71.0084 84.9888 71.0804 84.9883 71.1546 84.9877C71.5879 84.9904 71.939 85.0585 72.342 85.2167C72.4217 85.5709 72.458 85.9022 72.4642 86.2648C72.4662 86.3703 72.4682 86.4758 72.4703 86.5844C72.4729 86.7534 72.4729 86.7534 72.4754 86.9259C72.4776 87.0421 72.4797 87.1584 72.4818 87.2782C72.4884 87.6489 72.4944 88.0196 72.5004 88.3903C72.5048 88.6419 72.5092 88.8935 72.5136 89.1451C72.5246 89.7613 72.5346 90.3775 72.5447 90.9938C73.6484 90.9938 74.7522 90.9938 75.8893 90.9938C75.8982 89.7576 75.8982 89.7576 75.9042 88.5213C75.906 88.0165 75.9081 87.5116 75.9123 87.0068C75.9156 86.5993 75.9174 86.1919 75.9182 85.7845C75.9187 85.6297 75.9198 85.475 75.9215 85.3202C75.9334 84.1576 75.913 83.1233 75.0749 82.2463C74.425 81.6868 73.7312 81.558 72.8915 81.5489C72.7586 81.5472 72.6257 81.5455 72.4888 81.5438C72.383 81.5427 72.383 81.5427 72.2751 81.5417C72.0536 81.5396 71.8321 81.5368 71.6106 81.5339C71.0608 81.5269 70.511 81.5208 69.9613 81.5148C69.4958 81.5096 69.0305 81.5041 68.5651 81.498C68.3468 81.4953 68.1286 81.4932 67.9104 81.4911C67.7781 81.4894 67.6459 81.4877 67.5096 81.486C67.393 81.4847 67.2763 81.4834 67.1562 81.4821C66.8691 81.4667 66.8691 81.4667 66.565 81.3654C66.4286 81.0299 66.4495 80.6749 66.4473 80.3173C66.4464 80.187 66.4454 80.0568 66.4444 79.9226C66.4439 79.7808 66.4434 79.639 66.4431 79.4971C66.4425 79.3512 66.4419 79.2053 66.4413 79.0594C66.4403 78.7538 66.4397 78.4482 66.4393 78.1426C66.4388 77.7516 66.4363 77.3606 66.4334 76.9696C66.4315 76.6683 66.431 76.3671 66.4309 76.0658C66.4306 75.9217 66.4297 75.7775 66.4284 75.6334C66.4267 75.4316 66.4271 75.2298 66.4275 75.028C66.427 74.856 66.427 74.856 66.4264 74.6805C66.4776 74.2567 66.6301 73.9834 66.9533 73.7062C67.022 73.6614 67.0908 73.6166 67.1616 73.5705C67.2392 73.5189 67.3167 73.4674 67.3966 73.4143C67.4796 73.3604 67.5627 73.3065 67.6482 73.251C68.2807 72.8301 68.9011 72.4017 69.5042 71.9397C70.1621 71.4378 70.8389 70.9695 71.5245 70.5062C72.0446 70.153 72.5516 69.7872 73.0515 69.406C73.7086 68.9048 74.3842 68.4369 75.0689 67.9744C75.6857 67.5556 76.2852 67.1177 76.8775 66.6651C77.2492 66.3814 77.6257 66.1138 78.0177 65.8587C77.8546 65.3616 77.57 64.9771 77.2639 64.5601C77.2142 64.4899 77.1645 64.4197 77.1133 64.3473C77.0406 64.2478 77.0406 64.2478 76.9666 64.1464C76.9008 64.0557 76.9008 64.0557 76.8338 63.9632C76.5039 63.6386 76.2113 63.9455 75.921 64.1674ZM61.9029 71.2303C62.0746 71.7516 62.0746 71.7516 62.3027 72.2303C62.3386 72.297 62.3746 72.3636 62.4116 72.4322C62.4486 72.4997 62.4855 72.5671 62.5236 72.6365C62.5614 72.7063 62.5991 72.7761 62.638 72.8479C62.7304 73.0184 62.8233 73.1886 62.9164 73.3587C63.2459 72.9719 63.4349 72.5241 63.6448 72.0664C63.7723 71.7905 63.8999 71.5146 64.0312 71.2303C63.3289 71.2303 62.6265 71.2303 61.9029 71.2303ZM57.3923 77.9606C57.2887 78.0649 57.1854 78.1694 57.0823 78.2742C57.0296 78.3274 56.9769 78.3805 56.9226 78.4353C56.7919 78.5672 56.6615 78.6994 56.5312 78.8316C56.6718 79.2642 56.8711 79.5113 57.1964 79.8261C57.278 79.9062 57.3597 79.9863 57.4438 80.0688C57.6133 80.2618 57.6133 80.2618 57.7475 80.2505C57.7475 79.4144 57.7475 78.5782 57.7475 77.7168C57.5996 77.705 57.5996 77.705 57.3923 77.9606ZM69.0988 92.8181C69.0988 95.059 69.0988 97.2998 69.0988 99.6086C74.1826 99.6086 79.2663 99.6086 84.5042 99.6086C84.5042 97.3677 84.5042 95.1269 84.5042 92.8181C79.4204 92.8181 74.3366 92.8181 69.0988 92.8181Z" fill="url(#paint1_linear_357_2438)"/>
<path d="M93.6258 49.5411C93.8722 49.7307 93.9948 49.8737 94.1325 50.1492C94.1625 50.3812 94.1894 50.6135 94.2149 50.846C94.4276 52.5475 95.1245 54.01 96.4636 55.1154C97.5352 55.8709 98.6564 56.2629 99.9583 56.3371C100.336 56.3682 100.515 56.4306 100.815 56.6674C101.092 57.0283 101.092 57.0283 101.081 57.3515C101.017 57.7992 100.966 57.8856 100.619 58.156C100.345 58.2257 100.345 58.2257 100.03 58.2573C98.259 58.4896 96.674 59.0534 95.5198 60.4708C94.6667 61.5995 94.3 62.7861 94.1987 64.1868C94.1242 64.5856 94.0091 64.7616 93.7271 65.0479C93.4454 65.1887 93.2286 65.1679 92.9163 65.1492C92.6623 65.0645 92.549 65.0057 92.404 64.7802C92.2778 64.4651 92.254 64.1691 92.2195 63.8316C92.0268 62.2118 91.3781 60.6899 90.0943 59.6442C88.9803 58.8235 87.8293 58.4368 86.458 58.3036C86.1409 58.2594 85.9025 58.2017 85.619 58.0546C85.405 57.7335 85.3827 57.5345 85.3597 57.1559C85.4541 56.7956 85.6294 56.6566 85.9231 56.433C86.2383 56.3441 86.5541 56.3171 86.8796 56.2873C88.2586 56.1185 89.3563 55.6789 90.3825 54.71C90.4543 54.6425 90.526 54.5749 90.5999 54.5054C91.6519 53.4212 92.1567 51.9933 92.2449 50.504C92.2756 50.1475 92.3103 50.0448 92.5172 49.7312C92.9345 49.4649 93.1358 49.4711 93.6258 49.5411ZM93.119 54.2033C92.9663 54.3972 92.9663 54.3972 92.8086 54.6467C92.1232 55.6507 91.3502 56.413 90.3319 57.0664C90.2482 57.125 90.1646 57.1835 90.0785 57.2438C90.0785 57.3107 90.0785 57.3776 90.0785 57.4465C90.2492 57.5652 90.4256 57.6758 90.6042 57.7822C91.0308 58.0443 91.3598 58.3004 91.7001 58.6627C91.767 58.6627 91.8339 58.6627 91.9028 58.6627C91.9291 58.7203 91.9553 58.778 91.9824 58.8373C92.1169 59.0895 92.2746 59.2954 92.4539 59.5179C92.656 59.7719 92.833 60.0107 92.9987 60.2907C93.0384 60.3555 93.0781 60.4203 93.119 60.4871C93.1859 60.4871 93.2528 60.4871 93.3217 60.4871C93.4385 60.3207 93.5469 60.1484 93.6511 59.974C94.3403 58.8673 95.1981 58.0539 96.3623 57.4465C96.2429 57.0883 96.1744 57.0643 95.8618 56.8764C94.7656 56.1682 94.0387 55.2787 93.3217 54.2033C93.2548 54.2033 93.1879 54.2033 93.119 54.2033Z" fill="url(#paint2_linear_357_2438)"/>
<path d="M89.2773 63.5473C89.5824 63.6763 89.7157 63.9027 89.9075 64.1674C89.9802 64.2652 90.053 64.3631 90.128 64.4639C90.2812 64.7438 90.2812 64.7438 90.2621 64.9462C90.1596 65.1993 90.0515 65.2797 89.8279 65.4343C89.7543 65.4861 89.6806 65.538 89.6048 65.5914C89.5249 65.6462 89.445 65.7009 89.3627 65.7573C89.1946 65.8754 89.0266 65.9937 88.8587 66.112C88.7739 66.1715 88.6891 66.2309 88.6017 66.2922C88.2439 66.5459 87.8941 66.8098 87.5447 67.0749C86.9068 67.5565 86.2613 68.0266 85.6124 68.4933C84.3196 69.424 83.0393 70.3722 81.7677 71.3316C81.3613 71.1766 81.1772 70.9247 80.9252 70.5778C80.8524 70.4797 80.7797 70.3816 80.7047 70.2805C80.6541 70.1926 80.6036 70.1047 80.5515 70.0141C80.6635 69.678 80.7162 69.6367 80.9941 69.442C81.0661 69.3908 81.1382 69.3397 81.2124 69.287C81.2911 69.2322 81.3699 69.1774 81.451 69.1209C81.6188 69.002 81.7865 68.8829 81.9542 68.7638C82.0409 68.7024 82.1276 68.6411 82.217 68.5778C82.626 68.2864 83.0299 67.988 83.4336 67.6893C83.595 67.5702 83.7564 67.451 83.9178 67.3318C83.9979 67.2727 84.078 67.2135 84.1605 67.1525C84.5619 66.856 84.9638 66.5601 85.3657 66.2641C85.5247 66.1469 85.6837 66.0297 85.8427 65.9125C86.1781 65.6654 86.5136 65.4183 86.8491 65.1714C86.9777 65.0767 86.9777 65.0767 87.1088 64.9802C87.2712 64.8606 87.4337 64.741 87.5962 64.6215C87.7077 64.5394 87.7077 64.5394 87.8214 64.4556C87.8933 64.4031 87.9652 64.3505 88.0393 64.2964C88.1871 64.1859 88.3324 64.0722 88.4757 63.956C88.5465 63.8993 88.6172 63.8426 88.6901 63.7841C88.7525 63.7325 88.815 63.6808 88.8794 63.6276C89.065 63.5276 89.065 63.5276 89.2773 63.5473Z" fill="url(#paint3_linear_357_2438)"/>
<path d="M85.619 59.1695C85.7194 59.1695 85.8197 59.1695 85.9231 59.1695C86.0958 59.4033 86.2482 59.6312 86.3982 59.8789C86.4403 59.9466 86.4824 60.0143 86.5258 60.084C86.63 60.2515 86.7327 60.4199 86.8352 60.5884C86.569 60.8674 86.3041 61.0941 85.9825 61.3064C85.8949 61.3646 85.8073 61.4227 85.717 61.4827C85.6231 61.5442 85.5293 61.6058 85.4326 61.6692C85.3354 61.7334 85.2381 61.7976 85.138 61.8637C84.9328 61.999 84.7274 62.1341 84.5218 62.269C84.2075 62.4754 83.8939 62.6827 83.5803 62.8902C83.3806 63.0217 83.1809 63.1531 82.9811 63.2845C82.8875 63.3465 82.7938 63.4084 82.6973 63.4723C82.6094 63.5298 82.5215 63.5873 82.4309 63.6466C82.354 63.6971 82.2771 63.7477 82.1979 63.7998C81.9704 63.933 81.9704 63.933 81.4636 64.1357C81.1626 63.6675 80.8616 63.1992 80.5515 62.7168C80.8946 62.3736 81.1354 62.1377 81.5235 61.8843C81.6124 61.8258 81.7013 61.7673 81.793 61.7071C81.9349 61.615 81.9349 61.615 82.0797 61.5211C82.1777 61.4569 82.2757 61.3926 82.3767 61.3264C82.6885 61.122 83.0009 60.9185 83.3133 60.7151C83.627 60.51 83.9407 60.3048 84.2542 60.0995C84.4491 59.9719 84.6441 59.8446 84.8393 59.7174C84.9707 59.6316 84.9707 59.6316 85.1049 59.5441C85.1823 59.4936 85.2598 59.4432 85.3396 59.3912C85.5121 59.2828 85.5121 59.2828 85.619 59.1695Z" fill="url(#paint4_linear_357_2438)"/>
<path d="M78.6171 71.3293C78.9397 71.4875 79.1086 71.7606 79.3099 72.0474C79.3516 72.105 79.3933 72.1625 79.4362 72.2218C79.5387 72.3636 79.6398 72.5063 79.7407 72.6492C79.3057 73.1196 78.8118 73.477 78.2901 73.8464C78.163 73.9372 78.163 73.9372 78.0333 74.0299C77.8257 74.1782 77.6178 74.3261 77.4096 74.4735C77.0065 74.2917 76.8308 74.0757 76.5734 73.7134C76.5018 73.6141 76.4302 73.5148 76.3565 73.4125C76.1934 73.156 76.1934 73.156 76.1934 72.9532C76.4097 72.7843 76.6261 72.6268 76.8522 72.4718C76.9829 72.381 77.1135 72.2901 77.2441 72.1991C77.3076 72.1549 77.371 72.1107 77.4364 72.0652C77.72 71.8629 77.9893 71.643 78.256 71.4191C78.4231 71.3316 78.4231 71.3316 78.6171 71.3293Z" fill="url(#paint5_linear_357_2438)"/>
<defs>
<filter id="filter0_d_357_2438" x="0" y="0" width="151" height="151" filterUnits="userSpaceOnUse" color-interpolation-filters="sRGB">
<feFlood flood-opacity="0" result="BackgroundImageFix"/>
<feColorMatrix in="SourceAlpha" type="matrix" values="0 0 0 0 0 0 0 0 0 0 0 0 0 0 0 0 0 0 127 0" result="hardAlpha"/>
<feOffset/>
<feGaussianBlur stdDeviation="14.75"/>
<feComposite in2="hardAlpha" operator="out"/>
<feColorMatrix type="matrix" values="0 0 0 0 0 0 0 0 0 0.396078 0 0 0 0 1 0 0 0 0.27 0"/>
<feBlend mode="normal" in2="BackgroundImageFix" result="effect1_dropShadow_357_2438"/>
<feBlend mode="normal" in="SourceGraphic" in2="effect1_dropShadow_357_2438" result="shape"/>
</filter>
<linearGradient id="paint0_linear_357_2438" x1="29.5" y1="29.5" x2="121.5" y2="121.5" gradientUnits="userSpaceOnUse">
<stop/>
<stop offset="1" stop-color="#0065FF"/>
</linearGradient>
<linearGradient id="paint1_linear_357_2438" x1="49.5" y1="49.7076" x2="101.085" y2="101.292" gradientUnits="userSpaceOnUse">
<stop offset="0.278846"/>
<stop offset="1" stop-color="#0065FF"/>
</linearGradient>
<linearGradient id="paint2_linear_357_2438" x1="49.5" y1="49.7076" x2="101.085" y2="101.292" gradientUnits="userSpaceOnUse">
<stop offset="0.278846"/>
<stop offset="1" stop-color="#0065FF"/>
</linearGradient>
<linearGradient id="paint3_linear_357_2438" x1="49.5" y1="49.7076" x2="101.085" y2="101.292" gradientUnits="userSpaceOnUse">
<stop offset="0.278846"/>
<stop offset="1" stop-color="#0065FF"/>
</linearGradient>
<linearGradient id="paint4_linear_357_2438" x1="49.5" y1="49.7076" x2="101.085" y2="101.292" gradientUnits="userSpaceOnUse">
<stop offset="0.278846"/>
<stop offset="1" stop-color="#0065FF"/>
</linearGradient>
<linearGradient id="paint5_linear_357_2438" x1="49.5" y1="49.7076" x2="101.085" y2="101.292" gradientUnits="userSpaceOnUse">
<stop offset="0.278846"/>
<stop offset="1" stop-color="#0065FF"/>
</linearGradient>
</defs>
</svg>
