<svg width="112" height="112" viewBox="0 0 112 112" fill="none" xmlns="http://www.w3.org/2000/svg">
<g filter="url(#filter0_d_357_2441)">
<path d="M102 56C102 81.4051 81.4051 102 56 102C30.5949 102 10 81.4051 10 56C10 30.5949 30.5949 10 56 10C81.4051 10 102 30.5949 102 56Z" fill="white"/>
<path d="M56 11C80.8528 11 101 31.1472 101 56C101 80.8528 80.8528 101 56 101C31.1472 101 11 80.8528 11 56C11 31.1472 31.1472 11 56 11Z" stroke="url(#paint0_linear_357_2441)" stroke-width="2"/>
</g>
<path d="M59.7001 54.6801C60.0622 54.9629 60.3908 55.2655 60.7135 55.5922C60.7779 55.6544 60.8423 55.7166 60.9087 55.7806C62.0771 56.9931 62.5388 58.6924 62.5435 60.3355C62.4997 62.0188 61.7705 63.6004 60.6122 64.8144C60.3504 65.0622 60.0825 65.298 59.8014 65.5238C59.8947 65.5583 59.988 65.5927 60.0841 65.6283C61.4483 66.1453 62.646 66.7902 63.7538 67.7533C63.8381 67.8241 63.9223 67.8949 64.0091 67.9679C64.6462 68.5178 65.1648 69.1153 65.6793 69.7802C66.0103 69.7002 66.0103 69.7002 66.224 69.3811C67.1065 68.3256 68.3022 67.7097 69.5303 67.1452C69.4425 67.047 69.3548 66.9488 69.2643 66.8475C68.3153 65.7285 67.7573 64.4855 67.7798 62.9938C67.9258 61.373 68.5802 60.0926 69.8344 59.0378C71.0258 58.1681 72.3742 57.9138 73.8311 58.0751C75.1634 58.3181 76.2995 59.0537 77.1338 60.1083C77.9732 61.3291 78.2018 62.6531 78.0431 64.105C77.8027 65.3028 77.1471 66.2695 76.3203 67.1452C76.4221 67.192 76.5238 67.2388 76.6287 67.287C78.9178 68.3674 80.5583 69.9822 81.5901 72.3137C81.6246 72.3881 81.6591 72.4624 81.6946 72.539C81.9992 73.2935 82.0338 74.2146 81.8276 74.9989C81.4835 75.7597 80.8875 76.2573 80.1356 76.584C79.6539 76.741 79.1776 76.7243 78.6753 76.7175C78.5595 76.7175 78.4437 76.7176 78.3244 76.7177C77.9444 76.7174 77.5645 76.7142 77.1845 76.711C76.9199 76.7103 76.6554 76.7097 76.3909 76.7093C75.7674 76.708 75.1441 76.7047 74.5206 76.7006C73.8104 76.6961 73.1001 76.6939 72.3899 76.6919C70.93 76.6876 69.4701 76.6805 68.0102 76.6715C68.0108 76.7299 68.0114 76.7883 68.012 76.8485C68.0144 77.1154 68.0159 77.3823 68.0173 77.6493C68.0183 77.7411 68.0192 77.833 68.0202 77.9277C68.0228 78.5697 67.986 79.1243 67.7062 79.7117C67.6666 79.7964 67.627 79.881 67.5862 79.9683C67.1 80.8828 66.3531 81.4801 65.3952 81.8539C64.7128 82.0379 63.9996 81.9974 63.2978 81.9937C63.1195 81.9943 62.9413 81.995 62.7631 81.9959C62.2815 81.9977 61.7999 81.997 61.3183 81.9957C60.813 81.9947 60.3076 81.9957 59.8022 81.9963C58.9537 81.997 58.1053 81.9961 57.2568 81.9941C56.2776 81.9919 55.2984 81.9926 54.3192 81.9949C53.4766 81.9967 52.6339 81.997 51.7913 81.9959C51.2889 81.9953 50.7865 81.9952 50.284 81.9965C49.8115 81.9977 49.3391 81.9969 48.8666 81.9945C48.6938 81.994 48.521 81.9942 48.3482 81.9951C46.9831 82.0015 45.9167 81.814 44.9041 80.8265C44.2799 80.0565 43.8743 79.2086 43.8807 78.2054C43.8811 78.1156 43.8814 78.0258 43.8817 77.9333C43.8826 77.8409 43.8834 77.7484 43.8843 77.6532C43.8848 77.5588 43.8852 77.4644 43.8857 77.3672C43.8869 77.1353 43.8885 76.9034 43.8906 76.6715C43.8002 76.672 43.8002 76.672 43.708 76.6726C42.2387 76.6816 40.7693 76.6883 39.3 76.6925C38.5894 76.6945 37.8788 76.6974 37.1683 76.702C36.4822 76.7065 35.7963 76.7089 35.1102 76.7099C34.8488 76.7107 34.5873 76.7121 34.3259 76.7143C33.9591 76.7173 33.5923 76.7177 33.2255 76.7175C33.1179 76.7189 33.0104 76.7204 32.8995 76.7219C32.124 76.7176 31.5241 76.5571 30.8915 76.0998C30.271 75.4526 29.9865 74.9491 29.9434 74.0365C29.9999 72.0797 31.2545 70.2722 32.6258 68.954C33.5324 68.1771 34.4752 67.5969 35.5805 67.1452C35.5051 67.0694 35.5051 67.0694 35.4281 66.992C34.2313 65.7271 33.7874 64.4397 33.8264 62.7416C33.8924 61.4281 34.5124 60.2006 35.4717 59.3039C36.6991 58.3423 37.9984 57.9287 39.5547 58.0497C40.6738 58.2111 41.5233 58.5959 42.3705 59.3419C42.4343 59.3973 42.498 59.4526 42.5637 59.5097C43.599 60.4723 44.0851 61.8112 44.1377 63.2119C44.058 64.791 43.4558 65.9326 42.3705 67.0439C42.6779 67.2923 42.9876 67.4553 43.3459 67.6203C43.9732 67.9286 44.4798 68.3099 45.0054 68.7667C45.0833 68.8323 45.1611 68.8979 45.2413 68.9655C45.5482 69.2271 45.7937 69.4424 46.0188 69.7802C46.0857 69.7802 46.1526 69.7802 46.2215 69.7802C46.3689 69.6142 46.5092 69.4419 46.6459 69.2671C48.0788 67.4867 49.9406 66.2594 52.0994 65.5238C52.0272 65.4624 51.9549 65.401 51.8805 65.3377C50.4331 64.0715 49.5228 62.5034 49.3631 60.558C49.2829 58.8194 49.7966 57.1126 50.9466 55.7818C53.2065 53.3139 56.9073 52.8133 59.7001 54.6801ZM52.2007 57.011C51.4068 58.0656 50.9941 59.324 51.1117 60.6443C51.3481 62.1564 52.0931 63.2915 53.3155 64.2063C54.47 64.9126 55.7337 65.1004 57.0628 64.8615C57.3084 64.7919 57.5391 64.7098 57.7746 64.6117C57.8425 64.5858 57.9104 64.5599 57.9804 64.5333C59.1612 64.0226 60.0726 62.9143 60.5488 61.7424C60.9444 60.5233 60.8773 59.3071 60.3834 58.1246C59.7548 56.8931 58.8046 55.9608 57.4832 55.5035C55.5158 54.9125 53.5815 55.5131 52.2007 57.011ZM36.4926 60.7607C36.2578 61.0497 36.0646 61.347 35.8846 61.6727C35.85 61.7351 35.8153 61.7974 35.7797 61.8616C35.4221 62.6382 35.4521 63.6371 35.7262 64.4343C36.1826 65.4063 36.9211 66.0515 37.9114 66.4358C38.7117 66.7026 39.6543 66.6218 40.4133 66.266C41.369 65.7187 41.9356 65.1074 42.2502 64.048C42.4692 63.1366 42.3764 62.3583 41.9358 61.5279C41.4198 60.7083 40.7731 60.1334 39.8369 59.8486C38.6425 59.5889 37.3616 59.8659 36.4926 60.7607ZM70.3537 60.9443C69.7445 61.6944 69.4682 62.5344 69.5303 63.4969C69.6844 64.4172 70.0439 65.1997 70.7643 65.8127C70.9887 65.9701 71.2137 66.1049 71.4558 66.2332C71.5491 66.2847 71.5491 66.2847 71.6443 66.3373C72.4197 66.6968 73.4209 66.6654 74.2174 66.3915C75.1807 65.9392 75.8508 65.1976 76.2189 64.2063C76.4966 63.3151 76.3735 62.3831 75.9838 61.5508C75.4407 60.6466 74.6742 60.1026 73.6727 59.8232C72.3962 59.5762 71.2411 59.9944 70.3537 60.9443ZM49.1605 69.1721C49.0989 69.2204 49.0374 69.2688 48.974 69.3186C47.2128 70.7163 45.9688 73.1567 45.6436 75.3747C45.5813 75.9601 45.5689 76.5455 45.5628 77.1338C45.5609 77.2544 45.559 77.3749 45.5571 77.4991C45.5628 78.2882 45.6352 79.0034 46.1992 79.5977C46.8808 80.2166 47.5208 80.332 48.4326 80.3333C48.4996 80.3336 48.5666 80.3338 48.6356 80.334C48.8587 80.3347 49.0818 80.3346 49.3049 80.3345C49.4654 80.3348 49.6259 80.3352 49.7865 80.3355C50.2216 80.3364 50.6567 80.3367 51.0918 80.3367C51.3639 80.3368 51.6359 80.337 51.908 80.3373C52.8578 80.3382 53.8075 80.3386 54.7573 80.3386C55.6416 80.3385 56.526 80.3396 57.4103 80.3412C58.1705 80.3425 58.9306 80.343 59.6908 80.343C60.1444 80.343 60.598 80.3432 61.0516 80.3443C61.4783 80.3453 61.905 80.3453 62.3317 80.3446C62.488 80.3445 62.6442 80.3447 62.8004 80.3453C64.282 80.3658 64.282 80.3658 65.578 79.7117C66.4935 78.7546 66.3366 77.6268 66.3186 76.3833C66.2408 73.92 65.1629 71.6377 63.4498 69.8815C63.3662 69.7937 63.2826 69.7059 63.1964 69.6155C63.1128 69.536 63.0292 69.4566 62.9431 69.3748C62.8523 69.2848 62.8523 69.2848 62.7598 69.1931C60.92 67.4478 58.1885 66.5592 55.6816 66.6132C53.2625 66.7938 50.9978 67.5474 49.1605 69.1721ZM33.3744 70.6673C32.5713 71.574 31.6883 72.8897 31.6998 74.1375C31.7465 74.4566 31.9088 74.6278 32.1349 74.8473C32.3793 74.9695 32.5314 74.9611 32.8044 74.9608C32.9027 74.961 33.0011 74.9611 33.1024 74.9612C33.2107 74.9609 33.3189 74.9605 33.4304 74.9601C33.5441 74.9601 33.6578 74.9602 33.775 74.9602C34.1522 74.9601 34.5295 74.9593 34.9068 74.9585C35.1678 74.9583 35.4288 74.9582 35.6898 74.9581C36.3075 74.9577 36.9252 74.9569 37.5428 74.9559C38.246 74.9548 38.9491 74.9542 39.6523 74.9537C41.0988 74.9527 42.5454 74.9509 43.992 74.9486C44.1046 74.6126 44.216 74.2778 44.3111 73.9364C44.7175 72.5019 44.7175 72.5019 45.0458 71.8842C45.1284 71.6422 45.1024 71.5368 45.0054 71.3003C43.8533 69.7572 42.1381 68.6911 40.2423 68.3614C40.1688 68.3483 40.0952 68.3352 40.0194 68.3218C37.5459 67.9524 35.1171 68.9344 33.3744 70.6673ZM67.0981 70.9963C67.0387 71.0604 66.9792 71.1245 66.918 71.1906C66.7722 71.3942 66.7722 71.3942 66.8075 71.6328C66.9195 71.984 67.0509 72.326 67.1868 72.6684C67.4353 73.3086 67.616 73.9323 67.7525 74.6062C67.7837 74.8414 67.7837 74.8414 67.9088 74.9486C68.059 74.9592 68.2096 74.9628 68.3601 74.9635C68.4575 74.9643 68.555 74.965 68.6554 74.9657C68.7632 74.966 68.8711 74.9663 68.9821 74.9666C69.095 74.9672 69.2079 74.9679 69.3242 74.9686C69.6996 74.9706 70.0749 74.9718 70.4503 74.9728C70.5782 74.9732 70.706 74.9736 70.8378 74.974C71.4446 74.9759 72.0515 74.9774 72.6583 74.9782C73.359 74.9792 74.0596 74.9819 74.7602 74.986C75.3668 74.9894 75.9734 74.9906 76.5801 74.991C76.8382 74.9915 77.0963 74.9927 77.3544 74.9946C77.7155 74.997 78.0764 74.997 78.4375 74.9963C78.5445 74.9976 78.6515 74.9989 78.7617 75.0002C79.3512 74.9965 79.3512 74.9965 79.8806 74.7556C80.1647 74.437 80.2127 74.2081 80.2057 73.7796C79.991 72.2223 78.7582 70.7463 77.5617 69.8118C76.3274 68.924 74.9147 68.3304 73.3813 68.26C73.3162 68.2548 73.251 68.2496 73.1838 68.2442C70.818 68.136 68.6429 69.2579 67.0981 70.9963Z" fill="url(#paint1_linear_357_2441)"/>
<path d="M56.3558 36.4384C56.9817 36.7409 57.1349 37.13 57.3565 37.7495C57.3898 37.8376 57.423 37.9256 57.4573 38.0163C57.5278 38.2034 57.5975 38.3907 57.6664 38.5783C57.7769 38.8769 57.8911 39.1737 58.0066 39.4704C58.3129 40.2605 58.3129 40.2605 58.4365 40.5848C58.4797 40.6976 58.4797 40.6976 58.5238 40.8126C58.5853 40.9988 58.5853 40.9988 58.5853 41.2015C58.6605 41.2007 58.7357 41.1999 58.8132 41.1991C59.6763 41.194 60.5358 41.2154 61.3976 41.2603C61.5466 41.2676 61.6957 41.274 61.8447 41.2794C62.0642 41.2874 62.2832 41.2986 62.5025 41.3104C62.631 41.3162 62.7595 41.3221 62.892 41.3281C63.3509 41.4265 63.5236 41.584 63.8551 41.9109C63.9716 42.1439 63.9766 42.2914 63.9818 42.5507C63.9844 42.6276 63.987 42.7045 63.9897 42.7838C63.9179 43.3061 63.6153 43.5908 63.2086 43.9014C63.1502 43.9448 63.0919 43.9881 63.0317 44.0328C62.9052 44.1293 62.7787 44.226 62.6525 44.323C62.5516 44.4003 62.5516 44.4003 62.4487 44.4792C61.9803 44.8451 61.5258 45.2285 61.0694 45.6091C60.9995 45.6671 60.9296 45.7251 60.8576 45.7849C60.7645 45.8626 60.7645 45.8626 60.6695 45.9419C60.5108 46.066 60.5108 46.066 60.3081 46.1673C60.3607 46.3806 60.4136 46.5938 60.4665 46.807C60.4836 46.8767 60.5006 46.9464 60.5182 47.0182C60.6391 47.507 60.7695 47.9924 60.9055 48.4772C60.9386 48.5976 60.9716 48.7179 61.0056 48.8419C61.0719 49.0826 61.1396 49.323 61.209 49.5628C61.3907 50.2315 61.4839 50.6842 61.2202 51.3358C60.9574 51.5921 60.7005 51.8377 60.3198 51.8474C59.6952 51.7959 59.3016 51.6112 58.7943 51.2535C58.6856 51.1805 58.6856 51.1805 58.5747 51.1061C58.2562 50.8918 57.9414 50.6725 57.6275 50.4514C57.4618 50.3348 57.2957 50.2187 57.1291 50.1034C56.9707 49.9935 56.8134 49.8818 56.6575 49.7684C56.2594 49.4731 56.2594 49.473 55.7889 49.4507C55.7084 49.5042 55.628 49.5578 55.545 49.613C55.439 49.6797 55.3329 49.7465 55.2236 49.8153C55.1025 49.8974 54.9816 49.9799 54.861 50.0627C54.7262 50.1532 54.5913 50.2438 54.4564 50.3342C54.2371 50.4822 54.0184 50.6309 53.8007 50.7813C53.5767 50.936 53.3512 51.0885 53.1255 51.2408C53.0569 51.2891 52.9884 51.3374 52.9178 51.3872C52.431 51.7126 51.9827 51.8723 51.39 51.8425C50.9942 51.6666 50.824 51.4958 50.5729 51.1458C50.2375 50.2225 50.9515 48.6621 51.2063 47.7635C51.2799 47.5033 51.353 47.2431 51.426 46.9828C51.458 46.8698 51.4901 46.7567 51.5231 46.6403C51.6011 46.3838 51.6011 46.3838 51.5927 46.1673C51.3831 45.9883 51.1725 45.8204 50.953 45.6543C50.822 45.5534 50.6911 45.4525 50.5603 45.3514C50.4948 45.3011 50.4294 45.2507 50.3619 45.1988C50.0076 44.9233 49.6631 44.6359 49.3172 44.3499C48.9944 44.088 48.6625 43.8394 48.3272 43.5938C48.0683 43.3599 47.9658 43.1501 47.9067 42.808C47.8939 42.379 47.9065 42.0991 48.185 41.7589C48.5841 41.3789 48.8144 41.3831 49.3588 41.35C49.4296 41.3456 49.5004 41.3413 49.5734 41.3368C49.7241 41.3276 49.8748 41.3187 50.0255 41.31C50.2515 41.2968 50.4774 41.2828 50.7034 41.2686C51.5751 41.2157 52.4418 41.1887 53.3155 41.2015C53.3305 41.147 53.3456 41.0924 53.3611 41.0362C53.5795 40.2751 53.851 39.536 54.1342 38.7972C54.1883 38.6555 54.2417 38.5135 54.2945 38.3713C54.372 38.1628 54.4512 37.9552 54.5308 37.7476C54.5772 37.6251 54.6235 37.5025 54.6713 37.3763C55.033 36.6504 55.538 36.2847 56.3558 36.4384ZM55.8491 39.276C55.797 39.4164 55.797 39.4164 55.7439 39.5596C55.6144 39.9074 55.4834 40.2546 55.3518 40.6016C55.2951 40.7517 55.2389 40.902 55.1831 41.0525C55.1028 41.269 55.0208 41.4849 54.9386 41.7007C54.9141 41.7679 54.8896 41.835 54.8643 41.9042C54.7163 42.2869 54.5894 42.5189 54.2276 42.7217C53.8714 42.8404 53.5338 42.857 53.1623 42.8772C53.0885 42.8816 53.0147 42.886 52.9387 42.8904C52.7033 42.9042 52.4678 42.9175 52.2324 42.9307C52.0727 42.94 51.9129 42.9493 51.7532 42.9586C51.3619 42.9814 50.9706 43.0037 50.5793 43.0257C50.8733 43.3251 51.1681 43.6107 51.4945 43.8744C51.5683 43.9345 51.6421 43.9946 51.7182 44.0565C51.7938 44.1177 51.8694 44.1788 51.9474 44.2418C53.2846 45.3227 53.2846 45.3227 53.3897 45.783C53.4193 46.2016 53.3613 46.4924 53.2458 46.8945C53.2275 46.9605 53.2091 47.0265 53.1901 47.0945C53.1319 47.3031 53.0718 47.5111 53.0115 47.7191C52.9514 47.929 52.8917 48.1389 52.8328 48.3492C52.7797 48.5386 52.7252 48.7277 52.6706 48.9168C52.5757 49.2001 52.5757 49.2001 52.7074 49.4103C52.8019 49.3465 52.8964 49.2828 52.9937 49.2171C53.3344 48.9878 53.6767 48.7608 54.0196 48.5347C54.1521 48.4469 54.2842 48.3585 54.4158 48.2693C54.5863 48.1538 54.7584 48.0409 54.9307 47.9281C55.0298 47.862 55.129 47.7959 55.2311 47.7278C55.6207 47.552 55.9402 47.5014 56.3558 47.5861C56.6759 47.725 56.9587 47.9064 57.2489 48.0992C57.328 48.1497 57.4072 48.2002 57.4887 48.2523C57.6467 48.3534 57.8042 48.4552 57.9612 48.5579C58.1551 48.6846 58.3501 48.8094 58.5461 48.9329C58.7965 49.0907 59.046 49.2498 59.2947 49.4103C59.2359 49.1547 59.1767 48.8993 59.1174 48.6439C59.0906 48.5274 59.0906 48.5274 59.0633 48.4085C58.9737 48.0244 58.8795 47.6442 58.765 47.2666C58.7456 47.2008 58.7261 47.135 58.706 47.0672C58.6518 46.8871 58.5953 46.7077 58.5386 46.5284C58.4672 46.0567 58.4877 45.6925 58.6867 45.2552C58.9276 44.9704 59.2053 44.7553 59.5037 44.5332C59.5814 44.4724 59.6591 44.4116 59.7391 44.349C59.961 44.176 60.1849 44.0059 60.4095 43.8364C60.5975 43.6909 60.7855 43.5453 60.9732 43.3994C61.0423 43.3475 61.1114 43.2957 61.1826 43.2422C61.2285 43.2042 61.2743 43.1662 61.3216 43.127C61.3216 43.0936 61.3216 43.0602 61.3216 43.0257C61.2234 43.0211 61.1253 43.0166 61.0242 43.0119C60.6581 42.9946 60.2921 42.9755 59.9261 42.9558C59.7681 42.9476 59.6101 42.9398 59.452 42.9325C59.224 42.922 58.9961 42.9097 58.7682 42.897C58.6982 42.8942 58.6282 42.8913 58.556 42.8884C58.0952 42.8606 57.7601 42.7657 57.3692 42.519C56.9757 41.874 56.7422 41.1487 56.4825 40.4415C56.42 40.2729 56.42 40.2729 56.3562 40.101C56.2543 39.8262 56.1528 39.5512 56.0518 39.276C55.9849 39.276 55.918 39.276 55.8491 39.276Z" fill="url(#paint2_linear_357_2441)"/>
<path d="M74.2934 36.4384C74.7693 36.6956 74.9832 36.9067 75.1802 37.4075C75.229 37.5304 75.2779 37.6534 75.3282 37.78C75.3889 37.9408 75.4493 38.1017 75.5095 38.2626C75.551 38.3717 75.5924 38.4809 75.6351 38.5933C75.867 39.2047 76.0966 39.8168 76.3227 40.4304C76.3612 40.5349 76.3998 40.6395 76.4396 40.7472C76.523 40.9988 76.523 40.9988 76.523 41.2015C76.606 41.2007 76.689 41.1999 76.7745 41.1991C77.6518 41.1943 78.525 41.2128 79.4009 41.2603C79.5443 41.2676 79.6878 41.274 79.8313 41.2794C81.1828 41.3308 81.1828 41.3308 81.5806 41.6532C81.8608 41.9935 81.9135 42.168 81.9258 42.6013C81.9315 42.7309 81.9315 42.7309 81.9373 42.863C81.8396 43.4609 81.3187 43.7894 80.8617 44.1341C80.7364 44.2311 80.6111 44.3282 80.486 44.4255C80.4194 44.4771 80.3529 44.5287 80.2843 44.5819C79.8937 44.8856 79.5056 45.1924 79.1199 45.5023C79.0433 45.5621 78.9667 45.622 78.8878 45.6837C78.8173 45.7408 78.7468 45.7978 78.6741 45.8566C78.611 45.9068 78.5478 45.957 78.4828 46.0087C78.3032 46.1839 78.3032 46.1839 78.3471 46.5727C78.4173 46.8595 78.4922 47.1422 78.5724 47.4262C78.6191 47.5967 78.6657 47.7671 78.7123 47.9376C78.786 48.2051 78.8601 48.4724 78.9352 48.7395C79.0078 48.9981 79.0784 49.2572 79.1488 49.5164C79.1715 49.5952 79.1942 49.6739 79.2175 49.7551C79.3606 50.289 79.3725 50.691 79.2592 51.2344C79.0526 51.5379 78.8971 51.6943 78.5447 51.8085C77.553 51.9832 76.7591 51.2734 75.9783 50.7404C75.2934 50.2748 74.6028 49.8287 73.8881 49.4103C73.0042 49.9562 72.1262 50.508 71.2672 51.0925C70.0113 51.942 70.0113 51.942 69.3276 51.8425C68.9523 51.6371 68.7547 51.4898 68.5169 51.1331C68.3189 50.1705 68.7655 49.1142 69.0299 48.2005C69.1039 47.9431 69.1774 47.6857 69.2499 47.4279C69.2949 47.2684 69.3406 47.1091 69.3873 46.9502C69.516 46.5095 69.516 46.5095 69.429 46.066C69.2278 45.8923 69.0266 45.7314 68.8146 45.5719C68.6857 45.4727 68.5569 45.3733 68.4282 45.2738C68.3603 45.2216 68.2924 45.1693 68.2224 45.1154C67.8593 44.8344 67.5003 44.5484 67.1424 44.2608C67.075 44.2075 67.0075 44.1541 66.938 44.0991C65.9686 43.3184 65.9686 43.3184 65.8183 42.8103C65.8362 42.3049 65.948 42.0028 66.2874 41.6069C66.58 41.4281 66.8173 41.3743 67.1574 41.3533C67.2487 41.3472 67.3399 41.3412 67.434 41.3349C67.5805 41.3265 67.5805 41.3265 67.7299 41.3179C67.8809 41.3082 67.8809 41.3082 68.0349 41.2983C68.356 41.2779 68.6771 41.2587 68.9983 41.2395C69.2161 41.2259 69.434 41.2122 69.6519 41.1984C70.1856 41.1647 70.7193 41.1321 71.2532 41.1002C71.2965 40.98 71.3399 40.8599 71.3847 40.7361C71.5466 40.2889 71.7104 39.8424 71.8748 39.3961C71.9456 39.2031 72.0158 39.01 72.0856 38.8166C72.1862 38.5382 72.2885 38.2604 72.3913 37.9827C72.4219 37.8967 72.4525 37.8106 72.4841 37.7219C72.8066 36.8613 73.297 36.2512 74.2934 36.4384ZM73.8881 39.1747C73.8203 39.335 73.7528 39.4955 73.6854 39.6561C73.6395 39.7651 73.5937 39.8742 73.5464 39.9866C73.4195 40.2932 73.2997 40.6021 73.1814 40.9121C73.1465 41.0026 73.1115 41.0931 73.0755 41.1864C73.0056 41.3678 72.9367 41.5495 72.8689 41.7317C72.8362 41.8161 72.8034 41.9004 72.7697 41.9873C72.7411 42.0629 72.7125 42.1385 72.683 42.2164C72.4871 42.5671 72.2349 42.6984 71.8612 42.823C71.6071 42.8454 71.3546 42.8633 71.0999 42.8772C71.0261 42.8816 70.9524 42.886 70.8763 42.8904C70.6409 42.9042 70.4055 42.9175 70.1701 42.9307C70.0103 42.94 69.8506 42.9493 69.6909 42.9586C69.2996 42.9814 68.9082 43.0037 68.5169 43.0257C68.8041 43.3179 69.0908 43.5988 69.41 43.8558C69.4792 43.9118 69.5485 43.9678 69.6198 44.0255C69.726 44.1106 69.726 44.1106 69.8344 44.1975C69.9052 44.2546 69.976 44.3118 70.0489 44.3707C70.3445 44.6091 70.6406 44.8464 70.9404 45.0795C71.2054 45.2998 71.2795 45.4247 71.3545 45.7619C71.2994 46.5845 71.0815 47.3328 70.8474 48.1199C70.8201 48.2151 70.7928 48.3103 70.7646 48.4083C70.7393 48.4938 70.7139 48.5793 70.6878 48.6674C70.6423 48.9188 70.6652 49.0691 70.7464 49.3089C70.9198 49.2008 71.0931 49.0927 71.2664 48.9845C71.4146 48.892 71.5629 48.7998 71.7114 48.7079C72.0441 48.5011 72.3725 48.2924 72.6953 48.0703C73.5768 47.4648 73.5768 47.4648 74.0777 47.5184C75.1802 47.8643 76.1941 48.7528 77.131 49.4103C77.2532 49.0438 77.1993 48.9219 77.0871 48.558C77.0386 48.3948 77.0386 48.3948 76.9891 48.2284C76.9198 48.0013 76.8502 47.7744 76.7801 47.5475C76.3331 46.0376 76.3331 46.0376 76.6083 45.3442C76.7989 45.0351 77.0916 44.843 77.378 44.6282C77.506 44.53 77.6338 44.4316 77.7616 44.3333C77.8257 44.2842 77.8897 44.2352 77.9557 44.1848C78.2375 43.9673 78.5143 43.7443 78.7905 43.5197C78.8812 43.4463 78.9718 43.3729 79.0652 43.2973C79.1613 43.213 79.1613 43.213 79.2592 43.127C79.2592 43.0936 79.2592 43.0602 79.2592 43.0257C79.1647 43.0211 79.0702 43.0166 78.9728 43.0119C78.6193 42.9943 78.266 42.9754 77.9126 42.9558C77.7602 42.9476 77.6078 42.9398 77.4553 42.9325C77.2351 42.922 77.015 42.9097 76.7949 42.897C76.6628 42.8901 76.5306 42.8832 76.3945 42.8761C75.9682 42.8163 75.6876 42.7164 75.3069 42.519C75.1295 42.2466 75.1295 42.2466 75.0028 41.9109C74.9545 41.7863 74.9062 41.6617 74.8564 41.5333C74.8037 41.389 74.7512 41.2446 74.6988 41.1002C74.6337 40.9262 74.5686 40.7523 74.5032 40.5784C74.3289 40.1116 74.1583 39.6435 73.9894 39.1747C73.956 39.1747 73.9225 39.1747 73.8881 39.1747Z" fill="url(#paint3_linear_357_2441)"/>
<path d="M38.6968 36.5398C39.2162 37.0015 39.425 37.7682 39.658 38.4083C39.6867 38.4859 39.7153 38.5634 39.7449 38.6434C39.8351 38.8879 39.9247 39.1326 40.0143 39.3774C40.0759 39.5446 40.1375 39.7118 40.1992 39.8789C40.3492 40.2858 40.4986 40.693 40.6477 41.1002C40.7037 41.1033 40.7597 41.1065 40.8174 41.1097C41.4011 41.1426 41.9847 41.1774 42.5683 41.2134C42.786 41.2265 43.0037 41.2392 43.2214 41.2514C43.5347 41.269 43.8479 41.2883 44.161 41.308C44.2582 41.3131 44.3553 41.3182 44.4554 41.3234C44.9493 41.3562 45.3147 41.3875 45.7148 41.7082C45.9954 42.0469 46.0951 42.3703 46.0703 42.8143C45.7482 44.1373 43.4156 45.3745 42.3705 46.1673C42.4248 46.4082 42.4797 46.6488 42.5352 46.8894C42.5527 46.9653 42.5701 47.0412 42.5881 47.1194C42.6943 47.5714 42.8103 48.019 42.9382 48.4653C42.9658 48.5623 42.9934 48.6593 43.0219 48.7592C43.0762 48.9482 43.1316 49.1368 43.1882 49.325C43.3606 49.9268 43.4635 50.5061 43.3839 51.1331C43.1769 51.4881 42.9686 51.7182 42.5732 51.8425C42.0055 51.89 41.6595 51.7795 41.1924 51.4751C41.098 51.4163 41.098 51.4163 41.0017 51.3562C40.2985 50.9128 39.6093 50.4461 38.9218 49.9789C38.8345 49.9198 38.7472 49.8607 38.6572 49.7998C38.5794 49.7467 38.5015 49.6936 38.4212 49.6389C38.2083 49.4963 38.2083 49.4963 37.9114 49.4103C37.6233 49.5605 37.6233 49.5605 37.3117 49.7816C37.2533 49.821 37.1949 49.8605 37.1348 49.9011C36.9475 50.0279 36.7612 50.1561 36.575 50.2844C36.4515 50.3685 36.3279 50.4526 36.2042 50.5365C36.1441 50.5774 36.0839 50.6182 36.022 50.6603C35.9626 50.7006 35.9033 50.7409 35.8422 50.7824C35.7835 50.8223 35.7247 50.8622 35.6642 50.9034C34.2048 51.8943 34.2048 51.8943 33.4523 51.8425C33.161 51.7158 33.161 51.7158 32.9456 51.5385C32.8871 51.4988 32.8286 51.4591 32.7683 51.4181C32.5217 51.0606 32.5126 50.6095 32.575 50.1907C32.6343 49.9365 32.7022 49.6865 32.7742 49.4356C32.7991 49.3445 32.824 49.2535 32.8496 49.1596C32.9288 48.8712 33.01 48.5834 33.0913 48.2955C33.1456 48.0991 33.1998 47.9026 33.2538 47.7061C33.386 47.2265 33.52 46.7474 33.655 46.2687C33.0971 45.759 32.5387 45.2586 31.9385 44.7992C31.8179 44.7055 31.6973 44.6116 31.5767 44.5177C31.5178 44.4719 31.4588 44.4261 31.3981 44.3788C31.1242 44.1648 30.8533 43.9474 30.5831 43.7288C30.4936 43.6565 30.4041 43.5843 30.3119 43.5098C30.0817 43.3065 30.0171 43.2096 29.979 42.9069C29.9478 42.1148 29.9478 42.1148 30.2474 41.7526C30.6413 41.3868 30.8646 41.3836 31.3954 41.35C31.4637 41.3456 31.5321 41.3413 31.6025 41.3368C31.748 41.3276 31.8935 41.3187 32.039 41.31C32.2565 41.2968 32.474 41.2828 32.6915 41.2686C33.5885 41.2122 34.4788 41.1895 35.3779 41.2015C35.3934 41.1457 35.409 41.0899 35.425 41.0324C35.6348 40.305 35.8907 39.5969 36.1588 38.8894C36.2332 38.6925 36.3064 38.4952 36.3796 38.2978C36.4276 38.1705 36.4757 38.0431 36.5239 37.9158C36.5665 37.8023 36.6092 37.6888 36.6531 37.5719C36.8319 37.17 37.0286 36.7774 37.3794 36.5018C37.8411 36.3735 38.2521 36.378 38.6968 36.5398ZM37.9114 39.1747C37.8787 39.2616 37.846 39.3485 37.8123 39.438C37.6905 39.7614 37.5684 40.0848 37.4463 40.4081C37.3935 40.5478 37.3408 40.6876 37.2882 40.8274C37.2125 41.0287 37.1364 41.2299 37.0603 41.4311C37.0147 41.5521 36.969 41.6731 36.922 41.7978C36.8806 41.902 36.8393 42.0062 36.7967 42.1136C36.7603 42.2256 36.7603 42.2256 36.7232 42.34C36.5138 42.6301 36.2165 42.726 35.8846 42.823C35.5063 42.8761 35.5063 42.8761 35.1059 42.897C35.0349 42.9011 34.9639 42.9052 34.8908 42.9094C34.6668 42.9219 34.4428 42.9327 34.2188 42.9434C34.0657 42.9516 33.9127 42.96 33.7597 42.9685C33.3871 42.9889 33.0144 43.0078 32.6416 43.0257C33.0402 43.4287 33.0402 43.4287 33.4611 43.8079C33.5153 43.854 33.5695 43.9001 33.6254 43.9477C33.7091 44.018 33.7091 44.018 33.7944 44.0898C33.8523 44.1389 33.9102 44.1879 33.9699 44.2385C34.2679 44.4889 34.5672 44.7266 34.8901 44.9449C35.1777 45.1557 35.252 45.2396 35.3779 45.5593C35.5001 46.3692 35.2535 47.1177 35.0168 47.8838C34.9484 48.1083 34.8806 48.333 34.8137 48.558C34.7835 48.6561 34.7532 48.7542 34.7221 48.8552C34.6438 49.1179 34.6438 49.1179 34.7698 49.4103C34.8306 49.3694 34.8913 49.3286 34.9539 49.2865C35.2323 49.0995 35.5109 48.9128 35.7896 48.7262C35.8851 48.6619 35.9807 48.5977 36.0791 48.5315C36.3509 48.3496 36.6242 48.1703 36.898 47.9915C36.9637 47.9465 37.0294 47.9015 37.0971 47.8551C37.5245 47.5798 37.9209 47.4823 38.4181 47.5861C38.7049 47.7094 38.9533 47.8718 39.2099 48.0485C39.2795 48.0943 39.3491 48.14 39.4209 48.1872C39.5613 48.2796 39.7013 48.3727 39.8407 48.4665C40.1233 48.6556 40.4107 48.8363 40.6983 49.0176C40.8504 49.1146 41.0024 49.2117 41.1544 49.3089C41.2895 48.9349 41.2193 48.6912 41.1069 48.3161C41.0741 48.2022 41.0413 48.0883 41.0075 47.9709C40.937 47.7327 40.866 47.4947 40.7945 47.2568C40.4662 46.1107 40.4662 46.1107 40.6477 45.4579C40.9229 45.012 41.3188 44.7197 41.7308 44.4065C41.7932 44.3582 41.8557 44.3099 41.9201 44.2601C42.1035 44.1183 42.2876 43.9772 42.4718 43.8364C42.6536 43.6973 42.8352 43.558 43.0166 43.4184C43.0884 43.3638 43.1603 43.3092 43.2343 43.2529C43.2837 43.2114 43.3331 43.1698 43.3839 43.127C43.3839 43.0936 43.3839 43.0602 43.3839 43.0257C43.2858 43.0211 43.1877 43.0166 43.0866 43.0119C42.7205 42.9946 42.3545 42.9755 41.9885 42.9558C41.8305 42.9476 41.6724 42.9398 41.5143 42.9325C41.2863 42.922 41.0585 42.9097 40.8306 42.897C40.7606 42.8942 40.6905 42.8913 40.6184 42.8884C40.1575 42.8606 39.8225 42.7657 39.4316 42.519C38.9783 41.778 38.7284 40.9246 38.4363 40.1099C38.3783 39.9513 38.3783 39.9513 38.3192 39.7895C38.2846 39.6933 38.25 39.597 38.2144 39.4979C38.1349 39.2598 38.1349 39.2598 37.9114 39.1747Z" fill="url(#paint4_linear_357_2441)"/>
<path d="M49.2618 35.121C49.4116 35.2585 49.5614 35.3959 49.7114 35.5332C49.8171 35.6301 49.9228 35.727 50.0283 35.8241C50.5502 36.3038 51.0759 36.7761 51.6307 37.2175C52.0211 37.5614 52.0211 37.5614 52.0994 37.8572C52.0919 38.2773 52.0584 38.4934 51.789 38.82C51.4656 38.9851 51.246 39.0183 50.8872 38.9518C50.5656 38.8255 50.3781 38.6119 50.1497 38.3584C49.9755 38.1661 49.7947 38.0002 49.5975 37.8319C49.1888 37.4795 48.7916 37.1152 48.395 36.7493C48.0293 36.4127 47.6574 36.0847 47.2781 35.7635C47.0621 35.5605 47.0336 35.4366 47.0006 35.14C47.0399 34.7388 47.1513 34.5886 47.4376 34.3102C48.1555 33.9513 48.7835 34.6723 49.2618 35.121Z" fill="url(#paint5_linear_357_2441)"/>
<path d="M64.5645 34.4116C64.8022 34.6334 64.8599 34.779 64.9319 35.0956C64.7943 35.8111 64.1155 36.2913 63.5812 36.7448C63.2973 36.9891 63.0221 37.2424 62.7467 37.4962C62.6945 37.5438 62.6423 37.5913 62.5886 37.6404C62.3484 37.8594 62.1119 38.08 61.8801 38.3081C61.256 38.9086 61.256 38.9086 60.7895 38.9973C60.4095 38.972 60.4095 38.972 60.1118 38.82C59.8397 38.4901 59.8014 38.2826 59.8014 37.8572C59.9689 37.4106 60.314 37.1518 60.6696 36.8517C60.9566 36.6066 61.2343 36.3523 61.5116 36.0964C61.9032 35.7363 62.2953 35.3768 62.6897 35.0196C62.7681 34.9486 62.8465 34.8775 62.9272 34.8043C63.5031 34.3035 63.8195 34.0787 64.5645 34.4116Z" fill="url(#paint6_linear_357_2441)"/>
<path d="M55.9504 30.0032C56.0173 30.0021 56.0842 30.0011 56.1531 30C56.4606 30.0817 56.5678 30.206 56.7612 30.4592C56.8027 30.7612 56.8204 31.025 56.8186 31.327C56.8195 31.4529 56.8195 31.4529 56.8205 31.5813C56.8212 31.7585 56.8209 31.9357 56.8196 32.1129C56.8182 32.3839 56.8216 32.6545 56.8255 32.9255C56.8256 33.0978 56.8254 33.2701 56.8249 33.4425C56.8262 33.5234 56.8276 33.6042 56.829 33.6876C56.8223 34.0853 56.7997 34.2692 56.5228 34.564C56.1922 34.7507 56.0206 34.778 55.6464 34.7156C55.378 34.564 55.378 34.564 55.1397 34.3102C55.0895 34.0016 55.0708 33.7507 55.0759 33.4425C55.0757 33.3585 55.0754 33.2746 55.0752 33.1881C55.0753 33.0109 55.0767 32.8337 55.0792 32.6566C55.0827 32.3856 55.0813 32.115 55.0793 31.844C55.08 31.6716 55.081 31.4993 55.0823 31.327C55.0818 31.2461 55.0813 31.1652 55.0807 31.0819C55.0885 30.7145 55.1071 30.5019 55.3333 30.2057C55.5629 30.0411 55.6711 29.9988 55.9504 30.0032Z" fill="url(#paint7_linear_357_2441)"/>
<defs>
<filter id="filter0_d_357_2441" x="0" y="0" width="112" height="112" filterUnits="userSpaceOnUse" color-interpolation-filters="sRGB">
<feFlood flood-opacity="0" result="BackgroundImageFix"/>
<feColorMatrix in="SourceAlpha" type="matrix" values="0 0 0 0 0 0 0 0 0 0 0 0 0 0 0 0 0 0 127 0" result="hardAlpha"/>
<feOffset/>
<feGaussianBlur stdDeviation="5"/>
<feComposite in2="hardAlpha" operator="out"/>
<feColorMatrix type="matrix" values="0 0 0 0 0 0 0 0 0 0.396078 0 0 0 0 1 0 0 0 0.27 0"/>
<feBlend mode="normal" in2="BackgroundImageFix" result="effect1_dropShadow_357_2441"/>
<feBlend mode="normal" in="SourceGraphic" in2="effect1_dropShadow_357_2441" result="shape"/>
</filter>
<linearGradient id="paint0_linear_357_2441" x1="10" y1="10" x2="102" y2="102" gradientUnits="userSpaceOnUse">
<stop/>
<stop offset="1" stop-color="#0065FF"/>
</linearGradient>
<linearGradient id="paint1_linear_357_2441" x1="39.8766" y1="39.926" x2="81.9506" y2="82" gradientUnits="userSpaceOnUse">
<stop/>
<stop offset="1" stop-color="#0065FF"/>
</linearGradient>
<linearGradient id="paint2_linear_357_2441" x1="39.8766" y1="39.926" x2="81.9506" y2="82" gradientUnits="userSpaceOnUse">
<stop/>
<stop offset="1" stop-color="#0065FF"/>
</linearGradient>
<linearGradient id="paint3_linear_357_2441" x1="39.8766" y1="39.926" x2="81.9506" y2="82" gradientUnits="userSpaceOnUse">
<stop/>
<stop offset="1" stop-color="#0065FF"/>
</linearGradient>
<linearGradient id="paint4_linear_357_2441" x1="39.8766" y1="39.926" x2="81.9506" y2="82" gradientUnits="userSpaceOnUse">
<stop/>
<stop offset="1" stop-color="#0065FF"/>
</linearGradient>
<linearGradient id="paint5_linear_357_2441" x1="39.8766" y1="39.926" x2="81.9506" y2="82" gradientUnits="userSpaceOnUse">
<stop/>
<stop offset="1" stop-color="#0065FF"/>
</linearGradient>
<linearGradient id="paint6_linear_357_2441" x1="39.8766" y1="39.926" x2="81.9506" y2="82" gradientUnits="userSpaceOnUse">
<stop/>
<stop offset="1" stop-color="#0065FF"/>
</linearGradient>
<linearGradient id="paint7_linear_357_2441" x1="39.8766" y1="39.926" x2="81.9506" y2="82" gradientUnits="userSpaceOnUse">
<stop/>
<stop offset="1" stop-color="#0065FF"/>
</linearGradient>
</defs>
</svg>
