<svg width="262" height="280" viewBox="0 0 262 280" fill="none" xmlns="http://www.w3.org/2000/svg">
<g>
<path d="M257.935 0C259.96 0.253583 259.96 0.253583 260.941 0.930704C262.004 2.42634 261.914 3.4944 261.916 5.32289C261.921 6.02149 261.926 6.7201 261.931 7.43986C261.927 8.21908 261.924 8.99829 261.92 9.7775C261.923 10.6022 261.926 11.4269 261.93 12.2515C261.938 14.5231 261.936 16.7946 261.931 19.0662C261.929 21.5139 261.936 23.9616 261.942 26.4093C261.952 31.2066 261.952 36.004 261.949 40.8013C261.947 44.6994 261.948 48.5974 261.951 52.4955C261.951 53.0495 261.952 53.6036 261.952 54.1745C261.953 55.3 261.954 56.4255 261.955 57.5509C261.963 68.1137 261.959 78.6764 261.953 89.2392C261.947 98.9095 261.955 108.58 261.968 118.25C261.983 128.172 261.988 138.093 261.984 148.015C261.982 153.588 261.984 159.162 261.994 164.735C262.002 169.48 262.003 174.224 261.992 178.969C261.987 181.391 261.986 183.813 261.995 186.235C262.003 188.451 262 190.666 261.989 192.882C261.987 193.685 261.989 194.488 261.995 195.291C262.002 196.38 261.994 197.468 261.985 198.557C261.985 199.163 261.985 199.768 261.985 200.392C261.617 202.387 260.987 203.073 259.382 204.279C257.601 204.485 256.035 204.55 254.258 204.507C253.735 204.504 253.212 204.5 252.673 204.497C250.915 204.483 249.159 204.453 247.402 204.423C246.143 204.41 244.885 204.398 243.627 204.387C240.915 204.362 238.203 204.33 235.491 204.294C231.202 204.238 226.914 204.204 222.625 204.176C210.428 204.093 198.232 203.994 186.037 203.838C179.303 203.752 172.569 203.693 165.834 203.664C162.27 203.648 158.707 203.617 155.143 203.553C151.79 203.493 148.439 203.468 145.085 203.469C143.855 203.463 142.626 203.445 141.396 203.412C135.396 202.983 135.396 202.983 129.999 205.024C128.251 207.054 127.313 209.341 126.309 211.814C120.187 220.572 110.034 227.212 99.694 229.782C99.0406 229.958 99.0406 229.958 98.3741 230.138C90.6461 231.894 79.7516 232.255 72.5008 228.623C72.3433 229.039 72.1858 229.455 72.0235 229.884C71.35 231.506 70.5793 232.993 69.7232 234.525C69.2388 235.393 69.2388 235.394 68.7446 236.279C68.397 236.897 68.0495 237.514 67.6914 238.15C67.3296 238.795 66.9679 239.44 66.5952 240.104C63.6763 245.287 60.6774 250.418 57.6341 255.527C56.263 257.834 54.9212 260.156 53.593 262.487C53.2362 263.111 52.8793 263.734 52.5116 264.377C51.8286 265.572 51.1496 266.769 50.4753 267.969C47.8763 272.501 45.0613 277.31 39.9761 279.267C35.0924 280.365 29.4628 280.443 24.9918 278.004C24.6316 277.775 24.2714 277.546 23.9002 277.311C23.534 277.094 23.1678 276.877 22.7905 276.654C19.0238 274.224 16.7825 270.881 15.5154 266.599C14.5338 261.72 14.7646 257.169 17.5359 252.967C19.3247 250.689 21.2025 248.506 23.1166 246.334C24.2119 245.073 25.2513 243.771 26.2869 242.461C28.2544 239.976 30.2526 237.519 32.2602 235.067C34.0125 232.924 35.7543 230.773 37.4968 228.623C39.7112 225.891 41.9272 223.16 44.1505 220.436C44.5547 219.937 44.9589 219.438 45.3754 218.923C46.0456 218.115 46.7326 217.321 47.4457 216.55C48.3659 215.591 48.3659 215.591 49.3577 214.132C49.1679 211.862 48.3822 210.424 47.0795 208.59C45.958 206.997 45.0022 205.451 44.1505 203.699C43.6252 203.696 43.0999 203.692 42.5587 203.689C37.6122 203.655 32.6659 203.614 27.7196 203.563C25.1766 203.537 22.6336 203.514 20.0905 203.498C17.6369 203.483 15.1836 203.46 12.7301 203.431C11.7934 203.421 10.8566 203.414 9.91975 203.411C8.60909 203.405 7.29898 203.389 5.98846 203.37C5.24199 203.364 4.49552 203.357 3.72643 203.351C1.91425 203.12 1.91427 203.12 0.807583 202.341C-0.198566 200.805 -0.0761602 199.689 0.178524 197.903C1.44703 196.201 2.12631 195.643 4.2428 195.306C4.92632 195.311 5.60983 195.316 6.31405 195.321C6.69248 195.321 7.07091 195.321 7.46081 195.32C8.70706 195.322 9.95252 195.34 11.1986 195.358C12.0644 195.363 12.9302 195.366 13.7961 195.368C16.0714 195.377 18.3464 195.4 20.6216 195.425C22.9447 195.449 25.2678 195.46 27.5909 195.471C32.1466 195.496 36.7021 195.536 41.2576 195.585C41.0682 194.862 40.8789 194.139 40.6838 193.395C39.9645 190.136 39.9711 186.998 40.024 183.674C40.0291 183.042 40.0343 182.409 40.0396 181.758C40.0504 180.442 40.0637 179.127 40.0792 177.811C40.1054 175.424 40.1135 173.038 40.1205 170.651C40.1402 164.469 40.1885 158.287 40.2368 152.106C40.263 148.742 40.2856 145.379 40.3009 142.015C40.3159 138.721 40.3392 135.427 40.3684 132.134C40.3781 130.886 40.3847 129.639 40.3883 128.391C40.3939 126.662 40.41 124.933 40.4288 123.204C40.4276 122.435 40.4276 122.435 40.4263 121.65C40.4372 120.946 40.4372 120.946 40.4483 120.228C40.451 119.821 40.4536 119.414 40.4564 118.995C40.749 117.577 41.2844 117.055 42.4147 116.177C43.9736 115.956 43.9736 115.956 45.8772 115.952C46.5896 115.947 47.3021 115.941 48.0361 115.935C48.8141 115.939 49.5922 115.942 50.3702 115.946C51.1678 115.945 51.9654 115.943 52.763 115.941C54.4342 115.939 56.1053 115.942 57.7764 115.95C59.9186 115.96 62.0605 115.955 64.2026 115.944C65.8495 115.938 67.4963 115.94 69.1432 115.944C69.9331 115.946 70.723 115.944 71.5128 115.94C72.6166 115.936 73.7204 115.944 74.8242 115.952C75.7664 115.954 75.7664 115.954 76.7277 115.956C78.2866 116.177 78.2866 116.177 79.3586 116.945C80.4566 118.551 80.2152 120.105 80.1918 122.016C80.1894 122.413 80.1869 122.809 80.1844 123.217C80.1747 124.481 80.1529 125.745 80.1308 127.009C80.1221 127.866 80.1142 128.724 80.1071 129.582C80.088 131.683 80.058 133.783 80.0223 135.884C80.3525 135.79 80.6827 135.695 81.023 135.598C82.3462 135.302 83.4878 135.238 84.8408 135.248C85.3032 135.25 85.7656 135.252 86.242 135.253C86.7194 135.258 87.1967 135.263 87.6885 135.268C88.1748 135.271 88.661 135.273 89.1621 135.276C90.3584 135.283 91.5547 135.293 92.751 135.304C92.7519 134.701 92.7527 134.097 92.7535 133.476C92.7632 127.787 92.7879 122.099 92.8275 116.41C92.8473 113.486 92.8618 110.561 92.8642 107.637C92.8667 104.814 92.8831 101.992 92.9092 99.1697C92.9168 98.0931 92.9193 97.0164 92.9166 95.9398C92.9138 94.4311 92.9288 92.9235 92.9481 91.415C92.9431 90.9701 92.9381 90.5253 92.933 90.0669C92.9807 87.8372 93.2626 86.7086 94.5864 84.8911C96.4629 83.5462 97.3555 83.3524 99.6386 83.3435C100.312 83.3344 100.986 83.3252 101.681 83.3158C102.765 83.3246 102.765 83.3246 103.871 83.3336C104.617 83.3308 105.364 83.328 106.133 83.3252C107.711 83.3209 109.289 83.3271 110.866 83.3407C112.884 83.3572 114.901 83.3476 116.919 83.3303C118.849 83.3173 120.78 83.3264 122.711 83.3336C123.433 83.3277 124.156 83.3218 124.9 83.3158C125.911 83.3295 125.911 83.3295 126.943 83.3435C127.534 83.3458 128.125 83.3481 128.734 83.3505C131.162 83.9006 131.871 84.5122 133.252 86.6166C133.679 89.2117 133.633 91.782 133.605 94.407C133.608 95.209 133.611 96.011 133.615 96.8129C133.622 98.5386 133.62 100.264 133.611 101.99C133.597 104.727 133.604 107.463 133.614 110.201C133.628 115.033 133.624 119.865 133.617 124.697C133.606 131.948 133.609 139.198 133.629 146.448C133.635 149.16 133.633 151.871 133.623 154.583C133.618 156.284 133.621 157.985 133.625 159.687C133.626 160.831 133.618 161.976 133.61 163.12C133.63 167.8 134.201 172.096 135.172 176.654C136.129 181.811 135.694 186.687 134.684 191.781C134.603 192.205 134.521 192.629 134.437 193.066C134.237 194.099 134.034 195.132 133.83 196.164C134.578 196.163 135.327 196.162 136.097 196.16C143.429 196.148 150.761 196.14 158.093 196.134C161.855 196.131 165.618 196.127 169.38 196.121C197.648 196.07 225.909 196.382 254.174 196.744C254.173 196.129 254.173 196.129 254.172 195.502C254.134 171.219 254.104 146.936 254.086 122.653C254.084 119.74 254.081 116.826 254.079 113.912C254.079 113.332 254.078 112.752 254.078 112.154C254.07 102.754 254.056 93.3531 254.04 83.9525C254.024 74.3113 254.015 64.6701 254.011 55.0288C254.009 49.0766 254.001 43.1244 253.987 37.1721C253.978 33.094 253.975 29.0159 253.977 24.9378C253.978 22.5827 253.977 20.2277 253.967 17.8726C253.959 15.718 253.959 13.5636 253.965 11.4091C253.966 10.2572 253.958 9.10528 253.95 7.9534C253.954 7.27241 253.957 6.59142 253.961 5.88979C253.96 5.00634 253.96 5.00634 253.959 4.10504C254.346 1.35214 255.182 0.34472 257.935 0ZM100.851 91.2535C100.851 106.364 100.851 121.475 100.851 137.043C103.142 138 105.433 138.956 107.794 139.941C115.03 143.462 120.064 148.176 125.73 153.852C125.73 133.195 125.73 112.537 125.73 91.2535C117.52 91.2535 109.31 91.2535 100.851 91.2535ZM48.2005 123.712C48.2005 134.232 48.2005 144.752 48.2005 155.591C49.9986 153.79 51.5422 152.168 53.1184 150.23C57.7598 144.977 63.9111 141.71 70.1865 138.782C70.9502 138.4 71.7139 138.017 72.5008 137.623C72.5008 133.032 72.5008 128.442 72.5008 123.712C64.4817 123.712 56.4626 123.712 48.2005 123.712ZM56.269 157.559C48.9373 167.396 46.303 178.35 47.777 190.486C49.5144 200.491 55.3837 209.642 63.4899 215.658C67.7178 218.601 72.2227 220.687 77.1294 222.247C77.5456 222.389 77.9618 222.531 78.3906 222.677C87.8865 225.379 98.9124 223.151 107.405 218.552C117.113 212.638 123.758 203.973 126.871 193.026C129.565 181.707 127.499 171.03 121.608 161.061C115.703 152.189 106.713 146.045 96.4033 143.528C81.2222 140.642 66.3729 145.654 56.269 157.559ZM55.1435 218.769C54.3387 219.693 53.5593 220.639 52.793 221.595C52.3686 222.119 51.9442 222.644 51.507 223.184C50.4022 224.439 50.4022 224.439 50.5148 225.725C51.4852 226.548 51.4852 226.548 52.7523 227.359C53.2169 227.67 53.6816 227.98 54.1603 228.299C54.6518 228.621 55.1433 228.943 55.6497 229.275C56.1367 229.601 56.6238 229.928 57.1255 230.264C59.4249 232.002 59.4249 232.002 62.0864 232.68C63.232 230.385 64.3776 228.09 65.5579 225.725C64.6867 225.115 63.8156 224.505 62.9181 223.877C61.0753 222.587 59.2417 221.287 57.4216 219.965C55.9892 218.714 55.9892 218.714 55.1435 218.769ZM44.2183 232.585C41.6133 235.54 39.0826 238.533 36.6448 241.628C35.4136 243.187 34.1622 244.727 32.9044 246.265C32.4733 246.792 32.0422 247.32 31.598 247.863C30.6875 248.973 29.7743 250.081 28.8588 251.187C27.5799 252.737 26.3151 254.297 25.0574 255.865C24.7799 256.198 24.5025 256.531 24.2166 256.875C22.7899 258.737 22.3809 260.43 22.5284 262.775C23.1391 266.201 24.6258 268.518 27.3717 270.645C30.4433 272.501 33.7191 272.938 37.2075 272.094C40.7459 269.849 42.398 266.601 44.4036 263.001C44.746 262.4 45.0884 261.798 45.4412 261.179C46.1731 259.893 46.9022 258.606 47.629 257.318C48.8188 255.21 50.0256 253.113 51.2358 251.017C51.4365 250.67 51.6372 250.322 51.844 249.964C52.242 249.275 52.64 248.586 53.0381 247.897C54.515 245.339 55.9858 242.777 57.4578 240.215C55.286 237.915 52.9858 236.061 50.4063 234.238C49.861 233.843 49.861 233.843 49.3046 233.44C46.7535 231.3 46.7535 231.3 44.2183 232.585Z" fill="#BBDDFD"/>
<path d="M225.824 25.7567C229.178 27.9535 231.002 30.6587 232.188 34.451C232.925 39.6435 232.418 44.0724 229.296 48.3618C226.474 51.5932 223.205 53.2915 218.962 53.7618C215.35 53.9041 212.773 53.5017 209.644 51.6539C208.448 51.1369 208.448 51.1369 207.12 51.5927C205.15 52.6457 203.404 53.9308 201.632 55.281C198.542 57.5953 195.418 59.8414 192.23 62.0191C191.849 62.2823 191.468 62.5455 191.075 62.8167C189.172 64.1308 187.258 65.4211 185.315 66.6764C180.925 69.357 180.925 69.357 178.417 73.6476C178.331 74.0698 178.245 74.4919 178.157 74.9269C177.256 78.1185 174.384 80.577 171.618 82.2332C167.826 84.0252 163.677 84.4533 159.593 83.3223C155.862 81.7775 152.589 79.6901 150.854 75.9621C149.361 73.3269 147.369 72.6538 144.604 71.6937C144.136 71.5193 143.668 71.3449 143.186 71.1653C141.699 70.615 140.206 70.0848 138.712 69.5541C137.705 69.1829 136.699 68.8104 135.694 68.4367C131.11 66.5392 131.109 66.5392 126.309 65.7503C125.534 66.7137 124.763 67.6803 123.994 68.6484C119.937 71.8094 115.719 72.6397 110.687 72.1261C108.218 71.5357 106.437 70.6974 104.467 69.0831C103.306 67.9424 103.306 67.9424 102.151 68.1503C100.352 68.8396 98.8474 69.8799 97.2712 70.9669C96.91 71.212 96.5489 71.457 96.1768 71.7095C95.3383 72.2793 94.5009 72.8508 93.6644 73.4235C91.9271 74.6125 90.1865 75.7966 88.4456 76.9804C85.3267 79.1019 82.2103 81.2269 79.0951 83.354C78.0576 84.0602 77.016 84.7603 75.9723 85.4573C75.7419 86.8045 75.7419 86.8045 75.7553 88.3554C75.4518 92.8173 73.8978 96.5217 70.6204 99.6217C66.9271 102.449 62.6135 103.41 58.0364 102.846C53.9351 102.066 50.951 100.185 48.2005 97.0497C45.8196 93.4168 44.9585 89.7941 45.3076 85.4573C46.5128 80.3129 48.8068 76.6127 53.3151 73.7744C57.1326 72.028 61.9752 72.019 65.9602 73.1472C68.3706 74.1554 70.2396 75.2906 71.9222 77.3427C74.0926 76.5503 75.8945 75.5555 77.8097 74.2657C78.3802 73.8832 78.9506 73.5006 79.5384 73.1065C80.1396 72.6993 80.7408 72.2921 81.3603 71.8725C82.2845 71.2517 82.2845 71.2517 83.2274 70.6182C86.0419 68.7235 88.8466 66.8157 91.6323 64.8786C92.0591 64.582 92.4858 64.2853 92.9255 63.9797C93.7088 63.4328 94.4902 62.8832 95.2695 62.3305C97.8334 60.5338 97.8334 60.5338 99.1154 60.5338C98.9245 60.1512 98.7336 59.7687 98.5368 59.3746C98.0063 55.3315 98.9319 51.9201 100.851 48.3618C102.261 46.6954 102.261 46.6954 103.744 45.4637C104.209 45.0453 104.675 44.6269 105.154 44.1958C108.909 41.5352 113.196 41.485 117.63 41.986C122.595 43.5102 125.538 46.4628 127.972 50.9339C128.733 53.3493 128.755 55.1201 128.623 57.6357C128.949 57.7263 129.275 57.817 129.611 57.9104C133.937 59.1568 138.102 60.7413 142.292 62.3813C142.983 62.6499 143.675 62.9185 144.387 63.1953C146.076 63.8518 147.764 64.5103 149.452 65.1707C149.6 64.5573 149.749 63.9439 149.901 63.3119C151.166 59.3814 153.995 56.3219 157.66 54.4116C162.005 52.7906 166.797 52.8181 171.04 54.7014C174.103 56.4389 176.236 58.939 178.381 61.693C178.956 61.2851 179.532 60.8771 180.125 60.4568C185.395 56.7254 190.675 53.0079 195.968 49.3091C196.665 48.8211 196.665 48.8211 197.377 48.3233C197.787 48.0367 198.197 47.7502 198.619 47.4549C199.436 46.8735 200.237 46.2687 201.024 45.6473C202.102 44.8841 202.102 44.8841 203.259 44.8841C203.069 44.4298 202.878 43.9756 202.681 43.5075C201.329 38.5987 201.909 34.2494 204.417 29.8141C209.493 22.7595 218.538 21.4287 225.824 25.7567ZM211.215 34.1974C209.519 36.5639 209.522 37.8436 209.868 40.6774C210.553 43.3582 212.646 44.5843 214.831 46.0434C217.58 46.3143 218.902 46.328 221.376 45.0652C223.78 42.9932 224.566 41.7323 224.92 38.5446C224.812 36.0571 224.013 34.5944 222.353 32.7122C218.079 29.9198 214.558 30.3829 211.215 34.1974ZM107.794 51.8395C106.326 53.9276 106.058 55.0679 106.058 57.6357C106.514 60.2534 107.649 61.5915 109.53 63.4319C111.725 64.7952 113.294 64.6752 115.786 64.3262C117.62 63.87 118.658 63.0591 119.944 61.693C121.387 59.2336 121.65 56.9507 121.101 54.158C119.766 51.883 118.409 50.361 115.894 49.5211C112.391 49.2334 110.54 49.4089 107.794 51.8395ZM157.76 64.496C156.37 66.7127 156.544 69.0242 156.973 71.5465C157.926 73.4018 159.273 74.5884 160.951 75.8212C163.671 76.6227 165.612 76.5172 168.111 75.1691C170.307 73.369 171.225 72.367 171.944 69.5903C172.048 66.5656 171.066 64.9215 169.123 62.6711C165.277 59.4199 160.807 61.0798 157.76 64.496ZM55.1435 81.9796C53.5823 84.1981 52.84 85.9863 52.793 88.7177C53.6973 91.5955 55.026 93.3579 57.6386 94.9848C60.5925 95.6042 62.9487 95.3018 65.4855 93.6444C67.3471 91.7795 68.0647 90.5229 68.1615 87.9207C68.119 85.013 67.2649 83.6091 65.2731 81.5608C63.3951 79.9669 61.7083 80.0774 59.3382 80.123C57.4562 80.2932 56.5442 80.6967 55.1435 81.9796Z" fill="#BBDDFD"/>
<path d="M204.461 67.1892C205.185 67.1819 205.909 67.1746 206.655 67.1671C207.446 67.1712 208.236 67.176 209.027 67.1813C209.838 67.1797 210.648 67.1775 211.459 67.1746C213.157 67.1711 214.856 67.1761 216.554 67.1869C218.731 67.2001 220.908 67.1925 223.085 67.1786C224.759 67.1703 226.433 67.1729 228.106 67.1789C228.909 67.1805 229.712 67.1786 230.515 67.1732C231.636 67.1673 232.758 67.1779 233.88 67.1892C234.518 67.191 235.157 67.1929 235.815 67.1948C237.396 67.4892 237.396 67.4892 238.348 68.3973C239.403 70.2964 239.374 72.0032 239.356 74.1197C239.359 74.5555 239.362 74.9914 239.365 75.4405C239.373 76.9018 239.369 78.3628 239.365 79.8242C239.368 80.8715 239.372 81.9188 239.377 82.9661C239.388 85.8114 239.387 88.6567 239.384 91.502C239.382 93.876 239.385 96.2499 239.389 98.6238C239.397 104.223 239.396 109.822 239.389 115.421C239.383 121.201 239.391 126.981 239.406 132.761C239.419 137.721 239.423 142.681 239.42 147.641C239.418 150.605 239.419 153.568 239.429 156.532C239.438 159.318 239.436 162.104 239.425 164.89C239.423 165.913 239.425 166.937 239.431 167.96C239.438 169.355 239.432 170.75 239.421 172.145C239.427 172.552 239.432 172.958 239.438 173.377C239.409 175.316 239.245 176.308 238.056 177.868C236.415 179.07 235.375 179.07 233.351 179.076C232.652 179.083 231.953 179.09 231.233 179.098C230.48 179.093 229.728 179.088 228.952 179.084C228.17 179.085 227.387 179.087 226.605 179.09C224.967 179.094 223.329 179.089 221.691 179.078C219.593 179.065 217.496 179.072 215.399 179.086C213.784 179.095 212.169 179.092 210.554 179.086C209.405 179.084 208.256 179.091 207.108 179.098C206.059 179.087 206.059 179.087 204.99 179.076C204.067 179.073 204.067 179.073 203.126 179.07C201.05 178.689 200.486 178.132 199.209 176.457C198.983 174.938 198.899 173.663 198.919 172.145C198.916 171.709 198.913 171.274 198.91 170.824C198.902 169.363 198.911 167.902 198.919 166.441C198.917 165.393 198.914 164.346 198.91 163.299C198.902 160.453 198.908 157.608 198.918 154.763C198.926 151.787 198.922 148.812 198.92 145.836C198.918 140.839 198.926 135.841 198.939 130.844C198.955 125.064 198.956 119.284 198.949 113.503C198.943 107.946 198.946 102.389 198.955 96.8325C198.958 94.466 198.958 92.0995 198.955 89.733C198.952 86.947 198.958 84.1611 198.971 81.3752C198.974 80.3517 198.974 79.3283 198.971 78.3049C198.968 76.9097 198.975 75.5149 198.985 74.1197C198.982 73.7131 198.978 73.3064 198.975 72.8875C198.997 71.1298 199.133 69.946 199.993 68.3973C201.417 67.0392 202.522 67.1948 204.461 67.1892ZM206.731 74.4446C206.731 106.387 206.731 138.33 206.731 171.241C214.941 171.241 223.151 171.241 231.61 171.241C231.61 139.298 231.61 107.355 231.61 74.4446C223.4 74.4446 215.19 74.4446 206.731 74.4446Z" fill="#BBDDFD"/>
<path d="M152.286 103.78C152.973 103.775 153.661 103.769 154.369 103.763C155.479 103.769 155.479 103.769 156.612 103.774C157.373 103.772 158.135 103.771 158.92 103.769C160.531 103.767 162.142 103.77 163.752 103.778C165.815 103.788 167.877 103.783 169.939 103.772C171.909 103.764 173.879 103.77 175.849 103.774C176.589 103.771 177.33 103.767 178.092 103.763C178.78 103.769 179.467 103.774 180.175 103.78C180.78 103.781 181.384 103.783 182.007 103.784C183.862 104.043 184.56 104.451 185.902 105.744C186.192 107.066 186.192 107.066 186.192 108.648C186.198 109.248 186.204 109.847 186.209 110.465C186.204 111.123 186.198 111.781 186.192 112.458C186.197 113.497 186.197 113.497 186.202 114.558C186.208 116.458 186.204 118.359 186.194 120.259C186.186 122.247 186.19 124.235 186.192 126.223C186.193 129.562 186.186 132.901 186.172 136.239C186.157 140.1 186.156 143.961 186.162 147.822C186.169 151.535 186.165 155.248 186.157 158.961C186.154 160.542 186.154 162.122 186.156 163.703C186.158 165.91 186.149 168.116 186.136 170.323C186.139 170.98 186.141 171.638 186.144 172.316C186.138 172.915 186.132 173.515 186.126 174.133C186.125 174.655 186.124 175.177 186.122 175.714C185.857 177.309 185.454 177.826 184.166 178.776C182.608 178.997 182.608 178.997 180.704 179.001C179.992 179.006 179.279 179.012 178.545 179.017C177.767 179.014 176.989 179.011 176.211 179.007C175.413 179.008 174.616 179.01 173.818 179.012C172.147 179.014 170.476 179.011 168.805 179.002C166.663 178.993 164.521 178.998 162.379 179.009C160.732 179.015 159.085 179.013 157.438 179.008C156.648 179.007 155.858 179.009 155.068 179.013C153.965 179.017 152.861 179.009 151.757 179.001C150.815 178.999 150.815 178.999 149.853 178.997C148.037 178.739 147.647 178.476 146.559 177.037C146.339 175.714 146.339 175.714 146.335 174.133C146.329 173.533 146.323 172.933 146.317 172.316C146.32 171.658 146.322 171 146.325 170.323C146.321 169.63 146.317 168.937 146.313 168.223C146.304 166.323 146.303 164.422 146.307 162.522C146.308 160.936 146.305 159.35 146.301 157.764C146.293 154.023 146.294 150.282 146.301 146.542C146.307 142.68 146.299 138.82 146.284 134.958C146.271 131.645 146.267 128.331 146.27 125.017C146.272 123.037 146.271 121.058 146.261 119.078C146.253 116.871 146.259 114.665 146.269 112.458C146.263 111.801 146.257 111.143 146.252 110.465C146.257 109.866 146.263 109.266 146.269 108.648C146.269 108.126 146.269 107.604 146.269 107.066C146.559 105.744 146.559 105.744 147.635 104.707C149.261 103.785 150.422 103.784 152.286 103.78ZM154.08 111.54C154.08 131.241 154.08 150.943 154.08 171.241C162.099 171.241 170.119 171.241 178.381 171.241C178.381 151.54 178.381 131.838 178.381 111.54C170.362 111.54 162.342 111.54 154.08 111.54Z" fill="#BBDDFD"/>
<path d="M104.431 154.251C112.662 159.591 117.798 166.557 120.299 176.068C121.652 185.434 120.458 194.793 114.737 202.54C108.736 210.19 101.333 214.947 91.63 216.125C82.255 217.064 74.1127 214.75 66.715 208.916C66.1415 208.469 65.5679 208.022 64.977 207.562C58.7467 202.309 55.4673 194.235 54.5649 186.311C53.7581 176.697 56.9186 167.739 63.0944 160.411C73.8665 149.34 90.965 146.788 104.431 154.251ZM69.4994 164.838C64.6088 170.371 61.85 176.84 61.9621 184.25C62.5604 191.377 65.5151 197.686 70.7651 202.54C76.7545 207.077 83.1098 209.574 90.6831 208.683C97.9171 207.344 103.785 204.348 108.373 198.483C112.472 191.715 114.019 185.013 112.732 177.127C110.997 170.628 107.023 164.963 101.333 161.399C90.5771 155.599 78.6693 156.187 69.4994 164.838Z" fill="#BBDDFD"/>
</g>
</svg>
